<svg width="32" height="32" viewBox="0 0 32 32" fill="none" xmlns="http://www.w3.org/2000/svg">
<path fill-rule="evenodd" clip-rule="evenodd" d="M17.0536 4.30375C18.0786 3.05688 19.8286 2.10188 21.3286 2C21.5836 3.70563 20.8861 5.36813 19.9661 6.54125C19.0111 7.77375 17.3761 8.73563 15.7786 8.73563H15.6586C15.3586 7.11 16.1236 5.43375 17.0536 4.30375ZM18.7121 9.23612C19.5685 8.91105 20.5098 8.55374 21.8835 8.55374L21.8772 8.55624C23.7816 8.55624 25.8016 9.59874 27.2391 11.3987C22.5297 13.9869 23.2947 20.7375 28.0566 22.545C27.4066 24.0044 27.0916 24.6519 26.2441 25.9419C25.0666 27.7356 23.4097 29.9731 21.3472 29.995H21.3097C20.4859 29.995 19.9385 29.7435 19.3489 29.4727C18.661 29.1567 17.9157 28.8144 16.6072 28.8144H16.5697C15.2418 28.8218 14.4745 29.1653 13.7693 29.4809C13.1645 29.7516 12.6055 30.0019 11.7778 30.0019H11.7403C9.67783 29.98 8.10533 27.9606 6.92783 26.16C3.63595 21.13 3.29095 15.2256 5.32345 12.0906C6.77095 9.86749 9.05033 8.56249 11.1878 8.56249C12.3325 8.56249 13.2543 8.89049 14.1315 9.20263C14.9277 9.48597 15.6873 9.75624 16.5435 9.75624C17.3418 9.75624 17.9974 9.5074 18.7121 9.23612Z" fill="#E94057"/>
</svg>
