<?xml version="1.0" ?><!DOCTYPE svg  PUBLIC '-//W3C//DTD SVG 1.1//EN'  'http://www.w3.org/Graphics/SVG/1.1/DTD/svg11.dtd'><svg enable-background="new 0 0 1010 1010" id="love-birds" version="1.1" viewBox="0 0 1010 1010" xml:space="preserve" xmlns="http://www.w3.org/2000/svg" xmlns:xlink="http://www.w3.org/1999/xlink"><g id="love-birds-label"><path d="M505,0C226.1108,0,0,226.1157,0,504.9805C0,783.8945,226.1108,1010,505,1010   c278.875,0,505-226.1055,505-505.0195C1010,226.1157,783.875,0,505,0z" fill="#F6BBBB"/></g><g id="love-birds-love-birds"><path d="M505,403.2305c0-66.2666,53.6563-119.9571,119.9863-119.9571c66.2325,0,119.9971,53.6905,119.9971,119.9571   c0,34.7534-15.0313,65.7192-38.5752,87.6797l0.3262,0.0644L505,692.6982L303.1777,490.9746   c0.084-0.0644,0.148-0.0644,0.2315-0.1582c-23.5283-21.9062-38.3926-52.8325-38.3926-87.5859   c0-66.2666,53.6758-119.9571,120.002-119.9571C451.2402,283.2734,505,336.9639,505,403.2305z" fill="#FED78F"/><g><path d="M505.2217,373.6802c-2.8653-6.5098-9.3452-11.0669-16.9248-11.0669    c-10.1743,0-17.5078,8.4287-18.4444,18.4492c0,0-0.4882,2.4858,0.5967,6.9785c1.5088,6.1055,5.0303,11.501,9.73,15.668    l25.0425,21.561l24.6045-21.561c4.7051-4.167,8.2158-9.5625,9.7246-15.668c1.0654-4.4927,0.6015-6.9785,0.6015-6.9785    c-0.9267-10.0205-8.2646-18.4492-18.4736-18.4492C514.1387,362.6133,508.082,367.1704,505.2217,373.6802z" fill="#F05354"/><path d="M505.2217,432.8896c-1.77,0-3.5405-0.6118-4.9707-1.8496l-25.043-21.5561    c-6.1494-5.4448-10.3218-12.2007-12.1562-19.6182c-1.1983-4.9712-0.9668-8.3345-0.7598-9.7695    c1.46-14.3316,12.5957-25.1069,26.0049-25.1069c6.2876,0,12.2153,2.2685,16.8413,6.1743    c4.5171-3.9351,10.2876-6.1743,16.5405-6.1743c13.5127,0,24.7178,10.9086,26.0596,25.373    c0.0781,0.2422,0.5615,3.8027-0.7793,9.4443c-1.835,7.4815-6.0176,14.2373-12.0928,19.6084l-24.624,21.5806    C508.8076,432.2583,507.0176,432.8896,505.2217,432.8896L505.2217,432.8896z M477.3335,382.5078    c0.02,0-0.0493,1.3809,0.5229,3.7432c1.0752,4.3594,3.625,8.438,7.378,11.7519l19.9433,17.1719l19.628-17.1963    c3.708-3.2847,6.2628-7.3584,7.3486-11.7568c0.6113-2.5796,0.4727-4.0196,0.4727-4.0293    c-0.5918-6.1548-4.5079-11.9644-10.9483-11.9644c-4.1426,0-7.6933,2.4361-9.4785,6.5196    c-1.2178,2.7617-3.9502,4.5571-6.9731,4.5571h-0.0054c-3.0225,0-5.7549-1.7901-6.9727-4.5518    c-1.7412-3.9653-5.6469-6.5249-9.9521-6.5249c-6.4209,0-10.3223,5.8096-10.8594,11.5498    c-0.0249,0.2417-0.0596,0.4932-0.104,0.7398C477.3335,382.5078,477.3335,382.5078,477.3335,382.5078L477.3335,382.5078z" fill="#313233"/></g><g><path d="M251.6963,716.9912c-2.249-2.3076-4.0098-6.4795-5.2227-12.3877c-0.2959,0.207-6.791,4.8819-12.3784,5.207    l-3.0625,0.1778l-2.165-2.1797c-2.3872-2.377-3.2847-6.9834-2.6978-13.71c-0.1084,0.0401-4.5913,1.7061-9.123,1.7061    c-0.9473,0-1.6573-0.0781-2.1114-0.1182l0.3604-6.4111l-6.5342,1.8252c-1.0459-3.0381-0.4394-7.5264,1.7949-13.335    c-0.5478,0.0489-2.624,0.2754-5.2622,0.2754c-3.5112,0-6.4409-0.3652-8.7046-1.0742l-7.5795-2.3779l3.4521-7.1602    c1.0503-2.1406,2.8652-4.626,5.4097-7.3779c-3.6245-1.1738-8.7041-3.6494-11.2735-6.3321l-4.4336-4.5966l4.2857-4.7442    c1.7803-1.9727,4.7441-3.9746,8.7983-5.9277l0.6016-0.2764l0.6406-0.1679c60.0137-15.6622,101.9717-35.7735,104.4326-50.0655    l0.0791-0.5224l0.1778-0.5039c0.8974-2.6524,9.0888-26.1075,21.7627-31.6709c-39.961-50.4258-90.0318-117.6934-105.502-146.1836    l9.6953-9.0645c10.7114,6.7959,33.5352,18.6026,66.0596,21.3496l0.9663,0.0835l0.9077,0.3452    c0.4287,0.1631,0.8477,0.3203,1.3115,0.4043l1.4502-0.3994l1.6221,0.1924c5.2471,0.8633,24.7964,6.2041,55.8408,38.5161    c0.3946,0.439,5.6914,6.229,16.2451,6.229c6.6827,0,13.794-2.3183,21.7388-7.0967c1.0308-0.7695,36.2769-25.8764,56.0532-25.8764    c2.3374,0,4.3692,0.3598,6.0703,1.0698c7.7432,3.2651,19.3223,11.2544,26.7544,17.4683l9.6563,8.0825l-12.0234,3.7334    c-16.3829,5.0752-37.0318,18.2519-42.3775,52.1767c-0.0644,0.5236-10.2432,75.0596-93.6074,90.0723l-0.7202,0.0879    c-2.3325,0.168-14.3706,2.0713-22.4732,23.0215c-0.2519,0.6113-15.9492,36.415-52.5517,81.5693    c-1.4004,1.9824-5.583,6.6279-9.5723,7.7627l-3.9404,1.1338L251.6963,716.9912z" fill="#FFFFFF"/><path d="M371.54,466.7158c-9.7939,0-15.1152-5.04-16.082-6.0512c-36.3066-37.8062-56.9209-38.8418-57.1279-38.8516    l-5.3067-0.478l-1.9433-4.1231c-4.9561-13.6807,17.3843-60.9062,29.8906-83.9614l11.2393-20.7129l1.6328,23.4995    c3.082,44.291,43.8027,81.7568,48.4385,85.8843l0.4384,0.3999l0.3799,0.4683c18.1289,22.9711,7.9502,34.9057,6.7368,36.1879    l-0.9961,2.9102l-3.1465,1.6123C380.6484,465.6357,375.8896,466.7158,371.54,466.7158L371.54,466.7158z" fill="#FFFFFF"/><path d="M389.4072,467.0117c-2.1054,0-4.2016-0.8681-5.7109-2.5693c-2.7813-3.1563-2.4902-7.9649,0.6611-10.7559    c0.1182-0.1484,7.2051-7.8515-7.1953-26.1181c-5.5381-4.9414-46.1206-42.6392-50.707-88.4395    c-18.2569,34.1367-30.9707,68.1553-28.1699,75.7061c3.6894,1.1435,6.1352,4.9165,5.3906,8.7583    c-0.7842,4.0639-4.4483,6.8305-8.5615,6.0952c-4.6309-0.7788-8.3096-3.5508-10.3516-7.7866    c-9.2861-19.2632,21.5664-77.9302,31.2422-95.4468c2.2734-4.1778,7.6191-14.0557,16.2099-12.502    c5.6768,1.0108,8.4385,6.3965,9.1241,11.1011c0.0786,0.5278,0.0986,1.0601,0.0639,1.5933    c-2.9692,46.3964,45.815,89.4746,46.3081,89.9082c0.3404,0.3007,0.6612,0.6264,0.9419,0.9814    c24.4263,30.4775,6.5738,46.8755,5.7993,47.5659C393.0024,466.3799,391.2021,467.0117,389.4072,467.0117L389.4072,467.0117z" fill="#313233"/><path d="M256.3765,726.7266c-4.6509,0-10.4355-2.1602-14.4253-11.086c-2.5298,0.9561-5.3408,1.6562-8.167,1.6562    c-4.3096,0-8.0283-1.5879-10.7608-4.5663c-2.1699-2.3672-3.5752-5.4746-4.226-9.3701c-0.5772,0.0498-1.1641,0.0595-1.7559,0.0595    c-7.7524,0-11.7671-3.4726-13.769-6.3916c-2.1407-3.1172-2.9834-6.9541-2.5201-11.5791    c-8.3149-0.7695-13.6655-3.7881-15.9487-9.0058c-2.0615-4.7247-0.7695-9.4981,1.3657-13.4336    c-4.5913-2.8702-9.0102-7.1709-9.395-13.2072c-0.6953-10.791,11.7676-16.6288,15.8652-18.5331    c0.4195-0.1972,0.8584-0.3554,1.3072-0.4736c51.876-13.4727,98.3515-34.0869,99.4565-44.1182    c0.064-0.5029,0.1626-1.0059,0.3252-1.4893c0.8037-2.5049,7.0576-21.0781,18.2373-31.5331    C197.1816,408.1968,203.5781,394.9697,205.6987,390.5811c1.6128-3.3291,4.8726-5.3165,8.7339-5.3165    c2.4805,0,5.1983,0.8135,8.5518,2.5499c0.498,0.2563,0.9717,0.5717,1.4004,0.9316c0.2617,0.2222,28.1299,23.0459,74.1767,25.4521    c2.2539,0.0645,24.5894,1.8399,62.3853,41.1944c0.2221,0.2314,3.7085,3.7085,10.5932,3.7085    c5.188,0,11.0371-1.9234,17.3643-5.7158c3.418-2.4854,38.6001-27.2623,60.4375-27.2623c3.3486,0,6.3813,0.5577,9.0146,1.667    c10.5245,4.4239,34.9258,21.0782,39.5079,30.7144c1.0898,2.3081,0.9614,5.0151-0.3555,7.2002    c-1.3115,2.1899-3.6397,3.5708-6.189,3.6841c-1.5683,0.084-39.226,2.6284-46.3525,47.8906    c-0.0689,0.5918-11.4317,80.9287-100.2652,96.6406c-0.434,0.0889-0.8779,0.1192-1.3217,0.1192    c-0.1187,0.0293-9.0005,0.9365-15.7715,18.4336c-0.7691,1.7753-16.4815,37.5205-53.3799,83.0195    C273.1538,717.041,265.8105,726.7266,256.3765,726.7266L256.3765,726.7266z M246.4736,696.9883    c0.9272,0,1.8496,0.1582,2.7373,0.5039c2.4209,0.9267,4.2012,3.0273,4.7295,5.582c1.0601,5.1582,2.2734,7.3779,2.8848,8.2061    c1.4893-0.7491,3.9746-3.166,5.272-4.9903c35.7837-44.1484,51.269-79.2519,51.4174-79.6064    c9.5376-24.6484,24.8306-27.5293,28.9781-27.8447c77.1753-13.9073,87.019-80.8985,87.3984-83.7442    c6.022-38.2544,30.3198-52.5464,46.3032-57.8427c-7.1064-5.7803-17.2802-12.6993-23.7461-15.4214    c-0.5175-0.2124-1.4746-0.4732-3.1064-0.4732c-12.7979,0-38.7383,15.1841-52.0781,24.7515    c-9.2617,5.5727-17.7393,8.2261-25.7237,8.2261c-13.7002,0-20.9795-7.7129-21.7685-8.5909    c-32.9033-34.25-51.6587-36.3164-51.8311-36.3212c-34.1665-1.7857-59.0957-13.4688-72.4062-21.4678    c15.4702,27.1982,60.2348,88.1235,103.3818,142.5644c1.4697,1.8535,1.9922,4.2803,1.4151,6.5684    c-0.5669,2.2978-2.1651,4.1914-4.3301,5.1387c-7.6143,3.3437-14.9771,19.2929-17.586,27.0644    c-4.7099,26.5235-84.2177,49.3565-109.936,56.0733c-3.2402,1.5586-4.9565,2.8115-5.8296,3.5908    c1.5733,1.2715,4.7744,2.9385,7.5606,3.8457c2.4707,0.7988,4.3691,2.8115,5.0254,5.3359    c0.6508,2.5059-0.0098,5.1885-1.7754,7.0918c-1.9678,2.1309-3.0723,3.6797-3.689,4.7051    c1.1787,0.2568,2.9741,0.4834,5.5186,0.4834c2.3818,0,4.2211-0.1973,4.3793-0.2266c2.6285-0.2568,5.2764,0.8086,6.9043,2.9189    c1.6324,2.1015,2.0464,4.9121,1.0899,7.3974c-1.7114,4.4287-1.8399,6.6778-1.7852,7.5948    c0.2661,0.0498,0.6455,0.0888,1.1636,0.0888c2.5347,0,5.5532-0.8974,6.5049-1.2431c2.456-0.8672,5.1929-0.4727,7.2544,1.125    c2.0664,1.5879,3.1909,4.1132,2.959,6.707c-0.3848,4.3203,0.0493,6.3916,0.3354,7.2402c2.3521-0.2568,6.0069-2.1904,7.8657-3.5615    C243.293,697.4922,244.876,696.9883,246.4736,696.9883L246.4736,696.9883z" fill="#313233"/><path d="M638.4502,466.7158c9.8037,0,15.1299-5.04,16.0967-6.0512    c36.2969-37.8062,56.9111-38.8418,57.1191-38.8516l5.3057-0.478l1.9433-4.1231c4.9512-13.6807-17.3789-60.9062-29.8955-83.9614    l-11.2343-20.7129l-1.6378,23.4995c-3.0771,44.291-43.793,81.7568-48.4286,85.8843l-0.4532,0.3999l-0.3652,0.4683    c-18.1387,22.9711-7.96,34.9057-6.7363,36.1879l0.9863,2.9102l3.1465,1.6123    C629.3467,465.6357,634.1006,466.7158,638.4502,466.7158L638.4502,466.7158z" fill="#FFFFFF"/><path d="M455.4814,454.855c0,4.2065-3.4077,7.6196-7.624,7.6196c-4.207,0-7.6147-3.4131-7.6147-7.6196    c0-4.2114,3.4077-7.6196,7.6147-7.6196C452.0737,447.2354,455.4814,450.6436,455.4814,454.855z" fill="#313233"/></g><g><path d="M758.2988,716.9912c2.2491-2.3076,4.0049-6.4795,5.2276-12.3877c0.2959,0.207,6.7861,4.8819,12.3681,5.207    l3.0782,0.1778l2.1602-2.1797c2.3965-2.377,3.2842-6.9834,2.6924-13.71c0.0986,0.0401,4.5869,1.7061,9.1143,1.7061    c0.956,0,1.666-0.0781,2.1201-0.1182l-0.3653-6.4111l6.5401,1.8252c1.0449-3.0381,0.4433-7.5264-1.7959-13.335    c0.5625,0.0489,2.624,0.2754,5.2568,0.2754c3.5117,0,6.4512-0.3652,8.7197-1.0742l7.5752-2.3779l-3.4521-7.1602    c-1.0459-2.1406-2.8701-4.626-5.4151-7.3779c3.6299-1.1738,8.6993-3.6494,11.2833-6.3321l4.4287-4.5966l-4.2902-4.7442    c-1.7851-1.9727-4.7441-3.9746-8.7988-5.9277l-0.6016-0.2764l-0.6406-0.1679c-60.0078-15.6622-101.9668-35.7735-104.4326-50.0655    l-0.0889-0.5224l-0.1678-0.5039c-0.8965-2.6524-9.084-26.1075-21.7579-31.6709c39.9561-50.4258,90.042-117.6934,105.4981-146.1836    l-9.6963-9.0645c-10.7119,6.7959-33.5352,18.6026-66.0635,21.3496l-0.957,0.0835l-0.9082,0.3452    c-0.4434,0.1631-0.8477,0.3203-1.3115,0.4043l-1.4501-0.3994l-1.627,0.1924c-5.2373,0.8633-24.7969,6.2041-55.8457,38.5161    c-0.3848,0.439-5.6816,6.229-16.2451,6.229c-6.6875,0-13.7891-2.3183-21.7383-7.0967    c-1.0264-0.7695-36.2773-25.8764-56.0635-25.8764c-2.3173,0-4.3593,0.3598-6.0556,1.0698    c-7.7432,3.2651-19.3223,11.2544-26.749,17.4683l-9.6758,8.0825l12.0428,3.7334c16.3731,5.0752,37.0264,18.2519,42.3721,52.1767    c0.0596,0.5236,10.2383,75.0596,93.6123,90.0723l0.7207,0.0879c2.3271,0.168,14.3604,2.0713,22.4688,23.0215    c0.2558,0.6113,15.9482,36.415,52.5507,81.5693c1.4102,1.9824,5.5831,6.6279,9.5782,7.7627l3.9345,1.1338L758.2988,716.9912z" fill="#FFFFFF"/><path d="M620.4297,466.9619c-1.7354,0-3.4717-0.6064-4.8916-1.8642c-0.7793-0.6851-18.6221-17.0879,5.7998-47.5606    c0.2851-0.355,0.6016-0.6807,0.9463-0.9814c0.4931-0.4336,49.2773-43.5118,46.2978-89.9082c-0.0195-0.5332,0-1.0655,0.0694-1.5982    c0.7002-4.6997,3.4521-10.0854,9.1339-11.0962c8.6406-1.5488,13.9365,8.3296,16.2245,12.5313    c9.6562,17.4922,40.5089,76.1592,31.2275,95.4223c-2.042,4.231-5.7207,7.003-10.3467,7.7818    c-4.1523,0.7055-8.0879-2.0957-8.7881-6.2383c-0.6611-3.9404,1.8252-7.6836,5.6319-8.6499    c2.7519-7.6343-9.9717-41.6182-28.1992-75.6763c-4.5664,45.8052-45.174,83.503-50.7072,88.4444    c-14.4004,18.2714-7.3086,25.9746-7.0029,26.3003c2.8506,2.9389,2.9893,7.7182,0.1475,10.6772    C624.4541,466.1338,622.4326,466.9619,620.4297,466.9619L620.4297,466.9619z M712.3457,414.667l1.2725,7.5107l-1.253-7.5156    C712.3555,414.6621,712.3555,414.667,712.3457,414.667L712.3457,414.667z" fill="#313233"/><path d="M753.624,726.7266c-9.4395,0-16.7773-9.6856-18.1583-11.6289    c-36.6025-45.1045-52.3154-80.8497-52.956-82.3487c-6.8946-17.7734-15.7812-18.6806-16.1562-18.7207    c-0.2363-0.0195-0.8183-0.0693-1.0556-0.1084c-88.8389-15.7119-100.1905-96.0488-100.3096-96.8476    c-7.0918-45.0552-44.75-47.5996-46.3477-47.6836c-2.5342-0.1382-4.8525-1.5293-6.1543-3.709    c-1.2968-2.1846-1.4453-4.877-0.3553-7.1753c4.5771-9.6362,28.9882-26.2905,39.5029-30.7144    c2.6338-1.1093,5.6709-1.667,9.0244-1.667c21.8281,0,57.0195,24.7769,60.9648,27.6075    c5.7999,3.4472,11.6387,5.3706,16.8272,5.3706c6.8848,0,10.3857-3.482,10.5244-3.6245    c37.875-39.4385,60.2051-41.2139,62.6318-41.2784c46.1797-2.4209,73.7276-25.2202,74.004-25.4521    c0.4344-0.3599,0.8974-0.6753,1.4003-0.9316c3.3536-1.7364,6.0762-2.5499,8.5616-2.5499c3.8466,0,7.1211,1.9874,8.7285,5.3165    c2.1308,4.3886,8.5224,17.6157-106.2764,163.0742c11.1846,10.4551,17.4385,29.0283,18.2471,31.5331    c0.1582,0.4834,0.2666,0.9863,0.3262,1.499c1.0937,10.0312,47.58,30.6455,99.451,44.1084    c0.4434,0.1182,0.8877,0.2764,1.3116,0.4736c4.0927,1.9043,16.5507,7.7422,15.8603,18.5331    c-0.3848,6.0363-4.8037,10.3369-9.3906,13.2072c2.1308,3.9355,3.4228,8.7089,1.3613,13.4336    c-2.2783,5.2177-7.6339,8.2363-15.9482,9.0058c0.4531,4.625-0.375,8.4619-2.5254,11.5791    c-2.002,2.9092-6.0069,6.3916-13.7588,6.3916c-0.6016,0-1.1738-0.0097-1.7559-0.0595c-0.6513,3.8955-2.0517,7.0029-4.2314,9.3701    c-2.7227,2.9785-6.4502,4.5663-10.751,4.5663c-2.8311,0-5.6523-0.7002-8.1768-1.6562    C764.0586,724.5664,758.2793,726.7266,753.624,726.7266L753.624,726.7266z M667.498,598.8389    c4.1622,0.3154,19.4502,3.2256,29.1065,28.1396c0.0391,0.0596,15.5146,35.1631,50.9932,78.917    c1.7558,2.4063,4.162,4.6748,5.5721,5.3848c0.6115-0.8282,1.835-3.0479,2.8906-8.2061c0.5225-2.5547,2.3077-4.6553,4.7344-5.582    c2.4258-0.9277,5.1485-0.5625,7.2393,0.9658c1.9726,1.4209,5.6904,3.3936,7.8603,3.5811c0.2871-0.8194,0.7305-2.9005,0.336-7.2598    c-0.2168-2.6035,0.8974-5.1484,2.9785-6.7363c2.081-1.5782,4.8428-1.9922,7.2695-1.085c0.917,0.335,3.9355,1.2324,6.4805,1.2324    c0.5224,0,0.8974-0.039,1.1533-0.0888c0.0693-0.9171-0.0693-3.1661-1.7754-7.5948c-0.9561-2.4853-0.5421-5.2959,1.085-7.3974    c1.6377-2.1104,4.2217-3.2245,6.914-2.9189c0.1485,0.0293,1.9922,0.2266,4.3702,0.2266c2.5439,0,4.3495-0.2266,5.5127-0.4834    c-0.6115-1.0254-1.7256-2.5742-3.6788-4.7051c-1.7754-1.9033-2.4462-4.5957-1.7754-7.1113    c0.6514-2.5147,2.5645-4.5274,5.0499-5.3164c2.7617-0.9072,5.9677-2.5742,7.5262-3.8457    c-0.8681-0.7793-2.5849-2.0322-5.8291-3.5908c-25.7137-6.7168-105.2119-29.5498-109.9365-56.0733    c-2.6143-7.7715-10.001-23.7402-17.5762-27.0644c-2.1602-0.9473-3.7676-2.8409-4.3398-5.1387    c-0.5625-2.2881-0.0498-4.7149,1.4199-6.5684c43.1426-54.436,87.9014-115.3564,103.3672-142.5547    c-13.2861,7.9942-38.1709,19.6724-72.2188,21.4527c-0.1572,0.0151-18.9375,1.9038-52.1865,36.5337    c-0.6015,0.6758-7.8808,8.3838-21.5908,8.3838c-7.9795,0-16.4619-2.6534-25.1904-7.8809    c-10.1299-7.2246-38.2207-25.0967-52.6016-25.0967c-1.6367,0-2.6035,0.2559-3.1162,0.4732    c-6.4502,2.7221-16.6201,9.6313-23.7315,15.4165c15.9786,5.2915,40.2618,19.5341,46.2793,57.6504    C580.4941,517.9404,590.3271,584.9316,667.498,598.8389L667.498,598.8389z" fill="#313233"/><path d="M569.7627,454.855c0,4.2065-3.4131,7.6196-7.624,7.6196c-4.2022,0-7.6153-3.4131-7.6153-7.6196    c0-4.2114,3.4131-7.6196,7.6153-7.6196C566.3496,447.2354,569.7627,450.6436,569.7627,454.855z" fill="#313233"/></g></g></svg>