<svg width="19" height="17" viewBox="0 0 19 17" fill="none" xmlns="http://www.w3.org/2000/svg">
<path fill-rule="evenodd" clip-rule="evenodd" d="M6.41693 1.02087C6.55103 0.752671 6.82516 0.583252 7.12502 0.583252H11.875C12.1749 0.583252 12.449 0.752671 12.5831 1.02087L13.5518 2.95825H16.2292C17.3222 2.95825 18.2084 3.84436 18.2084 4.93742V14.4374C18.2084 15.5305 17.3222 16.4166 16.2292 16.4166H2.77085C1.67779 16.4166 0.791687 15.5305 0.791687 14.4374V4.93742C0.791687 3.84436 1.67779 2.95825 2.77085 2.95825H5.44824L6.41693 1.02087ZM7.21846 2.95825H11.7816L11.3857 2.16659H7.6143L7.21846 2.95825ZM2.77085 4.54159C2.55224 4.54159 2.37502 4.71881 2.37502 4.93742V14.4374C2.37502 14.656 2.55224 14.8333 2.77085 14.8333H16.2292C16.4478 14.8333 16.625 14.656 16.625 14.4374V4.93742C16.625 4.71881 16.4478 4.54159 16.2292 4.54159H2.77085ZM5.54169 9.68742C5.54169 7.50128 7.31388 5.72909 9.50002 5.72909C11.6862 5.72909 13.4584 7.50128 13.4584 9.68742C13.4584 11.8736 11.6862 13.6458 9.50002 13.6458C7.31388 13.6458 5.54169 11.8736 5.54169 9.68742ZM9.50002 7.31242C8.18833 7.31242 7.12502 8.37573 7.12502 9.68742C7.12502 10.9991 8.18833 12.0624 9.50002 12.0624C10.8117 12.0624 11.875 10.9991 11.875 9.68742C11.875 8.37573 10.8117 7.31242 9.50002 7.31242Z" fill="#E94057"/>
</svg>
