<svg width="38" height="38" viewBox="0 0 38 38" fill="none" xmlns="http://www.w3.org/2000/svg">
<circle cx="19" cy="19" r="18" fill="#E94057" stroke="white" stroke-width="2"/>
<path fill-rule="evenodd" clip-rule="evenodd" d="M19 18.1454C18.48 18.1454 17.992 18.3396 17.616 18.7048C17.248 19.0622 17.048 19.5361 17.056 20.0255V20.0333C17.056 20.5383 17.256 21.0122 17.624 21.3696C17.992 21.727 18.48 21.9212 19 21.9212C20.072 21.9212 20.936 21.0744 20.944 20.0333C20.944 19.5283 20.744 19.0544 20.376 18.697C20.008 18.3396 19.52 18.1454 19 18.1454ZM23.488 18.1998C23.088 18.1998 22.768 17.889 22.768 17.5006C22.768 17.1121 23.088 16.7936 23.488 16.7936C23.888 16.7936 24.216 17.1121 24.216 17.5006C24.216 17.889 23.888 18.1998 23.488 18.1998ZM21.216 22.1931C20.648 22.7447 19.864 23.0866 19 23.0866C18.16 23.0866 17.376 22.768 16.776 22.1931C16.184 21.6104 15.856 20.8491 15.856 20.0333C15.848 19.2253 16.176 18.4639 16.768 17.8812C17.368 17.2986 18.16 16.98 19 16.98C19.84 16.98 20.632 17.2986 21.224 17.8735C21.816 18.4562 22.144 19.2253 22.144 20.0333C22.136 20.8801 21.784 21.6415 21.216 22.1931ZM23.512 14.6104C23.44 14.6104 23.384 14.5716 23.352 14.5172L23.272 14.3463C23.056 13.9034 22.808 13.3907 22.656 13.0954C22.288 12.3962 21.656 12.0078 20.88 12H17.112C16.336 12.0078 15.712 12.3962 15.344 13.0954C15.184 13.4062 14.912 13.9656 14.688 14.424L14.64 14.5172C14.616 14.5794 14.552 14.6104 14.488 14.6104C12.56 14.6104 11 16.1332 11 17.9978V22.6127C11 24.4772 12.56 26 14.488 26H23.512C25.432 26 27 24.4772 27 22.6127V17.9978C27 16.1332 25.432 14.6104 23.512 14.6104Z" fill="white"/>
</svg>
