<svg width="18" height="18" viewBox="0 0 18 18" fill="none" xmlns="http://www.w3.org/2000/svg">
<path fill-rule="evenodd" clip-rule="evenodd" d="M1.86612 1.86612C2.35427 1.37796 3.14573 1.37796 3.63388 1.86612L9 7.23223L14.3661 1.86612C14.8543 1.37796 15.6457 1.37796 16.1339 1.86612C16.622 2.35427 16.622 3.14573 16.1339 3.63388L10.7678 9L16.1339 14.3661C16.622 14.8543 16.622 15.6457 16.1339 16.1339C15.6457 16.622 14.8543 16.622 14.3661 16.1339L9 10.7678L3.63388 16.1339C3.14573 16.622 2.35427 16.622 1.86612 16.1339C1.37796 15.6457 1.37796 14.8543 1.86612 14.3661L7.23223 9L1.86612 3.63388C1.37796 3.14573 1.37796 2.35427 1.86612 1.86612Z" fill="#F27121" stroke="#F27121" stroke-width="2" stroke-linecap="round" stroke-linejoin="round"/>
</svg>
