<svg width="12" height="12" viewBox="0 0 12 12" fill="none" xmlns="http://www.w3.org/2000/svg">
<path fill-rule="evenodd" clip-rule="evenodd" d="M1.24408 1.24408C1.56951 0.918641 2.09715 0.918641 2.42259 1.24408L6 4.82149L9.57741 1.24408C9.90285 0.918641 10.4305 0.918641 10.7559 1.24408C11.0814 1.56951 11.0814 2.09715 10.7559 2.42259L7.17851 6L10.7559 9.57741C11.0814 9.90285 11.0814 10.4305 10.7559 10.7559C10.4305 11.0814 9.90285 11.0814 9.57741 10.7559L6 7.17851L2.42259 10.7559C2.09715 11.0814 1.56951 11.0814 1.24408 10.7559C0.918641 10.4305 0.918641 9.90285 1.24408 9.57741L4.82149 6L1.24408 2.42259C0.918641 2.09715 0.918641 1.56951 1.24408 1.24408Z" fill="white" stroke="white" stroke-width="2" stroke-linecap="round" stroke-linejoin="round"/>
</svg>
