<svg width="28" height="28" viewBox="0 0 28 28" fill="none" xmlns="http://www.w3.org/2000/svg">
<path fill-rule="evenodd" clip-rule="evenodd" d="M26.4544 0H1.54562C0.692143 0.000344911 0.000344911 0.692143 0 1.54562V26.4544C0.000344911 27.3079 0.692143 27.9997 1.54562 28H14V17H10.6531V13H14V9.8125C14 6.19625 16.5081 4.2275 19.7388 4.2275C21.2844 4.2275 22.9469 4.34375 23.3331 4.395V8.17188H20.7594C19.0019 8.17188 18.6669 9.00312 18.6669 10.2281V13H22.8544L22.3075 17H18.6669V28H26.4544C27.3079 27.9997 27.9997 27.3079 28 26.4544V1.54562C27.9997 0.692143 27.3079 0.000344911 26.4544 0Z" fill="#E94057"/>
</svg>
