<svg width="28" height="28" viewBox="0 0 28 28" fill="none" xmlns="http://www.w3.org/2000/svg">
<g clip-path="url(#clip0_89_1988)">
<path d="M5.62239 14.2822C6.06717 14.5554 6.64923 14.4164 6.92247 13.9716C7.19571 13.5268 7.05664 12.9447 6.61186 12.6715C6.16708 12.3983 5.58502 12.5373 5.31178 12.9821C5.03855 13.4269 5.17761 14.0089 5.62239 14.2822Z" fill="url(#paint0_radial_89_1988)"/>
<path d="M16.6545 21.0683C17.0993 21.3416 17.6813 21.2025 17.9546 20.7577C18.2278 20.3129 18.0887 19.7309 17.644 19.4576C17.1992 19.1844 16.6171 19.3235 16.3439 19.7682C16.0706 20.213 16.2097 20.7951 16.6545 21.0683Z" fill="url(#paint1_radial_89_1988)"/>
<path d="M16.6545 21.0683C17.0993 21.3416 17.6813 21.2025 17.9546 20.7577C18.2278 20.3129 18.0887 19.7309 17.644 19.4576C17.1992 19.1844 16.6171 19.3235 16.3439 19.7682C16.0706 20.213 16.2097 20.7951 16.6545 21.0683Z" fill="url(#paint2_radial_89_1988)"/>
<path d="M11.2448 9.35503C10.6461 9.63096 10.0285 10.1276 9.80047 10.323L10.4795 11.9466L12.1317 11.341C12.1206 10.9875 12.099 10.6344 12.067 10.2821C12.033 10.0083 11.9852 9.73644 11.9238 9.46748L11.2448 9.35503Z" fill="url(#paint3_radial_89_1988)"/>
<path d="M11.2448 9.35503C10.6461 9.63096 10.0285 10.1276 9.80047 10.323L10.4795 11.9466L12.1317 11.341C12.1206 10.9875 12.099 10.6344 12.067 10.2821C12.033 10.0083 11.9852 9.73644 11.9238 9.46748L11.2448 9.35503Z" fill="url(#paint4_radial_89_1988)"/>
<path d="M18.5059 13.8157C18.5303 14.4744 18.3665 15.2499 18.2953 15.5416L16.5401 15.6698L16.3334 13.9223C16.5472 13.8211 17.0386 13.6045 17.3072 13.5013C17.5764 13.3985 17.9481 13.2986 18.0986 13.2608L18.5059 13.8157Z" fill="url(#paint5_radial_89_1988)"/>
<path d="M18.5059 13.8157C18.5303 14.4744 18.3665 15.2499 18.2953 15.5416L16.5401 15.6698L16.3334 13.9223C16.5472 13.8211 17.0386 13.6045 17.3072 13.5013C17.5764 13.3985 17.9481 13.2986 18.0986 13.2608L18.5059 13.8157Z" fill="url(#paint6_radial_89_1988)"/>
<path d="M18.5059 13.8157C18.5303 14.4744 18.3665 15.2499 18.2953 15.5416L16.5401 15.6698L16.3334 13.9223C16.5472 13.8211 17.0386 13.6045 17.3072 13.5013C17.5764 13.3985 17.9481 13.2986 18.0986 13.2608L18.5059 13.8157Z" fill="url(#paint7_radial_89_1988)"/>
<g filter="url(#filter0_ii_89_1988)">
<path d="M8.16775 7.51476L4.9451 16.3767C4.86842 16.5879 4.86705 16.8191 4.94122 17.0313C5.01539 17.2434 5.16054 17.4234 5.35214 17.5408L13.8677 22.772C14.0592 22.8897 14.2855 22.9377 14.5083 22.9077C14.731 22.8777 14.9366 22.7717 15.0902 22.6076L21.538 15.7277L21.1773 15.1599C20.0629 15.2463 17.7438 15.4029 17.173 15.3984C16.7176 15.3947 16.6129 14.8806 16.6067 14.7487C16.5498 13.5408 16.4262 11.757 16.3626 11.1179C16.2983 10.4633 16.0504 10.0078 15.9118 9.8969C15.7503 9.82341 15.2318 9.80816 14.6184 10.0464C14.02 10.2789 12.3735 10.9753 11.2699 11.4702C11.1494 11.5242 10.6432 11.6638 10.4343 11.2587C10.1723 10.7516 9.26372 8.61215 8.83702 7.57904L8.16755 7.51392L8.16775 7.51476Z" fill="url(#paint8_linear_89_1988)"/>
<path d="M8.16775 7.51476L4.9451 16.3767C4.86842 16.5879 4.86705 16.8191 4.94122 17.0313C5.01539 17.2434 5.16054 17.4234 5.35214 17.5408L13.8677 22.772C14.0592 22.8897 14.2855 22.9377 14.5083 22.9077C14.731 22.8777 14.9366 22.7717 15.0902 22.6076L21.538 15.7277L21.1773 15.1599C20.0629 15.2463 17.7438 15.4029 17.173 15.3984C16.7176 15.3947 16.6129 14.8806 16.6067 14.7487C16.5498 13.5408 16.4262 11.757 16.3626 11.1179C16.2983 10.4633 16.0504 10.0078 15.9118 9.8969C15.7503 9.82341 15.2318 9.80816 14.6184 10.0464C14.02 10.2789 12.3735 10.9753 11.2699 11.4702C11.1494 11.5242 10.6432 11.6638 10.4343 11.2587C10.1723 10.7516 9.26372 8.61215 8.83702 7.57904L8.16755 7.51392L8.16775 7.51476Z" fill="url(#paint9_radial_89_1988)"/>
</g>
<path d="M8.16775 7.51476L4.9451 16.3767C4.86842 16.5879 4.86705 16.8191 4.94122 17.0313C5.01539 17.2434 5.16054 17.4234 5.35214 17.5408L13.8677 22.772C14.0592 22.8897 14.2855 22.9377 14.5083 22.9077C14.731 22.8777 14.9366 22.7717 15.0902 22.6076L21.538 15.7277L21.1773 15.1599C20.0629 15.2463 17.7438 15.4029 17.173 15.3984C16.7176 15.3947 16.6129 14.8806 16.6067 14.7487C16.5498 13.5408 16.4262 11.757 16.3626 11.1179C16.2983 10.4633 16.0504 10.0078 15.9118 9.8969C15.7503 9.82341 15.2318 9.80816 14.6184 10.0464C14.02 10.2789 12.3735 10.9753 11.2699 11.4702C11.1494 11.5242 10.6432 11.6638 10.4343 11.2587C10.1723 10.7516 9.26372 8.61215 8.83702 7.57904L8.16755 7.51392L8.16775 7.51476Z" fill="url(#paint10_linear_89_1988)"/>
<path d="M8.16775 7.51476L4.9451 16.3767C4.86842 16.5879 4.86705 16.8191 4.94122 17.0313C5.01539 17.2434 5.16054 17.4234 5.35214 17.5408L13.8677 22.772C14.0592 22.8897 14.2855 22.9377 14.5083 22.9077C14.731 22.8777 14.9366 22.7717 15.0902 22.6076L21.538 15.7277L21.1773 15.1599C20.0629 15.2463 17.7438 15.4029 17.173 15.3984C16.7176 15.3947 16.6129 14.8806 16.6067 14.7487C16.5498 13.5408 16.4262 11.757 16.3626 11.1179C16.2983 10.4633 16.0504 10.0078 15.9118 9.8969C15.7503 9.82341 15.2318 9.80816 14.6184 10.0464C14.02 10.2789 12.3735 10.9753 11.2699 11.4702C11.1494 11.5242 10.6432 11.6638 10.4343 11.2587C10.1723 10.7516 9.26372 8.61215 8.83702 7.57904L8.16755 7.51392L8.16775 7.51476Z" fill="url(#paint11_linear_89_1988)"/>
<path d="M8.16775 7.51476L4.9451 16.3767C4.86842 16.5879 4.86705 16.8191 4.94122 17.0313C5.01539 17.2434 5.16054 17.4234 5.35214 17.5408L13.8677 22.772C14.0592 22.8897 14.2855 22.9377 14.5083 22.9077C14.731 22.8777 14.9366 22.7717 15.0902 22.6076L21.538 15.7277L21.1773 15.1599C20.0629 15.2463 17.7438 15.4029 17.173 15.3984C16.7176 15.3947 16.6129 14.8806 16.6067 14.7487C16.5498 13.5408 16.4262 11.757 16.3626 11.1179C16.2983 10.4633 16.0504 10.0078 15.9118 9.8969C15.7503 9.82341 15.2318 9.80816 14.6184 10.0464C14.02 10.2789 12.3735 10.9753 11.2699 11.4702C11.1494 11.5242 10.6432 11.6638 10.4343 11.2587C10.1723 10.7516 9.26372 8.61215 8.83702 7.57904L8.16755 7.51392L8.16775 7.51476Z" fill="url(#paint12_linear_89_1988)"/>
<path d="M8.16775 7.51476L4.9451 16.3767C4.86842 16.5879 4.86705 16.8191 4.94122 17.0313C5.01539 17.2434 5.16054 17.4234 5.35214 17.5408L13.8677 22.772C14.0592 22.8897 14.2855 22.9377 14.5083 22.9077C14.731 22.8777 14.9366 22.7717 15.0902 22.6076L21.538 15.7277L21.1773 15.1599C20.0629 15.2463 17.7438 15.4029 17.173 15.3984C16.7176 15.3947 16.6129 14.8806 16.6067 14.7487C16.5498 13.5408 16.4262 11.757 16.3626 11.1179C16.2983 10.4633 16.0504 10.0078 15.9118 9.8969C15.7503 9.82341 15.2318 9.80816 14.6184 10.0464C14.02 10.2789 12.3735 10.9753 11.2699 11.4702C11.1494 11.5242 10.6432 11.6638 10.4343 11.2587C10.1723 10.7516 9.26372 8.61215 8.83702 7.57904L8.16755 7.51392L8.16775 7.51476Z" fill="url(#paint13_radial_89_1988)"/>
<path d="M8.16775 7.51476L4.9451 16.3767C4.86842 16.5879 4.86705 16.8191 4.94122 17.0313C5.01539 17.2434 5.16054 17.4234 5.35214 17.5408L13.8677 22.772C14.0592 22.8897 14.2855 22.9377 14.5083 22.9077C14.731 22.8777 14.9366 22.7717 15.0902 22.6076L21.538 15.7277L21.1773 15.1599C20.0629 15.2463 17.7438 15.4029 17.173 15.3984C16.7176 15.3947 16.6129 14.8806 16.6067 14.7487C16.5498 13.5408 16.4262 11.757 16.3626 11.1179C16.2983 10.4633 16.0504 10.0078 15.9118 9.8969C15.7503 9.82341 15.2318 9.80816 14.6184 10.0464C14.02 10.2789 12.3735 10.9753 11.2699 11.4702C11.1494 11.5242 10.6432 11.6638 10.4343 11.2587C10.1723 10.7516 9.26372 8.61215 8.83702 7.57904L8.16755 7.51392L8.16775 7.51476Z" fill="url(#paint14_radial_89_1988)"/>
<path d="M8.16775 7.51476L4.9451 16.3767C4.86842 16.5879 4.86705 16.8191 4.94122 17.0313C5.01539 17.2434 5.16054 17.4234 5.35214 17.5408L13.8677 22.772C14.0592 22.8897 14.2855 22.9377 14.5083 22.9077C14.731 22.8777 14.9366 22.7717 15.0902 22.6076L21.538 15.7277L21.1773 15.1599C20.0629 15.2463 17.7438 15.4029 17.173 15.3984C16.7176 15.3947 16.6129 14.8806 16.6067 14.7487C16.5498 13.5408 16.4262 11.757 16.3626 11.1179C16.2983 10.4633 16.0504 10.0078 15.9118 9.8969C15.7503 9.82341 15.2318 9.80816 14.6184 10.0464C14.02 10.2789 12.3735 10.9753 11.2699 11.4702C11.1494 11.5242 10.6432 11.6638 10.4343 11.2587C10.1723 10.7516 9.26372 8.61215 8.83702 7.57904L8.16755 7.51392L8.16775 7.51476Z" fill="url(#paint15_radial_89_1988)"/>
<g filter="url(#filter1_ii_89_1988)">
<path d="M15.5147 19.602C15.1169 19.9398 14.5444 19.8799 14.2062 19.4827C13.9672 19.157 14.0532 18.7085 14.4504 18.3703C14.848 18.0317 15.4305 18.0556 15.641 18.3021C15.9791 18.6994 15.9117 19.263 15.5147 19.602Z" fill="url(#paint16_radial_89_1988)"/>
<path d="M15.5147 19.602C15.1169 19.9398 14.5444 19.8799 14.2062 19.4827C13.9672 19.157 14.0532 18.7085 14.4504 18.3703C14.848 18.0317 15.4305 18.0556 15.641 18.3021C15.9791 18.6994 15.9117 19.263 15.5147 19.602Z" fill="url(#paint17_radial_89_1988)"/>
</g>
<g filter="url(#filter2_ii_89_1988)">
<path d="M7.47529 14.6629C7.35324 15.1701 7.66549 15.6537 8.1732 15.7761C8.57124 15.8418 8.93245 15.5624 9.0545 15.0552C9.17687 14.5475 8.89226 14.0386 8.57773 13.9627C8.07002 13.8403 7.59766 14.1552 7.47529 14.6629Z" fill="url(#paint18_radial_89_1988)"/>
<path d="M7.47529 14.6629C7.35324 15.1701 7.66549 15.6537 8.1732 15.7761C8.57124 15.8418 8.93245 15.5624 9.0545 15.0552C9.17687 14.5475 8.89226 14.0386 8.57773 13.9627C8.07002 13.8403 7.59766 14.1552 7.47529 14.6629Z" fill="url(#paint19_radial_89_1988)"/>
</g>
<path d="M9.1736 7.96918C9.05597 8.16067 8.86709 8.29758 8.6485 8.34981C8.42992 8.40203 8.19954 8.36528 8.00806 8.24765C7.81657 8.13001 7.67965 7.94113 7.62743 7.72254C7.57521 7.50396 7.61196 7.27359 7.72959 7.0821C7.84718 6.89068 8.036 6.75381 8.2545 6.70161C8.47301 6.64941 8.7033 6.68614 8.89472 6.80373C9.08614 6.92133 9.22301 7.11014 9.27521 7.32865C9.32741 7.54715 9.29068 7.77744 9.17309 7.96886L9.1736 7.96918Z" fill="url(#paint20_radial_89_1988)"/>
<path d="M9.1736 7.96918C9.05597 8.16067 8.86709 8.29758 8.6485 8.34981C8.42992 8.40203 8.19954 8.36528 8.00806 8.24765C7.81657 8.13001 7.67965 7.94113 7.62743 7.72254C7.57521 7.50396 7.61196 7.27359 7.72959 7.0821C7.84718 6.89068 8.036 6.75381 8.2545 6.70161C8.47301 6.64941 8.7033 6.68614 8.89472 6.80373C9.08614 6.92133 9.22301 7.11014 9.27521 7.32865C9.32741 7.54715 9.29068 7.77744 9.17309 7.96886L9.1736 7.96918Z" fill="url(#paint21_radial_89_1988)"/>
<path d="M9.1736 7.96918C9.05597 8.16067 8.86709 8.29758 8.6485 8.34981C8.42992 8.40203 8.19954 8.36528 8.00806 8.24765C7.81657 8.13001 7.67965 7.94113 7.62743 7.72254C7.57521 7.50396 7.61196 7.27359 7.72959 7.0821C7.84718 6.89068 8.036 6.75381 8.2545 6.70161C8.47301 6.64941 8.7033 6.68614 8.89472 6.80373C9.08614 6.92133 9.22301 7.11014 9.27521 7.32865C9.32741 7.54715 9.29068 7.77744 9.17309 7.96886L9.1736 7.96918Z" fill="url(#paint22_radial_89_1988)"/>
<path d="M9.1736 7.96918C9.05597 8.16067 8.86709 8.29758 8.6485 8.34981C8.42992 8.40203 8.19954 8.36528 8.00806 8.24765C7.81657 8.13001 7.67965 7.94113 7.62743 7.72254C7.57521 7.50396 7.61196 7.27359 7.72959 7.0821C7.84718 6.89068 8.036 6.75381 8.2545 6.70161C8.47301 6.64941 8.7033 6.68614 8.89472 6.80373C9.08614 6.92133 9.22301 7.11014 9.27521 7.32865C9.32741 7.54715 9.29068 7.77744 9.17309 7.96886L9.1736 7.96918Z" fill="url(#paint23_radial_89_1988)"/>
<path d="M11.8744 9.81083C12.0618 9.81476 12.2453 9.75638 12.396 9.64484C12.5467 9.53329 12.6562 9.37489 12.7072 9.19446C12.7583 9.01403 12.748 8.82177 12.678 8.64781C12.608 8.47385 12.4823 8.32803 12.3205 8.2332C12.1587 8.13838 11.9701 8.0999 11.7841 8.12382C11.5981 8.14773 11.4254 8.23267 11.2928 8.36533C11.1603 8.49799 11.0756 8.67088 11.0519 8.85688C11.0282 9.04288 11.0669 9.23149 11.1619 9.39315C11.2478 9.40909 11.3264 9.45231 11.3858 9.51642C11.4771 9.61687 11.635 9.76965 11.8749 9.81115L11.8744 9.81083Z" fill="url(#paint24_radial_89_1988)"/>
<path d="M11.8744 9.81083C12.0618 9.81476 12.2453 9.75638 12.396 9.64484C12.5467 9.53329 12.6562 9.37489 12.7072 9.19446C12.7583 9.01403 12.748 8.82177 12.678 8.64781C12.608 8.47385 12.4823 8.32803 12.3205 8.2332C12.1587 8.13838 11.9701 8.0999 11.7841 8.12382C11.5981 8.14773 11.4254 8.23267 11.2928 8.36533C11.1603 8.49799 11.0756 8.67088 11.0519 8.85688C11.0282 9.04288 11.0669 9.23149 11.1619 9.39315C11.2478 9.40909 11.3264 9.45231 11.3858 9.51642C11.4771 9.61687 11.635 9.76965 11.8749 9.81115L11.8744 9.81083Z" fill="url(#paint25_radial_89_1988)"/>
<path d="M11.8744 9.81083C12.0618 9.81476 12.2453 9.75638 12.396 9.64484C12.5467 9.53329 12.6562 9.37489 12.7072 9.19446C12.7583 9.01403 12.748 8.82177 12.678 8.64781C12.608 8.47385 12.4823 8.32803 12.3205 8.2332C12.1587 8.13838 11.9701 8.0999 11.7841 8.12382C11.5981 8.14773 11.4254 8.23267 11.2928 8.36533C11.1603 8.49799 11.0756 8.67088 11.0519 8.85688C11.0282 9.04288 11.0669 9.23149 11.1619 9.39315C11.2478 9.40909 11.3264 9.45231 11.3858 9.51642C11.4771 9.61687 11.635 9.76965 11.8749 9.81115L11.8744 9.81083Z" fill="url(#paint26_radial_89_1988)"/>
<path d="M11.8744 9.81083C12.0618 9.81476 12.2453 9.75638 12.396 9.64484C12.5467 9.53329 12.6562 9.37489 12.7072 9.19446C12.7583 9.01403 12.748 8.82177 12.678 8.64781C12.608 8.47385 12.4823 8.32803 12.3205 8.2332C12.1587 8.13838 11.9701 8.0999 11.7841 8.12382C11.5981 8.14773 11.4254 8.23267 11.2928 8.36533C11.1603 8.49799 11.0756 8.67088 11.0519 8.85688C11.0282 9.04288 11.0669 9.23149 11.1619 9.39315C11.2478 9.40909 11.3264 9.45231 11.3858 9.51642C11.4771 9.61687 11.635 9.76965 11.8749 9.81115L11.8744 9.81083Z" fill="url(#paint27_radial_89_1988)"/>
<g filter="url(#filter3_i_89_1988)">
<path d="M17.8144 13.4603C17.7262 13.2948 17.6953 13.1048 17.7267 12.9199C17.7581 12.735 17.8499 12.5658 17.9878 12.4387C18.1256 12.3117 18.3018 12.2339 18.4886 12.2177C18.6754 12.2015 18.8623 12.2478 19.02 12.3492C19.1777 12.4506 19.2973 12.6015 19.36 12.7782C19.4228 12.9549 19.4251 13.1474 19.3667 13.3256C19.3082 13.5038 19.1923 13.6575 19.0371 13.7627C18.8819 13.8679 18.6962 13.9187 18.5091 13.907C18.456 13.8376 18.3819 13.787 18.2979 13.763C18.167 13.7269 17.9593 13.6551 17.8139 13.46L17.8144 13.4603Z" fill="url(#paint28_radial_89_1988)"/>
<path d="M17.8144 13.4603C17.7262 13.2948 17.6953 13.1048 17.7267 12.9199C17.7581 12.735 17.8499 12.5658 17.9878 12.4387C18.1256 12.3117 18.3018 12.2339 18.4886 12.2177C18.6754 12.2015 18.8623 12.2478 19.02 12.3492C19.1777 12.4506 19.2973 12.6015 19.36 12.7782C19.4228 12.9549 19.4251 13.1474 19.3667 13.3256C19.3082 13.5038 19.1923 13.6575 19.0371 13.7627C18.8819 13.8679 18.6962 13.9187 18.5091 13.907C18.456 13.8376 18.3819 13.787 18.2979 13.763C18.167 13.7269 17.9593 13.6551 17.8139 13.46L17.8144 13.4603Z" fill="url(#paint29_radial_89_1988)"/>
</g>
<g filter="url(#filter4_ii_89_1988)">
<path d="M10.8406 18.1974C11.5483 18.6322 12.4745 18.4109 12.9093 17.7031C13.3441 16.9954 13.1228 16.0692 12.415 15.6344C11.7073 15.1996 10.7811 15.4209 10.3463 16.1287C9.91152 16.8364 10.1328 17.7626 10.8406 18.1974Z" fill="url(#paint30_radial_89_1988)"/>
</g>
<g filter="url(#filter5_f_89_1988)">
<path d="M15.8545 10.2357C15.9507 10.2805 16.1508 10.4671 16.1843 10.8631C16.2183 11.2595 16.3709 13.7563 16.4425 14.9553C16.4484 15.2007 16.614 15.6843 17.232 15.6527C17.8506 15.6215 19.8709 15.468 20.6144 15.4405" stroke="url(#paint31_linear_89_1988)" stroke-width="0.069645"/>
<path d="M15.8545 10.2357C15.9507 10.2805 16.1508 10.4671 16.1843 10.8631C16.2183 11.2595 16.3709 13.7563 16.4425 14.9553C16.4484 15.2007 16.614 15.6843 17.232 15.6527C17.8506 15.6215 19.8709 15.468 20.6144 15.4405" stroke="url(#paint32_radial_89_1988)" stroke-width="0.069645"/>
</g>
<path d="M15.7144 10.2148C16.2309 10.5321 16.9068 10.3706 17.2241 9.85414C17.5413 9.33767 17.3799 8.66178 16.8634 8.3445C16.3469 8.02722 15.671 8.1887 15.3537 8.70517C15.0365 9.22165 15.1979 9.89753 15.7144 10.2148Z" fill="url(#paint33_radial_89_1988)"/>
<path d="M15.7144 10.2148C16.2309 10.5321 16.9068 10.3706 17.2241 9.85414C17.5413 9.33767 17.3799 8.66178 16.8634 8.3445C16.3469 8.02722 15.671 8.1887 15.3537 8.70517C15.0365 9.22165 15.1979 9.89753 15.7144 10.2148Z" fill="url(#paint34_radial_89_1988)"/>
<path d="M15.7144 10.2148C16.2309 10.5321 16.9068 10.3706 17.2241 9.85414C17.5413 9.33767 17.3799 8.66178 16.8634 8.3445C16.3469 8.02722 15.671 8.1887 15.3537 8.70517C15.0365 9.22165 15.1979 9.89753 15.7144 10.2148Z" fill="url(#paint35_radial_89_1988)"/>
<path d="M15.7144 10.2148C16.2309 10.5321 16.9068 10.3706 17.2241 9.85414C17.5413 9.33767 17.3799 8.66178 16.8634 8.3445C16.3469 8.02722 15.671 8.1887 15.3537 8.70517C15.0365 9.22165 15.1979 9.89753 15.7144 10.2148Z" fill="url(#paint36_radial_89_1988)"/>
<path d="M22.1547 15.9443C22.037 16.1358 21.8482 16.2727 21.6296 16.3249C21.411 16.3771 21.1806 16.3404 20.9891 16.2227C20.7976 16.1051 20.6607 15.9162 20.6085 15.6976C20.5563 15.4791 20.593 15.2487 20.7107 15.0572C20.8283 14.8658 21.0171 14.7289 21.2356 14.6767C21.4541 14.6245 21.6844 14.6612 21.8758 14.7788C22.0672 14.8964 22.2041 15.0852 22.2563 15.3037C22.3085 15.5222 22.2718 15.7525 22.1542 15.944L22.1547 15.9443Z" fill="url(#paint37_radial_89_1988)"/>
<path d="M22.1547 15.9443C22.037 16.1358 21.8482 16.2727 21.6296 16.3249C21.411 16.3771 21.1806 16.3404 20.9891 16.2227C20.7976 16.1051 20.6607 15.9162 20.6085 15.6976C20.5563 15.4791 20.593 15.2487 20.7107 15.0572C20.8283 14.8658 21.0171 14.7289 21.2356 14.6767C21.4541 14.6245 21.6844 14.6612 21.8758 14.7788C22.0672 14.8964 22.2041 15.0852 22.2563 15.3037C22.3085 15.5222 22.2718 15.7525 22.1542 15.944L22.1547 15.9443Z" fill="url(#paint38_radial_89_1988)"/>
<path d="M22.1547 15.9443C22.037 16.1358 21.8482 16.2727 21.6296 16.3249C21.411 16.3771 21.1806 16.3404 20.9891 16.2227C20.7976 16.1051 20.6607 15.9162 20.6085 15.6976C20.5563 15.4791 20.593 15.2487 20.7107 15.0572C20.8283 14.8658 21.0171 14.7289 21.2356 14.6767C21.4541 14.6245 21.6844 14.6612 21.8758 14.7788C22.0672 14.8964 22.2041 15.0852 22.2563 15.3037C22.3085 15.5222 22.2718 15.7525 22.1542 15.944L22.1547 15.9443Z" fill="url(#paint39_radial_89_1988)"/>
<path d="M22.1547 15.9443C22.037 16.1358 21.8482 16.2727 21.6296 16.3249C21.411 16.3771 21.1806 16.3404 20.9891 16.2227C20.7976 16.1051 20.6607 15.9162 20.6085 15.6976C20.5563 15.4791 20.593 15.2487 20.7107 15.0572C20.8283 14.8658 21.0171 14.7289 21.2356 14.6767C21.4541 14.6245 21.6844 14.6612 21.8758 14.7788C22.0672 14.8964 22.2041 15.0852 22.2563 15.3037C22.3085 15.5222 22.2718 15.7525 22.1542 15.944L22.1547 15.9443Z" fill="url(#paint40_radial_89_1988)"/>
</g>
<defs>
<filter id="filter0_ii_89_1988" x="4.70088" y="7.46773" width="17.0229" height="15.4488" filterUnits="userSpaceOnUse" color-interpolation-filters="sRGB">
<feFlood flood-opacity="0" result="BackgroundImageFix"/>
<feBlend mode="normal" in="SourceGraphic" in2="BackgroundImageFix" result="shape"/>
<feColorMatrix in="SourceAlpha" type="matrix" values="0 0 0 0 0 0 0 0 0 0 0 0 0 0 0 0 0 0 127 0" result="hardAlpha"/>
<feOffset dx="0.18572" dy="-0.04643"/>
<feGaussianBlur stdDeviation="0.116075"/>
<feComposite in2="hardAlpha" operator="arithmetic" k2="-1" k3="1"/>
<feColorMatrix type="matrix" values="0 0 0 0 0.803922 0 0 0 0 0.580392 0 0 0 0 0.262745 0 0 0 1 0"/>
<feBlend mode="normal" in2="shape" result="effect1_innerShadow_89_1988"/>
<feColorMatrix in="SourceAlpha" type="matrix" values="0 0 0 0 0 0 0 0 0 0 0 0 0 0 0 0 0 0 127 0" result="hardAlpha"/>
<feOffset dx="-0.18572" dy="-0.04643"/>
<feGaussianBlur stdDeviation="0.116075"/>
<feComposite in2="hardAlpha" operator="arithmetic" k2="-1" k3="1"/>
<feColorMatrix type="matrix" values="0 0 0 0 0.894118 0 0 0 0 0.686275 0 0 0 0 0.301961 0 0 0 1 0"/>
<feBlend mode="normal" in2="effect1_innerShadow_89_1988" result="effect2_innerShadow_89_1988"/>
</filter>
<filter id="filter1_ii_89_1988" x="13.9577" y="18.0471" width="1.97027" height="1.89129" filterUnits="userSpaceOnUse" color-interpolation-filters="sRGB">
<feFlood flood-opacity="0" result="BackgroundImageFix"/>
<feBlend mode="normal" in="SourceGraphic" in2="BackgroundImageFix" result="shape"/>
<feColorMatrix in="SourceAlpha" type="matrix" values="0 0 0 0 0 0 0 0 0 0 0 0 0 0 0 0 0 0 127 0" result="hardAlpha"/>
<feOffset dx="-0.116075" dy="0.116075"/>
<feGaussianBlur stdDeviation="0.174112"/>
<feComposite in2="hardAlpha" operator="arithmetic" k2="-1" k3="1"/>
<feColorMatrix type="matrix" values="0 0 0 0 1 0 0 0 0 0.54902 0 0 0 0 0.305882 0 0 0 1 0"/>
<feBlend mode="normal" in2="shape" result="effect1_innerShadow_89_1988"/>
<feColorMatrix in="SourceAlpha" type="matrix" values="0 0 0 0 0 0 0 0 0 0 0 0 0 0 0 0 0 0 127 0" result="hardAlpha"/>
<feOffset dx="0.069645" dy="-0.069645"/>
<feGaussianBlur stdDeviation="0.116075"/>
<feComposite in2="hardAlpha" operator="arithmetic" k2="-1" k3="1"/>
<feColorMatrix type="matrix" values="0 0 0 0 0.984314 0 0 0 0 0.219608 0 0 0 0 0.254902 0 0 0 1 0"/>
<feBlend mode="normal" in2="effect1_innerShadow_89_1988" result="effect2_innerShadow_89_1988"/>
</filter>
<filter id="filter2_ii_89_1988" x="7.33278" y="13.9365" width="1.89001" height="1.98841" filterUnits="userSpaceOnUse" color-interpolation-filters="sRGB">
<feFlood flood-opacity="0" result="BackgroundImageFix"/>
<feBlend mode="normal" in="SourceGraphic" in2="BackgroundImageFix" result="shape"/>
<feColorMatrix in="SourceAlpha" type="matrix" values="0 0 0 0 0 0 0 0 0 0 0 0 0 0 0 0 0 0 127 0" result="hardAlpha"/>
<feOffset dx="-0.116075" dy="0.116075"/>
<feGaussianBlur stdDeviation="0.174112"/>
<feComposite in2="hardAlpha" operator="arithmetic" k2="-1" k3="1"/>
<feColorMatrix type="matrix" values="0 0 0 0 0.905882 0 0 0 0 0.439216 0 0 0 0 0.278431 0 0 0 1 0"/>
<feBlend mode="normal" in2="shape" result="effect1_innerShadow_89_1988"/>
<feColorMatrix in="SourceAlpha" type="matrix" values="0 0 0 0 0 0 0 0 0 0 0 0 0 0 0 0 0 0 127 0" result="hardAlpha"/>
<feOffset dx="0.13929" dy="0.13929"/>
<feGaussianBlur stdDeviation="0.13929"/>
<feComposite in2="hardAlpha" operator="arithmetic" k2="-1" k3="1"/>
<feColorMatrix type="matrix" values="0 0 0 0 0.796078 0 0 0 0 0.141176 0 0 0 0 0.223529 0 0 0 1 0"/>
<feBlend mode="normal" in2="effect1_innerShadow_89_1988" result="effect2_innerShadow_89_1988"/>
</filter>
<filter id="filter3_i_89_1988" x="17.7147" y="12.2144" width="1.69409" height="1.69434" filterUnits="userSpaceOnUse" color-interpolation-filters="sRGB">
<feFlood flood-opacity="0" result="BackgroundImageFix"/>
<feBlend mode="normal" in="SourceGraphic" in2="BackgroundImageFix" result="shape"/>
<feColorMatrix in="SourceAlpha" type="matrix" values="0 0 0 0 0 0 0 0 0 0 0 0 0 0 0 0 0 0 127 0" result="hardAlpha"/>
<feOffset/>
<feGaussianBlur stdDeviation="0.0580375"/>
<feComposite in2="hardAlpha" operator="arithmetic" k2="-1" k3="1"/>
<feColorMatrix type="matrix" values="0 0 0 0 0.756863 0 0 0 0 0.619608 0 0 0 0 0.321569 0 0 0 1 0"/>
<feBlend mode="normal" in2="shape" result="effect1_innerShadow_89_1988"/>
</filter>
<filter id="filter4_ii_89_1988" x="9.89151" y="15.0634" width="3.58868" height="3.58868" filterUnits="userSpaceOnUse" color-interpolation-filters="sRGB">
<feFlood flood-opacity="0" result="BackgroundImageFix"/>
<feBlend mode="normal" in="SourceGraphic" in2="BackgroundImageFix" result="shape"/>
<feColorMatrix in="SourceAlpha" type="matrix" values="0 0 0 0 0 0 0 0 0 0 0 0 0 0 0 0 0 0 127 0" result="hardAlpha"/>
<feOffset dx="-0.23215" dy="0.23215"/>
<feGaussianBlur stdDeviation="0.290187"/>
<feComposite in2="hardAlpha" operator="arithmetic" k2="-1" k3="1"/>
<feColorMatrix type="matrix" values="0 0 0 0 0.937255 0 0 0 0 0.443137 0 0 0 0 0.376471 0 0 0 1 0"/>
<feBlend mode="normal" in2="shape" result="effect1_innerShadow_89_1988"/>
<feColorMatrix in="SourceAlpha" type="matrix" values="0 0 0 0 0 0 0 0 0 0 0 0 0 0 0 0 0 0 127 0" result="hardAlpha"/>
<feOffset dx="0.348225" dy="-0.348225"/>
<feGaussianBlur stdDeviation="0.348225"/>
<feComposite in2="hardAlpha" operator="arithmetic" k2="-1" k3="1"/>
<feColorMatrix type="matrix" values="0 0 0 0 0.313726 0 0 0 0 0.384314 0 0 0 0 1 0 0 0 1 0"/>
<feBlend mode="normal" in2="effect1_innerShadow_89_1988" result="effect2_innerShadow_89_1988"/>
</filter>
<filter id="filter5_f_89_1988" x="15.7702" y="10.1345" width="4.91517" height="5.62415" filterUnits="userSpaceOnUse" color-interpolation-filters="sRGB">
<feFlood flood-opacity="0" result="BackgroundImageFix"/>
<feBlend mode="normal" in="SourceGraphic" in2="BackgroundImageFix" result="shape"/>
<feGaussianBlur stdDeviation="0.0348225" result="effect1_foregroundBlur_89_1988"/>
</filter>
<radialGradient id="paint0_radial_89_1988" cx="0" cy="0" r="1" gradientUnits="userSpaceOnUse" gradientTransform="translate(5.79918 13.9939) rotate(-71.9769) scale(1.06755 1.31428)">
<stop stop-color="#395DE0"/>
<stop offset="1" stop-color="#2C68A3"/>
</radialGradient>
<radialGradient id="paint1_radial_89_1988" cx="0" cy="0" r="1" gradientUnits="userSpaceOnUse" gradientTransform="translate(18.0565 19.9043) rotate(140.306) scale(1.82246)">
<stop offset="0.249" stop-color="#3DB3F3"/>
<stop offset="1" stop-color="#5B73F4"/>
</radialGradient>
<radialGradient id="paint2_radial_89_1988" cx="0" cy="0" r="1" gradientUnits="userSpaceOnUse" gradientTransform="translate(18.1011 20.4121) rotate(-167.275) scale(0.855161 0.542187)">
<stop offset="0.258" stop-color="#5FBEFF"/>
<stop offset="1" stop-color="#5FBEFF" stop-opacity="0"/>
</radialGradient>
<radialGradient id="paint3_radial_89_1988" cx="0" cy="0" r="1" gradientUnits="userSpaceOnUse" gradientTransform="translate(10.5909 10.0097) rotate(47.5085) scale(1.94095 4.84452)">
<stop stop-color="#FBC96E"/>
<stop offset="1" stop-color="#FAC567"/>
</radialGradient>
<radialGradient id="paint4_radial_89_1988" cx="0" cy="0" r="1" gradientUnits="userSpaceOnUse" gradientTransform="translate(11.3453 10.9645) rotate(-125.19) scale(1.47157 4.42583)">
<stop offset="0.765" stop-color="#D89F3A" stop-opacity="0"/>
<stop offset="0.911" stop-color="#DAA139"/>
</radialGradient>
<radialGradient id="paint5_radial_89_1988" cx="0" cy="0" r="1" gradientUnits="userSpaceOnUse" gradientTransform="translate(17.8756 15.8698) rotate(-93.8919) scale(1.543 1.58249)">
<stop offset="0.254" stop-color="#BF812A"/>
<stop offset="1" stop-color="#CE9333"/>
</radialGradient>
<radialGradient id="paint6_radial_89_1988" cx="0" cy="0" r="1" gradientUnits="userSpaceOnUse" gradientTransform="translate(17.2552 14.6058) rotate(8.47227) scale(1.33529 3.47864)">
<stop offset="0.734" stop-color="#E9BB61" stop-opacity="0"/>
<stop offset="0.929" stop-color="#E9BB61"/>
</radialGradient>
<radialGradient id="paint7_radial_89_1988" cx="0" cy="0" r="1" gradientUnits="userSpaceOnUse" gradientTransform="translate(17.7297 15.3442) rotate(-111.359) scale(2.10052 3.54367)">
<stop offset="0.773" stop-color="#C18739" stop-opacity="0"/>
<stop offset="0.948" stop-color="#C18739"/>
</radialGradient>
<linearGradient id="paint8_linear_89_1988" x1="15.9066" y1="18.2958" x2="5.41948" y2="14.8" gradientUnits="userSpaceOnUse">
<stop stop-color="#FFBC5D"/>
<stop offset="0.304" stop-color="#FCAD6A"/>
<stop offset="1" stop-color="#CB7547"/>
</linearGradient>
<radialGradient id="paint9_radial_89_1988" cx="0" cy="0" r="1" gradientUnits="userSpaceOnUse" gradientTransform="translate(6.55927 20.6203) rotate(-37.8581) scale(6.70491 13.0499)">
<stop stop-color="#F67B4E"/>
<stop offset="1" stop-color="#F67B4E" stop-opacity="0"/>
</radialGradient>
<linearGradient id="paint10_linear_89_1988" x1="5.41961" y1="14.4983" x2="7.01069" y2="15.0738" gradientUnits="userSpaceOnUse">
<stop stop-color="#C2794C"/>
<stop offset="1" stop-color="#E07648" stop-opacity="0"/>
</linearGradient>
<linearGradient id="paint11_linear_89_1988" x1="15.9441" y1="22.2153" x2="13.8814" y2="20.1886" gradientUnits="userSpaceOnUse">
<stop offset="0.129" stop-color="#FFBB5B"/>
<stop offset="1" stop-color="#FFBB5B" stop-opacity="0"/>
</linearGradient>
<linearGradient id="paint12_linear_89_1988" x1="10.2666" y1="20.7615" x2="10.6456" y2="20.1447" gradientUnits="userSpaceOnUse">
<stop offset="0.184" stop-color="#FF6F8C"/>
<stop offset="1" stop-color="#FF7A6A" stop-opacity="0"/>
</linearGradient>
<radialGradient id="paint13_radial_89_1988" cx="0" cy="0" r="1" gradientUnits="userSpaceOnUse" gradientTransform="translate(21.0369 15.5993) rotate(144.948) scale(1.53534 1.27267)">
<stop offset="0.377" stop-color="#DD9049"/>
<stop offset="1" stop-color="#F8BF60" stop-opacity="0"/>
</radialGradient>
<radialGradient id="paint14_radial_89_1988" cx="0" cy="0" r="1" gradientUnits="userSpaceOnUse" gradientTransform="translate(8.52177 8.01188) rotate(95.7804) scale(1.24779 0.682506)">
<stop offset="0.196" stop-color="#D7783D"/>
<stop offset="1" stop-color="#D7783D" stop-opacity="0"/>
</radialGradient>
<radialGradient id="paint15_radial_89_1988" cx="0" cy="0" r="1" gradientUnits="userSpaceOnUse" gradientTransform="translate(15.912 9.89774) rotate(107.62) scale(0.711279 1.55762)">
<stop offset="0.382" stop-color="#D48C33"/>
<stop offset="1" stop-color="#FEB16A" stop-opacity="0"/>
</radialGradient>
<radialGradient id="paint16_radial_89_1988" cx="0" cy="0" r="1" gradientUnits="userSpaceOnUse" gradientTransform="translate(14.5054 19.2087) rotate(-20.0188) scale(1.40974 0.909645)">
<stop stop-color="#FF196C"/>
<stop offset="1" stop-color="#FF1F4A"/>
</radialGradient>
<radialGradient id="paint17_radial_89_1988" cx="0" cy="0" r="1" gradientUnits="userSpaceOnUse" gradientTransform="translate(15.7222 19.0837) rotate(-178.693) scale(1.05825 0.67031)">
<stop offset="0.223" stop-color="#FF5873"/>
<stop offset="1" stop-color="#FF5873" stop-opacity="0"/>
</radialGradient>
<radialGradient id="paint18_radial_89_1988" cx="0" cy="0" r="1" gradientUnits="userSpaceOnUse" gradientTransform="translate(8.1414 15.343) rotate(-72.7178) scale(1.0808 1.03482)">
<stop stop-color="#F6196C"/>
<stop offset="1" stop-color="#E42047"/>
</radialGradient>
<radialGradient id="paint19_radial_89_1988" cx="0" cy="0" r="1" gradientUnits="userSpaceOnUse" gradientTransform="translate(8.86655 15.0177) rotate(-172.711) scale(0.532711 0.46661)">
<stop stop-color="#FE536F"/>
<stop offset="1" stop-color="#FE536F" stop-opacity="0"/>
</radialGradient>
<radialGradient id="paint20_radial_89_1988" cx="0" cy="0" r="1" gradientUnits="userSpaceOnUse" gradientTransform="translate(9.33842 7.39094) rotate(166.761) scale(1.81165 1.88478)">
<stop offset="0.172" stop-color="#E7C04E"/>
<stop offset="1" stop-color="#D9972A"/>
</radialGradient>
<radialGradient id="paint21_radial_89_1988" cx="0" cy="0" r="1" gradientUnits="userSpaceOnUse" gradientTransform="translate(7.78775 8.24224) rotate(-39.7679) scale(1.01134 1.09552)">
<stop offset="0.065" stop-color="#DF8089"/>
<stop offset="1" stop-color="#DF8089" stop-opacity="0"/>
</radialGradient>
<radialGradient id="paint22_radial_89_1988" cx="0" cy="0" r="1" gradientUnits="userSpaceOnUse" gradientTransform="translate(9.37574 7.45969) rotate(172.58) scale(0.857453 0.443107)">
<stop stop-color="#FFDE71"/>
<stop offset="1" stop-color="#FFDE71" stop-opacity="0"/>
</radialGradient>
<radialGradient id="paint23_radial_89_1988" cx="0" cy="0" r="1" gradientUnits="userSpaceOnUse" gradientTransform="translate(8.67478 7.7264) rotate(-148.437) scale(1.14261 1.18754)">
<stop offset="0.488" stop-color="#E1AD3D" stop-opacity="0"/>
<stop offset="1" stop-color="#B9894B"/>
</radialGradient>
<radialGradient id="paint24_radial_89_1988" cx="0" cy="0" r="1" gradientUnits="userSpaceOnUse" gradientTransform="translate(12.7852 8.82026) rotate(167.865) scale(1.77795 1.84785)">
<stop offset="0.172" stop-color="#E7C04E"/>
<stop offset="1" stop-color="#D9972A"/>
</radialGradient>
<radialGradient id="paint25_radial_89_1988" cx="0" cy="0" r="1" gradientUnits="userSpaceOnUse" gradientTransform="translate(12.8221 8.88752) rotate(173.656) scale(0.844768 0.432753)">
<stop stop-color="#FFDE71"/>
<stop offset="1" stop-color="#FFDE71" stop-opacity="0"/>
</radialGradient>
<radialGradient id="paint26_radial_89_1988" cx="0" cy="0" r="1" gradientUnits="userSpaceOnUse" gradientTransform="translate(11.4288 9.71879) rotate(-45.2356) scale(0.792202 1.05657)">
<stop stop-color="#E4A122"/>
<stop offset="1" stop-color="#E4A122" stop-opacity="0"/>
</radialGradient>
<radialGradient id="paint27_radial_89_1988" cx="0" cy="0" r="1" gradientUnits="userSpaceOnUse" gradientTransform="translate(12.1337 9.13482) rotate(-148.437) scale(1.14261)">
<stop offset="0.488" stop-color="#E1AD3D" stop-opacity="0"/>
<stop offset="1" stop-color="#B9894B"/>
</radialGradient>
<radialGradient id="paint28_radial_89_1988" cx="0" cy="0" r="1" gradientUnits="userSpaceOnUse" gradientTransform="translate(19.2691 13.1282) rotate(167.883) scale(1.46143 1.51889)">
<stop offset="0.172" stop-color="#F0C950"/>
<stop offset="1" stop-color="#C8861F"/>
</radialGradient>
<radialGradient id="paint29_radial_89_1988" cx="0" cy="0" r="1" gradientUnits="userSpaceOnUse" gradientTransform="translate(19.4596 13.0548) rotate(178.703) scale(0.816152 0.41809)">
<stop offset="0.184" stop-color="#FFDE71"/>
<stop offset="1" stop-color="#FFDE71" stop-opacity="0"/>
</radialGradient>
<radialGradient id="paint30_radial_89_1988" cx="0" cy="0" r="1" gradientUnits="userSpaceOnUse" gradientTransform="translate(12.4365 16.8642) rotate(169.718) scale(1.71276)">
<stop stop-color="#5FBFFF"/>
<stop offset="1" stop-color="#3E94FF"/>
</radialGradient>
<linearGradient id="paint31_linear_89_1988" x1="15.9195" y1="10.1311" x2="16.6617" y2="16.3087" gradientUnits="userSpaceOnUse">
<stop stop-color="#FFD678"/>
<stop offset="1" stop-color="#FFD678" stop-opacity="0"/>
</linearGradient>
<radialGradient id="paint32_radial_89_1988" cx="0" cy="0" r="1" gradientUnits="userSpaceOnUse" gradientTransform="translate(16.9108 15.9031) rotate(-3.10475) scale(3.95939 1.06048)">
<stop offset="0.289" stop-color="#FFD175"/>
<stop offset="1" stop-color="#FFD175" stop-opacity="0"/>
</radialGradient>
<radialGradient id="paint33_radial_89_1988" cx="0" cy="0" r="1" gradientUnits="userSpaceOnUse" gradientTransform="translate(17.3545 9.2247) rotate(157.169) scale(2.0934 1.77734)">
<stop offset="0.376" stop-color="#F3D154"/>
<stop offset="1" stop-color="#CC9848"/>
</radialGradient>
<radialGradient id="paint34_radial_89_1988" cx="0" cy="0" r="1" gradientUnits="userSpaceOnUse" gradientTransform="translate(15.5379 10.1064) rotate(-47.7498) scale(1.11675 1.32751)">
<stop stop-color="#E78F5E"/>
<stop offset="1" stop-color="#E78F5E" stop-opacity="0"/>
</radialGradient>
<radialGradient id="paint35_radial_89_1988" cx="0" cy="0" r="1" gradientUnits="userSpaceOnUse" gradientTransform="translate(16.4884 9.83275) rotate(-115.162) scale(2.1867 2.61539)">
<stop offset="0.557" stop-color="#E9C251" stop-opacity="0"/>
<stop offset="1" stop-color="#B49858"/>
</radialGradient>
<radialGradient id="paint36_radial_89_1988" cx="0" cy="0" r="1" gradientUnits="userSpaceOnUse" gradientTransform="translate(17.6189 9.521) rotate(-172.377) scale(1.20849 0.929987)">
<stop stop-color="#FFED77"/>
<stop offset="1" stop-color="#FFED77" stop-opacity="0"/>
</radialGradient>
<radialGradient id="paint37_radial_89_1988" cx="0" cy="0" r="1" gradientUnits="userSpaceOnUse" gradientTransform="translate(22.3194 15.3667) rotate(166.761) scale(1.81165 1.88478)">
<stop offset="0.172" stop-color="#F8CB54"/>
<stop offset="1" stop-color="#EAA34B"/>
</radialGradient>
<radialGradient id="paint38_radial_89_1988" cx="0" cy="0" r="1" gradientUnits="userSpaceOnUse" gradientTransform="translate(20.769 16.2173) rotate(-39.7673) scale(1.01134 1.36703)">
<stop offset="0.16" stop-color="#F1907C"/>
<stop offset="1" stop-color="#F1907C" stop-opacity="0"/>
</radialGradient>
<radialGradient id="paint39_radial_89_1988" cx="0" cy="0" r="1" gradientUnits="userSpaceOnUse" gradientTransform="translate(22.357 15.4356) rotate(172.58) scale(0.857453 0.443107)">
<stop stop-color="#FFDE71"/>
<stop offset="1" stop-color="#FFDE71" stop-opacity="0"/>
</radialGradient>
<radialGradient id="paint40_radial_89_1988" cx="0" cy="0" r="1" gradientUnits="userSpaceOnUse" gradientTransform="translate(21.6559 15.7015) rotate(-148.437) scale(1.14261 1.18754)">
<stop offset="0.488" stop-color="#E0A444" stop-opacity="0"/>
<stop offset="1" stop-color="#C6924D"/>
</radialGradient>
<clipPath id="clip0_89_1988">
<rect width="19.5006" height="19.5006" fill="white" transform="translate(10.4216 0.20752) rotate(31.5632)"/>
</clipPath>
</defs>
</svg>
