<svg width="28" height="28" viewBox="0 0 28 28" fill="none" xmlns="http://www.w3.org/2000/svg">
<path fill-rule="evenodd" clip-rule="evenodd" d="M27.5725 11.8425L27.4312 11.2431H14.4038V16.7569H22.1875C21.3794 20.5944 17.6294 22.6144 14.5662 22.6144C12.3375 22.6144 9.98812 21.6769 8.43312 20.17C6.77617 18.5387 5.83623 16.3152 5.82062 13.99C5.82062 11.6675 6.86438 9.34437 8.38313 7.81625C9.90188 6.28813 12.1956 5.43313 14.4762 5.43313C17.0881 5.43313 18.96 6.82 19.66 7.4525L23.5781 3.555C22.4287 2.545 19.2712 0 14.35 0C10.5531 0 6.9125 1.45438 4.25125 4.10687C1.625 6.71875 0.265625 10.4956 0.265625 14C0.265625 17.5044 1.55187 21.0925 4.09687 23.725C6.81625 26.5325 10.6675 28 14.6331 28C18.2413 28 21.6612 26.5863 24.0987 24.0212C26.495 21.4963 27.7344 18.0025 27.7344 14.34C27.7344 12.7981 27.5794 11.8825 27.5725 11.8425Z" fill="#E94057"/>
</svg>
