<svg width="352" height="263" viewBox="0 0 352 263" fill="none" xmlns="http://www.w3.org/2000/svg">
<path d="M351.843 230.718H0.0935059V230.893H351.843V230.718Z" fill="#EBEBEB"/>
<path d="M316.598 242.037H293.298V242.213H316.598V242.037Z" fill="#EBEBEB"/>
<path d="M233.106 243.95H226.993V244.126H233.106V243.95Z" fill="#EBEBEB"/>
<path d="M292.594 235.509H279.094V235.684H292.594V235.509Z" fill="#EBEBEB"/>
<path d="M67.3831 236.69H36.999V236.866H67.3831V236.69Z" fill="#EBEBEB"/>
<path d="M78.1045 236.69H73.6514V236.866H78.1045V236.69Z" fill="#EBEBEB"/>
<path d="M158.486 239.659H92.5825V239.835H158.486V239.659Z" fill="#EBEBEB"/>
<path d="M166.823 199.342H30.9841C29.9199 199.34 28.9 198.916 28.1482 198.163C27.3964 197.409 26.9741 196.389 26.9741 195.325V4.37389C26.9834 3.31585 27.4097 2.30418 28.1605 1.55864C28.9113 0.813105 29.926 0.393902 30.9841 0.39209H166.823C167.888 0.39209 168.91 0.815306 169.663 1.56864C170.416 2.32197 170.84 3.3437 170.84 4.40907V195.325C170.84 196.39 170.416 197.412 169.663 198.165C168.91 198.918 167.888 199.342 166.823 199.342ZM30.9841 0.53279C29.9666 0.534654 28.9914 0.940161 28.2725 1.66031C27.5537 2.38045 27.15 3.35639 27.15 4.37389V195.325C27.15 196.342 27.5537 197.318 28.2725 198.038C28.9914 198.758 29.9666 199.164 30.9841 199.166H166.823C167.841 199.164 168.817 198.759 169.537 198.039C170.257 197.319 170.662 196.343 170.664 195.325V4.37389C170.662 3.35574 170.257 2.37982 169.537 1.65988C168.817 0.939933 167.841 0.53465 166.823 0.53279H30.9841Z" fill="#EBEBEB"/>
<path d="M318.997 199.342H183.151C182.086 199.34 181.066 198.916 180.313 198.163C179.56 197.41 179.136 196.389 179.134 195.325V4.37389C179.145 3.31521 179.573 2.30355 180.325 1.5582C181.077 0.812859 182.092 0.393883 183.151 0.39209H318.997C320.053 0.395751 321.066 0.815771 321.816 1.56111C322.565 2.30646 322.99 3.31706 322.999 4.37389V195.325C322.999 196.388 322.578 197.407 321.828 198.16C321.078 198.913 320.06 199.338 318.997 199.342ZM183.151 0.53279C182.133 0.53465 181.157 0.939933 180.437 1.65988C179.717 2.37982 179.312 3.35574 179.31 4.37389V195.325C179.312 196.343 179.717 197.319 180.437 198.039C181.157 198.759 182.133 199.164 183.151 199.166H318.997C320.015 199.164 320.991 198.759 321.711 198.039C322.431 197.319 322.836 196.343 322.838 195.325V4.37389C322.836 3.35574 322.431 2.37982 321.711 1.65988C320.991 0.939933 320.015 0.53465 318.997 0.53279H183.151Z" fill="#EBEBEB"/>
<path d="M72.6243 49.2924L97.0709 35.0676H115.904L140.751 48.617V204.132H72.6243V49.2924Z" fill="#F0F0F0"/>
<path d="M141.455 204.132H72.6243V49.2923L73.3278 48.5888C82.3805 39.8803 94.4639 35.0318 107.025 35.0676C119.596 35.0357 131.685 39.8948 140.737 48.617L141.441 49.3205L141.455 204.132ZM77.19 199.567H136.889V51.2481C128.743 43.7782 118.092 39.6341 107.039 39.6341C95.9869 39.6341 85.3361 43.7782 77.19 51.2481V199.567Z" fill="#FAFAFA"/>
<path d="M105.33 200.116H108.756V148.415H137.754V144.989H108.756V92.5858H137.754V89.1668H108.756V39.0425H105.33V89.1668H76.3246V92.5858H105.33V144.989H76.3246V148.415H105.33V200.116Z" fill="#FAFAFA"/>
<path d="M143.734 206.419H70.3448V48.3568L71.0483 47.6533C80.612 38.1154 93.5677 32.7593 107.075 32.7593C120.581 32.7593 133.537 38.1154 143.101 47.6533L143.804 48.3568L143.734 206.419ZM74.9106 201.853H139.168V50.2633C130.524 41.9778 119.013 37.3521 107.039 37.3521C95.0656 37.3521 83.5547 41.9778 74.9106 50.2633V201.853Z" fill="#F0F0F0"/>
<path d="M210.482 49.2924L234.928 35.0676H253.761L278.609 48.617V204.132H210.482V49.2924Z" fill="#F0F0F0"/>
<path d="M279.312 204.133H210.482V49.2924L211.185 48.5889C220.245 39.8736 232.34 35.0246 244.911 35.0677C257.481 35.0358 269.571 39.8949 278.623 48.6171L279.326 49.3206L279.312 204.133ZM215.048 199.567H274.746V51.2481C266.6 43.7783 255.95 39.6342 244.897 39.6342C233.845 39.6342 223.194 43.7783 215.048 51.2481V199.567Z" fill="#FAFAFA"/>
<path d="M243.187 200.116H246.606V148.415H275.612V144.989H246.606V92.5858H275.612V89.1668H246.606V39.0425H243.187V89.1668H214.182V92.5858H243.187V144.989H214.182V148.415H243.187V200.116Z" fill="#FAFAFA"/>
<path d="M281.592 206.419H208.203V48.3568L208.871 47.6533C218.435 38.1154 231.39 32.7593 244.897 32.7593C258.404 32.7593 271.359 38.1154 280.923 47.6533L281.592 48.3568V206.419ZM212.768 201.853H277.026V50.2633C268.382 41.9778 256.871 37.3521 244.897 37.3521C232.923 37.3521 221.412 41.9778 212.768 50.2633V201.853Z" fill="#F0F0F0"/>
<path d="M175.968 262.488C251.301 262.488 312.37 258.922 312.37 254.524C312.37 250.126 251.301 246.561 175.968 246.561C100.636 246.561 39.5668 250.126 39.5668 254.524C39.5668 258.922 100.636 262.488 175.968 262.488Z" fill="#F5F5F5"/>
<path d="M78.1256 237.119C78.1256 237.119 77.1547 229.965 72.575 229.177C67.9952 228.389 69.3811 224.956 68.1851 223.598C66.9892 222.24 63.8797 226.208 66.546 230.035C69.2122 233.862 67.0314 232.659 68.1851 236.226C69.3389 239.793 78.5477 243.05 78.1256 237.119Z" fill="#263238"/>
<path opacity="0.2" d="M78.1256 237.119C78.1256 237.119 77.1547 229.965 72.575 229.177C67.9952 228.389 69.3811 224.956 68.1851 223.598C66.9892 222.24 63.8797 226.208 66.546 230.035C69.2122 233.862 67.0314 232.659 68.1851 236.226C69.3389 239.793 78.5477 243.05 78.1256 237.119Z" fill="white"/>
<path d="M77.9357 242.086C77.8764 242.085 77.8185 242.068 77.7688 242.035C77.719 242.003 77.6793 241.957 77.6543 241.903C77.6543 241.833 74.1368 234.39 75.9589 222.529C76.5511 219.136 77.4942 215.814 78.7729 212.617C80.9889 206.574 82.7336 201.811 78.7729 193.095C77.5066 190.337 76.2121 187.769 74.9599 185.286C70.2676 175.957 66.5179 168.592 69.3319 161.135C69.3452 161.095 69.3665 161.058 69.3946 161.026C69.4226 160.995 69.4568 160.97 69.495 160.952C69.5332 160.934 69.5746 160.924 69.6167 160.923C69.6589 160.922 69.7008 160.929 69.7399 160.945C69.8182 160.975 69.8815 161.034 69.9158 161.111C69.95 161.187 69.9526 161.274 69.9229 161.353C67.2636 168.557 70.9148 175.81 75.5508 185.004C76.8031 187.488 78.0975 190.063 79.3708 192.834C83.4793 201.783 81.6009 206.904 79.4271 212.835C78.147 215.991 77.2038 219.273 76.6131 222.628C74.8122 234.277 78.2171 241.559 78.2523 241.622C78.2886 241.698 78.2934 241.784 78.2657 241.864C78.238 241.943 78.18 242.008 78.1045 242.044C78.0532 242.073 77.9948 242.088 77.9357 242.086Z" fill="#263238"/>
<path d="M75.2976 240.334C75.2976 240.334 72.3358 235.881 76.6061 233.588C80.8763 231.294 81.7346 233.138 84.3446 231.477C86.9545 229.817 88.9947 225.849 89.4449 228.389C89.8952 230.929 86.842 232.406 87.9183 233.574C88.9947 234.742 80.7637 242.346 75.2976 240.334Z" fill="#263238"/>
<path d="M68.3329 164.969C68.3329 164.969 65.4485 156.203 72.0052 156.02C78.5618 155.837 71.3157 164.033 68.3329 164.969Z" fill="#263238"/>
<path d="M74.0101 171.701C74.0101 171.701 75.9659 163.738 80.616 165.419C85.2661 167.1 78.6462 171.849 74.0101 171.701Z" fill="#263238"/>
<path d="M66.1168 172.391C66.1168 172.391 66.8203 166.059 61.8958 165.911C56.9713 165.764 59.1381 171.342 66.1168 172.391Z" fill="#263238"/>
<path d="M69.4022 185.363C69.4022 185.363 62.7752 179.454 60.3904 183.851C58.0055 188.247 65.3922 189.162 69.4022 185.363Z" fill="#263238"/>
<path d="M81.1224 184.315C81.1224 184.315 82.3747 174.501 87.7213 177.582C93.0678 180.664 85.7866 185.293 81.1224 184.315Z" fill="#263238"/>
<path d="M85.8359 198.364C85.8359 198.364 81.8822 188.444 89.2268 189.563C96.5713 190.681 91.0207 195.965 85.8359 198.364Z" fill="#263238"/>
<path d="M74.5659 201.895C74.5659 201.895 68.3681 194.593 63.6265 196.908C58.8849 199.222 62.7612 206.517 74.5659 201.895Z" fill="#263238"/>
<path d="M80.1938 218.083C80.1938 218.083 85.4771 206.356 90.1765 210.309C94.8759 214.263 87.1796 220.172 80.1938 218.083Z" fill="#263238"/>
<path d="M72.5538 217.4C72.5538 217.4 73.9608 208.297 68.7198 209.029C63.4787 209.76 64.8154 215.325 72.5538 217.4Z" fill="#263238"/>
<g opacity="0.2">
<path d="M68.3329 164.969C68.3329 164.969 65.4485 156.203 72.0052 156.02C78.5618 155.837 71.3157 164.033 68.3329 164.969Z" fill="white"/>
<path d="M74.0101 171.701C74.0101 171.701 75.9659 163.738 80.616 165.419C85.2661 167.1 78.6462 171.849 74.0101 171.701Z" fill="white"/>
<path d="M66.1168 172.391C66.1168 172.391 66.8203 166.059 61.8958 165.911C56.9713 165.764 59.1381 171.342 66.1168 172.391Z" fill="white"/>
<path d="M69.4022 185.363C69.4022 185.363 62.7752 179.454 60.3904 183.851C58.0055 188.247 65.3922 189.162 69.4022 185.363Z" fill="white"/>
<path d="M81.1224 184.315C81.1224 184.315 82.3747 174.501 87.7213 177.582C93.0678 180.664 85.7866 185.293 81.1224 184.315Z" fill="white"/>
<path d="M85.8359 198.364C85.8359 198.364 81.8822 188.444 89.2268 189.563C96.5713 190.681 91.0207 195.965 85.8359 198.364Z" fill="white"/>
<path d="M74.5659 201.895C74.5659 201.895 68.3681 194.593 63.6265 196.908C58.8849 199.222 62.7612 206.517 74.5659 201.895Z" fill="white"/>
<path d="M80.1938 218.083C80.1938 218.083 85.4771 206.356 90.1765 210.309C94.8759 214.263 87.1796 220.172 80.1938 218.083Z" fill="white"/>
<path d="M72.5538 217.4C72.5538 217.4 73.9608 208.297 68.7198 209.029C63.4787 209.76 64.8154 215.325 72.5538 217.4Z" fill="white"/>
</g>
<path d="M71.1468 176.97C71.0924 176.97 71.0389 176.956 70.992 176.928C67.1087 174.754 64.3229 170.653 64.2033 170.477C64.1566 170.407 64.1397 170.321 64.1562 170.239C64.1727 170.157 64.2212 170.084 64.2912 170.037C64.3612 169.991 64.4468 169.974 64.5293 169.99C64.6117 170.007 64.6843 170.055 64.7309 170.125C66.4226 172.534 68.5569 174.599 71.0202 176.211C71.6111 175.113 73.7427 171.328 75.5226 170.259C75.5943 170.229 75.6745 170.225 75.7486 170.249C75.8226 170.273 75.8855 170.323 75.9257 170.39C75.9659 170.457 75.9807 170.536 75.9673 170.612C75.954 170.689 75.9135 170.758 75.8532 170.808C73.9608 171.94 71.4493 176.752 71.4282 176.802C71.386 176.875 71.3184 176.93 71.2383 176.956L71.1468 176.97Z" fill="#263238"/>
<path d="M77.1618 189.155C77.0925 189.153 77.0258 189.128 76.9719 189.085C71.4564 184.92 64.4003 185.089 64.3089 185.089C64.2249 185.089 64.1444 185.055 64.085 184.996C64.0257 184.937 63.9923 184.856 63.9923 184.772C63.9923 184.688 64.0257 184.608 64.085 184.548C64.1444 184.489 64.2249 184.456 64.3089 184.456C64.3863 184.456 71.4213 184.28 77.0774 188.374C77.7809 187.192 80.6512 182.929 84.2953 180.783C84.3312 180.762 84.3711 180.748 84.4126 180.742C84.4541 180.736 84.4963 180.738 84.5369 180.749C84.5775 180.759 84.6155 180.777 84.6489 180.803C84.6823 180.828 84.7104 180.86 84.7315 180.896C84.7713 180.969 84.7818 181.055 84.7609 181.136C84.7401 181.217 84.6893 181.287 84.6189 181.332C80.6019 183.696 77.4713 188.944 77.4432 188.993C77.3948 189.07 77.3195 189.125 77.2322 189.148L77.1618 189.155Z" fill="#263238"/>
<path d="M80.9959 205.237C80.9392 205.237 80.8834 205.223 80.8341 205.195C80.7567 205.152 72.6876 200.509 66.8626 200.397C66.7786 200.397 66.6981 200.363 66.6387 200.304C66.5794 200.245 66.546 200.164 66.546 200.08C66.546 199.996 66.5794 199.916 66.6387 199.856C66.6981 199.797 66.7786 199.764 66.8626 199.764C72.4202 199.869 79.6592 203.809 80.9326 204.54C84.6752 201.382 87.651 193.629 87.6791 193.552C87.7091 193.473 87.7688 193.41 87.8453 193.376C87.9218 193.342 88.0088 193.339 88.0872 193.369C88.1656 193.399 88.2292 193.458 88.2647 193.534C88.3001 193.61 88.3046 193.697 88.2771 193.777C88.1434 194.114 85.1184 202.001 81.1647 205.166C81.1173 205.207 81.0582 205.232 80.9959 205.237Z" fill="#263238"/>
<path d="M76.3175 221.875C76.2631 221.875 76.2096 221.86 76.1627 221.832C73.1096 220.088 69.17 212.448 69.0082 212.124C68.9746 212.05 68.9709 211.966 68.9977 211.889C69.0245 211.812 69.0798 211.749 69.1522 211.712C69.2245 211.675 69.3084 211.667 69.3863 211.69C69.4643 211.713 69.5304 211.765 69.571 211.836C69.6132 211.913 73.3769 219.222 76.2401 221.136C78.5755 218.427 81.6594 216.469 85.1042 215.508C85.1447 215.493 85.1878 215.487 85.2309 215.489C85.274 215.491 85.3161 215.503 85.3547 215.522C85.3933 215.541 85.4276 215.568 85.4554 215.601C85.4832 215.634 85.504 215.672 85.5165 215.713C85.529 215.755 85.5329 215.798 85.528 215.841C85.5231 215.884 85.5095 215.925 85.488 215.963C85.4665 216 85.4376 216.033 85.4031 216.059C85.3685 216.084 85.3291 216.103 85.2871 216.113C81.8743 217.068 78.8352 219.044 76.5778 221.776C76.5442 221.811 76.5035 221.837 76.4585 221.854C76.4136 221.871 76.3655 221.878 76.3175 221.875Z" fill="#263238"/>
<path d="M75.7477 239.272C75.7477 239.272 73.2151 235.234 70.3448 234.657C67.4746 234.08 66.2505 230.788 65.1882 232.772C64.1259 234.756 67.0454 241.333 75.7477 239.272Z" fill="#263238"/>
<path d="M62.5853 255.122H90.289L92.1392 238.034H60.728L62.5853 255.122Z" fill="#E94057"/>
<path d="M60.0808 241.27H92.7865L93.2016 237.654H59.6658L60.0808 241.27Z" fill="#E94057"/>
<path opacity="0.3" d="M60.0808 241.27H92.7865L93.2016 237.654H59.6658L60.0808 241.27Z" fill="white"/>
<path d="M232.586 165.637H304.948C304.948 169.745 302.837 170.301 300.206 170.484C292.425 171.026 280.466 172.932 276.667 179.587C269.597 191.997 270.279 238.393 278.778 248.488C281.43 251.654 289.175 255.122 289.175 255.122H248.372C248.372 255.122 255.611 251.527 258.123 248.488C266.565 238.315 266.79 191.941 259.685 179.587C256.04 173.256 244.827 171.209 237.306 170.561C234.654 170.329 232.586 169.745 232.586 165.637Z" fill="#263238"/>
<path opacity="0.5" d="M232.586 165.637H304.948C304.948 169.745 302.837 170.301 300.206 170.484C292.425 171.026 280.466 172.932 276.667 179.587C269.597 191.997 270.279 238.393 278.778 248.488C281.43 251.654 289.175 255.122 289.175 255.122H248.372C248.372 255.122 255.611 251.527 258.123 248.488C266.565 238.315 266.79 191.941 259.685 179.587C256.04 173.256 244.827 171.209 237.306 170.561C234.654 170.329 232.586 169.745 232.586 165.637Z" fill="white"/>
<path opacity="0.3" d="M295.985 170.892C288.634 171.807 279.805 174.051 276.667 179.587C275.604 181.615 274.8 183.768 274.275 185.996H262.126C261.589 183.766 260.771 181.612 259.692 179.587C256.526 174.079 247.641 171.814 240.43 170.892H295.985Z" fill="black"/>
<path d="M249.962 152.925C249.962 153.064 249.921 153.2 249.844 153.316C249.766 153.431 249.656 153.521 249.528 153.575C249.399 153.628 249.258 153.642 249.121 153.615C248.985 153.588 248.86 153.521 248.761 153.422C248.663 153.324 248.596 153.198 248.569 153.062C248.542 152.925 248.556 152.784 248.609 152.655C248.662 152.527 248.752 152.417 248.868 152.34C248.984 152.262 249.12 152.221 249.259 152.221C249.445 152.221 249.624 152.295 249.756 152.427C249.888 152.559 249.962 152.738 249.962 152.925Z" fill="#E94057"/>
<path d="M249.132 152.58C249.132 152.58 248.942 150.47 248.098 149.576L248.309 149.372C249.223 150.315 249.413 152.467 249.42 152.552L249.132 152.58Z" fill="#263238"/>
<path d="M249.976 158.159H250.011L254.802 152.995H243.469L248.26 158.159H248.288V164.124L245.924 165.63H252.347L249.976 164.124V158.159Z" fill="#E94057"/>
<path opacity="0.7" d="M249.976 158.159H250.011L254.802 152.995H243.469L248.26 158.159H248.288V164.124L245.924 165.63H252.347L249.976 164.124V158.159Z" fill="white"/>
<path d="M245.826 154.887L248.64 157.969C248.702 158.037 248.777 158.091 248.861 158.128C248.945 158.166 249.037 158.185 249.129 158.185C249.221 158.185 249.312 158.166 249.396 158.128C249.48 158.091 249.556 158.037 249.617 157.969L252.431 154.887H245.826Z" fill="#E94057"/>
<path d="M264.532 153.185C264.461 153.306 264.356 153.402 264.23 153.463C264.104 153.523 263.963 153.545 263.825 153.525C263.687 153.505 263.557 153.444 263.454 153.351C263.35 153.257 263.277 153.135 263.243 152.999C263.209 152.864 263.216 152.721 263.264 152.59C263.311 152.458 263.396 152.344 263.509 152.261C263.622 152.179 263.756 152.132 263.896 152.126C264.035 152.12 264.173 152.156 264.292 152.228C264.45 152.325 264.563 152.479 264.608 152.658C264.653 152.837 264.625 153.026 264.532 153.185Z" fill="#E94057"/>
<path d="M264.243 152.58L263.983 152.46C263.983 152.46 264.905 150.519 264.63 149.344L264.912 149.281C265.214 150.554 264.285 152.503 264.243 152.58Z" fill="#263238"/>
<path d="M265.383 158.159H265.411L270.202 152.995H258.869L263.659 158.159H263.688V164.124L261.324 165.63H267.747L265.383 164.124V158.159Z" fill="#E94057"/>
<path opacity="0.7" d="M265.383 158.159H265.411L270.202 152.995H258.869L263.659 158.159H263.688V164.124L261.324 165.63H267.747L265.383 164.124V158.159Z" fill="white"/>
<path d="M261.225 154.887L264.039 157.969C264.101 158.037 264.177 158.091 264.261 158.128C264.345 158.166 264.436 158.185 264.528 158.185C264.62 158.185 264.711 158.166 264.795 158.128C264.88 158.091 264.955 158.037 265.017 157.969L267.831 154.887H261.225Z" fill="#E94057"/>
<path d="M284.012 131.194H281.395L280.086 132.333L281.395 133.466H284.012L285.32 132.333L284.012 131.194Z" fill="#E94057"/>
<path opacity="0.6" d="M284.012 131.194H281.395L280.086 132.333L281.395 133.466H284.012L285.32 132.333L284.012 131.194Z" fill="white"/>
<path d="M288.085 142.858H286.361C286.142 142.858 285.924 142.816 285.721 142.733C285.518 142.649 285.333 142.527 285.178 142.372C285.022 142.217 284.899 142.033 284.815 141.83C284.73 141.627 284.687 141.41 284.687 141.19V133.009H280.719V141.19C280.717 141.633 280.54 142.057 280.226 142.37C279.913 142.682 279.488 142.858 279.045 142.858H277.321C276.935 142.858 276.565 143.011 276.292 143.284C276.018 143.557 275.865 143.928 275.865 144.314V164.181C275.865 164.567 276.018 164.937 276.292 165.21C276.565 165.483 276.935 165.637 277.321 165.637H288.085C288.47 165.635 288.838 165.481 289.11 165.208C289.382 164.935 289.534 164.566 289.534 164.181V144.314C289.534 143.929 289.382 143.559 289.11 143.287C288.838 143.014 288.47 142.859 288.085 142.858Z" fill="#E94057"/>
<path opacity="0.7" d="M288.085 142.858H286.361C286.142 142.858 285.924 142.816 285.721 142.733C285.518 142.649 285.333 142.527 285.178 142.372C285.022 142.217 284.899 142.033 284.815 141.83C284.73 141.627 284.687 141.41 284.687 141.19V133.009H280.719V141.19C280.717 141.633 280.54 142.057 280.226 142.37C279.913 142.682 279.488 142.858 279.045 142.858H277.321C276.935 142.858 276.565 143.011 276.292 143.284C276.018 143.557 275.865 143.928 275.865 144.314V164.181C275.865 164.567 276.018 164.937 276.292 165.21C276.565 165.483 276.935 165.637 277.321 165.637H288.085C288.47 165.635 288.838 165.481 289.11 165.208C289.382 164.935 289.534 164.566 289.534 164.181V144.314C289.534 143.929 289.382 143.559 289.11 143.287C288.838 143.014 288.47 142.859 288.085 142.858Z" fill="white"/>
<path d="M285.51 147.444H275.865V160.691H285.51V147.444Z" fill="#E94057"/>
<path d="M179.035 31.3462C182.518 28.4337 186.352 31.2759 187.632 34.8637C190.805 32.7532 195.582 32.7532 196.616 37.2064C198.36 44.6494 188.624 47.7589 184.178 48.7649L182.905 49.0463C182.672 48.786 182.398 48.4553 182.06 48.0614C179.113 44.6142 173.154 36.2707 179.035 31.3462Z" fill="#E94057"/>
<path d="M219.641 92.4943C222.209 90.1657 225.22 92.227 226.303 94.9214C228.667 93.226 232.311 93.1064 233.233 96.441C234.781 102.069 227.436 104.735 224.087 105.636L223.102 105.917C222.913 105.72 222.694 105.481 222.399 105.214C220.084 102.597 215.315 96.4128 219.641 92.4943Z" fill="#E94057"/>
<path d="M210.974 121.458C211.811 120.81 212.684 121.514 212.944 122.358C213.704 121.901 214.815 121.957 215.012 122.991C215.35 124.743 213.05 125.376 212.001 125.566L211.699 125.622L211.516 125.383C210.862 124.539 209.56 122.541 210.974 121.458Z" fill="#E94057"/>
<path d="M227.323 117.433C228.182 116.026 229.856 116.533 230.728 117.623C231.58 116.505 233.24 115.942 234.133 117.349C235.632 119.72 232.628 121.971 231.207 122.857L230.799 123.11L230.391 122.871C228.906 122.02 225.846 119.846 227.323 117.433Z" fill="#E94057"/>
<path d="M154.448 43.2C154.596 41.5398 156.333 41.2865 157.593 41.8915C157.874 40.5197 159.126 39.2886 160.54 40.175C162.925 41.6594 161.195 44.994 160.294 46.408C160.196 46.5698 160.111 46.7035 160.034 46.809L159.562 46.7668C157.895 46.6331 154.16 45.9929 154.448 43.2Z" fill="#E94057"/>
<path d="M197.643 56.7074C198.128 56.0461 198.93 56.3767 199.31 56.9536C199.774 56.4471 200.619 56.2501 200.999 56.9536C201.625 58.1917 200.049 59.1626 199.303 59.5354L199.092 59.641L198.902 59.5003C198.234 59.0359 196.82 57.8259 197.643 56.7074Z" fill="#E94057"/>
<path d="M118.851 72.515C119.554 69.701 122.544 69.7503 124.528 71.108C125.358 68.8568 127.792 67.0911 129.966 68.9413C133.624 72.0718 129.84 77.2848 127.961 79.4515L127.42 80.0706C127.202 80.0284 126.941 79.9651 126.625 79.8877C123.825 79.1842 117.711 77.1933 118.851 72.515Z" fill="#E94057"/>
<path d="M116.656 96.8348C116.185 95.4841 117.458 94.675 118.654 94.7243C118.394 93.5565 118.942 92.1495 120.356 92.3465C122.741 92.6701 122.558 95.864 122.354 97.271C122.354 97.4328 122.312 97.5664 122.298 97.672L121.911 97.8127C120.561 98.3051 117.437 99.1141 116.656 96.8348Z" fill="#E94057"/>
<path opacity="0.3" d="M227.323 117.433C228.182 116.026 229.856 116.533 230.728 117.623C231.58 116.505 233.24 115.942 234.133 117.349C235.632 119.72 232.628 121.971 231.207 122.857L230.799 123.11L230.391 122.871C228.906 122.02 225.846 119.846 227.323 117.433Z" fill="white"/>
<path opacity="0.3" d="M154.448 43.2C154.596 41.5398 156.333 41.2865 157.593 41.8915C157.874 40.5197 159.126 39.2886 160.54 40.175C162.925 41.6594 161.195 44.994 160.294 46.408C160.196 46.5698 160.111 46.7035 160.034 46.809L159.562 46.7668C157.895 46.6331 154.16 45.9929 154.448 43.2Z" fill="white"/>
<path opacity="0.3" d="M116.656 96.8348C116.185 95.4841 117.458 94.675 118.654 94.7243C118.394 93.5565 118.942 92.1495 120.356 92.3465C122.741 92.6701 122.558 95.864 122.354 97.271C122.354 97.4328 122.312 97.5664 122.298 97.672L121.911 97.8127C120.561 98.3051 117.437 99.1141 116.656 96.8348Z" fill="white"/>
<path opacity="0.5" d="M210.974 121.458C211.811 120.81 212.684 121.514 212.944 122.358C213.704 121.901 214.815 121.957 215.012 122.991C215.35 124.743 213.05 125.376 212.001 125.566L211.699 125.622L211.516 125.383C210.862 124.539 209.56 122.541 210.974 121.458Z" fill="white"/>
<path opacity="0.5" d="M197.643 56.7074C198.128 56.0461 198.93 56.3767 199.31 56.9536C199.774 56.4471 200.619 56.2501 200.999 56.9536C201.625 58.1917 200.049 59.1626 199.303 59.5354L199.092 59.641L198.902 59.5003C198.234 59.0359 196.82 57.8259 197.643 56.7074Z" fill="white"/>
<path d="M173.977 250.873H179.76L179.162 246.976L178.219 240.792L172.676 242.361L173.386 246.976L173.977 250.873Z" fill="#EBB376"/>
<path d="M141.933 251.19H147.652L147.624 246.469L147.589 240.581L141.863 241.334L141.905 246.469L141.933 251.19Z" fill="#EBB376"/>
<path opacity="0.2" d="M147.589 240.581L147.624 246.469H141.905L141.863 241.334L147.589 240.581Z" fill="black"/>
<path opacity="0.2" d="M179.162 246.976H173.386L172.676 242.361L178.219 240.792L179.162 246.976Z" fill="black"/>
<path d="M179.486 248.727L173.154 248.558C173.039 248.556 172.927 248.592 172.835 248.661C172.744 248.73 172.677 248.828 172.648 248.938L171.325 254.004C171.293 254.126 171.289 254.254 171.314 254.379C171.339 254.503 171.392 254.62 171.468 254.721C171.545 254.822 171.643 254.904 171.756 254.961C171.869 255.018 171.993 255.049 172.12 255.052C174.392 255.052 177.678 255.052 180.562 255.108C183.897 255.192 186.021 255.031 189.94 255.108C192.303 255.171 193.049 252.808 192.05 252.568C187.576 251.464 184.649 251.682 180.836 249.185C180.437 248.911 179.969 248.752 179.486 248.727Z" fill="#263238"/>
<path d="M147.441 248.727L141.145 248.559C141.031 248.555 140.919 248.591 140.828 248.66C140.737 248.729 140.673 248.828 140.645 248.938L139.323 254.004C139.289 254.124 139.282 254.252 139.305 254.375C139.327 254.499 139.376 254.616 139.45 254.717C139.524 254.819 139.62 254.902 139.731 254.962C139.841 255.021 139.964 255.054 140.09 255.059C142.362 255.059 145.654 255.059 148.532 255.115C151.873 255.2 153.991 255.038 157.909 255.115C160.273 255.178 161.019 252.815 160.02 252.576C155.546 251.471 152.619 251.689 148.806 249.192C148.404 248.912 147.931 248.751 147.441 248.727Z" fill="#263238"/>
<path d="M135.257 129.942C133.744 155.211 139.288 245.773 139.288 245.773L148.433 244.957L152.359 154.691L169.82 245.773L179.225 244.957C172.19 178.293 165.718 133.501 165.718 133.501V128.471L141.166 125.088C140.455 124.99 139.731 125.041 139.04 125.237C138.349 125.432 137.706 125.769 137.151 126.224C136.597 126.68 136.142 127.245 135.816 127.885C135.49 128.525 135.3 129.225 135.257 129.942Z" fill="#263238"/>
<path opacity="0.2" d="M179.232 244.956L169.82 245.772L155.75 173.01L152.38 154.719L148.454 244.978L139.309 245.794C139.309 245.794 133.92 158.679 135.165 131.552C135.207 130.633 135.441 129.732 135.851 128.908C136.261 128.084 136.838 127.354 137.545 126.766C138.253 126.177 139.076 125.743 139.961 125.49C140.846 125.238 141.774 125.172 142.686 125.298L165.725 128.478V133.501C165.725 133.501 172.212 178.286 179.232 244.956Z" fill="white"/>
<path d="M165.817 130.54L164.754 130.335L162.946 129.984C158.655 129.154 153.379 128.126 148.56 127.205L146.759 126.853L139.675 125.446C139.181 125.35 138.714 125.151 138.303 124.863C137.891 124.574 137.546 124.201 137.288 123.77C137.03 123.338 136.867 122.857 136.808 122.358C136.749 121.859 136.795 121.353 136.945 120.873C137.923 117.722 139.393 113.135 140.871 107.683C141.848 104.053 142.819 100.043 143.685 95.7867C144.388 92.1707 144.993 88.3788 145.408 84.5307C145.62 82.5409 146.608 80.715 148.159 79.4502C149.709 78.1855 151.697 77.5842 153.688 77.7771C153.731 77.7805 153.773 77.7805 153.815 77.7771C154.3 77.8193 154.786 77.8756 155.271 77.9389L156.27 78.0726L157.143 78.1992C161.13 78.7813 165.082 79.5798 168.982 80.5911C169.489 80.7388 169.995 80.8865 170.474 81.0484C170.952 81.2102 171.494 81.3931 171.972 81.5689C172.676 81.8152 173.295 82.0544 173.872 82.2724C175.061 82.7508 175.982 83.1729 176.601 83.4403C176.796 83.5239 176.965 83.6592 177.089 83.8315C177.213 84.0038 177.287 84.2066 177.305 84.4181C177.579 87.9708 178.128 104.735 165.817 130.54Z" fill="#E94057"/>
<path opacity="0.7" d="M166.274 129.604C166.138 129.878 165.918 130.1 165.645 130.237C165.372 130.374 165.062 130.418 164.761 130.364L162.953 130.012C158.662 129.182 153.386 128.155 148.567 127.233L146.766 126.881L137.276 125.045C137.091 125.009 136.916 124.936 136.761 124.829C136.606 124.722 136.475 124.584 136.376 124.425C136.277 124.265 136.212 124.086 136.185 123.9C136.159 123.714 136.17 123.524 136.22 123.343C137.065 120.395 138.971 114.816 140.878 107.746C141.82 104.229 142.77 100.345 143.586 96.2299C143.586 96.1033 143.635 95.9767 143.663 95.85C144.367 92.234 144.972 88.4422 145.387 84.594C145.439 84.0853 145.542 83.5831 145.697 83.0956C146.226 81.4418 147.306 80.019 148.756 79.0631C150.205 78.1072 151.939 77.6758 153.667 77.8405C153.709 77.8438 153.752 77.8438 153.794 77.8405C154.279 77.8827 154.765 77.939 155.25 78.0023L156.249 78.1359L157.121 78.2626C161.114 78.823 165.074 79.6004 168.982 80.5911C169.489 80.7389 169.995 80.8866 170.474 81.0484C170.952 81.2102 171.494 81.3931 171.972 81.569C172.676 81.8152 173.295 82.0544 173.872 82.2725C174.99 82.7227 175.912 83.1237 176.503 83.3911C176.725 83.4912 176.916 83.6492 177.055 83.8485C177.195 84.0478 177.279 84.281 177.298 84.5237C177.579 88.2522 178.001 104.566 166.274 129.604Z" fill="white"/>
<path opacity="0.2" d="M155.757 173.01L152.387 154.719L153.034 145.025C153.034 145.025 157.677 161.81 155.757 173.01Z" fill="black"/>
<path d="M148.532 127.233C148.004 128.64 147.441 130.047 146.843 131.517L145.169 130.814C145.718 129.477 146.238 128.169 146.731 126.874C156.446 101.506 155.876 84.2352 155.215 78.0022L156.214 78.1359L157.086 78.2625C157.839 85.0231 158.17 102.055 148.532 127.233Z" fill="#263238"/>
<path d="M164.754 130.364C164.346 131.433 163.913 132.521 163.453 133.628L161.779 132.924C162.18 131.932 162.574 130.962 162.946 129.998C172.401 105.826 172.549 88.8782 171.972 81.5759C172.676 81.8222 173.295 82.0613 173.872 82.2794C174.413 90.1938 173.935 106.782 164.754 130.364Z" fill="#263238"/>
<path d="M169.967 84.9809C169.967 84.9809 166.83 86.62 165.345 86.2824C163.235 85.811 158.564 79.2474 158.564 79.2474C160.913 78.7338 163.228 76.6233 165.176 74.2033C166.704 72.2648 168.057 70.1956 169.222 68.0195L171.789 77.0736C169.623 78.8042 167.716 80.8232 168.476 82.997C168.787 83.7797 169.302 84.4647 169.967 84.9809Z" fill="#EBB376"/>
<path opacity="0.2" d="M168.476 82.962C166.467 80.4924 165.31 77.4401 165.177 74.2597C166.704 72.3212 168.057 70.252 169.222 68.0759L171.789 77.0737C169.637 78.7691 167.716 80.7881 168.476 82.962Z" fill="black"/>
<path d="M178.74 62.075C179.598 64.1855 179.591 68.6527 176.454 67.4568C173.316 66.2608 177.263 58.466 178.74 62.075Z" fill="#263238"/>
<path d="M163.418 66.2819C163.544 71.8607 163.333 75.1319 166.042 78.0726C170.115 82.4976 177.101 80.1408 178.649 74.6254C180.056 69.6587 179.598 61.3645 174.224 58.9937C173.032 58.4788 171.73 58.2719 170.437 58.3922C169.145 58.5124 167.903 58.9559 166.827 59.6818C165.751 60.4077 164.874 61.3927 164.279 62.546C163.683 63.6994 163.387 64.9841 163.418 66.2819Z" fill="#EBB376"/>
<path d="M167.062 62.9403L166.548 56.7424C166.548 56.7424 159.907 56.7917 160.484 60.1474C156.967 62.2579 159.176 67.8085 164.311 70.1933C166.823 67.8155 166.119 62.6518 166.119 62.6518C166.394 62.7573 166.724 62.8558 167.062 62.9403Z" fill="#263238"/>
<path d="M161.089 70.8407C161.276 71.5072 161.593 72.13 162.021 72.6734C162.45 73.2168 162.982 73.6698 163.587 74.0065C165.219 74.8999 166.464 73.5351 166.401 71.7764C166.316 70.1935 165.373 67.8227 163.587 67.6539C163.186 67.618 162.782 67.6829 162.413 67.8427C162.044 68.0025 161.72 68.2522 161.472 68.5689C161.224 68.8856 161.059 69.2594 160.992 69.6562C160.925 70.0529 160.959 70.4602 161.089 70.8407Z" fill="#EBB376"/>
<path d="M175.314 68.4065C175.822 69.7643 176.516 71.0452 177.375 72.2124C177.055 72.4138 176.696 72.5449 176.321 72.5971C175.946 72.6492 175.565 72.6212 175.201 72.5149L175.314 68.4065Z" fill="#D58745"/>
<path d="M170.34 66.3804C170.386 66.3892 170.434 66.3846 170.478 66.3671C170.521 66.3497 170.559 66.3201 170.586 66.2819C170.793 66.0171 171.058 65.8037 171.36 65.6585C171.663 65.5132 171.995 65.4401 172.331 65.4448C172.366 65.4486 172.402 65.4455 172.436 65.4356C172.47 65.4257 172.501 65.4091 172.529 65.3868C172.556 65.3646 172.579 65.3371 172.596 65.306C172.613 65.2749 172.623 65.2407 172.627 65.2056C172.63 65.1708 172.627 65.1356 172.617 65.1021C172.607 65.0686 172.591 65.0375 172.568 65.0105C172.546 64.9836 172.518 64.9615 172.487 64.9454C172.456 64.9294 172.422 64.9197 172.387 64.9171C171.963 64.9013 171.542 64.9869 171.158 65.1668C170.773 65.3467 170.438 65.6156 170.178 65.9513C170.156 65.9778 170.138 66.0086 170.128 66.042C170.117 66.0753 170.114 66.1104 170.117 66.1452C170.12 66.18 170.13 66.2137 170.147 66.2445C170.164 66.2752 170.186 66.3023 170.214 66.3241C170.248 66.3566 170.293 66.3764 170.34 66.3804Z" fill="#263238"/>
<path d="M179.232 66.521C179.283 66.5351 179.337 66.5351 179.387 66.521C179.451 66.4917 179.502 66.4388 179.528 66.3733C179.554 66.3078 179.554 66.2347 179.528 66.1693C179.366 65.7788 179.112 65.4334 178.787 65.1627C178.462 64.8919 178.077 64.7038 177.664 64.6145C177.629 64.6085 177.594 64.6094 177.56 64.6172C177.527 64.6249 177.495 64.6394 177.466 64.6597C177.438 64.6801 177.414 64.7058 177.396 64.7355C177.378 64.7652 177.366 64.7982 177.361 64.8326C177.354 64.8669 177.354 64.9024 177.362 64.9367C177.369 64.9709 177.383 65.0033 177.404 65.0317C177.424 65.0602 177.45 65.084 177.481 65.1018C177.511 65.1196 177.544 65.131 177.579 65.1351C177.905 65.21 178.208 65.3631 178.462 65.5813C178.716 65.7994 178.913 66.0761 179.035 66.3873C179.055 66.4237 179.084 66.4548 179.118 66.478C179.152 66.5013 179.191 66.516 179.232 66.521Z" fill="#263238"/>
<path d="M160.491 60.1474C160.491 60.1474 156.678 57.2208 168.23 56.0741C179.781 54.9274 182.476 61.1252 177.375 63.285L177.002 62.2649C176.157 62.8484 175.197 63.2439 174.186 63.4247C173.175 63.6055 172.137 63.5675 171.142 63.3131L171.909 62.687C171.909 62.687 164.178 64.4809 160.491 60.1474Z" fill="#263238"/>
<path d="M172.036 68.7865C171.62 68.7589 171.224 68.6014 170.903 68.3362C170.88 68.322 170.86 68.3031 170.844 68.2807C170.829 68.2584 170.818 68.233 170.813 68.2063C170.807 68.1795 170.808 68.152 170.814 68.1254C170.819 68.0987 170.831 68.0737 170.847 68.0517C170.863 68.0297 170.884 68.0113 170.907 67.9977C170.931 67.984 170.957 67.9754 170.984 67.9724C171.011 67.9694 171.039 67.972 171.065 67.9802C171.091 67.9883 171.115 68.0017 171.135 68.0196C171.278 68.1469 171.445 68.2437 171.627 68.3042C171.808 68.3647 172 68.3876 172.19 68.3714C172.27 68.3536 172.345 68.3193 172.41 68.2709C172.476 68.2224 172.53 68.1608 172.57 68.09C172.593 68.0424 172.633 68.0057 172.683 67.9879C172.732 67.9701 172.787 67.9726 172.834 67.995C172.882 68.0174 172.918 68.0578 172.936 68.1073C172.954 68.1567 172.952 68.2113 172.929 68.2588C172.863 68.381 172.773 68.4884 172.664 68.5743C172.555 68.6602 172.43 68.7228 172.296 68.7583C172.211 68.7785 172.123 68.7879 172.036 68.7865Z" fill="#263238"/>
<path d="M177.973 68.8638C177.789 68.8415 177.61 68.7827 177.448 68.6909C177.286 68.5991 177.144 68.4762 177.03 68.3292C177.012 68.3114 176.997 68.2902 176.987 68.2666C176.977 68.243 176.972 68.2176 176.972 68.192C176.972 68.1664 176.977 68.141 176.987 68.1174C176.997 68.0938 177.012 68.0725 177.03 68.0548C177.068 68.0187 177.119 67.9985 177.171 67.9985C177.224 67.9985 177.274 68.0187 177.312 68.0548C177.471 68.2571 177.699 68.3946 177.952 68.4417C178.041 68.4306 178.127 68.3996 178.202 68.3508C178.278 68.3021 178.341 68.237 178.388 68.1603C178.421 68.1231 178.466 68.0994 178.515 68.0939C178.564 68.0885 178.613 68.1017 178.653 68.1309C178.693 68.1601 178.72 68.2032 178.73 68.2516C178.74 68.3001 178.731 68.3504 178.705 68.3925C178.624 68.5212 178.513 68.6286 178.382 68.7058C178.251 68.7829 178.104 68.8274 177.952 68.8357L177.973 68.8638Z" fill="#263238"/>
<path d="M161.652 77.186L166.654 84.1225L168.87 80.1056L171.789 82.61L168.757 89.1877L166.492 86.2119L160.407 87.4782L157.501 78.3327L161.652 77.186Z" fill="#E94057"/>
<path opacity="0.6" d="M161.652 77.186L166.654 84.1225L168.87 80.1056L171.789 82.61L168.757 89.1877L166.492 86.2119L160.407 87.4782L157.501 78.3327L161.652 77.186Z" fill="white"/>
<path d="M136.91 121.042L166.717 128.633L166.309 137.441L134.87 143.456C134.87 143.456 133.667 131.517 136.91 121.042Z" fill="#263238"/>
<path opacity="0.2" d="M136.91 121.042L166.717 128.633L166.309 137.441L134.87 143.456C134.87 143.456 133.667 131.517 136.91 121.042Z" fill="white"/>
<path d="M145.88 123.87L136.389 121.486L135.7 124.363L145.225 126.656L145.88 123.87Z" fill="#263238"/>
<path d="M146.238 126.902L165.416 131.524C165.535 130.729 165.711 129.569 165.824 128.865L146.984 124.138L146.238 126.902Z" fill="#263238"/>
<path d="M166.457 129.034L166.028 131.679L166.717 131.841L167.09 129.189L166.457 129.034Z" fill="#263238"/>
<path d="M158.669 130.279C158.585 130.289 158.5 130.289 158.416 130.279L155.503 129.576C155.229 129.507 154.992 129.334 154.844 129.094C154.695 128.853 154.647 128.564 154.708 128.288L155.011 126.924C155.038 126.778 155.096 126.64 155.181 126.519C155.266 126.397 155.376 126.296 155.503 126.22C155.624 126.143 155.76 126.091 155.902 126.07C156.043 126.048 156.188 126.056 156.327 126.093L159.239 126.797C159.513 126.867 159.75 127.041 159.897 127.283C160.044 127.525 160.091 127.815 160.027 128.091L159.717 129.428C159.69 129.572 159.633 129.708 159.551 129.829C159.469 129.95 159.363 130.053 159.239 130.131C159.066 130.231 158.869 130.282 158.669 130.279ZM155.785 127.064L155.475 128.429C155.46 128.504 155.474 128.583 155.515 128.648C155.555 128.713 155.619 128.761 155.693 128.781L158.599 129.484C158.637 129.494 158.676 129.497 158.715 129.49C158.754 129.484 158.791 129.47 158.824 129.449C158.856 129.43 158.884 129.405 158.906 129.375C158.928 129.344 158.943 129.31 158.951 129.273L159.26 127.93C159.277 127.856 159.265 127.778 159.225 127.714C159.186 127.65 159.122 127.603 159.049 127.585L156.137 126.881C156.06 126.868 155.981 126.881 155.911 126.917C155.879 126.937 155.851 126.963 155.829 126.995C155.808 127.026 155.792 127.062 155.785 127.099V127.064Z" fill="white"/>
<path d="M158.761 128.689H158.711L157.853 128.471C157.803 128.458 157.759 128.426 157.731 128.381C157.704 128.337 157.695 128.283 157.705 128.232C157.719 128.182 157.751 128.139 157.796 128.112C157.841 128.086 157.894 128.078 157.945 128.091L158.81 128.309C158.856 128.322 158.895 128.351 158.922 128.39C158.948 128.43 158.959 128.477 158.953 128.524C158.947 128.571 158.924 128.615 158.889 128.646C158.854 128.678 158.808 128.696 158.761 128.696V128.689Z" fill="white"/>
<path opacity="0.1" d="M160.329 101.372L158.564 102.399C158.564 102.399 159.781 107.24 151.592 103.574C148.219 102.035 145.423 99.4628 143.607 96.2298C143.607 96.1032 143.657 95.9765 143.685 95.8499C144.388 92.2339 144.993 88.4421 145.408 84.5939C145.46 84.0851 145.563 83.583 145.718 83.0955C148.841 83.1447 154.125 83.9115 156.805 88.2099C159.187 92.1818 160.408 96.7417 160.329 101.372Z" fill="black"/>
<path d="M188.631 163.477C188.631 166.531 188.462 169.935 188.125 173.713C187.907 176.133 187.611 178.701 187.231 181.452C187.14 182.106 187.048 182.767 186.943 183.443C186.554 186.032 186.085 188.759 185.536 191.624C191.452 211.357 179.296 249.853 179.296 249.853C177.235 250.261 175.412 249.994 174.491 249.304C176.784 237.704 175.131 207.545 173.351 189.507C173.196 187.875 172.992 186.074 172.774 184.153L172.648 183.049C172.31 180.094 171.944 176.9 171.508 173.615C170.973 169.394 170.389 164.983 169.82 160.783H188.631C188.631 161.648 188.631 162.549 188.631 163.477Z" fill="#EEC1BB"/>
<path d="M229.343 236.388C227.704 237.696 225.966 238.302 224.833 238.119C221.506 226.771 206.106 200.784 196.201 185.624C195.68 184.822 195.125 183.977 194.534 183.098L193.218 181.142C191.656 178.821 189.933 176.309 188.139 173.713L187.224 172.384C184.649 168.669 181.948 164.828 179.373 161.198C179.282 161.057 179.183 160.917 179.085 160.783H200.288C201.297 163.006 202.307 165.435 203.32 168.071C203.789 169.347 204.279 170.672 204.791 172.046C205.564 174.227 206.334 176.537 207.098 178.975C207.401 179.918 207.689 180.875 207.984 181.86C222.336 196.626 229.343 236.388 229.343 236.388Z" fill="#EEC1BB"/>
<path d="M232.051 240.658L231.207 241.094L230.433 240.173L228.323 242.888L221.245 246.575C221.245 246.575 219.529 246.033 222.434 243.374C222.575 243.244 222.702 243.1 222.814 242.944C224.172 241.165 225.248 236.986 225.248 236.986L229.132 234.967C229.342 235.084 229.545 235.215 229.737 235.361C230.581 235.994 232.248 237.401 232.051 240.658Z" fill="#E94057"/>
<path d="M229.708 235.361C228.899 235.058 227.872 238.787 226.613 240.525C225.48 242.086 223.94 243.339 222.779 242.938C224.137 241.158 225.044 236.008 225.044 236.008L228.168 234.383C228.168 234.383 229.336 235.087 229.708 235.361Z" fill="#FFC2BC"/>
<path d="M179.718 254.876H178.782L178.522 253.701L175.37 255.108H167.378C167.378 255.108 166.105 253.835 169.911 252.815C170.096 252.766 170.275 252.698 170.446 252.611C172.472 251.661 175.37 248.453 175.37 248.453H179.746C179.881 248.655 180.001 248.867 180.105 249.086C180.569 250.064 181.399 252.083 179.718 254.876Z" fill="#E94057"/>
<path d="M180.091 249.1C179.514 248.453 176.883 251.281 174.955 252.245C173.239 253.103 171.304 253.483 170.446 252.611C172.472 251.661 175.659 247.51 175.659 247.51H179.176C179.176 247.51 179.887 248.685 180.091 249.1Z" fill="#FFC2BC"/>
<path opacity="0.2" d="M207.091 178.975C202.87 181.416 197.53 182.591 194.534 183.098L193.218 181.142C191.656 178.821 189.933 176.309 188.139 173.713C187.921 176.133 187.625 178.701 187.245 181.452C187.154 182.106 187.062 182.767 186.957 183.443H178.937L174.716 173.024L175.56 181.578L172.676 183.063C172.338 180.108 171.972 176.914 171.536 173.629C171.002 169.408 170.418 164.997 169.848 160.797H177.628L179.401 161.212C182.215 161.859 185.416 162.619 188.673 163.491C193.643 164.762 198.541 166.296 203.348 168.085C203.817 169.361 204.307 170.686 204.819 172.06C205.569 174.231 206.327 176.536 207.091 178.975Z" fill="black"/>
<path d="M199.008 115.689C198.265 115.818 197.51 115.87 196.757 115.843C195.591 115.852 194.445 115.548 193.436 114.964L195.547 100.76L196.489 94.429C199.585 96.2158 201.463 115.274 199.008 115.689Z" fill="#EEC1BB"/>
<path opacity="0.2" d="M196.757 115.843C195.591 115.852 194.445 115.548 193.436 114.964L195.547 100.76C195.652 100.683 192.085 99.4167 192.191 99.3534C192.296 99.2901 198.361 107.753 196.757 115.843Z" fill="black"/>
<path d="M181.062 70.51L180.126 70.2849C180.126 70.2849 180.604 71.0165 181.062 70.51Z" fill="#263238"/>
<path d="M180.049 71.4456C179.142 71.8876 178.182 72.2115 177.192 72.4093C177.242 73.1128 178.079 73.4998 178.079 73.4998L180.049 71.4456Z" fill="#D4827D"/>
<path d="M181.765 68.8428C181.76 68.7845 181.777 68.7265 181.814 68.681C181.836 68.6591 181.862 68.6417 181.89 68.6298C181.918 68.6179 181.949 68.6118 181.98 68.6118C182.01 68.6118 182.041 68.6179 182.069 68.6298C182.098 68.6417 182.123 68.6591 182.145 68.681C182.445 68.9125 182.688 69.2099 182.855 69.5502C183.022 69.8905 183.109 70.2646 183.109 70.6437C183.106 70.6738 183.098 70.703 183.083 70.7295C183.069 70.756 183.049 70.7793 183.025 70.7978C183.002 70.8163 182.974 70.8296 182.945 70.837C182.916 70.8444 182.885 70.8457 182.856 70.8407C182.794 70.8306 182.738 70.7988 182.698 70.751C182.658 70.7033 182.637 70.6427 182.637 70.5804C182.636 70.2797 182.564 69.9835 182.429 69.715C182.293 69.4465 182.097 69.213 181.857 69.0327C181.803 68.9832 181.77 68.9154 181.765 68.8428Z" fill="#263238"/>
<path d="M182.483 84.946C182.412 84.9526 182.342 84.9526 182.272 84.946L181.856 84.8756C180.978 84.757 180.129 84.478 179.352 84.0525C176.862 82.6455 175.68 81.0415 175.553 79.2758C175.549 79.2055 175.549 79.135 175.553 79.0647C175.553 76.3844 177.664 73.5211 180.696 70.6227C181.873 69.4248 183.234 68.4226 184.727 67.654C184.727 67.654 184.776 67.6117 184.783 67.6117L184.966 67.5273C185.834 67.1194 186.789 66.9348 187.746 66.99C188.703 67.0453 189.631 67.3388 190.446 67.8439C191.171 68.2702 191.847 68.7725 192.465 69.3424C198.48 74.8578 190.298 85.8183 182.483 84.946Z" fill="#EEC1BB"/>
<path opacity="0.2" d="M181.856 84.8542C180.978 84.7356 180.129 84.4566 179.352 84.0311C176.862 82.6241 175.68 81.0202 175.553 79.2544C176.511 80.6111 177.865 81.6382 179.429 82.195C180.007 82.4285 180.525 82.7886 180.945 83.2488C181.365 83.709 181.677 84.2577 181.856 84.8542Z" fill="black"/>
<path d="M187.583 92.5084C188.371 95.3224 184.769 96.7294 184.769 96.7294C178.564 94.5063 177.249 91.3546 177.249 91.3546C182.173 88.4211 180.238 81.0554 180.238 81.0554L181.294 81.4986L188.589 82.4835C188.589 82.4835 186.816 86.4442 186.605 87.3306C185.487 92.0019 187.583 92.5084 187.583 92.5084Z" fill="#EEC1BB"/>
<path d="M184.741 67.5764C184.741 67.5764 179.718 71.5512 182.018 77.0948C182.018 77.0948 180.407 82.9971 182.87 85.4172C186.232 88.7166 193.837 86.6483 197.305 80.549C201.801 72.6416 192.493 62.9615 184.741 67.5764Z" fill="#263238"/>
<path d="M181.751 74.0838C182.272 73.3803 183.742 72.5501 184.762 73.528C185.782 74.5059 184.417 78.2555 181.062 76.8345C180.583 76.6234 180.654 75.6033 181.751 74.0838Z" fill="#EEC1BB"/>
<path d="M196.257 69.9473C196.257 69.9473 193.19 65.1776 189.461 64.7203C185.1 64.1856 182.293 65.2198 182.539 71.1151C182.539 71.1151 191.326 75.2306 193.141 77.7913C194.207 79.2823 195.148 80.8588 195.955 82.5048C200.591 78.4807 199.353 71.1362 196.257 69.9473Z" fill="#263238"/>
<path d="M177.868 75.0053C177.868 75.0053 177.565 74.1541 177.164 74.0345C176.763 73.9149 176.693 75.5048 176.693 75.5048C176.693 75.5048 175.054 76.2083 175.173 76.8063C175.293 77.4043 176.503 77.9108 176.503 77.9108L177.868 75.0053Z" fill="#EEC1BB"/>
<path d="M182.778 77.0173C182.778 77.0173 180.527 80.0212 181.751 87.6753C184.914 89.5545 188.512 90.5776 192.191 90.6441H198.051C198.051 90.6441 197.58 83.9608 198.48 79.2544C199.381 74.548 199.233 72.142 196.257 69.9471C193.281 67.7522 186.521 76.6796 186.521 76.6796L182.778 77.0173Z" fill="#263238"/>
<path d="M181.477 76.2081C181.478 76.2905 181.455 76.3714 181.41 76.4406C181.365 76.5098 181.301 76.5641 181.225 76.5966C181.15 76.6291 181.066 76.6383 180.985 76.6231C180.904 76.6079 180.829 76.5689 180.771 76.5112C180.712 76.4534 180.672 76.3795 180.655 76.2988C180.638 76.2181 180.646 76.1343 180.677 76.058C180.709 75.9818 180.762 75.9165 180.83 75.8706C180.899 75.8247 180.979 75.8001 181.062 75.8001C181.116 75.7992 181.17 75.809 181.22 75.8291C181.27 75.8492 181.316 75.8791 181.355 75.9171C181.393 75.9551 181.424 76.0004 181.445 76.0504C181.466 76.1003 181.477 76.154 181.477 76.2081Z" fill="#263238"/>
<path d="M196.489 94.4501C196.489 94.4501 195.786 100.571 195.117 108.879C194.576 115.492 194.055 123.491 193.921 130.891H171.782C171.782 130.891 171.529 130.188 171.149 128.9C170.797 127.733 170.34 126.086 169.869 124.096C168.581 118.693 167.203 110.729 167.639 102.646C167.639 102.146 167.695 101.64 167.737 101.14C167.786 100.479 167.857 99.8248 167.934 99.1635C168.126 97.5199 168.417 95.8894 168.807 94.2812C169.431 91.6112 170.388 89.0303 171.656 86.599C171.656 86.599 172.563 86.402 176.235 87.8583C181.188 89.807 196.489 94.4501 196.489 94.4501Z" fill="#EEC1BB"/>
<path d="M178.937 88.8782C180.654 88.2076 182.56 88.2076 184.277 88.8782C186.047 89.4405 187.596 90.5426 188.709 92.0299L178.937 88.8782Z" fill="#E94057"/>
<path d="M207.478 177.815C189.377 179.384 180.041 181.494 180.041 181.494L179.338 179.728L177.994 176.154L177.094 173.77L176.475 172.13L175.307 169.035L174.892 167.938L173.942 165.426L174.019 168.099L174.055 169.26L174.153 172.546L174.209 174.29L174.287 176.823L174.399 180.608V180.84L171.853 183.429C171.712 182.669 171.585 181.916 171.459 181.17C171.248 179.911 171.051 178.68 170.875 177.463C170.755 176.626 170.643 175.796 170.537 174.98C170.46 174.403 170.382 173.826 170.319 173.263C170.185 172.166 170.066 171.082 169.96 170.02C169.918 169.633 169.883 169.253 169.848 168.873C169.721 167.527 169.616 166.216 169.531 164.941C169.531 164.8 169.531 164.659 169.531 164.526C168.356 146.579 170.748 134.979 171.529 131.799C171.515 130.82 171.38 129.847 171.128 128.9C170.889 127.782 170.502 126.276 169.904 124.278C169.904 124.222 169.904 124.159 169.848 124.096C168.898 120.859 167.421 114.064 167.421 114.064C167.421 114.064 165.31 110.251 165.655 106.515C165.849 104.564 166.553 102.699 167.695 101.105C167.695 101.105 167.695 101.105 167.695 101.14C167.695 101.176 167.899 101.513 168.166 101.935C169.932 104.749 176.397 113.705 187.161 115.865C193 117.039 194.365 112.249 195.082 108.893C195.131 108.654 195.181 108.422 195.223 108.189C195.223 108.189 194.442 119.073 194.442 126.48C194.409 128.264 194.493 130.048 194.695 131.82C199.247 137.448 202.469 149.281 204.544 159.524L204.629 159.939C204.896 161.261 205.135 162.556 205.367 163.808C205.431 164.188 205.501 164.568 205.564 164.941C205.761 166.059 205.944 167.143 206.106 168.163C206.205 168.747 206.289 169.316 206.38 169.865C206.514 170.752 206.634 171.582 206.746 172.349C206.964 173.868 207.133 175.163 207.246 176.063C207.408 177.182 207.478 177.815 207.478 177.815Z" fill="#E94057"/>
<path opacity="0.2" d="M172.127 94.0278C171.248 96.8464 169.933 99.5099 168.23 101.921C168.047 102.167 167.857 102.399 167.66 102.625C167.22 103.151 166.735 103.638 166.211 104.081C166.559 103.008 167.074 101.997 167.737 101.084C167.737 101.084 167.737 101.084 167.737 101.119C167.786 100.458 167.857 99.8036 167.934 99.1423C168.126 97.4986 168.417 95.8682 168.807 94.26C169.908 94.1217 171.017 94.0442 172.127 94.0278Z" fill="black"/>
<path d="M155.046 82.9408C155.806 87.3869 157.431 97.6369 158.331 101.886C158.866 103.997 159.035 106.346 160.343 108.119C165.226 114.113 171.888 118.524 178.107 123.111L176.271 126.417C168.596 122.815 160.871 118.679 155.032 112.347C153.252 110.363 152.366 107.69 151.676 105.185C150.91 102.484 150.269 99.7474 149.728 97.0389C148.834 92.7124 148.096 88.4211 147.484 84.0453L155.046 82.9268V82.9408Z" fill="#E9B376"/>
<path d="M151.346 77.7348C157.938 76.8273 158.789 98.8398 158.789 98.8398L148.046 101.091C148.046 101.091 138.036 79.5639 151.346 77.7348Z" fill="#E94057"/>
<path opacity="0.7" d="M151.346 77.7348C157.938 76.8273 158.789 98.8398 158.789 98.8398L148.046 101.091C148.046 101.091 138.036 79.5639 151.346 77.7348Z" fill="white"/>
<path d="M146.815 100.521L159.176 97.3906L159.464 100.521L147.751 102.512L146.815 100.521Z" fill="#E94057"/>
<path opacity="0.6" d="M146.815 100.521L159.176 97.3906L159.464 100.521L147.751 102.512L146.815 100.521Z" fill="white"/>
<path d="M185.698 125.397L182.553 130.476L178.705 128.577L182.215 122.266L185.698 125.397Z" fill="#EBB376"/>
<path d="M176.524 121.858L182.215 122.259L178.698 128.591C178.698 128.591 173.935 127.184 174.435 124.553L176.524 121.858Z" fill="#EBB376"/>
<path d="M194.14 119.284L196.109 120.691C196.225 120.773 196.317 120.885 196.374 121.015C196.431 121.145 196.451 121.288 196.433 121.429L195.807 126.424C195.794 126.533 195.758 126.639 195.702 126.733C195.645 126.827 195.569 126.909 195.478 126.971C195.388 127.034 195.285 127.076 195.177 127.096C195.068 127.116 194.957 127.112 194.85 127.085L194.069 126.902C193.545 126.78 193.085 126.469 192.775 126.03C192.465 125.59 192.327 125.052 192.388 124.518L192.908 119.853C192.92 119.716 192.968 119.584 193.047 119.472C193.126 119.359 193.234 119.269 193.359 119.211C193.484 119.153 193.622 119.129 193.759 119.142C193.896 119.155 194.027 119.204 194.14 119.284Z" fill="#EBB376"/>
<path d="M166.119 80.8726L163.165 75.8707L167.885 74.0205C167.885 74.0205 170.446 77.2214 168.75 80.1409L166.119 80.8726Z" fill="#EEC1BB"/>
<path d="M163.207 73.4927L166.788 71.2063L167.85 74.0203L163.129 75.8705L163.207 73.4927Z" fill="#EEC1BB"/>
<path d="M173.766 93.0431C169.396 96.085 164.729 98.6776 159.837 100.782C157.973 101.485 155.968 102.266 153.78 101.999C152.843 101.893 151.972 101.465 151.315 100.789C150.659 100.113 150.257 99.2305 150.178 98.2912C149.854 93.8732 154.329 89.4623 156.953 86.4443C159.813 83.4219 162.868 80.5901 166.098 77.9671C166.44 77.7048 166.866 77.5762 167.297 77.6054C167.727 77.6346 168.132 77.8197 168.435 78.1259C168.739 78.4321 168.921 78.8385 168.946 79.269C168.972 79.6995 168.84 80.1245 168.574 80.4645C166.035 83.5388 163.453 86.6905 161.075 89.8773C159.366 92.3255 157.241 94.844 156.509 97.6158C156.534 97.2469 156.413 96.883 156.172 96.6028L155.539 95.9837C155.281 95.7813 154.98 95.6416 154.659 95.5757C154.54 95.5757 154.533 95.5757 154.582 95.5405C156.917 94.8862 159.176 93.5144 161.392 92.2833C164.206 90.6371 167.111 88.8362 169.876 87.0774C173.83 84.7488 177.481 90.2713 173.794 93.0009L173.766 93.0431Z" fill="#EBC0BB"/>
<g opacity="0.2">
<path d="M174.329 176.823L174.442 180.607C173.464 180.783 172.479 180.973 171.508 181.17C171.297 179.911 171.1 178.68 170.924 177.463C172.057 177.238 173.189 177.027 174.329 176.823Z" fill="black"/>
<path d="M207.267 176.063C197.887 176.921 188.591 178.143 179.38 179.728L178.036 176.154C187.506 174.508 197.083 173.239 206.767 172.348C206.985 173.868 207.154 175.134 207.267 176.063Z" fill="black"/>
<path d="M174.195 172.545L174.252 174.29C173.028 174.508 171.803 174.733 170.586 174.994C170.509 174.417 170.432 173.84 170.368 173.277C171.644 173.014 172.92 172.771 174.195 172.545Z" fill="black"/>
<path d="M206.402 169.865C196.553 170.803 186.797 172.105 177.136 173.769L176.517 172.13C186.272 170.409 196.142 169.087 206.127 168.163C206.219 168.747 206.31 169.316 206.402 169.865Z" fill="black"/>
<path d="M174.062 168.099L174.097 169.26C172.732 169.499 171.37 169.752 170.01 170.02C169.967 169.633 169.932 169.253 169.897 168.873C171.285 168.606 172.674 168.348 174.062 168.099Z" fill="black"/>
<path d="M205.586 164.94C195.399 165.878 185.315 167.243 175.335 169.035L174.92 167.937C184.961 166.151 195.113 164.774 205.374 163.808C205.452 164.188 205.515 164.568 205.586 164.94Z" fill="black"/>
<path d="M204.65 159.939C192.817 161.055 181.127 162.722 169.58 164.941C169.58 164.8 169.58 164.659 169.58 164.526C181.099 162.326 192.77 160.659 204.594 159.524L204.65 159.939Z" fill="black"/>
</g>
</svg>
