<svg width="22" height="20" viewBox="0 0 22 20" fill="none" xmlns="http://www.w3.org/2000/svg">
<path fill-rule="evenodd" clip-rule="evenodd" d="M12.75 0C13.3023 0 13.75 0.447715 13.75 1V5C13.75 5.55228 13.3023 6 12.75 6C12.1977 6 11.75 5.55228 11.75 5V4H1.75C1.19772 4 0.75 3.55228 0.75 3C0.75 2.44772 1.19772 2 1.75 2H11.75V1C11.75 0.447715 12.1977 0 12.75 0ZM15.75 3C15.75 2.44772 16.1977 2 16.75 2H19.75C20.3023 2 20.75 2.44772 20.75 3C20.75 3.55228 20.3023 4 19.75 4H16.75C16.1977 4 15.75 3.55228 15.75 3ZM9.75 7C10.3023 7 10.75 7.44772 10.75 8V9H20.75C21.3023 9 21.75 9.44771 21.75 10C21.75 10.5523 21.3023 11 20.75 11H10.75V12C10.75 12.5523 10.3023 13 9.75 13C9.19772 13 8.75 12.5523 8.75 12V8C8.75 7.44772 9.19772 7 9.75 7ZM0.75 10C0.75 9.44771 1.19772 9 1.75 9H5.75C6.30228 9 6.75 9.44771 6.75 10C6.75 10.5523 6.30228 11 5.75 11H1.75C1.19772 11 0.75 10.5523 0.75 10ZM12.75 14C13.3023 14 13.75 14.4477 13.75 15V19C13.75 19.5523 13.3023 20 12.75 20C12.1977 20 11.75 19.5523 11.75 19V18H1.75C1.19772 18 0.75 17.5523 0.75 17C0.75 16.4477 1.19772 16 1.75 16H11.75V15C11.75 14.4477 12.1977 14 12.75 14ZM15.75 17C15.75 16.4477 16.1977 16 16.75 16H19.75C20.3023 16 20.75 16.4477 20.75 17C20.75 17.5523 20.3023 18 19.75 18H16.75C16.1977 18 15.75 17.5523 15.75 17Z" fill="#E94057"/>
</svg>
