<svg width="364" height="285" viewBox="0 0 364 285" fill="none" xmlns="http://www.w3.org/2000/svg">
<g clip-path="url(#clip0_205_1131)">
<path d="M106.724 237.549L106.685 231.056L106.113 134.716L106.091 131.111L105.776 78.087C101.046 75.11 96.1077 72.4777 90.9993 70.2105C70.9859 61.348 47.1893 57.6935 27.485 67.2188C16.9655 72.5014 8.82711 81.5593 4.69639 92.5821C4.58006 92.8734 4.47277 93.1556 4.37455 93.4377C1.08833 102.811 1.11253 112.991 5.92335 121.78C14.5355 137.576 33.7953 143.41 50.9013 148.984C67.9982 154.558 86.9594 163.636 91.2225 181.11C87.632 176.697 82.9311 173.319 77.6029 171.324C72.2747 169.329 66.5114 168.789 60.9053 169.759C55.2992 170.729 50.0525 173.174 45.7044 176.843C41.3563 180.513 38.0636 185.274 36.1647 190.637C35.852 191.51 35.5667 192.393 35.3177 193.284C34.7223 195.426 34.3638 197.627 34.2488 199.847C33.4141 216.789 46.3998 231.968 61.8076 239.078C75.7401 245.498 91.3764 246.722 106.782 247.338L106.724 237.549Z" fill="#F0F0F0"/>
<path d="M106.685 231.056L106.724 237.549C103.274 228.705 98.0675 220.653 91.4185 213.878C84.7696 207.102 76.8163 201.745 68.0391 198.13C57.6659 193.96 46.4542 192.3 35.3176 193.284C35.5669 192.393 35.852 191.51 36.1648 190.637C40.4915 190.329 44.8366 190.394 49.152 190.832C64.553 192.4 79.0405 198.883 90.4728 209.321C97.1752 215.5 102.672 222.87 106.685 231.056Z" fill="white"/>
<path d="M106.091 131.111L106.113 134.716C102.502 131.237 98.6067 128.064 94.4685 125.232C81.6111 116.381 67.087 109.693 52.3453 104.686C37.2367 99.5281 21.5535 96.2391 5.64566 94.8922C5.28754 94.8594 4.95577 94.69 4.71913 94.4192C4.4825 94.1484 4.35912 93.797 4.37459 93.4377C4.36471 93.1212 4.48035 92.8137 4.69631 92.5821C4.80935 92.4742 4.94627 92.3944 5.09594 92.3493C5.24561 92.3043 5.40381 92.2951 5.55767 92.3227C7.52033 92.4836 9.47381 92.6627 11.4364 92.8872C27.7204 94.725 43.7127 98.5803 59.0453 104.364C73.8448 109.925 88.481 117.103 100.989 126.855C102.75 128.197 104.457 129.613 106.091 131.111Z" fill="white"/>
<path d="M21.0047 50.9814C24.0139 50.9814 26.4533 48.5419 26.4533 45.5327C26.4533 42.5234 24.0139 40.084 21.0047 40.084C17.9954 40.084 15.556 42.5234 15.556 45.5327C15.556 48.5419 17.9954 50.9814 21.0047 50.9814Z" fill="#F0F0F0"/>
<path d="M244.377 68.1326H242.82V25.5017C242.82 22.2615 242.182 19.0531 240.942 16.0596C239.702 13.066 237.885 10.346 235.594 8.05486C233.303 5.76371 230.583 3.94626 227.589 2.7063C224.596 1.46633 221.387 0.828128 218.147 0.828125H127.828C121.284 0.828118 115.008 3.42764 110.381 8.05482C105.754 12.682 103.154 18.9578 103.154 25.5016V259.378C103.154 265.922 105.754 272.198 110.381 276.825C115.008 281.452 121.284 284.051 127.828 284.051H218.147C224.691 284.051 230.966 281.452 235.594 276.825C240.221 272.198 242.82 265.922 242.82 259.378V98.4779H244.377V68.1326Z" fill="#3F3D56"/>
<path d="M237.569 25.6742V259.209C237.569 259.55 237.561 259.887 237.539 260.224C237.281 264.928 235.23 269.355 231.807 272.593C228.385 275.831 223.852 277.635 219.141 277.633H128.389C123.666 277.634 119.123 275.821 115.699 272.569C112.275 269.316 110.231 264.872 109.99 260.156C109.973 259.844 109.964 259.529 109.964 259.209V25.6742C109.964 20.7872 111.905 16.1002 115.36 12.6442C118.815 9.1882 123.502 7.24627 128.389 7.24561H139.401C138.859 8.57479 138.652 10.0169 138.798 11.4449C138.945 12.873 139.44 14.2432 140.24 15.4348C141.041 16.6264 142.122 17.6029 143.389 18.2784C144.655 18.9538 146.069 19.3074 147.504 19.308H199.249C200.684 19.3073 202.097 18.9536 203.364 18.2781C204.631 17.6027 205.712 16.6262 206.512 15.4346C207.313 14.243 207.808 12.8728 207.954 11.4448C208.1 10.0168 207.893 8.57477 207.351 7.24561H219.141C224.028 7.2461 228.715 9.18783 232.171 12.6438C235.627 16.0997 237.569 20.7868 237.569 25.6742Z" fill="white"/>
<path d="M235.893 201.798H111.637C111.201 201.797 110.782 201.624 110.474 201.315C110.165 201.006 109.991 200.588 109.991 200.151V47.7075C109.991 47.271 110.165 46.8526 110.474 46.544C110.782 46.2353 111.201 46.0617 111.637 46.0613H235.893C236.33 46.0617 236.748 46.2353 237.057 46.5439C237.366 46.8526 237.539 47.271 237.54 47.7075V200.151C237.539 200.588 237.366 201.006 237.057 201.315C236.748 201.624 236.33 201.797 235.893 201.798Z" fill="#F0F0F0"/>
<path d="M226.774 56.6985H121.011C120.574 56.6988 120.156 56.8724 119.847 57.1812C119.538 57.49 119.364 57.9088 119.364 58.3455V168.495C119.365 168.931 119.539 169.349 119.848 169.657C120.157 169.964 120.575 170.137 121.011 170.137H226.774C227.21 170.137 227.628 169.965 227.937 169.657C228.246 169.349 228.42 168.931 228.421 168.495V58.3455C228.421 57.9088 228.247 57.49 227.938 57.1812C227.63 56.8724 227.211 56.6987 226.774 56.6985Z" fill="white"/>
<path d="M119.176 40.5101C121.533 40.5101 123.443 38.5997 123.443 36.2432C123.443 33.8867 121.533 31.9763 119.176 31.9763C116.82 31.9763 114.91 33.8867 114.91 36.2432C114.91 38.5997 116.82 40.5101 119.176 40.5101Z" fill="#E94057"/>
<path d="M139.472 175.569C132.186 163.834 134.696 148.842 135.923 135.084C137.755 114.443 136.102 93.6398 131.033 73.5464C137.07 80.2882 141.054 88.6158 142.514 97.5471C143.717 104.995 143.123 112.657 144.485 120.077C147.407 135.987 159.172 150.336 157.351 166.41C156.949 169.963 155.595 173.784 152.44 175.468C148.88 177.368 144.534 175.857 140.799 174.327" fill="#F0F0F0"/>
<path d="M127.176 180.44C126.378 179.638 125.294 179.186 124.163 179.183C123.032 179.18 121.946 179.627 121.144 180.425C120.342 181.222 119.89 182.306 119.887 183.437C119.884 184.569 120.331 185.655 121.129 186.456L121.143 186.471L127.176 192.502L133.208 186.471C134.004 185.67 134.451 184.587 134.449 183.457C134.448 182.328 133.998 181.246 133.2 180.447C132.401 179.649 131.318 179.2 130.189 179.198C129.06 179.197 127.976 179.643 127.176 180.44V180.44Z" fill="#E94057"/>
<path d="M145.95 180.44C145.152 179.638 144.068 179.186 142.937 179.183C141.806 179.18 140.72 179.627 139.918 180.425C139.116 181.222 138.664 182.306 138.661 183.437C138.658 184.569 139.105 185.655 139.903 186.456L139.917 186.471L145.95 192.502L151.982 186.471C152.779 185.67 153.225 184.587 153.223 183.457C153.222 182.328 152.772 181.246 151.974 180.447C151.175 179.649 150.093 179.2 148.963 179.198C147.834 179.197 146.75 179.643 145.95 180.44V180.44Z" fill="#E94057"/>
<path d="M164.724 180.44C163.926 179.638 162.843 179.186 161.711 179.183C160.58 179.18 159.494 179.627 158.692 180.425C157.89 181.222 157.438 182.306 157.435 183.437C157.433 184.569 157.879 185.655 158.677 186.456L158.692 186.471L164.724 192.502L170.756 186.471C171.553 185.67 171.999 184.587 171.998 183.457C171.996 182.328 171.547 181.246 170.748 180.447C169.95 179.649 168.867 179.2 167.738 179.198C166.608 179.197 165.525 179.643 164.724 180.44V180.44Z" fill="#E94057"/>
<path d="M197.887 39.5894H137.717C137.285 39.5899 136.856 39.5051 136.456 39.3398C136.056 39.1746 135.693 38.9321 135.387 38.6264C135.081 38.3206 134.838 37.9574 134.672 37.5577C134.506 37.158 134.421 36.7296 134.421 36.2969C134.421 35.8642 134.506 35.4358 134.672 35.036C134.838 34.6363 135.081 34.2732 135.387 33.9674C135.693 33.6616 136.056 33.4192 136.456 33.2539C136.856 33.0887 137.285 33.0039 137.717 33.0044H197.887C198.319 33.0039 198.748 33.0887 199.148 33.2539C199.548 33.4192 199.911 33.6616 200.217 33.9674C200.523 34.2732 200.766 34.6363 200.932 35.036C201.098 35.4358 201.183 35.8642 201.183 36.2969C201.183 36.7296 201.098 37.158 200.932 37.5577C200.766 37.9574 200.523 38.3206 200.217 38.6264C199.911 38.9321 199.548 39.1746 199.148 39.3398C198.748 39.5051 198.319 39.5899 197.887 39.5894Z" fill="#E94057"/>
<path d="M235.892 230.39H111.637C111.2 230.39 110.781 230.564 110.473 230.873C110.164 231.181 109.99 231.6 109.99 232.037V260.156C110.231 264.872 112.275 269.316 115.699 272.568C119.123 275.821 123.666 277.634 128.389 277.633H219.141C223.852 277.634 228.385 275.831 231.807 272.593C235.23 269.355 237.281 264.928 237.539 260.224V232.037C237.539 231.6 237.365 231.181 237.057 230.873C236.748 230.564 236.329 230.39 235.892 230.39Z" fill="#F0F0F0"/>
<path d="M226.774 241.027H121.011C120.574 241.028 120.156 241.201 119.847 241.51C119.538 241.819 119.364 242.238 119.364 242.674V275.273C122.118 276.825 125.227 277.638 128.389 277.633H219.141C222.402 277.637 225.605 276.773 228.421 275.128V242.674C228.421 242.238 228.247 241.819 227.938 241.51C227.63 241.201 227.211 241.028 226.774 241.027Z" fill="white"/>
<path d="M119.176 224.839C121.533 224.839 123.443 222.928 123.443 220.572C123.443 218.215 121.533 216.305 119.176 216.305C116.82 216.305 114.91 218.215 114.91 220.572C114.91 222.928 116.82 224.839 119.176 224.839Z" fill="#E4E4E4"/>
<path d="M197.887 223.918H137.717C137.285 223.919 136.856 223.834 136.456 223.669C136.056 223.503 135.693 223.261 135.387 222.955C135.081 222.649 134.838 222.286 134.672 221.887C134.506 221.487 134.421 221.058 134.421 220.626C134.421 220.193 134.506 219.765 134.672 219.365C134.838 218.965 135.081 218.602 135.387 218.296C135.693 217.99 136.056 217.748 136.456 217.583C136.856 217.418 137.285 217.333 137.717 217.333H197.887C198.319 217.333 198.748 217.418 199.148 217.583C199.548 217.748 199.911 217.99 200.217 218.296C200.523 218.602 200.766 218.965 200.932 219.365C201.098 219.765 201.183 220.193 201.183 220.626C201.183 221.058 201.098 221.487 200.932 221.887C200.766 222.286 200.523 222.649 200.217 222.955C199.911 223.261 199.548 223.503 199.148 223.669C198.748 223.834 198.319 223.919 197.887 223.918Z" fill="#E4E4E4"/>
<path d="M163.876 277.633H132.613C135.796 271.369 141.671 266.266 148.597 265.997C149.64 265.958 150.685 266.036 151.711 266.227C152.142 266.304 152.565 266.407 152.987 266.518C155.643 267.201 158.062 268.598 159.981 270.557C161.901 272.516 163.248 274.963 163.876 277.633Z" fill="#F2F2F2"/>
<path d="M213.88 277.633H171.428C172.081 275.685 172.635 273.705 173.088 271.702C174.996 263.462 176.937 254.212 183.973 249.527C187.89 246.916 192.656 246.489 197.175 247.641C197.311 247.675 197.452 247.713 197.589 247.756C202.918 249.234 207.493 252.671 210.398 257.378C213.995 263.411 214.797 270.588 213.88 277.633Z" fill="#F2F2F2"/>
<path d="M153.427 272.602C153.406 274.288 153.256 275.97 152.979 277.633H151.758C152.4 273.857 152.384 269.998 151.711 266.228C152.142 266.304 152.565 266.407 152.987 266.518C153.311 268.529 153.458 270.565 153.427 272.602Z" fill="white"/>
<path d="M197.747 248.149C197.751 249.07 197.747 249.996 197.721 250.922C197.533 258.62 196.386 266.264 194.307 273.677C193.941 275 193.544 276.319 193.117 277.633H191.863C192.631 275.295 193.301 272.926 193.881 270.554C195.676 263.272 196.57 255.798 196.543 248.298C196.544 248.128 196.61 247.966 196.728 247.843C196.845 247.721 197.005 247.649 197.175 247.641C197.322 247.625 197.471 247.666 197.589 247.756C197.644 247.805 197.687 247.866 197.714 247.934C197.742 248.002 197.753 248.076 197.747 248.149Z" fill="white"/>
<path d="M220.281 256.015C221.695 256.015 222.842 254.869 222.842 253.455C222.842 252.041 221.695 250.895 220.281 250.895C218.868 250.895 217.721 252.041 217.721 253.455C217.721 254.869 218.868 256.015 220.281 256.015Z" fill="#F2F2F2"/>
<path d="M158.916 69.1825C160.33 69.1825 161.476 68.0363 161.476 66.6224C161.476 65.2085 160.33 64.0623 158.916 64.0623C157.502 64.0623 156.356 65.2085 156.356 66.6224C156.356 68.0363 157.502 69.1825 158.916 69.1825Z" fill="#E94057"/>
<path d="M206.278 84.1163C207.692 84.1163 208.838 82.9701 208.838 81.5562C208.838 80.1423 207.692 78.9961 206.278 78.9961C204.864 78.9961 203.718 80.1423 203.718 81.5562C203.718 82.9701 204.864 84.1163 206.278 84.1163Z" fill="#E4E4E4"/>
<path d="M204.998 136.172C206.412 136.172 207.558 135.026 207.558 133.612C207.558 132.198 206.412 131.052 204.998 131.052C203.584 131.052 202.438 132.198 202.438 133.612C202.438 135.026 203.584 136.172 204.998 136.172Z" fill="#E4E4E4"/>
<path d="M193.667 160.571L191.935 155.024C191.637 153.733 191.26 152.462 190.804 151.218C188.85 145.313 184.558 133.404 179.501 120.962L173.553 115.014L171.906 113.939L170.349 112.927L169.679 113.546L163.292 119.443L163.245 119.831L159.072 155.297C159.072 155.297 159.059 155.395 159.037 155.587C158.991 156.001 158.892 156.846 158.765 158.054C158.521 160.324 158.129 164.288 157.74 169.284H196.386L193.667 160.571Z" fill="#3F3D56"/>
<path opacity="0.2" d="M166.282 135.346L164.66 145.465L175.635 149.992L166.282 135.346Z" fill="black"/>
<path d="M185.932 90.0698C183.937 87.8917 181.331 86.367 178.455 85.6958C175.579 85.0245 172.567 85.238 169.815 86.3082C167.062 87.3785 164.697 89.2555 163.03 91.6932C161.362 94.131 160.471 97.0156 160.471 99.969V110.905C160.472 111.428 160.679 111.929 161.049 112.299C161.418 112.668 161.92 112.876 162.442 112.876H187.818C188.34 112.875 188.84 112.667 189.209 112.297C189.578 111.928 189.785 111.427 189.785 110.905V99.969C189.786 96.303 188.411 92.7701 185.932 90.0698Z" fill="#2F2E41"/>
<path d="M177.93 112.215C183.865 112.215 188.676 107.405 188.676 101.47C188.676 95.5357 183.865 90.7249 177.93 90.7249C171.996 90.7249 167.185 95.5357 167.185 101.47C167.185 107.405 171.996 112.215 177.93 112.215Z" fill="#FFB8B8"/>
<path d="M185.932 90.0698C184.573 89.527 183.123 89.2489 181.66 89.2505H179.472C177.628 89.2507 175.812 89.6911 174.173 90.5349C172.535 91.3787 171.121 92.6016 170.05 94.1019C169.978 94.1958 169.914 94.2939 169.85 94.3878C168.562 96.2942 167.875 98.5429 167.879 100.844V101.061H172.5L174.078 96.645L174.394 101.061H176.783L177.577 98.8339L177.735 101.061C182.732 102.908 187.916 102.79 193.254 101.061V100.844C193.251 98.5214 192.552 96.2533 191.247 94.3326C189.941 92.4119 188.09 90.9269 185.932 90.0698Z" fill="#2F2E41"/>
<path d="M179.386 112.117C179.377 112.092 179.365 112.067 179.352 112.044C177.906 109.288 176.092 105.068 175.99 101.061C175.93 98.6674 176.485 96.3462 178.098 94.4645L178.405 94.1018H165.899V112.88L169.679 113.546L171.906 113.938L177.261 114.886C177.377 114.906 177.494 114.916 177.611 114.916C177.921 114.915 178.226 114.842 178.502 114.701C178.778 114.56 179.017 114.356 179.198 114.105C179.462 113.751 179.594 113.317 179.574 112.876C179.566 112.612 179.502 112.353 179.386 112.117Z" fill="#2F2E41"/>
<path opacity="0.2" d="M159.333 154.804C162.192 158.115 166.071 160.383 170.36 161.249C174.649 162.116 179.104 161.534 183.025 159.593L185.364 158.435L159.333 154.804Z" fill="black"/>
<path d="M280.513 187.159C280.548 186.421 280.744 185.7 281.088 185.046C281.432 184.393 281.915 183.822 282.503 183.376C283.091 182.929 283.769 182.616 284.491 182.46C285.213 182.304 285.96 182.308 286.68 182.472L293.361 173.058L300.072 175.722L290.451 188.885C290.096 190.076 289.315 191.095 288.258 191.75C287.201 192.405 285.941 192.649 284.716 192.436C283.491 192.223 282.386 191.568 281.612 190.596C280.837 189.623 280.446 188.4 280.513 187.159H280.513Z" fill="#A0616A"/>
<path d="M287.841 179.063L299.718 159.087L294.879 146.183L301.47 128.608L301.713 128.712C301.872 128.78 305.617 130.451 306.172 136.436L313.746 160.239L293.533 186.461L287.841 179.063Z" fill="#3F3D56"/>
<path d="M223.335 105.626C224.068 105.718 224.772 105.969 225.397 106.362C226.022 106.755 226.553 107.281 226.953 107.902C227.353 108.523 227.612 109.224 227.712 109.955C227.812 110.687 227.75 111.432 227.531 112.137L236.401 119.525L233.225 126.01L220.846 115.401C219.686 114.954 218.73 114.097 218.159 112.993C217.588 111.888 217.442 110.613 217.749 109.408C218.056 108.203 218.794 107.152 219.824 106.455C220.853 105.758 222.103 105.463 223.335 105.626L223.335 105.626Z" fill="#A0616A"/>
<path d="M230.841 113.558L249.838 126.944L263.078 123.117L280.091 131.047L279.968 131.281C279.888 131.435 277.932 135.039 271.923 135.13L247.606 140.84L223.024 118.66L230.841 113.558Z" fill="#3F3D56"/>
<path d="M265.603 276.339L258.999 276.338L255.856 250.864L265.604 250.864L265.603 276.339Z" fill="#A0616A"/>
<path d="M252.286 274.451H267.018V282.471H246.261V280.476C246.261 278.878 246.896 277.346 248.026 276.216C249.156 275.086 250.688 274.451 252.286 274.451Z" fill="#2F2E41"/>
<path d="M292 276.339L285.395 276.338L282.253 250.864L292.001 250.864L292 276.339Z" fill="#A0616A"/>
<path d="M278.683 274.451H293.415V282.471H272.658V280.476C272.658 278.878 273.293 277.346 274.423 276.216C275.552 275.086 277.085 274.451 278.683 274.451Z" fill="#2F2E41"/>
<path d="M294.349 183.354L293.81 221.064L293.271 270.625L281.42 269.548L275.494 201.131L267.952 269.548H255.716L254.484 200.593L258.794 185.509L294.349 183.354Z" fill="#2F2E41"/>
<path d="M257.612 185.739L255.807 185.661L264.193 139.461L260.76 125.497C260.581 124.771 260.675 124.004 261.024 123.342C261.374 122.681 261.953 122.17 262.654 121.907L268.832 119.59L271.015 113.588L288.236 115.444L288.659 120.135C290.525 120.733 305.893 125.851 304.833 131.683C303.786 137.439 297.607 155.547 297.293 156.465L296.211 182.436L296.078 182.502C295.918 182.582 284.048 188.419 271.152 188.418C266.611 188.417 261.94 187.693 257.612 185.739Z" fill="#3F3D56"/>
<path d="M289.83 104.165C293.115 98.1567 290.907 90.6228 284.898 87.3381C278.889 84.0534 271.355 86.2617 268.07 92.2705C264.786 98.2793 266.994 105.813 273.003 109.098C279.012 112.383 286.545 110.174 289.83 104.165Z" fill="#A0616A"/>
<path d="M288.994 110.221C286.631 112.738 282.242 111.387 281.934 107.948C281.91 107.681 281.912 107.412 281.94 107.146C282.099 105.623 282.979 104.24 282.768 102.631C282.72 102.231 282.571 101.85 282.334 101.523C280.451 99.0016 276.031 102.651 274.254 100.368C273.164 98.9686 274.445 96.7648 273.609 95.2004C272.505 93.1357 269.236 94.1543 267.186 93.0235C264.905 91.7654 265.042 88.2658 266.543 86.1372C268.374 83.5413 271.585 82.1561 274.755 81.9565C277.926 81.7568 281.074 82.6139 284.034 83.7674C287.397 85.078 290.732 86.8893 292.802 89.8465C295.319 93.4427 295.561 98.2775 294.302 102.483C293.537 105.041 290.923 108.165 288.994 110.221Z" fill="#2F2E41"/>
<path d="M363.31 283.295H0.626333C0.513169 283.295 0.404639 283.25 0.324619 283.17C0.2446 283.09 0.199646 282.981 0.199646 282.868C0.199646 282.755 0.2446 282.646 0.324619 282.566C0.404639 282.486 0.513169 282.441 0.626333 282.441H363.31C363.423 282.441 363.532 282.486 363.612 282.566C363.692 282.646 363.737 282.755 363.737 282.868C363.737 282.981 363.692 283.09 363.612 283.17C363.532 283.25 363.423 283.295 363.31 283.295Z" fill="#3F3D56"/>
<path d="M199.039 159.573H192.394C192.18 159.574 191.975 159.495 191.817 159.352C191.659 159.208 191.56 159.011 191.54 158.799L190.21 145.166H201.222L199.892 158.799C199.872 159.011 199.773 159.208 199.615 159.352C199.458 159.495 199.252 159.574 199.039 159.573Z" fill="#E94057"/>
<path d="M201.205 146.881H190.227C190 146.881 189.782 146.79 189.621 146.629C189.461 146.469 189.37 146.251 189.37 146.023V143.965C189.37 143.738 189.461 143.52 189.621 143.359C189.782 143.198 190 143.108 190.227 143.107H201.205C201.432 143.108 201.65 143.198 201.811 143.359C201.971 143.52 202.062 143.738 202.062 143.965V146.023C202.062 146.251 201.971 146.469 201.811 146.629C201.65 146.79 201.432 146.881 201.205 146.881Z" fill="#3F3D56"/>
<path d="M196.723 152.33C196.244 151.792 195.653 151.365 194.99 151.08C194.328 150.795 193.612 150.658 192.891 150.68C192.171 150.702 191.464 150.881 190.82 151.206C190.176 151.531 189.611 151.992 189.166 152.559L178.316 149.513L174.857 155.655L190.239 159.741C191.24 160.427 192.458 160.722 193.663 160.57C194.867 160.418 195.973 159.829 196.773 158.916C197.572 158.002 198.008 156.827 197.999 155.614C197.99 154.4 197.536 153.232 196.723 152.33Z" fill="#FFB8B8"/>
<path d="M179.083 149L173.933 145.718L172.465 145.027L165.83 141.899C166.027 141.225 166.59 139.211 167.123 136.66C168.369 130.69 169.432 121.777 165.143 120.215C164.535 119.985 163.894 119.856 163.245 119.831C162.376 119.799 161.513 119.997 160.744 120.403C157.531 122.08 156.255 126.799 156.209 126.974L152.236 137.876C151.869 138.379 148.093 143.61 148.703 147.485C148.78 148.041 148.971 148.576 149.265 149.055C149.559 149.534 149.949 149.946 150.41 150.267C153.16 152.237 156.042 154.015 159.037 155.588C159.733 155.946 160.413 156.277 161.077 156.582C164.798 158.28 168.079 159.146 170.835 159.146C171.737 159.153 172.635 159.049 173.511 158.835L184.216 158.591L184.285 158.284L184.31 158.165L185.731 151.594L186.132 149.733L179.083 149Z" fill="#3F3D56"/>
</g>
<defs>
<clipPath id="clip0_205_1131">
<rect width="363.537" height="283.223" fill="white" transform="translate(0.199646 0.828125)"/>
</clipPath>
</defs>
</svg>
