<svg width="24" height="24" viewBox="0 0 24 24" fill="none" xmlns="http://www.w3.org/2000/svg">
<path d="M13.25 6C13.25 6.69036 12.6904 7.25 12 7.25C11.3096 7.25 10.75 6.69036 10.75 6C10.75 5.30964 11.3096 4.75 12 4.75C12.6904 4.75 13.25 5.30964 13.25 6Z" fill="black" stroke="black" stroke-width="0.5"/>
<path d="M13.25 12C13.25 12.6904 12.6904 13.25 12 13.25C11.3096 13.25 10.75 12.6904 10.75 12C10.75 11.3096 11.3096 10.75 12 10.75C12.6904 10.75 13.25 11.3096 13.25 12Z" fill="black" stroke="black" stroke-width="0.5"/>
<path d="M13.25 17.5C13.25 18.1904 12.6904 18.75 12 18.75C11.3096 18.75 10.75 18.1904 10.75 17.5C10.75 16.8096 11.3096 16.25 12 16.25C12.6904 16.25 13.25 16.8096 13.25 17.5Z" fill="black" stroke="black" stroke-width="0.5"/>
</svg>
