<svg width="376" height="813" viewBox="0 0 376 813" fill="none" xmlns="http://www.w3.org/2000/svg">
<g clip-path="url(#clip0_215_600)">
<rect width="375" height="812" transform="translate(0.468262 0.439697)" fill="white"/>
<path d="M618.888 662.673H-293.787V663.127H618.888V662.673Z" fill="#E0E0E0"/>
<path d="M217.147 675.202H126.609V675.656H217.147V675.202Z" fill="#E0E0E0"/>
<path d="M276.197 675.202H227.661V675.656H276.197V675.202Z" fill="#E0E0E0"/>
<path d="M52.9569 685.551H-22.4118V686.005H52.9569V685.551Z" fill="#E0E0E0"/>
<path d="M138.821 581.693H-213.636C-216.397 581.688 -219.043 580.594 -220.994 578.65C-222.945 576.706 -224.04 574.072 -224.04 571.325V78.4854C-224.016 75.7547 -222.91 73.1436 -220.962 71.2193C-219.014 69.2951 -216.381 68.2132 -213.636 68.2085H138.821C141.585 68.2085 144.236 69.3008 146.191 71.2451C148.146 73.1895 149.244 75.8265 149.244 78.5762V571.325C149.244 574.075 148.146 576.712 146.191 578.656C144.236 580.601 141.585 581.693 138.821 581.693ZM-213.636 68.5716C-216.276 68.5765 -218.806 69.6231 -220.671 71.4817C-222.537 73.3404 -223.584 75.8593 -223.584 78.4854V571.325C-223.584 573.951 -222.537 576.47 -220.671 578.329C-218.806 580.187 -216.276 581.234 -213.636 581.239H138.821C141.461 581.229 143.991 580.182 145.858 578.325C147.725 576.467 148.778 573.951 148.787 571.325V78.4854C148.778 75.8591 147.725 73.343 145.858 71.4859C143.991 69.6288 141.461 68.5812 138.821 68.5716H-213.636Z" fill="#E0E0E0"/>
<path d="M533.662 581.693H181.187C178.426 581.683 175.78 580.588 173.828 578.646C171.875 576.703 170.774 574.072 170.764 571.325V78.4854C170.793 75.753 171.904 73.1419 173.855 71.2182C175.806 69.2945 178.44 68.2131 181.187 68.2085H533.662C536.405 68.2179 539.033 69.302 540.977 71.2257C542.921 73.1494 544.025 75.7578 544.049 78.4854V571.325C544.051 572.684 543.784 574.03 543.264 575.287C542.743 576.544 541.979 577.686 541.014 578.649C540.05 579.611 538.904 580.376 537.643 580.898C536.381 581.42 535.029 581.69 533.662 581.693ZM181.187 68.5716C178.547 68.5812 176.018 69.6288 174.151 71.4859C172.284 73.343 171.23 75.8591 171.221 78.4854V571.325C171.23 573.951 172.284 576.467 174.151 578.325C176.018 580.182 178.547 581.229 181.187 581.239H533.662C536.303 581.229 538.832 580.182 540.699 578.325C542.566 576.467 543.619 573.951 543.629 571.325V78.4854C543.619 75.8591 542.566 73.343 540.699 71.4859C538.832 69.6288 536.303 68.5812 533.662 68.5716H181.187Z" fill="#E0E0E0"/>
<path d="M281.819 490.053H255.205V662.673H281.819V490.053Z" fill="#E0E0E0"/>
<path d="M235.502 536.865L231.372 538.838L266.755 612.133L270.885 610.161L235.502 536.865Z" fill="#E6E6E6"/>
<path d="M-14.2714 345.469L-103.275 594.748L-79.5641 584.598V603.336L-58.7734 578.479L-48.5332 593.132L-27.4504 577.408L-15.4579 600.014L-1.1106 577.408L13.0359 598.634L30.2124 578.479L45.0525 594.222L46.0199 572.161L74.7144 594.748L-14.2714 345.469Z" fill="#EBEBEB"/>
<path d="M-14.2896 323.898L42.3145 478.996L27.2371 472.678V484.335L14.0216 468.883L7.50508 477.998L-5.91122 468.211L-13.5412 482.283L-22.6679 468.211L-31.6487 481.429L-42.5825 468.883L-52.0013 478.669L-52.6219 464.943L-70.8754 478.996L-14.2896 323.898Z" fill="#F0F0F0"/>
<path d="M-14.29 296.389L22.4726 411.142L12.6887 406.457V415.082L4.09132 403.643L-0.143505 410.379L-8.8504 403.153L-13.7971 413.557L-19.7295 403.153L-25.5706 412.921L-32.653 403.643L-38.7862 410.888L-39.1877 400.738L-51.0342 411.142L-14.29 296.389Z" fill="#F5F5F5"/>
<path d="M143.658 630.626C143.658 630.626 126.08 618.134 141.103 599.85C155.049 582.855 188.818 599.559 188.818 599.559C188.818 599.559 182.63 579.804 208.75 576.609C234.871 573.413 228.263 601.448 228.263 601.448C248.214 591.479 248.817 602.918 247.064 611.47C251.975 608.874 258.017 608.039 263.036 614.212C274.627 628.32 261.047 637.943 261.047 637.943C261.047 637.943 286.437 645.297 271.615 662.673H129.968C110.766 640.159 143.658 630.626 143.658 630.626Z" fill="#F0F0F0"/>
<path d="M257.998 547.194C257.998 547.194 262.945 571.162 288.865 564.044C300.237 560.957 302.719 552.46 302.154 544.344C312.649 551.788 328.457 557.852 326.924 525.206C326.924 525.206 360.802 550.862 372.156 513.967C383.509 477.071 353.099 473.603 353.099 473.603C353.099 473.603 395.849 438.451 381.264 409.654C365.548 378.641 338.15 394.674 338.15 394.674C338.15 394.674 343.826 353.548 313.252 355.309C309.389 355.539 305.748 357.182 303.03 359.921C292.552 354.474 279.3 371.27 279.3 371.27C279.3 371.27 276.672 350.57 255.899 358.051C246.772 361.319 244.436 368.945 244.454 375.972C236.587 369.962 224.467 365.441 224.01 393.984C224.01 393.984 198.693 373.176 187.905 406.095C177.117 439.014 200.847 440.594 200.847 440.594C200.847 440.594 165.453 473.531 175.474 498.043C186.262 524.443 208.604 508.937 208.604 508.937C208.604 508.937 203.128 539.387 220.743 542.165C220.149 545.216 220.507 548.375 221.769 551.219C223.032 554.062 225.139 556.453 227.807 558.07C241.789 566.259 257.998 547.194 257.998 547.194Z" fill="#F0F0F0"/>
<path d="M270.702 301.383C275.649 295.155 285.634 290.343 293.026 290.633C295.223 290.57 297.355 291.373 298.959 292.867C312.43 285.114 327.945 280.338 340.741 280.865C346.104 280.812 351.358 282.368 355.818 285.332C370.293 273.62 388.675 265.359 402.109 265.359C409.703 265.359 414.43 268.046 416.11 272.531C430.95 264.651 446.21 259.821 458.513 259.821C478.117 259.821 484.487 272.095 476.456 289.344C479.668 292.594 495.129 297.134 494.508 302.581H269.844C270.118 302.163 270.392 301.782 270.702 301.383Z" fill="#F5F5F5"/>
<path d="M-137.975 133.048C-136.71 132.999 -135.453 133.259 -134.313 133.807C-133.174 134.355 -132.187 135.173 -131.44 136.189C-115.614 125.295 -97.7625 118.595 -83.397 119.339C-76.0956 119.684 -70.4735 121.954 -66.768 125.622C-49.555 109.189 -28.1071 97.5325 -13.0297 97.5325C-4.43234 97.5325 0.67865 101.309 2.21194 107.592C19.5528 96.552 37.1309 89.7612 51.0035 89.7612C68.2166 89.7612 75.81 100.183 73.4371 116.216C81.7424 111.55 89.8653 108.808 96.5096 108.808C105.636 108.808 109.999 114.074 109.287 122.335C110.086 122.332 110.884 122.374 111.678 122.462C125.697 123.842 131.082 134.519 124.328 146.72H-162.946C-156.667 138.658 -145.824 132.648 -137.975 133.048Z" fill="#F5F5F5"/>
<path d="M457.235 636.799C457.235 636.799 468.588 617.553 442.851 626.341C442.851 626.341 445.187 606.912 422.48 608.819C399.773 610.725 408.607 625.16 408.607 625.16C408.607 625.16 379.292 615.265 367.19 625.342C354.157 636.236 369.417 643.59 369.417 643.59C369.417 643.59 340.869 649.237 357.534 662.619H457.052C484.651 662.691 483.228 636.654 457.235 636.799Z" fill="#F0F0F0"/>
<path d="M384.567 192.784L380.278 196.67C378.89 197.977 377.503 199.248 376.171 200.574C374.838 201.899 373.56 203.225 372.301 204.55C371.069 205.872 369.911 207.26 368.833 208.708L367.537 210.379L365.62 209.271C363.498 208.104 361.303 207.073 359.049 206.184C356.767 205.222 354.394 204.369 352.021 203.425C347.293 201.609 342.475 199.793 337.71 197.542C340.335 197.505 342.96 197.669 345.559 198.032C348.151 198.359 350.707 198.849 353.262 199.412C355.831 200.007 358.361 200.759 360.838 201.663C363.389 202.572 365.836 203.747 368.139 205.168L364.926 205.73C367.509 202.669 370.536 200.007 373.907 197.832C375.556 196.762 377.269 195.792 379.036 194.927C380.812 194.051 382.663 193.334 384.567 192.784Z" fill="#F0F0F0"/>
<path d="M162.55 744.671C358.013 744.671 516.467 735.469 516.467 724.117C516.467 712.765 358.013 703.563 162.55 703.563C-32.9129 703.563 -191.367 712.765 -191.367 724.117C-191.367 735.469 -32.9129 744.671 162.55 744.671Z" fill="#F5F5F5"/>
<path d="M187.904 185.612C189.358 184.88 190.942 184.44 192.567 184.318C194.191 184.196 195.824 184.393 197.372 184.899C198.92 185.405 200.352 186.209 201.587 187.266C202.822 188.324 203.836 189.613 204.569 191.06C207.496 189.567 210.899 189.291 214.029 190.294C217.16 191.297 219.761 193.496 221.262 196.407C222.763 199.318 223.04 202.703 222.032 205.817C221.023 208.931 218.813 211.519 215.887 213.012L193.836 224.36L182.519 202.39C181.767 200.953 181.307 199.383 181.165 197.77C181.024 196.156 181.203 194.531 181.693 192.987C182.182 191.442 182.974 190.009 184.02 188.768C185.067 187.528 186.35 186.505 187.794 185.758L187.904 185.612Z" fill="#E94057"/>
<path d="M145.373 226.448C145.881 225.224 146.627 224.113 147.567 223.177C148.507 222.24 149.624 221.498 150.854 220.992C152.083 220.486 153.401 220.226 154.731 220.228C156.062 220.229 157.379 220.492 158.607 221C159.673 218.579 161.652 216.67 164.119 215.687C166.586 214.703 169.343 214.723 171.795 215.743C174.247 216.762 176.198 218.7 177.228 221.137C178.257 223.574 178.283 226.316 177.299 228.772L169.486 247.365L150.795 239.593C148.329 238.559 146.374 236.596 145.358 234.133C144.343 231.67 144.348 228.907 145.373 226.448Z" fill="#E94057"/>
<path opacity="0.6" d="M145.373 226.448C145.881 225.224 146.627 224.113 147.567 223.177C148.507 222.24 149.624 221.498 150.854 220.992C152.083 220.486 153.401 220.226 154.731 220.228C156.062 220.229 157.379 220.492 158.607 221C159.673 218.579 161.652 216.67 164.119 215.687C166.586 214.703 169.343 214.723 171.795 215.743C174.247 216.762 176.198 218.7 177.228 221.137C178.257 223.574 178.283 226.316 177.299 228.772L169.486 247.365L150.795 239.593C148.329 238.559 146.374 236.596 145.358 234.133C144.343 231.67 144.348 228.907 145.373 226.448Z" fill="white"/>
<path d="M257.395 706.305H242.464L241.46 671.879H256.41L257.395 706.305Z" fill="#FFB573"/>
<path d="M372.94 652.269L359.853 659.441L338.971 631.57L352.058 624.416L372.94 652.269Z" fill="#FFB573"/>
<path d="M241.46 671.879L241.971 689.637H256.921L256.41 671.879H241.46Z" fill="#EF9F5E"/>
<path d="M352.077 624.416L338.971 631.57L349.74 645.932L362.846 638.778L352.077 624.416Z" fill="#EF9F5E"/>
<path d="M231.22 371.651C231.22 371.651 219.428 486.168 220.414 531.434C221.436 578.642 238.795 686.133 238.795 686.133H259.02C259.02 686.133 255.807 581.348 257.596 535.047C259.549 484.552 275.667 371.633 275.667 371.633L231.22 371.651Z" fill="#E94057"/>
<path opacity="0.3" d="M231.22 371.651C231.22 371.651 219.428 486.168 220.414 531.434C221.436 578.642 238.795 686.133 238.795 686.133H259.02C259.02 686.133 255.807 581.348 257.596 535.047C259.549 484.552 275.667 371.633 275.667 371.633L231.22 371.651Z" fill="black"/>
<path opacity="0.2" d="M257.469 400.139C242.574 429.971 254.475 484.388 259.75 504.633C262.452 474.22 267.052 437.053 270.575 409.762C268.238 394.311 264.277 386.394 257.469 400.139Z" fill="black"/>
<path d="M247.246 371.65C247.246 371.65 260.991 490.707 271.377 528.928C283.716 574.321 344.92 644.661 344.92 644.661L362.772 634.893C362.772 634.893 320.315 555.909 310.896 531.996C290.817 480.975 307.994 404.896 291.912 371.65H247.246Z" fill="#E94057"/>
<path opacity="0.3" d="M247.246 371.65C247.246 371.65 260.991 490.707 271.377 528.928C283.716 574.321 344.92 644.661 344.92 644.661L362.772 634.893C362.772 634.893 320.315 555.909 310.896 531.996C290.817 480.975 307.994 404.896 291.912 371.65H247.246Z" fill="black"/>
<path d="M234.487 300.038C234.195 305.068 233.593 309.68 232.936 314.473C232.279 319.267 231.366 323.915 230.344 328.6C229.322 333.284 228.172 337.987 226.693 342.599C225.283 347.282 223.595 351.878 221.637 356.362L220.104 359.739C219.903 360.266 219.483 361.01 219.154 361.646C218.826 362.281 218.424 362.88 218.077 363.461C216.649 365.666 215.063 367.766 213.332 369.744C210.101 373.439 206.625 376.915 202.927 380.148C195.757 386.424 188.131 392.166 180.11 397.324L175.456 391.405C178.723 388.264 182.045 385.014 185.258 381.782C188.47 378.55 191.646 375.245 194.658 371.904C197.641 368.664 200.45 365.27 203.073 361.736C204.277 360.115 205.362 358.41 206.322 356.634C206.523 356.235 206.76 355.817 206.925 355.436C207.089 355.055 207.235 354.746 207.454 354.183L208.604 351.151C211.578 342.819 213.88 334.264 215.485 325.567C216.38 321.191 217.001 316.743 217.676 312.294C218.351 307.846 218.826 303.216 219.209 299.094L234.487 300.038Z" fill="#FFB573"/>
<path d="M224.083 281.918C217.913 283.479 213.605 308.699 213.605 308.699L230.581 320.175C230.581 320.175 246.863 294.755 242.117 288C237.372 281.246 233.064 279.648 224.083 281.918Z" fill="#E94057"/>
<path opacity="0.6" d="M224.083 281.918C217.913 283.479 213.605 308.699 213.605 308.699L230.581 320.175C230.581 320.175 246.863 294.755 242.117 288C237.372 281.246 233.064 279.648 224.083 281.918Z" fill="white"/>
<path d="M224.63 287.564L219.903 312.966L229.449 319.412L224.63 287.564Z" fill="#E94057"/>
<path opacity="0.4" d="M224.63 287.564L219.903 312.966L229.449 319.412L224.63 287.564Z" fill="white"/>
<path d="M224.082 281.918C224.082 281.918 216.964 284.424 231.22 371.651H291.912C290.89 347.084 290.872 331.923 302.682 281.5C294.185 279.75 285.571 278.621 276.908 278.123C267.732 277.469 258.521 277.469 249.345 278.123C237.499 279.194 224.082 281.918 224.082 281.918Z" fill="#E94057"/>
<path opacity="0.6" d="M224.082 281.918C224.082 281.918 216.964 284.424 231.22 371.651H291.912C290.89 347.084 290.872 331.923 302.682 281.5C294.185 279.75 285.571 278.621 276.908 278.123C267.732 277.469 258.521 277.469 249.345 278.123C237.499 279.194 224.082 281.918 224.082 281.918Z" fill="white"/>
<path d="M178.267 389.244L161.346 390.461L171.458 401.736C171.458 401.736 180.804 399.612 182.41 393.656L178.267 389.244Z" fill="#FFB573"/>
<path d="M151.981 396.434L158.936 407.056L171.458 401.736L161.345 390.461L151.981 396.434Z" fill="#FFB573"/>
<path d="M357.023 657.68L370.384 647.566C370.609 647.38 370.896 647.286 371.187 647.303C371.479 647.32 371.753 647.446 371.954 647.657L381.519 657.008C381.743 657.227 381.92 657.489 382.041 657.777C382.162 658.066 382.225 658.375 382.225 658.687C382.225 659 382.162 659.309 382.041 659.598C381.92 659.886 381.743 660.147 381.519 660.367C381.429 660.472 381.325 660.564 381.209 660.639C376.499 664.089 374.035 665.524 368.157 669.972C364.507 672.714 359.56 677.09 354.577 680.866C349.594 684.643 345.56 679.94 347.275 677.925C355.07 668.846 354.431 665.015 355.563 660.004C355.749 659.078 356.268 658.252 357.023 657.68Z" fill="#263238"/>
<path d="M241.953 704.58H258.746C259.033 704.581 259.31 704.684 259.528 704.871C259.745 705.057 259.889 705.315 259.932 705.597L261.758 718.815C261.793 719.126 261.766 719.44 261.679 719.74C261.591 720.04 261.445 720.319 261.248 720.563C261.051 720.806 260.807 721.008 260.532 721.157C260.256 721.305 259.953 721.398 259.64 721.43H259.294C253.452 721.43 250.623 720.994 243.249 720.994C238.704 720.994 229.303 721.466 223.024 721.466C216.745 721.466 216.416 715.293 219.045 714.73C230.745 712.224 235.363 708.775 239.306 705.47C240.049 704.862 240.991 704.545 241.953 704.58Z" fill="#263238"/>
<path d="M309.236 297.387C312.761 305.948 315.772 314.709 318.253 323.624C320.959 332.666 322.793 341.944 323.729 351.332L323.912 354.963V357.342C323.836 358.276 323.695 359.205 323.492 360.12C322.755 362.875 321.637 365.515 320.17 367.964C317.719 372.128 314.916 376.076 311.791 379.766C305.851 386.843 299.383 393.465 292.443 399.575L286.966 394.401C292.278 387.319 297.663 380.147 302.354 372.848C304.678 369.36 306.763 365.72 308.597 361.954C309.324 360.466 309.857 358.891 310.185 357.269C310.203 357.088 310.203 356.906 310.185 356.725V356.525L310.094 355.78L309.765 352.748C308.376 344.313 306.356 335.992 303.723 327.855C301.131 319.557 298.247 311.15 295.089 303.143L309.236 297.387Z" fill="#FFB573"/>
<path d="M351.985 663.944H351.802C351.46 663.911 351.131 663.789 350.85 663.592C350.568 663.395 350.343 663.128 350.196 662.818C350.089 662.633 350.032 662.423 350.032 662.21C350.032 661.996 350.089 661.787 350.196 661.602C351.091 659.931 356.475 659.514 357.096 659.477C357.163 659.468 357.232 659.48 357.291 659.513C357.35 659.546 357.397 659.597 357.425 659.659C357.468 659.713 357.491 659.78 357.491 659.849C357.491 659.919 357.468 659.986 357.425 660.04C356.129 661.511 353.847 663.944 351.985 663.944ZM356.256 660.313C354.102 660.53 351.255 661.111 350.78 662.001C350.722 662.172 350.722 662.357 350.78 662.528C350.872 662.736 351.016 662.916 351.198 663.053C351.38 663.19 351.595 663.278 351.821 663.308H351.949C353.689 662.793 355.206 661.713 356.256 660.24V660.313Z" fill="#E94057"/>
<path d="M356.567 660.131C354.741 660.131 351.31 659.26 350.634 657.88C350.511 657.627 350.478 657.34 350.541 657.066C350.604 656.791 350.759 656.547 350.981 656.373C351.173 656.181 351.405 656.034 351.66 655.943C351.916 655.852 352.189 655.819 352.46 655.846C354.632 656.01 357.26 659.387 357.37 659.478C357.406 659.531 357.425 659.594 357.425 659.659C357.425 659.724 357.406 659.787 357.37 659.841C357.345 659.895 357.307 659.941 357.259 659.976C357.211 660.011 357.155 660.033 357.096 660.04C356.923 660.09 356.746 660.12 356.567 660.131ZM352.387 656.5C352.078 656.502 351.782 656.626 351.565 656.845C351.237 657.153 351.291 657.371 351.364 657.535C351.821 658.461 354.632 659.35 356.457 659.35C355.526 658.261 353.792 656.554 352.496 656.445L352.387 656.5Z" fill="#E94057"/>
<path d="M236.331 707.177C235.045 707.3 233.756 706.98 232.68 706.269C232.423 706.049 232.228 705.765 232.116 705.446C232.004 705.128 231.978 704.785 232.041 704.453C232.051 704.26 232.112 704.073 232.218 703.91C232.324 703.748 232.47 703.616 232.643 703.527C234.469 702.511 240.419 705.543 241.095 705.888C241.16 705.923 241.213 705.975 241.249 706.04C241.285 706.104 241.301 706.178 241.295 706.251C241.279 706.324 241.243 706.391 241.192 706.445C241.14 706.499 241.075 706.539 241.003 706.56C239.469 706.91 237.904 707.117 236.331 707.177ZM233.739 704.108C233.512 704.096 233.287 704.14 233.081 704.235C233.01 704.27 232.949 704.324 232.907 704.392C232.865 704.459 232.843 704.537 232.844 704.617C232.815 704.824 232.839 705.036 232.912 705.232C232.985 705.428 233.106 705.604 233.264 705.743C234.158 706.541 236.623 706.687 239.945 706.142C238.005 705.123 235.907 704.435 233.739 704.108Z" fill="#E94057"/>
<path d="M241.041 706.65H240.895C239.069 705.851 235.601 702.656 235.875 700.967C235.875 700.567 236.222 700.077 237.207 699.968C237.558 699.93 237.913 699.966 238.249 700.072C238.586 700.178 238.896 700.353 239.16 700.586C240.986 702.129 241.387 706.142 241.406 706.305C241.407 706.366 241.392 706.426 241.363 706.48C241.335 706.534 241.293 706.58 241.241 706.614C241.212 706.633 241.179 706.647 241.145 706.653C241.11 706.659 241.075 706.658 241.041 706.65ZM237.39 700.622H237.189C236.532 700.622 236.495 700.949 236.477 701.021C236.313 702.038 238.704 704.653 240.511 705.652C240.402 703.968 239.764 702.361 238.686 701.058C238.327 700.751 237.862 700.595 237.39 700.622Z" fill="#E94057"/>
<path d="M288.901 392.731L272.893 394.819L284.119 405.005C284.119 405.005 293.246 401.937 294.213 395.836L288.901 392.731Z" fill="#FFB573"/>
<path d="M276.908 278.123C267.732 277.469 258.521 277.469 249.345 278.123C246.041 278.414 242.609 278.849 239.379 279.303C237.973 284.605 238.247 292.013 243.686 301.709L246.826 307.283L252.777 304.905C257.194 303.089 279.555 293.738 286.746 282.154L288.572 279.158C284.994 278.704 280.978 278.323 276.908 278.123Z" fill="#E94057"/>
<path opacity="0.6" d="M276.908 278.123C267.732 277.469 258.521 277.469 249.345 278.123C246.041 278.414 242.609 278.849 239.379 279.303C237.973 284.605 238.247 292.013 243.686 301.709L246.826 307.283L252.777 304.905C257.194 303.089 279.555 293.738 286.746 282.154L288.572 279.158C284.994 278.704 280.978 278.323 276.908 278.123Z" fill="black"/>
<path d="M276.89 278.123C267.72 277.469 258.515 277.469 249.345 278.123L247.52 278.305C245.33 282.444 244.764 288.818 250.039 298.187C250.039 298.187 274.207 288.491 280.504 278.359C279.373 278.25 278.113 278.178 276.89 278.123Z" fill="#FFB573"/>
<path d="M240.784 211.65C245.585 204.387 253.562 202.154 259.713 201.264C265.865 200.374 286.035 199.848 292.04 222.145C296.786 239.812 301.477 254.592 315.989 265.722C306.205 274.002 263.346 280.502 239.598 272.386C229.613 257.351 229.102 229.19 240.784 211.65Z" fill="#263238"/>
<path d="M274.17 247.238C272.436 256.062 270.702 272.222 276.908 278.105C276.908 278.105 274.48 287.038 257.997 287.038C239.89 287.038 249.345 278.105 249.345 278.105C259.239 275.744 258.983 268.445 257.249 261.6L274.17 247.238Z" fill="#FFB573"/>
<path d="M267.271 253.102L257.268 261.6C257.683 263.196 257.964 264.823 258.107 266.466C261.886 265.939 267.07 261.799 267.471 257.877C267.697 256.287 267.629 254.668 267.271 253.102Z" fill="#EF9F5E"/>
<path d="M284.264 230.878C281.125 245.295 280.084 251.468 271.487 257.805C258.709 267.338 241.514 260.347 240.273 245.277C239.16 231.713 244.508 210.415 259.731 206.82C263.085 206.005 266.593 206.058 269.92 206.972C273.248 207.886 276.286 209.631 278.744 212.042C281.202 214.453 283 217.449 283.966 220.746C284.932 224.043 285.035 227.531 284.264 230.878Z" fill="#FFB573"/>
<path d="M260.334 231.169C260.152 232.367 259.367 233.22 258.6 233.112C257.833 233.003 257.341 231.931 257.523 230.751C257.706 229.571 258.472 228.699 259.348 228.808C260.225 228.917 260.517 229.988 260.334 231.169Z" fill="#263238"/>
<path d="M246.863 229.117C246.68 230.297 245.914 231.168 245.129 231.041C244.344 230.914 243.869 229.861 244.052 228.681C244.234 227.501 245.019 226.629 245.877 226.756C246.735 226.883 247.045 227.991 246.863 229.117Z" fill="#263238"/>
<path d="M246.132 226.865L243.394 225.612C243.394 225.612 244.508 227.991 246.132 226.865Z" fill="#263238"/>
<path d="M250.696 231.876C249.196 234.42 247.354 236.747 245.22 238.794C245.759 239.321 246.408 239.724 247.121 239.975C247.833 240.226 248.593 240.319 249.345 240.247L250.696 231.876Z" fill="#ED893E"/>
<path d="M255.168 245.875C254.557 245.882 253.946 245.833 253.343 245.73C253.297 245.724 253.253 245.708 253.214 245.684C253.174 245.66 253.14 245.629 253.112 245.592C253.085 245.554 253.066 245.512 253.055 245.467C253.045 245.423 253.043 245.376 253.051 245.331C253.058 245.285 253.073 245.241 253.097 245.202C253.121 245.163 253.153 245.128 253.19 245.101C253.228 245.074 253.27 245.055 253.315 245.044C253.36 245.034 253.407 245.032 253.453 245.04C254.93 245.298 256.449 245.208 257.885 244.776C259.321 244.344 260.635 243.582 261.721 242.553C261.754 242.52 261.792 242.495 261.834 242.477C261.877 242.459 261.922 242.45 261.968 242.45C262.014 242.45 262.059 242.459 262.101 242.477C262.144 242.495 262.182 242.52 262.214 242.553C262.25 242.585 262.278 242.624 262.297 242.668C262.317 242.712 262.327 242.759 262.327 242.807C262.327 242.855 262.317 242.902 262.297 242.946C262.278 242.989 262.25 243.029 262.214 243.061C260.332 244.889 257.799 245.901 255.168 245.875Z" fill="#263238"/>
<path d="M275.466 222.235C272.692 227.228 273.641 237.977 280.596 240.9C287.55 243.824 288.353 225.667 286.583 222.235C284.812 218.803 275.466 222.235 275.466 222.235Z" fill="#263238"/>
<path d="M260.06 205.676C260.06 205.676 256.957 209.308 255.442 217.624C260.918 221.364 271.578 228.355 285.67 226.702C285.67 223.234 281.654 212.703 278.113 209.98C272.715 206.657 266.386 205.149 260.06 205.676Z" fill="#263238"/>
<path d="M247.265 215.826C247.265 215.826 249.547 215.045 253.8 216.879C255.584 213.319 258.024 210.122 260.992 207.456C253.818 204.242 250.678 211.033 247.265 215.826Z" fill="#263238"/>
<path d="M286.163 244.841C284.751 247.322 282.418 249.153 279.664 249.943C276.014 250.923 274.188 247.673 275.229 244.242C276.16 241.137 279.19 236.979 282.859 237.414C284.134 237.62 285.276 238.32 286.032 239.362C286.788 240.404 287.098 241.702 286.893 242.971C286.782 243.637 286.533 244.274 286.163 244.841Z" fill="#FFB573"/>
<path d="M266.158 229.281C266.009 229.275 265.865 229.225 265.745 229.138C265.624 229.051 265.533 228.93 265.482 228.79C264.478 225.704 260.462 224.433 260.408 224.414C260.321 224.379 260.243 224.326 260.178 224.26C260.112 224.194 260.061 224.115 260.027 224.029C259.993 223.942 259.977 223.85 259.979 223.757C259.982 223.664 260.004 223.573 260.043 223.488C260.106 223.34 260.219 223.218 260.361 223.143C260.504 223.067 260.668 223.041 260.828 223.071C262.155 223.462 263.381 224.138 264.419 225.051C265.456 225.964 266.28 227.091 266.833 228.355C266.865 228.439 266.879 228.529 266.875 228.619C266.87 228.709 266.848 228.798 266.809 228.879C266.77 228.96 266.715 229.033 266.646 229.093C266.578 229.152 266.499 229.198 266.413 229.226L266.158 229.281Z" fill="#263238"/>
<path d="M243.778 222.308C243.625 222.305 243.477 222.253 243.356 222.159C243.235 222.066 243.147 221.936 243.106 221.789C243.065 221.643 243.073 221.487 243.128 221.344C243.184 221.202 243.283 221.082 243.413 221.001C244.366 220.406 245.448 220.046 246.568 219.952C247.689 219.857 248.817 220.03 249.857 220.456C249.947 220.492 250.029 220.547 250.097 220.616C250.166 220.685 250.219 220.768 250.254 220.858C250.289 220.949 250.305 221.045 250.301 221.142C250.297 221.239 250.273 221.334 250.23 221.422C250.187 221.509 250.127 221.587 250.053 221.65C249.979 221.713 249.893 221.76 249.8 221.789C249.706 221.818 249.608 221.827 249.511 221.816C249.414 221.805 249.321 221.775 249.236 221.727C248.409 221.407 247.518 221.282 246.634 221.364C245.749 221.446 244.897 221.732 244.143 222.199C244.035 222.27 243.908 222.308 243.778 222.308Z" fill="#263238"/>
<path d="M259.586 228.935L256.866 227.664C256.866 227.664 257.979 230.116 259.586 228.935Z" fill="#263238"/>
<path d="M302.682 281.5C308.761 283.316 316.062 304.161 316.062 304.161L292.478 320.938C292.478 320.938 283.863 303.561 286.418 295.736C289.083 287.601 295.801 279.394 302.682 281.5Z" fill="#E94057"/>
<path opacity="0.6" d="M302.682 281.5C308.761 283.316 316.062 304.161 316.062 304.161L292.478 320.938C292.478 320.938 283.863 303.561 286.418 295.736C289.083 287.601 295.801 279.394 302.682 281.5Z" fill="white"/>
<path d="M292.825 368.109L294.377 373.556C294.596 373.974 294.085 374.41 293.391 374.41H230.928C230.38 374.41 229.924 374.137 229.887 373.792L229.34 368.345C229.34 367.964 229.778 367.655 230.38 367.655H291.84C292.029 367.639 292.22 367.673 292.393 367.752C292.566 367.832 292.715 367.955 292.825 368.109Z" fill="#E94057"/>
<path opacity="0.3" d="M292.825 368.109L294.377 373.556C294.596 373.974 294.085 374.41 293.391 374.41H230.928C230.38 374.41 229.924 374.137 229.887 373.792L229.34 368.345C229.34 367.964 229.778 367.655 230.38 367.655H291.84C292.029 367.639 292.22 367.673 292.393 367.752C292.566 367.832 292.715 367.955 292.825 368.109Z" fill="white"/>
<path d="M284.575 374.937H286.217C286.546 374.937 286.802 374.773 286.765 374.574L285.998 367.547C285.998 367.347 285.688 367.166 285.36 367.166H283.717C283.388 367.166 283.133 367.347 283.169 367.547L283.936 374.574C283.954 374.773 284.246 374.937 284.575 374.937Z" fill="#E94057"/>
<path d="M235.564 374.937H237.207C237.535 374.937 237.791 374.773 237.773 374.574L236.988 367.547C236.988 367.347 236.678 367.166 236.367 367.166H234.706C234.378 367.166 234.14 367.347 234.159 367.547L234.925 374.574C234.925 374.773 235.217 374.937 235.564 374.937Z" fill="#E94057"/>
<path d="M260.06 374.937H261.703C262.032 374.937 262.287 374.773 262.269 374.574L261.484 367.547C261.484 367.347 261.174 367.166 260.845 367.166H259.294C258.965 367.166 258.728 367.347 258.746 367.547L259.513 374.574C259.44 374.773 259.732 374.937 260.06 374.937Z" fill="#E94057"/>
<path d="M260.773 686.914H237.043L235.309 679.397L261.868 678.471L260.773 686.914Z" fill="#E94057"/>
<path opacity="0.6" d="M260.773 686.914H237.043L235.309 679.397L261.868 678.471L260.773 686.914Z" fill="black"/>
<path d="M365.347 634.693L343.187 646.804L337 641.175L362.427 625.741L365.347 634.693Z" fill="#E94057"/>
<path opacity="0.6" d="M365.347 634.693L343.187 646.804L337 641.175L362.427 625.741L365.347 634.693Z" fill="black"/>
<g opacity="0.3">
<path d="M284.575 374.937H286.218C286.546 374.937 286.802 374.773 286.765 374.574L285.999 367.547C285.999 367.347 285.688 367.166 285.36 367.166H283.717C283.388 367.166 283.133 367.347 283.169 367.547L283.936 374.574C283.954 374.773 284.246 374.937 284.575 374.937Z" fill="black"/>
<path d="M235.564 374.937H237.207C237.535 374.937 237.791 374.773 237.773 374.574L236.988 367.547C236.988 367.347 236.678 367.166 236.367 367.166H234.706C234.378 367.166 234.14 367.347 234.159 367.547L234.925 374.574C234.925 374.773 235.217 374.937 235.564 374.937Z" fill="black"/>
<path d="M260.061 374.937H261.703C262.032 374.937 262.287 374.773 262.269 374.574L261.484 367.547C261.484 367.347 261.174 367.166 260.845 367.166H259.294C258.965 367.166 258.728 367.347 258.746 367.547L259.513 374.574C259.44 374.773 259.732 374.937 260.061 374.937Z" fill="black"/>
</g>
<path d="M291.001 453.975C290.872 454.017 290.733 454.008 290.61 453.951C290.488 453.893 290.393 453.792 290.343 453.667L251.482 336.081C251.442 335.948 251.456 335.806 251.52 335.683C251.585 335.561 251.696 335.469 251.829 335.427C251.894 335.404 251.964 335.395 252.034 335.399C252.104 335.403 252.172 335.42 252.235 335.451C252.297 335.481 252.354 335.524 252.4 335.576C252.446 335.628 252.481 335.688 252.504 335.754L291.347 453.34C291.37 453.405 291.38 453.475 291.376 453.544C291.372 453.613 291.354 453.681 291.324 453.744C291.293 453.806 291.25 453.862 291.198 453.908C291.146 453.954 291.085 453.989 291.019 454.012L291.001 453.975Z" fill="#263238"/>
<path d="M257.742 333.194L256.446 329.254C255.92 327.671 254.785 326.361 253.29 325.609C251.795 324.857 250.062 324.724 248.469 325.241C247.597 325.525 246.799 325.999 246.133 326.626C245.467 327.254 244.95 328.021 244.618 328.872C246.994 328.375 249.46 328.513 251.766 329.272C254.071 330.031 256.133 331.384 257.742 333.194Z" fill="#263238"/>
<path d="M249.674 329.671C250.707 331.285 251.059 333.239 250.652 335.109C250.245 336.979 249.113 338.613 247.502 339.658L239.635 327.529C241.255 326.499 243.217 326.147 245.097 326.548C246.976 326.949 248.621 328.071 249.674 329.671Z" fill="#263238"/>
<path d="M250.404 355.926L258.418 360.647C259.82 361.458 260.877 362.748 261.393 364.278L264.733 374.41L253.781 367.946C252.389 367.124 251.335 365.837 250.806 364.314L248.542 357.433C248.445 357.105 248.48 356.753 248.64 356.451C248.801 356.149 249.073 355.921 249.4 355.817C249.737 355.725 250.096 355.764 250.404 355.926Z" fill="#263238"/>
<path d="M269.771 364.878L266.121 373.412C265.487 374.912 265.422 376.589 265.938 378.133L269.279 388.264L274.262 376.571C274.895 375.071 274.96 373.394 274.444 371.85L272.181 364.987C272.069 364.665 271.833 364.4 271.525 364.25C271.217 364.1 270.862 364.078 270.538 364.188C270.368 364.243 270.212 364.332 270.08 364.451C269.948 364.57 269.843 364.716 269.771 364.878Z" fill="#263238"/>
<path d="M250.897 330.143C251.024 332.054 251.905 333.838 253.347 335.106C254.79 336.375 256.678 337.025 258.6 336.916L257.706 322.39C255.775 322.516 253.973 323.399 252.696 324.846C251.419 326.293 250.772 328.185 250.897 330.107V330.143Z" fill="#E94057"/>
<path opacity="0.2" d="M250.897 330.143C251.024 332.054 251.905 333.838 253.347 335.106C254.79 336.375 256.678 337.025 258.6 336.916L257.706 322.39C255.775 322.516 253.973 323.399 252.696 324.846C251.419 326.293 250.772 328.185 250.897 330.107V330.143Z" fill="black"/>
<path d="M247.922 334.083C247.435 333.711 246.88 333.438 246.287 333.28C245.694 333.121 245.076 333.08 244.468 333.16C243.859 333.239 243.272 333.437 242.741 333.742C242.209 334.046 241.743 334.452 241.369 334.937L248.78 340.602C249.154 340.118 249.428 339.565 249.588 338.975C249.747 338.386 249.788 337.771 249.708 337.166C249.629 336.56 249.43 335.977 249.123 335.448C248.817 334.919 248.409 334.455 247.922 334.083Z" fill="#E94057"/>
<path opacity="0.2" d="M247.922 334.083C247.435 333.711 246.88 333.438 246.287 333.28C245.694 333.121 245.076 333.08 244.468 333.16C243.859 333.239 243.272 333.437 242.741 333.742C242.209 334.046 241.743 334.452 241.369 334.937L248.78 340.602C249.154 340.118 249.428 339.565 249.588 338.975C249.747 338.386 249.788 337.771 249.708 337.166C249.629 336.56 249.43 335.977 249.123 335.448C248.817 334.919 248.409 334.455 247.922 334.083Z" fill="black"/>
<path d="M247.465 342.381C248.029 343.91 249.169 345.161 250.643 345.871C252.117 346.58 253.811 346.693 255.366 346.184C256.922 345.675 258.218 344.585 258.982 343.144C259.745 341.702 259.915 340.023 259.457 338.459L257.742 333.266C256.126 331.468 254.061 330.126 251.756 329.377C249.452 328.627 246.989 328.497 244.617 328.999C244.052 330.35 243.994 331.857 244.453 333.248L247.465 342.381Z" fill="#E94057"/>
<path opacity="0.2" d="M247.502 342.381C248.025 343.96 249.157 345.268 250.65 346.017C252.142 346.767 253.873 346.895 255.461 346.375C257.049 345.855 258.364 344.729 259.117 343.244C259.87 341.76 259.999 340.038 259.477 338.459L257.761 333.266C256.145 331.468 254.08 330.126 251.775 329.377C249.471 328.627 247.008 328.497 244.636 328.999C244.071 330.35 244.013 331.857 244.472 333.248L247.502 342.381Z" fill="black"/>
<path d="M264.095 403.734L273.951 411.76L284.119 405.005L272.893 394.819L264.095 403.734Z" fill="#FFB573"/>
<path d="M167.954 406.711L176.679 401.627L170.619 394.691L158.882 401.736L167.954 406.711Z" fill="#FF8B7B"/>
<path d="M8.67325 709.283L-4.54227 705.633L2.6131 674.821L15.8469 678.47L8.67325 709.283Z" fill="#FF8B7B"/>
<path d="M166.694 708.865L153.131 710.99L147.144 680.213H160.871L166.694 708.865Z" fill="#FF8B7B"/>
<path d="M151.927 709.574L167.15 707.195C167.417 707.151 167.691 707.199 167.927 707.331C168.163 707.463 168.346 707.672 168.446 707.921L173.028 719.488C173.125 719.732 173.172 719.993 173.166 720.255C173.161 720.518 173.103 720.776 172.996 721.016C172.889 721.256 172.735 721.472 172.543 721.653C172.351 721.833 172.125 721.973 171.878 722.066C171.735 722.135 171.58 722.178 171.422 722.193C166.092 722.937 163.463 723.046 156.819 724.099C152.712 724.735 148.769 725.752 130.57 725.752C124.93 725.752 124.054 720.087 126.408 719.578C136.977 717.29 147.035 714.276 149.919 710.754C150.42 710.128 151.134 709.708 151.927 709.574Z" fill="#263238"/>
<path d="M-4.03092 704.144L10.4076 708.121C10.6674 708.2 10.8938 708.362 11.0521 708.582C11.2103 708.802 11.2918 709.067 11.2838 709.337L10.6266 721.739C10.5891 722.249 10.3524 722.725 9.96695 723.064C9.58154 723.403 9.07803 723.579 8.56398 723.554C8.40078 723.581 8.23434 723.581 8.07113 723.554C2.88714 722.029 -4.54204 719.651 -11.095 717.853C-18.7615 715.747 -25.4788 714.33 -34.4595 711.861C-39.9356 710.354 -39.9356 704.489 -37.4531 704.598C-26.501 705.197 -17.9766 707.286 -7.51735 704.271C-6.3889 703.912 -5.18279 703.868 -4.03092 704.144Z" fill="#263238"/>
<path d="M2.61269 674.821L-1.07452 690.708L12.1593 694.358L15.8465 678.47L2.61269 674.821Z" fill="#EA7063"/>
<path d="M160.871 680.213H147.144L150.32 696.518H164.193L160.871 680.213Z" fill="#EA7063"/>
<path d="M50.3279 246.638C50.3279 246.638 34.1371 287.855 49.5248 364.66H122.922C123.415 353.457 116.333 298.786 127.212 245.985C119.099 244.421 110.891 243.39 102.642 242.898C92.2528 242.299 81.8369 242.299 71.4472 242.898C64.3195 243.591 57.2579 244.841 50.3279 246.638Z" fill="#263238"/>
<path d="M147.82 712.641C146.908 712.862 145.949 712.766 145.1 712.369C144.822 712.201 144.592 711.967 144.429 711.688C144.266 711.409 144.177 711.093 144.169 710.771C144.139 710.587 144.16 710.397 144.231 710.225C144.302 710.052 144.419 709.901 144.57 709.79C145.939 708.792 150.74 710.771 151.288 711.007C151.347 711.029 151.398 711.069 151.434 711.121C151.47 711.173 151.489 711.234 151.489 711.297C151.486 711.362 151.466 711.425 151.43 711.479C151.395 711.533 151.346 711.577 151.288 711.606C150.174 712.077 149.01 712.424 147.82 712.641ZM145.355 710.172C145.213 710.192 145.076 710.242 144.954 710.317C144.892 710.362 144.846 710.423 144.82 710.495C144.794 710.566 144.789 710.643 144.808 710.716C144.815 710.934 144.875 711.148 144.983 711.337C145.091 711.527 145.244 711.688 145.428 711.806C147.053 712.259 148.79 712.077 150.284 711.297C148.73 710.608 147.056 710.226 145.355 710.172Z" fill="#E94057"/>
<path d="M151.215 711.625H151.05C149.535 711.08 146.341 708.556 146.396 707.013C146.396 706.722 146.523 706.232 147.29 706.014C147.528 705.943 147.778 705.924 148.024 705.958C148.27 705.993 148.505 706.08 148.714 706.214C150.539 707.249 151.434 711.08 151.47 711.243C151.487 711.298 151.488 711.356 151.471 711.411C151.455 711.466 151.423 711.515 151.379 711.552L151.215 711.625ZM147.564 706.577H147.436C147.016 706.704 147.016 706.886 147.016 706.976C147.016 707.884 149.061 709.845 150.667 710.608C150.325 709.084 149.53 707.699 148.385 706.631C148.131 706.541 147.854 706.541 147.6 706.631L147.564 706.577Z" fill="#E94057"/>
<path d="M156.253 391.241L158.881 401.736L170.618 394.691C170.618 394.691 168.902 383.415 159.958 383.234L156.253 391.241Z" fill="#FF8B7B"/>
<path d="M49.5248 364.624C49.5248 364.624 22.1263 473.113 16.5224 514.475C10.6996 557.398 -3.19135 684.662 -3.19135 684.662L18.3478 691.507C18.3478 691.507 48.9954 566.495 57.2277 524.77C66.2085 479.268 97.7323 364.624 97.7323 364.624H49.5248Z" fill="#E94057"/>
<path opacity="0.6" d="M49.5248 364.624C49.5248 364.624 22.1263 473.113 16.5224 514.475C10.6996 557.398 -3.19135 684.662 -3.19135 684.662L18.3478 691.507C18.3478 691.507 48.9954 566.495 57.2277 524.77C66.2085 479.268 97.7323 364.624 97.7323 364.624H49.5248Z" fill="white"/>
<path d="M19.4245 693.014L-4.63361 685.497L-4.30506 676.618L21.9435 685.152L19.4245 693.014Z" fill="#E94057"/>
<path d="M82.472 372.649L88.8607 397.506C82.9283 419.712 74.9881 449.817 68.289 476.889C67.6502 441.626 72.4331 406.474 82.472 372.649Z" fill="#E94057"/>
<path opacity="0.4" d="M82.472 372.649L88.8607 397.506C82.9283 419.712 74.9881 449.817 68.289 476.889C67.6502 441.626 72.4331 406.474 82.472 372.649Z" fill="white"/>
<path d="M75.5536 364.624C75.5536 364.624 81.7781 476.199 90.339 515.328C99.6848 558.07 144.296 693.359 144.296 693.359H169.431C169.431 693.359 136.831 561.52 131.519 519.159C125.714 473.167 122.94 364.624 122.94 364.624H75.5536Z" fill="#E94057"/>
<path opacity="0.6" d="M75.5536 364.624C75.5536 364.624 81.7781 476.199 90.339 515.328C99.6848 558.07 144.296 693.359 144.296 693.359H169.431C169.431 693.359 136.831 561.52 131.519 519.159C125.714 473.167 122.94 364.624 122.94 364.624H75.5536Z" fill="white"/>
<path d="M171.275 693.74H142.471L139.843 686.06H171.275V693.74Z" fill="#E94057"/>
<path d="M71.2825 327.982C62.1557 327.528 52.7552 326.838 44.03 325.567C39.9629 325.056 35.9614 324.119 32.0922 322.771L31.6541 322.608L33.1874 319.63C34.3009 317.506 35.3413 315.363 36.3818 313.239C38.4809 308.954 40.5253 304.687 42.4967 300.383C46.4942 291.795 50.2362 283.152 53.7774 274.364L33.6985 266.048C29.92 274.582 26.2693 283.243 22.7464 291.904L17.4712 304.886L14.8609 311.35L13.5466 314.546L12.8895 316.144C12.4312 317.167 12.0529 318.223 11.7578 319.303C10.956 322.25 11.0257 325.364 11.9586 328.273C12.9171 331.047 14.6446 333.496 16.9418 335.336C18.5334 336.605 20.2971 337.644 22.1806 338.423C23.6754 339.039 25.2126 339.549 26.7804 339.948C29.4965 340.613 32.2615 341.062 35.0493 341.292C37.6778 341.528 40.2515 341.655 42.7705 341.655C52.6425 341.6 62.4854 340.584 72.1586 338.622L71.2825 327.982Z" fill="#FF8B7B"/>
<path d="M66.6284 255.989C71.2466 268.19 47.8273 304.16 47.8273 304.16L20.4471 289.343C24.5701 278.158 29.888 267.444 36.3094 257.387C45.9472 242.988 61.554 242.516 66.6284 255.989Z" fill="#263238"/>
<path d="M140.263 260.873C144.315 271.223 148.075 281.609 151.635 292.122C153.46 297.387 155.14 302.671 156.782 308.009C158.425 313.347 160.05 318.686 161.474 324.351C162.839 330.023 163.869 335.771 164.558 341.564C165.325 347.192 165.781 352.767 166.238 358.341C167.096 369.489 167.479 380.565 167.406 391.75L156.709 392.803C154.373 382.072 152.182 371.269 149.974 360.611C148.897 355.272 147.729 349.952 146.56 344.723C145.392 339.494 144.078 334.428 142.526 329.689C140.975 324.95 138.985 319.684 137.05 314.6L131.282 299.258C127.412 289.035 123.579 278.722 119.874 268.39L140.263 260.873Z" fill="#FF8B7B"/>
<path d="M127.211 245.948C140.19 247.764 155.066 292.576 155.066 292.576L127.869 307.882C127.869 307.882 115.858 286.602 109.925 270.805C103.646 254.246 113.266 243.933 127.211 245.948Z" fill="#263238"/>
<path d="M93.8079 320.429L95.0857 334.809L82.0527 336.516L79.844 320.756L93.8079 320.429Z" fill="#FF8B7B"/>
<path d="M69.4571 328.727L79.8068 320.756L82.0155 336.517C82.0155 336.517 72.7245 343.18 66.3175 336.97L69.4571 328.727Z" fill="#FF8B7B"/>
<path d="M99.5388 207.91C97.5857 217.896 95.6143 236.199 102.642 242.862C102.642 242.862 98.6079 252.994 79.9528 252.994C62.9041 252.994 71.4467 242.862 71.4467 242.862C82.6361 240.193 81.7964 226.103 79.1314 215.772L99.5388 207.91Z" fill="#FF8B7B"/>
<path d="M97.8049 221.836L91.0693 216.97C90.7042 218.005 84.9727 221.836 85.8306 223.888C88.7511 230.769 94.1907 233.239 98.1152 232.004C97.6931 228.632 97.5892 225.227 97.8049 221.836Z" fill="#EA7063"/>
<path d="M112.006 181.49C118.559 184.759 120.969 203.805 112.006 207.546C103.044 211.286 99.6119 175.335 112.006 181.49Z" fill="#263238"/>
<path d="M77.9453 194.945C77.9453 208.491 77.1421 216.425 83.5309 223.797C93.1322 234.891 110.29 229.825 114.416 216.534C118.066 204.605 117.628 184.469 104.723 178.204C101.879 176.814 98.7235 176.17 95.5582 176.334C92.3928 176.499 89.3224 177.466 86.6387 179.143C83.9551 180.821 81.7475 183.154 80.2259 185.92C78.7043 188.685 77.9192 191.793 77.9453 194.945Z" fill="#FF8B7B"/>
<path d="M68.4533 177.569C55.1648 183.252 73.7468 205.694 79.1499 205.531C90.9416 205.131 79.9348 200.774 85.4291 191.423C86.9416 188.651 87.4933 185.46 86.9989 182.344C92.2376 181.691 106.95 182.744 112.554 185.159C120.038 188.354 129.749 176.08 119.709 164.423C120.239 173.502 113.43 164.968 104.376 162.789C95.5781 160.881 86.4003 161.757 78.1277 165.295C72.2866 167.546 67.0478 172.321 68.4533 177.569Z" fill="#263238"/>
<path d="M71.593 178.967C70.0607 177.573 68.0345 176.842 65.9602 176.934C63.8858 177.025 61.9331 177.933 60.5314 179.457L60.2028 179.838C63.1599 178.513 67.7598 178.604 71.593 178.967Z" fill="#263238"/>
<path d="M72.1952 181.745C72.1079 180.726 71.8194 179.734 71.3462 178.827C70.8731 177.919 70.2245 177.113 69.4377 176.456C68.6509 175.798 67.7414 175.301 66.7612 174.993C65.781 174.686 64.7494 174.574 63.7256 174.663H63.2145C66.3541 175.698 69.6762 178.858 72.1952 181.745Z" fill="#263238"/>
<path d="M70.8267 209.416C72.4537 212.415 75.2112 214.648 78.4931 215.626C82.8375 216.878 85.0644 213.011 83.9692 208.889C82.9287 205.258 79.3876 200.065 74.9885 200.61C74.2301 200.71 73.4992 200.959 72.8377 201.341C72.1762 201.724 71.5973 202.232 71.1342 202.838C70.6711 203.444 70.3329 204.135 70.1392 204.871C69.9455 205.607 69.8999 206.374 70.0053 207.128C70.1101 207.941 70.3903 208.721 70.8267 209.416Z" fill="#FF8B7B"/>
<path d="M98.2614 200.084C98.2614 201.173 98.7178 202.117 99.4297 202.154C100.142 202.19 100.799 201.355 100.872 200.247C100.945 199.139 100.415 198.232 99.7035 198.177C98.9916 198.123 98.3344 198.94 98.2614 200.084Z" fill="#263238"/>
<path d="M110.747 200.9C110.747 202.008 111.185 202.934 111.915 202.988C112.645 203.043 113.284 202.19 113.357 201.173C113.43 200.156 112.901 199.139 112.189 199.103C111.477 199.067 110.82 199.811 110.747 200.9Z" fill="#263238"/>
<path d="M106.73 201.191C107.828 204.637 109.394 207.917 111.385 210.941C110.584 211.459 109.676 211.792 108.728 211.914C107.78 212.037 106.817 211.946 105.909 211.649L106.73 201.191Z" fill="#FF5652"/>
<path d="M102.624 214.391C102.667 214.394 102.71 214.388 102.751 214.373C102.792 214.359 102.83 214.337 102.862 214.309C102.894 214.28 102.92 214.245 102.939 214.206C102.958 214.168 102.968 214.126 102.971 214.083C102.971 213.999 102.939 213.918 102.881 213.858C102.823 213.797 102.744 213.76 102.66 213.756C101.284 213.695 99.9414 213.311 98.7423 212.636C97.5432 211.96 96.5216 211.013 95.7606 209.87C95.7243 209.791 95.6578 209.729 95.5756 209.698C95.4934 209.668 95.4024 209.671 95.3225 209.707C95.2426 209.743 95.1805 209.809 95.1496 209.891C95.1188 209.973 95.1219 210.063 95.1582 210.143C95.9697 211.394 97.0713 212.433 98.3705 213.172C99.6697 213.911 101.128 214.33 102.624 214.391Z" fill="#263238"/>
<path d="M94.7751 195.835C94.8751 195.834 94.9739 195.813 95.0651 195.773C95.1563 195.732 95.2379 195.673 95.3045 195.598C95.8254 194.981 96.4854 194.495 97.2308 194.18C97.9762 193.864 98.7859 193.728 99.5941 193.783C99.7578 193.791 99.9186 193.737 100.045 193.634C100.171 193.53 100.254 193.382 100.277 193.221C100.3 193.06 100.261 192.895 100.168 192.761C100.076 192.626 99.9362 192.531 99.7766 192.494C98.7432 192.414 97.7058 192.584 96.7525 192.989C95.7992 193.393 94.9581 194.021 94.3005 194.818C94.1835 194.937 94.1179 195.096 94.1179 195.263C94.1179 195.429 94.1835 195.589 94.3005 195.707C94.4392 195.803 94.6069 195.848 94.7751 195.835Z" fill="#263238"/>
<path d="M116.643 196.888H116.917C116.995 196.852 117.065 196.8 117.122 196.735C117.179 196.671 117.223 196.596 117.25 196.515C117.277 196.433 117.288 196.347 117.281 196.261C117.274 196.176 117.249 196.093 117.209 196.017C116.78 195.086 116.134 194.272 115.324 193.64C114.514 193.008 113.565 192.578 112.554 192.385C112.465 192.364 112.371 192.361 112.28 192.378C112.19 192.395 112.103 192.431 112.027 192.483C111.951 192.535 111.887 192.603 111.839 192.681C111.791 192.76 111.761 192.848 111.749 192.939C111.737 193.03 111.745 193.122 111.772 193.21C111.799 193.298 111.844 193.38 111.904 193.449C111.965 193.518 112.039 193.574 112.123 193.613C112.207 193.652 112.298 193.673 112.39 193.674C113.188 193.84 113.935 194.191 114.569 194.699C115.204 195.207 115.708 195.858 116.041 196.598C116.103 196.698 116.192 196.779 116.299 196.831C116.406 196.882 116.525 196.902 116.643 196.888Z" fill="#263238"/>
<path d="M159.319 678.597C159.348 678.593 159.376 678.582 159.401 678.567C159.426 678.552 159.447 678.532 159.464 678.508C159.481 678.485 159.493 678.458 159.5 678.429C159.506 678.401 159.507 678.371 159.502 678.343C159.301 677.072 128.982 558.76 124.181 520.702C118.961 479.395 117.336 380.547 117.227 379.621C117.227 379.592 117.221 379.562 117.209 379.535C117.196 379.508 117.178 379.485 117.155 379.465C117.133 379.446 117.106 379.433 117.077 379.425C117.049 379.417 117.018 379.416 116.989 379.422C116.959 379.421 116.93 379.427 116.903 379.439C116.876 379.452 116.852 379.47 116.833 379.492C116.813 379.515 116.799 379.541 116.792 379.57C116.784 379.599 116.783 379.628 116.788 379.658C116.898 380.584 118.614 479.522 123.725 520.739C128.525 558.869 158.845 677.126 159.064 678.397C159.073 678.457 159.104 678.51 159.152 678.547C159.199 678.585 159.259 678.602 159.319 678.597Z" fill="#E94057"/>
<path opacity="0.5" d="M159.356 678.615C159.416 678.602 159.468 678.566 159.502 678.516C159.536 678.465 159.549 678.403 159.538 678.343C159.337 677.09 129.018 558.778 124.218 520.721C118.997 479.413 117.373 380.547 117.263 379.64C117.254 379.579 117.224 379.523 117.177 379.483C117.13 379.443 117.07 379.421 117.008 379.422C116.976 379.426 116.946 379.437 116.919 379.453C116.892 379.469 116.868 379.49 116.85 379.516C116.831 379.541 116.817 379.57 116.81 379.601C116.803 379.631 116.802 379.663 116.807 379.694C116.916 380.602 118.541 479.468 123.743 520.775C128.544 558.905 158.863 677.163 159.082 678.434C159.084 678.462 159.092 678.489 159.105 678.514C159.119 678.538 159.137 678.56 159.16 678.577C159.182 678.594 159.208 678.607 159.235 678.613C159.263 678.62 159.291 678.62 159.319 678.615H159.356Z" fill="white"/>
<g style="mix-blend-mode:multiply" opacity="0.5">
<rect x="0.468262" y="0.439697" width="375" height="812" fill="#E94057"/>
</g>
</g>
<defs>
<clipPath id="clip0_215_600">
<rect width="375" height="812" fill="white" transform="translate(0.468262 0.439697)"/>
</clipPath>
</defs>
</svg>
