<svg width="340" height="284" viewBox="0 0 340 284" fill="none" xmlns="http://www.w3.org/2000/svg">
<g clip-path="url(#clip0_205_1130)">
<path d="M159.725 283.411C233.467 283.411 293.246 280.354 293.246 276.583C293.246 272.812 233.467 269.755 159.725 269.755C85.9836 269.755 26.2042 272.812 26.2042 276.583C26.2042 280.354 85.9836 283.411 159.725 283.411Z" fill="#F2F2F2"/>
<path d="M237.734 66.3456H236.217V24.7928C236.217 18.4145 233.683 12.2973 229.173 7.78716C224.663 3.27697 218.546 0.743171 212.167 0.743164H124.132C117.754 0.743152 111.636 3.27693 107.126 7.7871C102.616 12.2973 100.082 18.4144 100.082 24.7927V252.755C100.082 259.133 102.616 265.25 107.126 269.76C111.636 274.271 117.754 276.804 124.132 276.804H212.167C218.546 276.804 224.663 274.271 229.173 269.76C233.683 265.25 236.217 259.133 236.217 252.755V95.9236H237.734L237.734 66.3456Z" fill="#3F3D56"/>
<path d="M231.098 24.9606V252.587C231.098 257.351 229.206 261.919 225.837 265.287C222.469 268.656 217.901 270.548 213.137 270.548H124.68C119.916 270.548 115.348 268.656 111.979 265.287C108.611 261.919 106.719 257.351 106.719 252.587V24.9606C106.719 20.1971 108.611 15.6288 111.979 12.2605C115.348 8.89217 119.916 6.99985 124.68 6.99976H135.411C134.883 8.2955 134.682 9.70098 134.826 11.0925C134.969 12.4841 135.452 13.8191 136.233 14.9802C137.013 16.1412 138.067 17.0927 139.301 17.7509C140.536 18.4091 141.913 18.7539 143.312 18.7549H193.746C195.145 18.7539 196.522 18.4091 197.757 17.7509C198.991 17.0926 200.045 16.1412 200.825 14.9801C201.606 13.8191 202.089 12.4841 202.232 11.0925C202.376 9.70097 202.175 8.2955 201.648 6.99976H213.137C217.901 6.99984 222.469 8.89217 225.837 12.2605C229.206 15.6288 231.098 20.1971 231.098 24.9606Z" fill="white"/>
<path d="M202.601 123.112C202.013 123.419 201.415 123.71 200.807 123.985C200.253 124.235 199.691 124.47 199.119 124.69C198.91 124.77 198.698 124.849 198.486 124.929C196.806 125.538 195.081 126.014 193.327 126.352C192.458 126.522 191.578 126.656 190.687 126.754C189.951 126.837 189.207 126.897 188.456 126.932C187.922 126.959 187.387 126.97 186.848 126.97C184.715 126.971 182.586 126.771 180.491 126.374C179.944 126.276 179.41 126.158 178.875 126.029C176.288 125.409 173.783 124.485 171.413 123.275C171.201 123.169 170.989 123.055 170.776 122.945C170.461 122.778 170.154 122.604 169.847 122.422C169.995 122.217 170.154 122.016 170.317 121.819C172.092 119.619 174.311 117.818 176.828 116.533C179.346 115.248 182.106 114.509 184.929 114.362C187.751 114.215 190.573 114.665 193.21 115.682C195.847 116.699 198.241 118.26 200.234 120.263C200.926 120.958 201.568 121.701 202.154 122.486C202.309 122.691 202.457 122.9 202.601 123.112Z" fill="#E94057"/>
<path d="M187.605 106.45C196.804 106.45 204.261 98.9926 204.261 89.7938C204.261 80.595 196.804 73.1379 187.605 73.1379C178.406 73.1379 170.949 80.595 170.949 89.7938C170.949 98.9926 178.406 106.45 187.605 106.45Z" fill="#2F2E41"/>
<path d="M192.035 106.473C198.042 103.189 200.25 95.6571 196.966 89.6497C193.682 83.6423 186.15 81.4345 180.143 84.7184C174.135 88.0024 171.928 95.5345 175.211 101.542C178.495 107.549 186.028 109.757 192.035 106.473Z" fill="#A0616A"/>
<path d="M199.115 87.7984C196.282 89.7509 192.92 90.79 189.479 90.7762C190.707 91.6272 192.104 92.202 193.574 92.461C189 93.4422 184.273 93.4688 179.687 92.539C178.668 92.3756 177.685 92.0379 176.78 91.5406C176.33 91.2889 175.937 90.9451 175.628 90.5316C175.319 90.1182 175.1 89.6443 174.986 89.1408C174.681 87.4002 176.038 85.8189 177.447 84.7532C179.605 83.1463 182.093 82.0393 184.731 81.5121C187.37 80.9849 190.092 81.0507 192.702 81.7048C194.406 82.1453 196.113 82.8895 197.22 84.258C198.327 85.6265 198.655 87.7363 197.6 89.1455L199.115 87.7984Z" fill="#2F2E41"/>
<path d="M186.848 58.6921C179.403 58.691 172.161 61.1243 166.227 65.6209C160.293 70.1176 155.992 76.4311 153.98 83.5992C151.967 90.7673 152.354 98.3968 155.08 105.325C157.806 112.253 162.723 118.1 169.081 121.974L169.301 122.103C169.483 122.213 169.665 122.319 169.847 122.422C170.154 122.604 170.461 122.778 170.776 122.945C170.989 123.055 171.201 123.169 171.413 123.275C173.783 124.485 176.288 125.409 178.875 126.029C179.41 126.158 179.944 126.276 180.491 126.374C182.586 126.771 184.715 126.971 186.848 126.97C187.387 126.97 187.921 126.958 188.456 126.932C189.207 126.898 189.951 126.838 190.687 126.754C191.578 126.655 192.458 126.521 193.327 126.352C195.081 126.014 196.806 125.538 198.486 124.929C198.698 124.849 198.91 124.77 199.119 124.69C199.692 124.47 200.254 124.235 200.807 123.985C201.414 123.712 202.012 123.421 202.601 123.112C208.506 120.02 213.387 115.28 216.651 109.468C216.666 109.438 216.685 109.407 216.701 109.377C218.442 106.252 219.678 102.871 220.361 99.3591C221.321 94.4156 221.175 89.321 219.935 84.4403C218.695 79.5595 216.392 75.0132 213.189 71.127C209.987 67.2408 205.964 64.1107 201.411 61.961C196.857 59.8113 191.884 58.695 186.848 58.6921H186.848ZM216.078 108.933C216.048 108.986 216.022 109.039 215.991 109.089C212.792 114.815 207.98 119.474 202.154 122.486C201.573 122.79 200.983 123.074 200.382 123.34C199.885 123.564 199.377 123.776 198.865 123.973C198.649 124.057 198.429 124.14 198.209 124.216C196.758 124.746 195.271 125.172 193.759 125.491C192.638 125.729 191.505 125.908 190.364 126.025C189.662 126.101 188.949 126.154 188.232 126.181C187.773 126.2 187.311 126.211 186.848 126.211C184.784 126.214 182.724 126.022 180.695 125.638C179.462 125.411 178.242 125.112 177.042 124.743C175.216 124.179 173.44 123.459 171.736 122.593C171.539 122.49 171.341 122.388 171.148 122.281C170.871 122.134 170.59 121.982 170.317 121.819C170.112 121.705 169.907 121.584 169.706 121.462C169.589 121.394 169.471 121.322 169.354 121.25C163.779 117.826 159.333 112.842 156.566 106.915C153.798 100.987 152.832 94.3778 153.787 87.9064C154.742 81.435 157.576 75.3863 161.937 70.5108C166.298 65.6353 171.995 62.1475 178.321 60.4801C184.646 58.8128 191.322 59.0392 197.52 61.1313C203.718 63.2235 209.165 67.0893 213.186 72.2491C217.207 77.4089 219.624 83.6357 220.138 90.1569C220.653 96.6782 219.241 103.207 216.078 108.933H216.078Z" fill="#3F3D56"/>
<path d="M179.17 73.3678C178.991 71.4834 176.683 70.3232 174.877 70.8924C173.072 71.4617 171.887 73.2795 171.528 75.1382C171.356 75.921 171.34 76.7301 171.481 77.5192C171.622 78.3083 171.917 79.0618 172.35 79.7365C173.262 81.0498 174.939 81.8694 176.503 81.536C178.289 81.1554 179.526 79.412 179.88 77.621C180.234 75.83 179.882 73.9836 179.531 72.192L179.17 73.3678Z" fill="#2F2E41"/>
<path d="M204.578 76.0599C204.399 74.1755 202.09 73.0153 200.285 73.5846C198.48 74.1538 197.294 75.9716 196.936 77.8303C196.764 78.6131 196.748 79.4223 196.888 80.2113C197.029 81.0004 197.325 81.7539 197.757 82.4286C198.67 83.7419 200.347 84.5615 201.911 84.2281C203.697 83.8475 204.934 82.1041 205.287 80.3131C205.641 78.5222 205.29 76.6757 204.939 74.8842L204.578 76.0599Z" fill="#2F2E41"/>
<path d="M127.839 106.475C127.603 106.474 127.37 106.425 127.154 106.329C126.938 106.233 126.744 106.094 126.585 105.919L107.763 85.3852C107.549 85.1527 107.289 84.967 107 84.8399C106.711 84.7127 106.399 84.6469 106.084 84.6465H6.61826C5.10881 84.6449 3.66167 84.0445 2.59433 82.9771C1.527 81.9098 0.926621 80.4627 0.924927 78.9532V43.0837C0.92662 41.5743 1.527 40.1271 2.59433 39.0598C3.66167 37.9924 5.10881 37.3921 6.61826 37.3904H135.483C136.992 37.3921 138.44 37.9924 139.507 39.0598C140.574 40.1271 141.175 41.5743 141.176 43.0837V78.9532C141.175 80.4627 140.574 81.9098 139.507 82.9772C138.44 84.0445 136.992 84.6449 135.483 84.6466H131.83C131.226 84.6473 130.647 84.8875 130.22 85.3145C129.793 85.7415 129.553 86.3204 129.552 86.9243V104.765C129.553 105.109 129.45 105.446 129.256 105.73C129.061 106.015 128.785 106.233 128.463 106.357C128.265 106.434 128.053 106.474 127.839 106.475Z" fill="white"/>
<path d="M127.839 106.475C127.603 106.474 127.37 106.425 127.154 106.329C126.938 106.233 126.744 106.094 126.585 105.919L107.763 85.3852C107.549 85.1527 107.289 84.967 107 84.8399C106.711 84.7127 106.399 84.6469 106.084 84.6465H6.61826C5.10881 84.6449 3.66167 84.0445 2.59433 82.9771C1.527 81.9098 0.926621 80.4627 0.924927 78.9532V43.0837C0.92662 41.5743 1.527 40.1271 2.59433 39.0598C3.66167 37.9924 5.10881 37.3921 6.61826 37.3904H135.483C136.992 37.3921 138.44 37.9924 139.507 39.0598C140.574 40.1271 141.175 41.5743 141.176 43.0837V78.9532C141.175 80.4627 140.574 81.9098 139.507 82.9772C138.44 84.0445 136.992 84.6449 135.483 84.6466H131.83C131.226 84.6473 130.647 84.8875 130.22 85.3145C129.793 85.7415 129.553 86.3204 129.552 86.9243V104.765C129.553 105.109 129.45 105.446 129.256 105.73C129.061 106.015 128.785 106.233 128.463 106.357C128.265 106.434 128.053 106.474 127.839 106.475ZM6.61826 38.149C5.30995 38.1505 4.05565 38.6709 3.13053 39.596C2.20542 40.5211 1.68504 41.7754 1.68357 43.0837V78.9532C1.68505 80.2615 2.20543 81.5158 3.13054 82.4409C4.05565 83.3661 5.30995 83.8864 6.61826 83.8879H106.084C106.504 83.8884 106.921 83.9761 107.306 84.1456C107.691 84.3151 108.037 84.5626 108.322 84.8725L127.144 105.406C127.274 105.547 127.442 105.646 127.629 105.689C127.815 105.733 128.01 105.719 128.188 105.65C128.366 105.58 128.52 105.459 128.628 105.301C128.736 105.143 128.793 104.956 128.793 104.765V86.9243C128.794 86.1193 129.114 85.3475 129.684 84.7783C130.253 84.209 131.025 83.8888 131.83 83.8879H135.483C136.791 83.8864 138.046 83.3661 138.971 82.4409C139.896 81.5158 140.416 80.2615 140.418 78.9532V43.0837C140.416 41.7754 139.896 40.5211 138.971 39.596C138.046 38.6709 136.791 38.1505 135.483 38.149H6.61826Z" fill="#3F3D56"/>
<path d="M14.89 53.2135C17.6414 53.2135 19.8719 50.9831 19.8719 48.2316C19.8719 45.4802 17.6414 43.2498 14.89 43.2498C12.1385 43.2498 9.90808 45.4802 9.90808 48.2316C9.90808 50.9831 12.1385 53.2135 14.89 53.2135Z" fill="#E94057"/>
<path d="M129.671 75.7981H12.4304C12.0813 75.7986 11.7354 75.7301 11.4127 75.5968C11.09 75.4635 10.7967 75.2678 10.5496 75.021C10.3025 74.7743 10.1065 74.4812 9.97282 74.1587C9.83909 73.8361 9.77026 73.4903 9.77026 73.1411C9.77026 72.7919 9.83909 72.4462 9.97282 72.1236C10.1065 71.801 10.3025 71.508 10.5496 71.2612C10.7967 71.0145 11.09 70.8188 11.4127 70.6855C11.7354 70.5521 12.0813 70.4837 12.4304 70.4841H129.671C130.375 70.485 131.05 70.7653 131.548 71.2635C132.045 71.7617 132.325 72.437 132.325 73.1411C132.325 73.8453 132.045 74.5206 131.548 75.0188C131.05 75.517 130.375 75.7973 129.671 75.7981Z" fill="#E6E6E6"/>
<path d="M91.4764 64.5059H12.4304C12.0813 64.5063 11.7354 64.4379 11.4127 64.3046C11.09 64.1712 10.7967 63.9756 10.5496 63.7288C10.3025 63.4821 10.1065 63.189 9.97282 62.8664C9.83909 62.5439 9.77026 62.1981 9.77026 61.8489C9.77026 61.4997 9.83909 61.154 9.97282 60.8314C10.1065 60.5088 10.3025 60.2158 10.5496 59.969C10.7967 59.7222 11.09 59.5266 11.4127 59.3932C11.7354 59.2599 12.0813 59.1915 12.4304 59.1919H91.4764C92.1811 59.1919 92.8569 59.4718 93.3552 59.9701C93.8535 60.4684 94.1334 61.1442 94.1334 61.8489C94.1334 62.5536 93.8535 63.2294 93.3552 63.7277C92.8569 64.226 92.1811 64.5059 91.4764 64.5059Z" fill="#E6E6E6"/>
<path d="M211.473 228.118C211.152 227.995 210.875 227.777 210.681 227.492C210.486 227.208 210.383 226.871 210.384 226.527V208.686C210.384 208.082 210.144 207.503 209.717 207.076C209.29 206.649 208.711 206.409 208.107 206.409H204.453C202.944 206.407 201.497 205.806 200.43 204.739C199.362 203.672 198.762 202.225 198.76 200.715V164.846C198.762 163.336 199.362 161.889 200.43 160.822C201.497 159.754 202.944 159.154 204.453 159.152H333.318C334.828 159.154 336.275 159.754 337.342 160.822C338.41 161.889 339.01 163.336 339.012 164.846V200.715C339.01 202.225 338.41 203.672 337.342 204.739C336.275 205.806 334.828 206.407 333.318 206.409H233.853C233.537 206.409 233.225 206.475 232.936 206.602C232.647 206.729 232.388 206.915 232.174 207.147L213.351 227.681C213.192 227.856 212.999 227.995 212.783 228.091C212.567 228.187 212.333 228.236 212.097 228.236C211.884 228.236 211.672 228.196 211.473 228.118Z" fill="white"/>
<path d="M211.473 228.118C211.152 227.995 210.875 227.777 210.681 227.492C210.486 227.208 210.383 226.871 210.384 226.527V208.686C210.384 208.082 210.144 207.503 209.717 207.076C209.29 206.649 208.711 206.409 208.107 206.409H204.453C202.944 206.407 201.497 205.806 200.43 204.739C199.362 203.672 198.762 202.225 198.76 200.715V164.846C198.762 163.336 199.362 161.889 200.43 160.822C201.497 159.754 202.944 159.154 204.453 159.152H333.318C334.828 159.154 336.275 159.754 337.342 160.822C338.41 161.889 339.01 163.336 339.012 164.846V200.715C339.01 202.225 338.41 203.672 337.342 204.739C336.275 205.806 334.828 206.407 333.318 206.409H233.853C233.537 206.409 233.225 206.475 232.936 206.602C232.647 206.729 232.388 206.915 232.174 207.147L213.351 227.681C213.192 227.856 212.999 227.995 212.783 228.091C212.567 228.187 212.333 228.236 212.097 228.236C211.884 228.236 211.672 228.196 211.473 228.118ZM204.453 159.911C203.145 159.912 201.891 160.433 200.966 161.358C200.041 162.283 199.52 163.537 199.519 164.846V200.715C199.52 202.024 200.041 203.278 200.966 204.203C201.891 205.128 203.145 205.648 204.453 205.65H208.107C208.912 205.651 209.684 205.971 210.253 206.54C210.822 207.109 211.142 207.881 211.143 208.686V226.527C211.143 226.718 211.201 226.905 211.309 227.063C211.417 227.221 211.57 227.342 211.748 227.412C211.927 227.481 212.122 227.495 212.308 227.451C212.494 227.408 212.663 227.309 212.792 227.168L231.615 206.634C231.9 206.325 232.245 206.077 232.631 205.908C233.016 205.738 233.432 205.65 233.853 205.65H333.318C334.627 205.648 335.881 205.128 336.806 204.203C337.731 203.278 338.251 202.023 338.253 200.715V164.846C338.251 163.537 337.731 162.283 336.806 161.358C335.881 160.433 334.627 159.912 333.318 159.911H204.453Z" fill="#3F3D56"/>
<path d="M171.307 239.226C166.023 242.61 159.9 244.455 153.626 244.555C147.352 244.655 141.173 243.005 135.784 239.791C136.732 238.026 137.933 236.41 139.35 234.993C141.535 232.797 144.194 231.131 147.124 230.124C150.053 229.116 153.175 228.794 156.249 229.181C159.322 229.568 162.266 230.655 164.854 232.357C167.442 234.06 169.606 236.333 171.178 239.002C171.22 239.074 171.265 239.15 171.307 239.226Z" fill="#E94057"/>
<path d="M152.062 221.087C161.322 221.087 168.829 213.58 168.829 204.32C168.829 195.06 161.322 187.554 152.062 187.554C142.803 187.554 135.296 195.06 135.296 204.32C135.296 213.58 142.803 221.087 152.062 221.087Z" fill="#2F2E41"/>
<path d="M164.538 216.146C167.844 210.099 165.622 202.517 159.574 199.211C153.527 195.905 145.945 198.128 142.639 204.175C139.333 210.222 141.556 217.805 147.603 221.11C153.65 224.416 161.233 222.194 164.538 216.146Z" fill="#FFB8B8"/>
<path d="M140.476 202.312C143.328 204.277 146.712 205.323 150.176 205.309C148.94 206.166 147.534 206.744 146.053 207.005C150.658 207.993 155.417 208.02 160.033 207.084C161.059 206.919 162.049 206.579 162.959 206.079C163.413 205.825 163.808 205.479 164.119 205.063C164.431 204.647 164.651 204.17 164.765 203.663C165.072 201.911 163.707 200.319 162.288 199.246C160.116 197.629 157.611 196.514 154.955 195.983C152.299 195.453 149.559 195.519 146.932 196.177C145.216 196.621 143.498 197.37 142.384 198.748C141.269 200.125 140.939 202.249 142.001 203.668L140.476 202.312Z" fill="#2F2E41"/>
<path d="M153.088 244.939C144.877 244.936 136.942 241.973 130.739 236.593C124.535 231.213 120.479 223.777 119.315 215.648C118.151 207.52 119.957 199.244 124.401 192.34C128.845 185.435 135.63 180.364 143.511 178.057C151.391 175.75 159.839 176.361 167.306 179.78C174.772 183.198 180.755 189.193 184.158 196.666C187.561 204.139 188.156 212.588 185.833 220.464C183.511 228.34 178.426 235.115 171.512 239.545C166.014 243.071 159.62 244.943 153.088 244.939ZM153.088 177.42C146.486 177.419 140.031 179.376 134.54 183.044C129.05 186.712 124.771 191.926 122.244 198.026C119.717 204.126 119.055 210.839 120.343 217.315C121.631 223.791 124.811 229.74 129.48 234.409C134.149 239.078 140.097 242.257 146.573 243.545C153.049 244.833 159.762 244.172 165.862 241.645C171.962 239.117 177.176 234.838 180.844 229.348C184.512 223.857 186.469 217.403 186.469 210.8C186.459 201.95 182.939 193.465 176.681 187.207C170.423 180.95 161.938 177.43 153.088 177.42Z" fill="#3F3D56"/>
<path d="M214.792 174.596C217.543 174.596 219.774 172.366 219.774 169.614C219.774 166.863 217.543 164.632 214.792 164.632C212.041 164.632 209.81 166.863 209.81 169.614C209.81 172.366 212.041 174.596 214.792 174.596Z" fill="#E94057"/>
<path d="M329.573 197.181H212.332C211.983 197.181 211.637 197.113 211.315 196.979C210.992 196.846 210.699 196.65 210.452 196.404C210.205 196.157 210.009 195.864 209.875 195.541C209.741 195.219 209.672 194.873 209.672 194.524C209.672 194.175 209.741 193.829 209.875 193.506C210.009 193.184 210.205 192.891 210.452 192.644C210.699 192.397 210.992 192.201 211.315 192.068C211.637 191.935 211.983 191.866 212.332 191.867H329.573C330.278 191.867 330.953 192.147 331.452 192.645C331.95 193.143 332.23 193.819 332.23 194.524C332.23 195.228 331.95 195.904 331.452 196.402C330.953 196.901 330.278 197.181 329.573 197.181Z" fill="#E6E6E6"/>
<path d="M291.378 185.888H212.332C211.983 185.889 211.637 185.82 211.315 185.687C210.992 185.554 210.699 185.358 210.452 185.111C210.205 184.865 210.009 184.572 209.875 184.249C209.741 183.926 209.672 183.581 209.672 183.231C209.672 182.882 209.741 182.537 209.875 182.214C210.009 181.891 210.205 181.598 210.452 181.352C210.699 181.105 210.992 180.909 211.315 180.776C211.637 180.642 211.983 180.574 212.332 180.574H291.378C292.082 180.575 292.758 180.856 293.255 181.354C293.753 181.852 294.032 182.527 294.032 183.231C294.032 183.936 293.753 184.611 293.255 185.109C292.758 185.607 292.082 185.888 291.378 185.888Z" fill="#E6E6E6"/>
<path d="M211.313 231.514C216.446 231.514 220.608 231.053 220.608 230.483C220.608 229.913 216.446 229.451 211.313 229.451C206.179 229.451 202.018 229.913 202.018 230.483C202.018 231.053 206.179 231.514 211.313 231.514Z" fill="#F2F2F2"/>
<path d="M128.242 110.132C133.375 110.132 137.536 109.67 137.536 109.1C137.536 108.53 133.375 108.069 128.242 108.069C123.108 108.069 118.947 108.53 118.947 109.1C118.947 109.67 123.108 110.132 128.242 110.132Z" fill="#F2F2F2"/>
</g>
<defs>
<clipPath id="clip0_205_1130">
<rect width="338.087" height="282.668" fill="white" transform="translate(0.924927 0.743164)"/>
</clipPath>
</defs>
</svg>
