<svg width="25" height="24" viewBox="0 0 25 24" fill="none" xmlns="http://www.w3.org/2000/svg">
<path d="M12.095 16.9999C12.3783 16.9999 12.616 16.9039 12.808 16.7119C12.9993 16.5206 13.095 16.2832 13.095 15.9999V11.9999C13.095 11.7166 12.9993 11.4789 12.808 11.2869C12.616 11.0956 12.3783 10.9999 12.095 10.9999C11.8116 10.9999 11.5743 11.0956 11.383 11.2869C11.191 11.4789 11.095 11.7166 11.095 11.9999V15.9999C11.095 16.2832 11.191 16.5206 11.383 16.7119C11.5743 16.9039 11.8116 16.9999 12.095 16.9999ZM12.095 8.9999C12.3783 8.9999 12.616 8.9039 12.808 8.7119C12.9993 8.52057 13.095 8.28324 13.095 7.9999C13.095 7.71657 12.9993 7.4789 12.808 7.2869C12.616 7.09557 12.3783 6.9999 12.095 6.9999C11.8116 6.9999 11.5743 7.09557 11.383 7.2869C11.191 7.4789 11.095 7.71657 11.095 7.9999C11.095 8.28324 11.191 8.52057 11.383 8.7119C11.5743 8.9039 11.8116 8.9999 12.095 8.9999ZM12.095 21.9249H11.845C11.7616 21.9249 11.6866 21.9082 11.62 21.8749C9.43664 21.1916 7.63664 19.8372 6.21997 17.8119C4.8033 15.7872 4.09497 13.5499 4.09497 11.0999V6.3749C4.09497 5.95824 4.21597 5.58324 4.45797 5.2499C4.6993 4.91657 5.01164 4.6749 5.39497 4.5249L11.395 2.2749C11.6283 2.19157 11.8616 2.1499 12.095 2.1499C12.3283 2.1499 12.5616 2.19157 12.795 2.2749L18.795 4.5249C19.1783 4.6749 19.491 4.91657 19.733 5.2499C19.9743 5.58324 20.095 5.95824 20.095 6.3749V11.0999C20.095 13.5499 19.3866 15.7872 17.97 17.8119C16.5533 19.8372 14.7533 21.1916 12.57 21.8749C12.4866 21.9082 12.3283 21.9249 12.095 21.9249V21.9249ZM12.095 19.8999C13.8283 19.3499 15.2616 18.2499 16.395 16.5999C17.5283 14.9499 18.095 13.1166 18.095 11.0999V6.3749L12.095 4.1249L6.09497 6.3749V11.0999C6.09497 13.1166 6.66164 14.9499 7.79497 16.5999C8.9283 18.2499 10.3616 19.3499 12.095 19.8999Z" fill="black"/>
</svg>
