<svg width="19" height="19" viewBox="0 0 19 19" fill="none" xmlns="http://www.w3.org/2000/svg">
<path fill-rule="evenodd" clip-rule="evenodd" d="M0.833374 8.74992C0.833374 4.37768 4.3778 0.833252 8.75004 0.833252C13.1223 0.833252 16.6667 4.37768 16.6667 8.74992C16.6667 10.6359 16.0072 12.3678 14.9063 13.7277L17.9673 16.7886C18.2927 17.1141 18.2927 17.6417 17.9673 17.9671C17.6418 18.2926 17.1142 18.2926 16.7887 17.9671L13.7278 14.9062C12.3679 16.0071 10.636 16.6666 8.75004 16.6666C4.3778 16.6666 0.833374 13.1222 0.833374 8.74992ZM8.75004 2.49992C5.29828 2.49992 2.50004 5.29816 2.50004 8.74992C2.50004 12.2017 5.29828 14.9999 8.75004 14.9999C12.2018 14.9999 15 12.2017 15 8.74992C15 5.29816 12.2018 2.49992 8.75004 2.49992ZM5.80376 5.38693C6.5569 4.63385 7.5997 4.16659 8.75004 4.16659C9.90038 4.16659 10.9432 4.63385 11.6963 5.38695C12.0217 5.71239 12.0217 6.24003 11.6963 6.56547C11.3709 6.8909 10.8432 6.8909 10.5178 6.56547C10.0645 6.11215 9.44062 5.83325 8.75004 5.83325C8.05947 5.83325 7.4356 6.11215 6.98223 6.56549C6.65679 6.89091 6.12915 6.89089 5.80372 6.56545C5.4783 6.24 5.47832 5.71236 5.80376 5.38693Z" fill="black" fill-opacity="0.4"/>
</svg>
