<svg width="22" height="22" viewBox="0 0 22 22" fill="none" xmlns="http://www.w3.org/2000/svg">
<path fill-rule="evenodd" clip-rule="evenodd" d="M21.2071 0.792921C21.4788 1.06456 21.5708 1.46779 21.4439 1.83038L14.7939 20.8304C14.6584 21.2174 14.3004 21.4825 13.8908 21.4992C13.4811 21.5159 13.1027 21.2808 12.9362 20.9062L9.2924 12.7076L1.09387 9.06384C0.719186 8.89731 0.484122 8.51894 0.500836 8.10926C0.51755 7.69959 0.782654 7.34162 1.16965 7.20617L20.1697 0.55617C20.5322 0.429264 20.9355 0.521283 21.2071 0.792921ZM11.2428 12.1715L13.7394 17.789L18.1085 5.30571L11.2428 12.1715ZM16.6943 3.8915L4.21108 8.26063L9.82854 10.7573L16.6943 3.8915Z" fill="#E94057"/>
</svg>
