<svg width="29" height="25" viewBox="0 0 29 25" fill="none" xmlns="http://www.w3.org/2000/svg">
<path d="M14.7814 0.660645C13.1364 0.660645 11.7814 2.01564 11.7814 3.66064C11.7814 4.78564 12.4144 5.77364 13.3444 6.28564L10.4054 12.1606L5.81137 8.87964C6.11839 8.59749 6.36322 8.25444 6.53023 7.87237C6.69724 7.4903 6.78278 7.07762 6.78137 6.66064C6.78137 5.01564 5.42637 3.66064 3.78137 3.66064C2.13637 3.66064 0.781372 5.01564 0.781372 6.66064C0.781372 8.00864 1.70737 9.12964 2.93737 9.50464L4.78137 19.6606V24.6606H24.7814V19.6606L26.6254 9.50464C27.8554 9.12964 28.7814 8.00864 28.7814 6.66064C28.7814 5.01564 27.4264 3.66064 25.7814 3.66064C24.1364 3.66064 22.7814 5.01564 22.7814 6.66064C22.7814 7.53164 23.1484 8.32864 23.7504 8.87964L19.1564 12.1606L16.2184 6.28564C16.6899 6.02789 17.0836 5.64838 17.3585 5.18668C17.6334 4.72498 17.7794 4.19799 17.7814 3.66064C17.7814 2.01564 16.4264 0.660645 14.7814 0.660645ZM14.7814 2.66064C15.3444 2.66064 15.7814 3.09864 15.7814 3.66064C15.7814 4.22364 15.3434 4.66064 14.7814 4.66064C14.2184 4.66064 13.7814 4.22264 13.7814 3.66064C13.7814 3.09764 14.2194 2.66064 14.7814 2.66064ZM3.78137 5.66064C4.34437 5.66064 4.78137 6.09864 4.78137 6.66064C4.78137 7.22364 4.34337 7.66064 3.78137 7.66064C3.21837 7.66064 2.78137 7.22264 2.78137 6.66064C2.78137 6.09764 3.21937 5.66064 3.78137 5.66064ZM25.7814 5.66064C26.3444 5.66064 26.7814 6.09864 26.7814 6.66064C26.7814 7.22364 26.3434 7.66064 25.7814 7.66064C25.2184 7.66064 24.7814 7.22264 24.7814 6.66064C24.7814 6.09764 25.2194 5.66064 25.7814 5.66064ZM14.7814 7.91064L17.8754 14.0986L19.3754 14.4736L24.3754 10.9106L22.9684 18.6606H6.59437L5.18837 10.9106L10.1884 14.4736L11.6884 14.0986L14.7814 7.91064ZM6.78137 20.6606H22.7814V22.6606H6.78137V20.6606Z" fill="black"/>
</svg>
