<svg width="25" height="24" viewBox="0 0 25 24" fill="none" xmlns="http://www.w3.org/2000/svg">
<path d="M9.18994 13H15.1899M9.18994 17H12.1899M4.18994 4V20C4.18994 20.5304 4.40066 21.0391 4.77573 21.4142C5.1508 21.7893 5.65951 22 6.18994 22H18.1899C18.7204 22 19.2291 21.7893 19.6042 21.4142C19.9792 21.0391 20.1899 20.5304 20.1899 20V8.342C20.1899 8.07556 20.1366 7.81181 20.0333 7.56624C19.9299 7.32068 19.7785 7.09824 19.5879 6.912L15.1479 2.57C14.7743 2.20466 14.2725 2.00007 13.7499 2H6.18994C5.65951 2 5.1508 2.21071 4.77573 2.58579C4.40066 2.96086 4.18994 3.46957 4.18994 4V4Z" stroke="black" stroke-width="2" stroke-linecap="round" stroke-linejoin="round"/>
<path d="M14.1899 2V6C14.1899 6.53043 14.4007 7.03914 14.7757 7.41421C15.1508 7.78929 15.6595 8 16.1899 8H20.1899" stroke="black" stroke-width="2" stroke-linejoin="round"/>
</svg>
