<svg width="28" height="29" viewBox="0 0 28 29" fill="none" xmlns="http://www.w3.org/2000/svg">
<path d="M14 0.573242C17.6565 0.573242 21.1633 2.02579 23.7488 4.61133C26.3344 7.19687 27.7869 10.7036 27.7869 14.3601C27.7869 18.0166 26.3344 21.5234 23.7488 24.1089C21.1633 26.6945 17.6565 28.147 14 28.147C10.3435 28.147 6.83677 26.6945 4.25122 24.1089C1.66568 21.5234 0.213135 18.0166 0.213135 14.3601C0.213135 10.7036 1.66568 7.19687 4.25122 4.61133C6.83677 2.02579 10.3435 0.573242 14 0.573242ZM12.2826 17.0801L9.21992 14.0155C9.11012 13.9057 8.97977 13.8186 8.83632 13.7592C8.69287 13.6997 8.53911 13.6691 8.38384 13.6691C8.22857 13.6691 8.07481 13.6997 7.93136 13.7592C7.7879 13.8186 7.65756 13.9057 7.54776 14.0155C7.32602 14.2372 7.20145 14.538 7.20145 14.8515C7.20145 15.1651 7.32602 15.4659 7.54776 15.6876L11.4475 19.5873C11.557 19.6977 11.6872 19.7853 11.8307 19.845C11.9742 19.9048 12.1281 19.9356 12.2836 19.9356C12.439 19.9356 12.5929 19.9048 12.7364 19.845C12.8799 19.7853 13.0102 19.6977 13.1196 19.5873L21.1948 11.5102C21.3061 11.4008 21.3946 11.2706 21.4553 11.1268C21.5159 10.9831 21.5475 10.8288 21.5482 10.6728C21.549 10.5168 21.5188 10.3622 21.4595 10.218C21.4002 10.0737 21.3129 9.94258 21.2026 9.83221C21.0924 9.72184 20.9614 9.63439 20.8172 9.5749C20.673 9.51541 20.5184 9.48506 20.3624 9.4856C20.2064 9.48614 20.0521 9.51756 19.9083 9.57805C19.7645 9.63854 19.6341 9.7269 19.5246 9.83803L12.2826 17.0801Z" fill="#235B00"/>
</svg>
