<svg width="301" height="224" viewBox="0 0 301 224" fill="none" xmlns="http://www.w3.org/2000/svg">
<path d="M300.013 196.104H0.0131836V196.253H300.013V196.104Z" fill="#E0E0E0"/>
<path d="M62.6112 202.765H46.6692V202.914H62.6112V202.765Z" fill="#E0E0E0"/>
<path d="M52.7112 199.781H38.9712V199.93H52.7112V199.781Z" fill="#E0E0E0"/>
<path d="M167.959 200.222H138.199V200.372H167.959V200.222Z" fill="#E0E0E0"/>
<path d="M187.369 200.222H171.415V200.372H187.369V200.222Z" fill="#E0E0E0"/>
<path d="M228.493 201.165H222.517V201.314H228.493V201.165Z" fill="#E0E0E0"/>
<path d="M113.989 203.624H89.2153V203.773H113.989V203.624Z" fill="#E0E0E0"/>
<path d="M267.361 201.243H239.545V201.392H267.361V201.243Z" fill="#E0E0E0"/>
<path d="M142.213 169.485H26.3592C25.4516 169.484 24.5817 169.124 23.9405 168.485C23.2993 167.846 22.9392 166.98 22.9392 166.078V4.07912C22.9471 3.1815 23.3107 2.32323 23.9511 1.69073C24.5914 1.05823 25.4568 0.702587 26.3592 0.70105H142.213C143.122 0.70105 143.993 1.0601 144.636 1.69921C145.278 2.33831 145.639 3.20513 145.639 4.10897V166.078C145.639 166.981 145.278 167.848 144.636 168.487C143.993 169.126 143.122 169.485 142.213 169.485ZM26.3592 0.820417C25.4914 0.821998 24.6597 1.16602 24.0466 1.77698C23.4335 2.38793 23.0892 3.21589 23.0892 4.07912V166.078C23.0892 166.941 23.4335 167.769 24.0466 168.38C24.6597 168.991 25.4914 169.335 26.3592 169.336H142.213C143.081 169.333 143.913 168.989 144.526 168.378C145.14 167.768 145.486 166.941 145.489 166.078V4.07912C145.486 3.21583 145.14 2.38879 144.526 1.77834C143.913 1.1679 143.081 0.823562 142.213 0.820417H26.3592Z" fill="#E0E0E0"/>
<path d="M271.999 169.485H156.139C155.231 169.482 154.362 169.122 153.72 168.484C153.078 167.845 152.716 166.98 152.713 166.078V4.07912C152.723 3.18096 153.088 2.32269 153.729 1.69036C154.37 1.05802 155.236 0.702571 156.139 0.70105H271.999C272.901 0.704156 273.764 1.06049 274.403 1.69282C275.042 2.32516 275.405 3.18253 275.413 4.07912V166.078C275.414 166.524 275.326 166.967 275.155 167.38C274.984 167.793 274.733 168.168 274.416 168.485C274.099 168.801 273.722 169.053 273.307 169.224C272.893 169.396 272.448 169.485 271.999 169.485ZM156.139 0.820417C155.271 0.823562 154.44 1.1679 153.826 1.77834C153.212 2.38879 152.866 3.21583 152.863 4.07912V166.078C152.866 166.941 153.212 167.768 153.826 168.378C154.44 168.989 155.271 169.333 156.139 169.336H271.999C272.867 169.333 273.698 168.989 274.312 168.378C274.926 167.768 275.272 166.941 275.275 166.078V4.07912C275.272 3.21583 274.926 2.38879 274.312 1.77834C273.698 1.1679 272.867 0.823562 271.999 0.820417H156.139Z" fill="#E0E0E0"/>
<path d="M47.0411 191.138C47.0411 191.138 43.0151 189.205 46.4411 186.364C49.6331 183.732 54.0551 187.426 54.0551 187.426C54.0551 187.426 55.9391 183.248 61.9331 182.765C64.3871 182.562 65.6231 183.224 66.2291 184.078L66.2651 184.036C69.4631 180.777 73.8851 185.355 73.8851 185.355C74.5513 183.775 75.6347 182.404 77.0206 181.387C78.4064 180.37 80.0431 179.745 81.7571 179.578C87.7571 178.981 86.4911 184.734 86.4911 184.734C93.8351 185.767 89.6051 191.395 89.6051 191.395C92.0051 191.335 92.3471 196.098 89.9771 196.098H43.9031C39.5051 192.613 47.0411 191.138 47.0411 191.138Z" fill="#F0F0F0"/>
<path d="M189.217 139.363H180.469V196.104H189.217V139.363Z" fill="#E0E0E0"/>
<path d="M173.993 154.751L172.635 155.399L184.266 179.492L185.623 178.843L173.993 154.751Z" fill="#E6E6E6"/>
<path d="M96.4151 148.889H87.3611V196.104H96.4151V148.889Z" fill="#E0E0E0"/>
<path d="M91.8913 91.8374L62.6353 173.777L70.4293 170.44V176.6L77.2633 168.429L80.6293 173.245L87.5593 168.077L91.5012 175.507L96.2172 168.077L100.867 175.054L106.513 168.429L111.391 173.604L111.709 166.352L121.141 173.777L91.8913 91.8374Z" fill="#EBEBEB"/>
<path d="M91.8852 84.7471L110.491 135.729L105.535 133.652V137.483L101.191 132.404L99.0492 135.4L94.6392 132.183L92.1312 136.809L89.1312 132.183L86.1792 136.528L82.5852 132.404L79.4892 135.621L79.2852 131.109L73.2852 135.729L91.8852 84.7471Z" fill="#F0F0F0"/>
<path d="M91.8851 75.705L103.969 113.425L100.753 111.885V114.72L97.9271 110.96L96.5351 113.174L93.6731 110.799L92.0471 114.219L90.0971 110.799L88.1771 114.01L85.8491 110.96L83.8331 113.341L83.7011 110.005L79.8071 113.425L91.8851 75.705Z" fill="#F5F5F5"/>
<path d="M143.803 185.57C143.803 185.57 138.025 181.464 142.963 175.454C147.547 169.867 158.647 175.358 158.647 175.358C158.647 175.358 156.613 168.865 165.199 167.814C173.785 166.764 171.613 175.979 171.613 175.979C178.171 172.702 178.369 176.463 177.793 179.274C179.407 178.42 181.393 178.146 183.043 180.175C186.853 184.812 182.389 187.975 182.389 187.975C182.389 187.975 190.735 190.393 185.863 196.104H139.303C132.991 188.704 143.803 185.57 143.803 185.57Z" fill="#F0F0F0"/>
<path d="M181.387 158.146C181.387 158.146 183.013 166.024 191.533 163.684C195.271 162.67 196.087 159.876 195.901 157.209C199.351 159.656 204.547 161.649 204.043 150.918C204.043 150.918 215.179 159.351 218.911 147.224C222.643 135.096 212.647 133.956 212.647 133.956C212.647 133.956 226.699 122.401 221.905 112.935C216.739 102.742 207.733 108.012 207.733 108.012C207.733 108.012 209.599 94.4933 199.549 95.0723C198.28 95.1479 197.083 95.6878 196.189 96.5882C192.745 94.7977 188.389 100.318 188.389 100.318C188.389 100.318 187.525 93.5145 180.697 95.9735C177.697 97.0478 176.929 99.5545 176.935 101.864C174.349 99.8887 170.365 98.4026 170.215 107.785C170.215 107.785 161.893 100.945 158.347 111.766C154.801 122.586 162.601 123.106 162.601 123.106C162.601 123.106 150.967 133.932 154.261 141.989C157.807 150.667 165.151 145.57 165.151 145.57C165.151 145.57 163.351 155.579 169.141 156.492C168.946 157.495 169.064 158.534 169.479 159.468C169.894 160.403 170.586 161.189 171.463 161.721C176.059 164.412 181.387 158.146 181.387 158.146Z" fill="#F0F0F0"/>
<path d="M185.563 77.3463C187.189 75.2992 190.471 73.7176 192.901 73.8131C193.623 73.7922 194.324 74.056 194.851 74.5472C199.279 71.9987 204.379 70.429 208.585 70.6021C210.348 70.5847 212.075 71.0963 213.541 72.0703C218.299 68.2207 224.341 65.5052 228.757 65.5052C231.253 65.5052 232.807 66.3885 233.359 67.8626C238.237 65.2724 243.253 63.6848 247.297 63.6848C253.741 63.6848 255.835 67.7194 253.195 73.3893C254.251 74.4576 259.333 75.9497 259.129 77.7402H185.281C185.371 77.603 185.461 77.4776 185.563 77.3463Z" fill="#F5F5F5"/>
<path d="M51.2292 22.014C51.6449 21.9978 52.0582 22.0835 52.4328 22.2635C52.8074 22.4436 53.1317 22.7124 53.3772 23.0465C58.5792 19.4655 64.4472 17.2632 69.1692 17.5079C71.5692 17.6213 73.4172 18.3673 74.6352 19.5729C80.2932 14.1716 87.3432 10.3399 92.2992 10.3399C95.1252 10.3399 96.8052 11.5813 97.3092 13.6464C103.009 10.0176 108.787 7.78546 113.347 7.78546C119.005 7.78546 121.501 11.2113 120.721 16.4813C123.451 14.9475 126.121 14.0462 128.305 14.0462C131.305 14.0462 132.739 15.7771 132.505 18.4926C132.768 18.4915 133.03 18.5055 133.291 18.5344C137.899 18.988 139.669 22.4974 137.449 26.5081H43.0212C45.0852 23.8582 48.6492 21.8827 51.2292 22.014Z" fill="#F5F5F5"/>
<path d="M246.877 187.599C246.877 187.599 250.609 181.273 242.149 184.162C242.149 184.162 242.917 177.775 235.453 178.402C227.989 179.029 230.893 183.774 230.893 183.774C230.893 183.774 221.257 180.521 217.279 183.833C212.995 187.414 218.011 189.832 218.011 189.832C218.011 189.832 208.627 191.688 214.105 196.086H246.817C255.889 196.11 255.421 187.552 246.877 187.599Z" fill="#F0F0F0"/>
<path d="M222.991 41.6498L221.581 42.927C221.125 43.3567 220.669 43.7745 220.231 44.2102C219.793 44.6459 219.373 45.0816 218.959 45.5173C218.554 45.9517 218.174 46.408 217.819 46.884L217.393 47.4331L216.763 47.069C216.066 46.6854 215.344 46.3465 214.603 46.0544C213.853 45.7381 213.073 45.4576 212.293 45.1472C210.739 44.5504 209.155 43.9536 207.589 43.2135C208.452 43.2013 209.315 43.2552 210.169 43.3746C211.021 43.4821 211.861 43.6432 212.701 43.8282C213.546 44.024 214.377 44.2712 215.191 44.5683C216.03 44.867 216.834 45.2531 217.591 45.7202L216.535 45.9052C217.384 44.8988 218.379 44.0238 219.487 43.309C220.029 42.9572 220.592 42.6383 221.173 42.354C221.757 42.0661 222.365 41.8304 222.991 41.6498Z" fill="#F0F0F0"/>
<path d="M63.8052 82.7955L61.7772 84.6397C61.1232 85.2365 60.4632 85.8632 59.8332 86.4839C58.5785 87.6791 57.4152 88.9659 56.3532 90.3335L55.7532 91.1273L54.8412 90.602C53.8339 90.0523 52.794 89.564 51.7272 89.1398C50.6412 88.6862 49.5252 88.2565 48.4032 87.8327L45.0132 86.5078C43.8792 86.0482 42.7452 85.5887 41.6172 85.0455C42.8592 85.0335 44.1005 85.1113 45.3312 85.2783C46.5598 85.4342 47.7794 85.6533 48.9852 85.9348C50.2063 86.2163 51.4086 86.5731 52.5852 87.0031C53.8011 87.4319 54.9676 87.9881 56.0652 88.6623L54.5532 88.9309C55.1617 88.1953 55.83 87.5106 56.5512 86.8838C57.2657 86.2684 58.0214 85.7021 58.8132 85.1888C59.5829 84.6806 60.3845 84.2221 61.2132 83.8161C62.0447 83.3992 62.9122 83.0577 63.8052 82.7955Z" fill="#F0F0F0"/>
<path d="M237.451 26.5081L236.047 27.7853C235.585 28.2151 235.129 28.6328 234.691 29.0626C234.253 29.4923 233.833 29.9399 233.419 30.3756C233.014 30.8101 232.634 31.2664 232.279 31.7423L231.853 32.2914L231.253 31.9274C230.556 31.5437 229.834 31.2048 229.093 30.9127C228.343 30.5964 227.563 30.3159 226.783 29.9996C225.229 29.4028 223.645 28.8059 222.079 28.0718C222.942 28.0597 223.805 28.1136 224.659 28.233C225.511 28.3344 226.351 28.5015 227.191 28.6866C228.036 28.8823 228.867 29.1295 229.681 29.4266C230.52 29.7254 231.324 30.1115 232.081 30.5785L231.031 30.7635C231.878 29.7573 232.871 28.8823 233.977 28.1673C234.518 27.8133 235.081 27.4943 235.663 27.2124C236.237 26.9245 236.835 26.6888 237.451 26.5081Z" fill="#F0F0F0"/>
<path d="M150.013 223.057C214.263 223.057 266.347 220.032 266.347 216.301C266.347 212.57 214.263 209.545 150.013 209.545C85.7637 209.545 33.6792 212.57 33.6792 216.301C33.6792 220.032 85.7637 223.057 150.013 223.057Z" fill="#F5F5F5"/>
<path d="M158.347 39.2923C158.825 39.0516 159.346 38.907 159.88 38.8667C160.414 38.8265 160.95 38.8914 161.459 39.0577C161.968 39.224 162.439 39.4884 162.845 39.8359C163.251 40.1834 163.584 40.6071 163.825 41.0828C164.787 40.5921 165.905 40.5016 166.934 40.8312C167.963 41.1608 168.819 41.8836 169.312 42.8404C169.805 43.7973 169.896 44.9099 169.565 45.9335C169.233 46.9571 168.507 47.8078 167.545 48.2985L160.297 52.0287L156.577 44.807C156.33 44.3348 156.179 43.8188 156.132 43.2885C156.085 42.7581 156.144 42.2238 156.305 41.7161C156.466 41.2084 156.726 40.7373 157.07 40.3296C157.415 39.9219 157.836 39.5856 158.311 39.34L158.347 39.2923Z" fill="#E94057"/>
<path d="M144.367 52.715C144.534 52.313 144.779 51.9476 145.088 51.6399C145.397 51.3321 145.764 51.0881 146.169 50.9218C146.573 50.7555 147.006 50.6701 147.443 50.6706C147.88 50.671 148.313 50.7573 148.717 50.9246C149.067 50.1285 149.718 49.5012 150.529 49.1779C151.34 48.8546 152.246 48.8612 153.052 49.1963C153.858 49.5315 154.499 50.1682 154.838 50.9693C155.176 51.7705 155.185 52.6718 154.861 53.479L152.293 59.5906L146.149 57.0361C145.338 56.6961 144.696 56.0508 144.362 55.2412C144.028 54.4315 144.03 53.5234 144.367 52.715Z" fill="#E94057"/>
<path opacity="0.6" d="M144.367 52.715C144.534 52.313 144.779 51.9476 145.088 51.6399C145.397 51.3321 145.764 51.0881 146.169 50.9218C146.573 50.7555 147.006 50.6701 147.443 50.6706C147.88 50.671 148.313 50.7573 148.717 50.9246C149.067 50.1285 149.718 49.5012 150.529 49.1779C151.34 48.8546 152.246 48.8612 153.052 49.1963C153.858 49.5315 154.499 50.1682 154.838 50.9693C155.176 51.7705 155.185 52.6718 154.861 53.479L152.293 59.5906L146.149 57.0361C145.338 56.6961 144.696 56.0508 144.362 55.2412C144.028 54.4315 144.03 53.5234 144.367 52.715Z" fill="white"/>
<path d="M181.189 210.446H176.281L175.951 199.13H180.865L181.189 210.446Z" fill="#FFB573"/>
<path d="M219.169 192.684L214.867 195.042L208.003 185.88L212.305 183.529L219.169 192.684Z" fill="#FFB573"/>
<path d="M175.951 199.13L176.119 204.967H181.033L180.865 199.13H175.951Z" fill="#EF9F5E"/>
<path d="M212.311 183.529L208.003 185.88L211.543 190.601L215.851 188.25L212.311 183.529Z" fill="#EF9F5E"/>
<path d="M172.585 100.444C172.585 100.444 168.709 138.086 169.033 152.965C169.369 168.483 175.075 203.815 175.075 203.815H181.723C181.723 203.815 180.667 169.372 181.255 154.153C181.897 137.555 187.195 100.438 187.195 100.438L172.585 100.444Z" fill="#E94057"/>
<path opacity="0.3" d="M172.585 100.444C172.585 100.444 168.709 138.086 169.033 152.965C169.369 168.483 175.075 203.815 175.075 203.815H181.723C181.723 203.815 180.667 169.372 181.255 154.153C181.897 137.555 187.195 100.438 187.195 100.438L172.585 100.444Z" fill="black"/>
<path opacity="0.2" d="M181.213 109.808C176.317 119.614 180.229 137.501 181.963 144.156C182.851 134.159 184.363 121.942 185.521 112.971C184.753 107.892 183.451 105.29 181.213 109.808Z" fill="black"/>
<path d="M177.853 100.444C177.853 100.444 182.371 139.578 185.785 152.142C189.841 167.062 209.959 190.184 209.959 190.184L215.827 186.973C215.827 186.973 201.871 161.01 198.775 153.15C192.175 136.379 197.821 111.372 192.535 100.444H177.853Z" fill="#E94057"/>
<path opacity="0.3" d="M177.853 100.444C177.853 100.444 182.371 139.578 185.785 152.142C189.841 167.062 209.959 190.184 209.959 190.184L215.827 186.973C215.827 186.973 201.871 161.01 198.775 153.15C192.175 136.379 197.821 111.372 192.535 100.444H177.853Z" fill="black"/>
<path d="M173.659 76.9046C173.563 78.5579 173.365 80.0738 173.149 81.6495C172.933 83.2251 172.633 84.753 172.297 86.2928C171.961 87.8327 171.583 89.3785 171.097 90.8944C170.634 92.4338 170.079 93.9445 169.435 95.4184L168.931 96.5285C168.865 96.7016 168.727 96.9463 168.619 97.1552C168.511 97.3641 168.379 97.561 168.265 97.752C167.796 98.4768 167.274 99.1669 166.705 99.8171C165.643 101.032 164.501 102.174 163.285 103.237C160.928 105.3 158.421 107.187 155.785 108.883L154.255 106.937C155.329 105.905 156.421 104.836 157.477 103.774C158.533 102.712 159.577 101.625 160.567 100.527C161.547 99.4623 162.471 98.3467 163.333 97.185C163.729 96.6519 164.086 96.0915 164.401 95.5079C164.467 95.3766 164.545 95.2394 164.599 95.114C164.653 94.9887 164.701 94.8872 164.773 94.7022L165.151 93.7055C166.129 90.9667 166.885 88.1547 167.413 85.2961C167.707 83.8578 167.911 82.3955 168.133 80.9333C168.355 79.471 168.511 77.9491 168.637 76.5943L173.659 76.9046Z" fill="#FFB573"/>
<path d="M170.239 70.9483C168.211 71.4615 166.795 79.7515 166.795 79.7515L172.375 83.5235C172.375 83.5235 177.727 75.1679 176.167 72.9477C174.607 70.7274 173.191 70.2022 170.239 70.9483Z" fill="#E94057"/>
<path opacity="0.6" d="M170.239 70.9483C168.211 71.4615 166.795 79.7515 166.795 79.7515L172.375 83.5235C172.375 83.5235 177.727 75.1679 176.167 72.9477C174.607 70.7274 173.191 70.2022 170.239 70.9483Z" fill="white"/>
<path d="M170.419 72.8044L168.865 81.1541L172.003 83.2729L170.419 72.8044Z" fill="#E94057"/>
<path opacity="0.4" d="M170.419 72.8044L168.865 81.1541L172.003 83.2729L170.419 72.8044Z" fill="white"/>
<path d="M170.239 70.9483C170.239 70.9483 167.899 71.7719 172.585 100.444H192.535C192.199 92.3686 192.193 87.385 196.075 70.811C193.282 70.2356 190.451 69.8645 187.603 69.7009C184.587 69.486 181.559 69.486 178.543 69.7009C174.649 70.053 170.239 70.9483 170.239 70.9483Z" fill="#E94057"/>
<path opacity="0.6" d="M170.239 70.9483C170.239 70.9483 167.899 71.7719 172.585 100.444H192.535C192.199 92.3686 192.193 87.385 196.075 70.811C193.282 70.2356 190.451 69.8645 187.603 69.7009C184.587 69.486 181.559 69.486 178.543 69.7009C174.649 70.053 170.239 70.9483 170.239 70.9483Z" fill="white"/>
<path d="M155.179 106.227L149.617 106.627L152.941 110.333C152.941 110.333 156.013 109.635 156.541 107.677L155.179 106.227Z" fill="#FFB573"/>
<path d="M146.539 108.591L148.825 112.082L152.941 110.333L149.617 106.627L146.539 108.591Z" fill="#FFB573"/>
<path d="M213.937 194.463L218.329 191.138C218.403 191.077 218.497 191.046 218.593 191.052C218.689 191.057 218.779 191.099 218.845 191.168L221.989 194.242C222.063 194.314 222.121 194.4 222.161 194.495C222.201 194.59 222.221 194.691 222.221 194.794C222.221 194.897 222.201 194.998 222.161 195.093C222.121 195.188 222.063 195.274 221.989 195.346C221.96 195.381 221.925 195.411 221.887 195.436C220.339 196.57 219.529 197.041 217.597 198.503C216.397 199.405 214.771 200.843 213.133 202.084C211.495 203.326 210.169 201.78 210.733 201.117C213.295 198.133 213.085 196.874 213.457 195.227C213.519 194.923 213.689 194.651 213.937 194.463Z" fill="#263238"/>
<path d="M176.113 209.879H181.633C181.727 209.879 181.819 209.913 181.89 209.974C181.962 210.036 182.009 210.12 182.023 210.213L182.623 214.558C182.635 214.66 182.626 214.763 182.597 214.862C182.568 214.961 182.52 215.053 182.455 215.132C182.391 215.212 182.311 215.279 182.22 215.328C182.129 215.377 182.03 215.407 181.927 215.418H181.813C179.893 215.418 178.963 215.274 176.539 215.274C175.045 215.274 171.955 215.43 169.891 215.43C167.827 215.43 167.719 213.4 168.583 213.215C172.429 212.392 173.947 211.258 175.243 210.171C175.487 209.972 175.797 209.868 176.113 209.879Z" fill="#263238"/>
<path d="M198.229 76.0333C199.388 78.8472 200.378 81.727 201.193 84.6575C202.083 87.6296 202.685 90.6793 202.993 93.7652L203.053 94.9588V95.7407C203.028 96.0479 202.982 96.353 202.915 96.6538C202.673 97.5595 202.306 98.4272 201.823 99.2322C201.018 100.601 200.096 101.899 199.069 103.112C197.117 105.438 194.991 107.614 192.709 109.623L190.909 107.922C192.655 105.594 194.425 103.237 195.967 100.838C196.731 99.691 197.416 98.4946 198.019 97.2566C198.258 96.7675 198.433 96.25 198.541 95.7168C198.547 95.6573 198.547 95.5973 198.541 95.5378V95.4721L198.511 95.2274L198.403 94.2307C197.946 91.4579 197.283 88.7228 196.417 86.0481C195.565 83.3206 194.617 80.5573 193.579 77.9252L198.229 76.0333Z" fill="#FFB573"/>
<path d="M212.281 196.522H212.221C212.108 196.511 212 196.471 211.908 196.406C211.815 196.341 211.741 196.254 211.693 196.152C211.658 196.091 211.639 196.022 211.639 195.952C211.639 195.882 211.658 195.813 211.693 195.752C211.987 195.203 213.757 195.066 213.961 195.054C213.983 195.051 214.006 195.055 214.025 195.065C214.045 195.076 214.06 195.093 214.069 195.113C214.083 195.131 214.091 195.153 214.091 195.176C214.091 195.199 214.083 195.221 214.069 195.239C213.643 195.722 212.893 196.522 212.281 196.522ZM213.685 195.328C212.977 195.4 212.041 195.591 211.885 195.883C211.866 195.939 211.866 196 211.885 196.056C211.915 196.125 211.962 196.184 212.022 196.229C212.082 196.274 212.153 196.303 212.227 196.313H212.269C212.841 196.144 213.34 195.789 213.685 195.304V195.328Z" fill="#E94057"/>
<path d="M213.787 195.269C213.187 195.269 212.059 194.982 211.837 194.529C211.796 194.446 211.786 194.351 211.806 194.261C211.827 194.171 211.878 194.091 211.951 194.033C212.014 193.97 212.09 193.922 212.174 193.892C212.258 193.862 212.348 193.851 212.437 193.86C213.151 193.914 214.015 195.024 214.051 195.054C214.063 195.072 214.069 195.092 214.069 195.114C214.069 195.135 214.063 195.156 214.051 195.173C214.043 195.191 214.03 195.206 214.015 195.218C213.999 195.229 213.98 195.237 213.961 195.239C213.904 195.255 213.846 195.265 213.787 195.269ZM212.413 194.075C212.311 194.076 212.214 194.117 212.143 194.188C212.035 194.29 212.053 194.362 212.077 194.415C212.227 194.72 213.151 195.012 213.751 195.012C213.445 194.654 212.875 194.093 212.449 194.057L212.413 194.075Z" fill="#E94057"/>
<path d="M174.265 210.732C173.842 210.773 173.419 210.668 173.065 210.434C172.98 210.362 172.917 210.268 172.88 210.164C172.843 210.059 172.834 209.946 172.855 209.837C172.858 209.774 172.878 209.712 172.913 209.659C172.948 209.605 172.996 209.562 173.053 209.533C173.653 209.199 175.609 210.195 175.831 210.309C175.852 210.32 175.87 210.338 175.882 210.359C175.893 210.38 175.899 210.404 175.897 210.428C175.892 210.452 175.88 210.474 175.863 210.492C175.846 210.51 175.825 210.523 175.801 210.53C175.297 210.645 174.782 210.713 174.265 210.732ZM173.413 209.724C173.339 209.72 173.264 209.734 173.197 209.766C173.173 209.777 173.154 209.795 173.14 209.817C173.126 209.839 173.119 209.865 173.119 209.891C173.11 209.959 173.117 210.029 173.141 210.093C173.165 210.158 173.205 210.215 173.257 210.261C173.551 210.524 174.361 210.571 175.453 210.392C174.816 210.057 174.126 209.831 173.413 209.724Z" fill="#E94057"/>
<path d="M175.813 210.56H175.765C175.165 210.297 174.025 209.247 174.115 208.691C174.115 208.56 174.229 208.399 174.553 208.363C174.668 208.351 174.785 208.362 174.896 208.397C175.006 208.432 175.108 208.49 175.195 208.566C175.795 209.073 175.927 210.392 175.933 210.446C175.933 210.466 175.929 210.486 175.919 210.504C175.91 210.522 175.896 210.537 175.879 210.548C175.87 210.554 175.859 210.558 175.847 210.56C175.836 210.563 175.824 210.562 175.813 210.56ZM174.613 208.578H174.547C174.331 208.578 174.319 208.686 174.313 208.709C174.259 209.044 175.045 209.903 175.639 210.231C175.603 209.678 175.393 209.15 175.039 208.721C174.921 208.62 174.768 208.569 174.613 208.578Z" fill="#E94057"/>
<path d="M191.545 107.373L186.283 108.059L189.973 111.408C189.973 111.408 192.973 110.399 193.291 108.394L191.545 107.373Z" fill="#FFB573"/>
<path d="M187.603 69.7009C184.587 69.486 181.559 69.486 178.543 69.7009C177.457 69.7964 176.329 69.9396 175.267 70.0888C174.805 71.8316 174.895 74.2666 176.683 77.4537L177.715 79.286L179.671 78.5042C181.123 77.9073 188.473 74.8336 190.837 71.0258L191.437 70.0411C190.261 69.8919 188.941 69.7665 187.603 69.7009Z" fill="#E94057"/>
<path opacity="0.6" d="M187.603 69.7009C184.587 69.486 181.559 69.486 178.543 69.7009C177.457 69.7964 176.329 69.9396 175.267 70.0888C174.805 71.8316 174.895 74.2666 176.683 77.4537L177.715 79.286L179.671 78.5042C181.123 77.9073 188.473 74.8336 190.837 71.0258L191.437 70.0411C190.261 69.8919 188.941 69.7665 187.603 69.7009Z" fill="black"/>
<path d="M187.597 69.7009C184.583 69.486 181.557 69.486 178.543 69.7009L177.943 69.7606C177.223 71.1213 177.037 73.2162 178.771 76.2959C178.771 76.2959 186.715 73.1088 188.785 69.7785C188.413 69.7427 187.999 69.7188 187.597 69.7009Z" fill="#FFB573"/>
<path d="M175.729 47.8508C177.307 45.4635 179.929 44.7294 181.951 44.4369C183.973 44.1445 190.603 43.9714 192.577 51.3005C194.137 57.1077 195.679 61.9659 200.449 65.6245C197.233 68.3461 183.145 70.4827 175.339 67.8149C172.057 62.8731 171.889 53.6162 175.729 47.8508Z" fill="#263238"/>
<path d="M186.703 59.5488C186.133 62.4494 185.563 67.7612 187.603 69.6949C187.603 69.6949 186.805 72.6313 181.387 72.6313C175.435 72.6313 178.543 69.6949 178.543 69.6949C181.795 68.919 181.711 66.5198 181.141 64.2697L186.703 59.5488Z" fill="#FFB573"/>
<path d="M184.435 61.4766L181.147 64.2697C181.284 64.7943 181.376 65.3294 181.423 65.8693C182.665 65.6962 184.369 64.3354 184.501 63.0462C184.575 62.5234 184.553 61.9914 184.435 61.4766Z" fill="#EF9F5E"/>
<path d="M190.021 54.1713C188.989 58.9102 188.647 60.9394 185.821 63.0224C181.621 66.1557 175.969 63.8579 175.561 58.9042C175.195 54.4459 176.953 47.445 181.957 46.2633C183.059 45.9956 184.212 46.0128 185.306 46.3132C186.4 46.6137 187.398 47.1874 188.207 47.9799C189.015 48.7724 189.606 49.7572 189.923 50.8409C190.241 51.9246 190.274 53.071 190.021 54.1713Z" fill="#FFB573"/>
<path d="M182.155 54.2668C182.095 54.6607 181.837 54.9412 181.585 54.9054C181.333 54.8696 181.171 54.5175 181.231 54.1296C181.291 53.7416 181.543 53.4551 181.831 53.4909C182.119 53.5267 182.215 53.8789 182.155 54.2668Z" fill="#263238"/>
<path d="M177.727 53.5924C177.667 53.9803 177.415 54.2668 177.157 54.225C176.899 54.1832 176.743 53.8371 176.803 53.4491C176.863 53.0612 177.121 52.7747 177.403 52.8165C177.685 52.8583 177.787 53.2223 177.727 53.5924Z" fill="#263238"/>
<path d="M177.487 52.8523L176.587 52.4405C176.587 52.4405 176.953 53.2223 177.487 52.8523Z" fill="#263238"/>
<path d="M178.987 54.4996C178.494 55.3356 177.888 56.1007 177.187 56.7735C177.364 56.9466 177.578 57.0791 177.812 57.1615C178.046 57.244 178.296 57.2745 178.543 57.251L178.987 54.4996Z" fill="#ED893E"/>
<path d="M180.457 59.1012C180.256 59.1033 180.055 59.0873 179.857 59.0534C179.842 59.0512 179.828 59.0461 179.815 59.0383C179.802 59.0304 179.79 59.0201 179.781 59.0079C179.772 58.9956 179.766 58.9817 179.763 58.967C179.759 58.9523 179.759 58.937 179.761 58.9221C179.763 58.9071 179.769 58.8927 179.776 58.8798C179.784 58.8668 179.795 58.8556 179.807 58.8467C179.819 58.8378 179.833 58.8314 179.848 58.828C179.863 58.8245 179.878 58.8241 179.893 58.8266C180.379 58.9115 180.878 58.8817 181.35 58.7397C181.822 58.5977 182.254 58.3474 182.611 58.0089C182.622 57.9983 182.634 57.9898 182.648 57.9841C182.662 57.9783 182.677 57.9753 182.692 57.9753C182.707 57.9753 182.722 57.9783 182.736 57.9841C182.75 57.9898 182.763 57.9983 182.773 58.0089C182.785 58.0196 182.794 58.0325 182.8 58.0469C182.807 58.0612 182.81 58.0768 182.81 58.0925C182.81 58.1082 182.807 58.1238 182.8 58.1381C182.794 58.1525 182.785 58.1654 182.773 58.1761C182.154 58.7769 181.322 59.1095 180.457 59.1012Z" fill="#263238"/>
<path d="M187.129 51.3304C186.217 52.9717 186.529 56.5049 188.815 57.4658C191.101 58.4267 191.365 52.4584 190.783 51.3304C190.201 50.2024 187.129 51.3304 187.129 51.3304Z" fill="#263238"/>
<path d="M182.065 45.8873C182.065 45.8873 181.045 47.0809 180.547 49.8144C182.347 51.0439 185.851 53.3417 190.483 52.7986C190.483 51.6586 189.163 48.197 187.999 47.3018C186.225 46.2097 184.144 45.7138 182.065 45.8873Z" fill="#263238"/>
<path d="M177.859 49.2236C177.859 49.2236 178.609 48.9669 180.007 49.5697C180.594 48.3994 181.396 47.3488 182.371 46.4722C180.013 45.4158 178.981 47.6479 177.859 49.2236Z" fill="#263238"/>
<path d="M190.645 58.761C190.181 59.5764 189.414 60.1785 188.509 60.4381C187.309 60.7603 186.709 59.692 187.051 58.564C187.357 57.5434 188.353 56.1767 189.559 56.3199C189.978 56.3873 190.353 56.6176 190.602 56.96C190.851 57.3025 190.953 57.7291 190.885 58.1462C190.849 58.3654 190.767 58.5747 190.645 58.761Z" fill="#FFB573"/>
<path d="M184.069 53.6461C184.02 53.6443 183.973 53.628 183.933 53.5993C183.894 53.5706 183.864 53.5308 183.847 53.485C183.517 52.4704 182.197 52.0526 182.179 52.0466C182.151 52.0349 182.125 52.0177 182.104 51.9959C182.082 51.9741 182.065 51.9482 182.054 51.9198C182.043 51.8914 182.038 51.861 182.038 51.8305C182.039 51.8 182.046 51.77 182.059 51.7422C182.08 51.6936 182.117 51.6535 182.164 51.6285C182.211 51.6036 182.265 51.5953 182.317 51.605C182.754 51.7337 183.157 51.9558 183.498 52.2559C183.839 52.5559 184.109 52.9265 184.291 53.3417C184.302 53.3695 184.306 53.3991 184.305 53.4287C184.304 53.4583 184.296 53.4874 184.283 53.5141C184.27 53.5408 184.252 53.5647 184.23 53.5843C184.208 53.6039 184.181 53.6189 184.153 53.6282L184.069 53.6461Z" fill="#263238"/>
<path d="M176.713 51.3542C176.663 51.3533 176.614 51.3361 176.574 51.3054C176.534 51.2747 176.506 51.2321 176.492 51.1838C176.479 51.1356 176.481 51.0843 176.499 51.0376C176.518 50.9908 176.55 50.9512 176.593 50.9245C176.906 50.7291 177.262 50.6109 177.63 50.5798C177.999 50.5486 178.369 50.6054 178.711 50.7455C178.741 50.7574 178.768 50.7753 178.79 50.7981C178.813 50.8208 178.83 50.8479 178.842 50.8777C178.853 50.9075 178.858 50.9393 178.857 50.9711C178.856 51.003 178.848 51.0343 178.834 51.063C178.82 51.0917 178.8 51.1172 178.776 51.1379C178.751 51.1587 178.723 51.1743 178.692 51.1837C178.662 51.1931 178.629 51.1961 178.598 51.1926C178.566 51.1891 178.535 51.1791 178.507 51.1633C178.235 51.058 177.942 51.0172 177.652 51.0441C177.361 51.071 177.081 51.165 176.833 51.3184C176.797 51.3419 176.756 51.3544 176.713 51.3542Z" fill="#263238"/>
<path d="M181.909 53.5327L181.015 53.1149C181.015 53.1149 181.381 53.9207 181.909 53.5327Z" fill="#263238"/>
<path d="M196.075 70.811C198.073 71.4078 200.473 78.2595 200.473 78.2595L192.721 83.7742C192.721 83.7742 189.889 78.0625 190.729 75.4901C191.605 72.8163 193.813 70.1187 196.075 70.811Z" fill="#E94057"/>
<path opacity="0.6" d="M196.075 70.811C198.073 71.4078 200.473 78.2595 200.473 78.2595L192.721 83.7742C192.721 83.7742 189.889 78.0625 190.729 75.4901C191.605 72.8163 193.813 70.1187 196.075 70.811Z" fill="white"/>
<path d="M192.835 99.2799L193.345 101.07C193.417 101.208 193.249 101.351 193.021 101.351H172.489C172.309 101.351 172.159 101.261 172.147 101.148L171.967 99.3575C171.967 99.2322 172.111 99.1307 172.309 99.1307H192.511C192.573 99.1254 192.636 99.1364 192.693 99.1625C192.75 99.1887 192.799 99.2292 192.835 99.2799Z" fill="#E94057"/>
<path opacity="0.3" d="M192.835 99.2799L193.345 101.07C193.417 101.208 193.249 101.351 193.021 101.351H172.489C172.309 101.351 172.159 101.261 172.147 101.148L171.967 99.3575C171.967 99.2322 172.111 99.1307 172.309 99.1307H192.511C192.573 99.1254 192.636 99.1364 192.693 99.1625C192.75 99.1887 192.799 99.2292 192.835 99.2799Z" fill="white"/>
<path d="M190.123 101.524H190.663C190.771 101.524 190.855 101.47 190.843 101.405L190.591 99.0948C190.591 99.0292 190.489 98.9695 190.381 98.9695H189.841C189.733 98.9695 189.649 99.0292 189.661 99.0948L189.913 101.405C189.919 101.47 190.015 101.524 190.123 101.524Z" fill="#E94057"/>
<path d="M174.013 101.524H174.553C174.661 101.524 174.745 101.47 174.739 101.405L174.481 99.0948C174.481 99.0292 174.379 98.9695 174.277 98.9695H173.731C173.623 98.9695 173.545 99.0292 173.551 99.0948L173.803 101.405C173.803 101.47 173.899 101.524 174.013 101.524Z" fill="#E94057"/>
<path d="M182.065 101.524H182.605C182.713 101.524 182.797 101.47 182.791 101.405L182.533 99.0948C182.533 99.0292 182.431 98.9695 182.323 98.9695H181.813C181.705 98.9695 181.627 99.0292 181.633 99.0948L181.885 101.405C181.861 101.47 181.957 101.524 182.065 101.524Z" fill="#E94057"/>
<path d="M182.299 204.072H174.499L173.929 201.601L182.659 201.297L182.299 204.072Z" fill="#E94057"/>
<path opacity="0.6" d="M182.299 204.072H174.499L173.929 201.601L182.659 201.297L182.299 204.072Z" fill="black"/>
<path d="M216.673 186.907L209.389 190.888L207.355 189.038L215.713 183.965L216.673 186.907Z" fill="#E94057"/>
<path opacity="0.6" d="M216.673 186.907L209.389 190.888L207.355 189.038L215.713 183.965L216.673 186.907Z" fill="black"/>
<g opacity="0.3">
<path d="M190.123 101.524H190.663C190.771 101.524 190.855 101.47 190.843 101.405L190.591 99.0948C190.591 99.0292 190.489 98.9695 190.381 98.9695H189.841C189.733 98.9695 189.649 99.0292 189.661 99.0948L189.913 101.405C189.919 101.47 190.015 101.524 190.123 101.524Z" fill="black"/>
<path d="M174.013 101.524H174.553C174.661 101.524 174.745 101.47 174.739 101.405L174.481 99.0948C174.481 99.0292 174.379 98.9695 174.277 98.9695H173.731C173.623 98.9695 173.545 99.0292 173.551 99.0948L173.803 101.405C173.803 101.47 173.899 101.524 174.013 101.524Z" fill="black"/>
<path d="M182.065 101.524H182.605C182.713 101.524 182.797 101.47 182.791 101.405L182.533 99.0948C182.533 99.0292 182.431 98.9695 182.323 98.9695H181.813C181.705 98.9695 181.627 99.0292 181.633 99.0948L181.885 101.405C181.861 101.47 181.957 101.524 182.065 101.524Z" fill="black"/>
</g>
<path d="M192.235 127.504C192.193 127.518 192.147 127.515 192.107 127.496C192.067 127.477 192.035 127.444 192.019 127.403L179.245 88.7518C179.232 88.7083 179.237 88.6614 179.258 88.6212C179.279 88.5809 179.316 88.5507 179.359 88.537C179.381 88.5294 179.404 88.5262 179.427 88.5276C179.45 88.5289 179.472 88.5347 179.493 88.5447C179.513 88.5547 179.532 88.5687 179.547 88.5858C179.562 88.6029 179.574 88.6228 179.581 88.6444L192.349 127.295C192.357 127.317 192.36 127.34 192.359 127.362C192.357 127.385 192.351 127.408 192.341 127.428C192.331 127.449 192.317 127.467 192.3 127.482C192.283 127.497 192.263 127.509 192.241 127.516L192.235 127.504Z" fill="#263238"/>
<path d="M181.303 87.8028L180.877 86.5077C180.704 85.9876 180.331 85.5568 179.84 85.3096C179.348 85.0624 178.779 85.0189 178.255 85.1887C177.968 85.2822 177.706 85.4377 177.487 85.6441C177.268 85.8505 177.098 86.1027 176.989 86.3824C177.77 86.2189 178.581 86.2643 179.339 86.5138C180.096 86.7633 180.774 87.2081 181.303 87.8028Z" fill="#263238"/>
<path d="M178.651 86.645C178.991 87.1754 179.106 87.8177 178.972 88.4323C178.839 89.0469 178.467 89.5842 177.937 89.9276L175.351 85.9407C175.884 85.6024 176.529 85.4865 177.147 85.6184C177.764 85.7502 178.305 86.1191 178.651 86.645Z" fill="#263238"/>
<path d="M178.891 95.2751L181.525 96.8268C181.986 97.0934 182.334 97.5177 182.503 98.0205L183.601 101.351L180.001 99.2261C179.543 98.9558 179.197 98.5329 179.023 98.0324L178.279 95.7704C178.247 95.6628 178.259 95.547 178.311 95.4477C178.364 95.3484 178.454 95.2736 178.561 95.2393C178.672 95.2089 178.79 95.2217 178.891 95.2751Z" fill="#263238"/>
<path d="M185.257 98.2177L184.057 101.023C183.849 101.516 183.828 102.067 183.997 102.575L185.095 105.905L186.733 102.061C186.941 101.568 186.963 101.017 186.793 100.51L186.049 98.2535C186.012 98.1476 185.935 98.0605 185.834 98.0113C185.732 97.9621 185.616 97.9548 185.509 97.9909C185.453 98.0088 185.402 98.0383 185.359 98.0774C185.315 98.1165 185.281 98.1643 185.257 98.2177Z" fill="#263238"/>
<path d="M179.053 86.8001C179.095 87.4283 179.384 88.0147 179.858 88.4316C180.333 88.8486 180.953 89.0623 181.585 89.0263L181.291 84.2516C180.656 84.293 180.064 84.5835 179.644 85.0591C179.225 85.5347 179.012 86.1567 179.053 86.7882V86.8001Z" fill="#E94057"/>
<path opacity="0.2" d="M179.053 86.8001C179.095 87.4283 179.384 88.0147 179.858 88.4316C180.333 88.8486 180.953 89.0623 181.585 89.0263L181.291 84.2516C180.656 84.293 180.064 84.5835 179.644 85.0591C179.225 85.5347 179.012 86.1567 179.053 86.7882V86.8001Z" fill="black"/>
<path d="M178.075 88.0953C177.915 87.9731 177.733 87.8833 177.538 87.8312C177.343 87.7791 177.14 87.7657 176.94 87.7918C176.74 87.8178 176.547 87.8828 176.372 87.983C176.197 88.0833 176.044 88.2167 175.921 88.3758L178.357 90.238C178.48 90.0789 178.57 89.8972 178.623 89.7034C178.675 89.5097 178.688 89.3075 178.662 89.1086C178.636 88.9096 178.571 88.7177 178.47 88.5438C178.369 88.37 178.235 88.2176 178.075 88.0953Z" fill="#E94057"/>
<path opacity="0.2" d="M178.075 88.0953C177.915 87.9731 177.733 87.8833 177.538 87.8312C177.343 87.7791 177.14 87.7657 176.94 87.7918C176.74 87.8178 176.547 87.8828 176.372 87.983C176.197 88.0833 176.044 88.2167 175.921 88.3758L178.357 90.238C178.48 90.0789 178.57 89.8972 178.623 89.7034C178.675 89.5097 178.688 89.3075 178.662 89.1086C178.636 88.9096 178.571 88.7177 178.47 88.5438C178.369 88.37 178.235 88.2176 178.075 88.0953Z" fill="black"/>
<path d="M177.925 90.8229C178.11 91.3255 178.485 91.7369 178.97 91.9701C179.454 92.2033 180.011 92.2402 180.522 92.073C181.034 91.9058 181.46 91.5475 181.711 91.0737C181.961 90.6 182.018 90.0478 181.867 89.5337L181.303 87.8268C180.772 87.2357 180.093 86.7947 179.336 86.5484C178.578 86.3021 177.769 86.2593 176.989 86.4242C176.803 86.8682 176.784 87.3639 176.935 87.8208L177.925 90.8229Z" fill="#E94057"/>
<path opacity="0.2" d="M177.937 90.8229C178.109 91.342 178.481 91.7721 178.972 92.0183C179.462 92.2645 180.031 92.3068 180.553 92.1359C181.075 91.9649 181.507 91.5947 181.755 91.1067C182.002 90.6187 182.045 90.0529 181.873 89.5337L181.309 87.8268C180.778 87.2357 180.099 86.7947 179.342 86.5484C178.584 86.3021 177.775 86.2593 176.995 86.4242C176.809 86.8682 176.79 87.3639 176.941 87.8208L177.937 90.8229Z" fill="black"/>
<path d="M183.391 110.99L186.631 113.628L189.973 111.408L186.283 108.059L183.391 110.99Z" fill="#FFB573"/>
<path d="M151.789 111.969L154.657 110.297L152.665 108.018L148.807 110.333L151.789 111.969Z" fill="#FF8B7B"/>
<path d="M99.4331 211.425L95.0891 210.225L97.4411 200.097L101.791 201.297L99.4331 211.425Z" fill="#FF8B7B"/>
<path d="M151.375 211.288L146.917 211.986L144.949 201.87H149.461L151.375 211.288Z" fill="#FF8B7B"/>
<path d="M146.521 211.52L151.525 210.739C151.613 210.724 151.703 210.74 151.78 210.783C151.858 210.827 151.918 210.895 151.951 210.977L153.457 214.779C153.489 214.859 153.504 214.945 153.503 215.031C153.501 215.118 153.482 215.203 153.446 215.282C153.411 215.361 153.361 215.432 153.298 215.491C153.235 215.55 153.16 215.596 153.079 215.627C153.032 215.65 152.981 215.664 152.929 215.668C151.177 215.913 150.313 215.949 148.129 216.295C146.779 216.504 145.483 216.838 139.501 216.838C137.647 216.838 137.359 214.976 138.133 214.809C141.607 214.057 144.913 213.066 145.861 211.908C146.026 211.703 146.261 211.565 146.521 211.52Z" fill="#263238"/>
<path d="M95.2572 209.736L100.003 211.043C100.089 211.069 100.163 211.122 100.215 211.194C100.267 211.267 100.294 211.354 100.291 211.443L100.075 215.519C100.063 215.687 99.985 215.843 99.8583 215.955C99.7316 216.066 99.5661 216.124 99.3971 216.116C99.3435 216.125 99.2888 216.125 99.2351 216.116C97.5311 215.615 95.0891 214.833 92.9351 214.242C90.4151 213.55 88.2072 213.084 85.2552 212.272C83.4552 211.777 83.4551 209.849 84.2711 209.885C87.8711 210.082 90.6731 210.768 94.1111 209.778C94.4821 209.659 94.8785 209.645 95.2572 209.736Z" fill="#263238"/>
<path d="M97.441 200.097L96.229 205.319L100.579 206.519L101.791 201.297L97.441 200.097Z" fill="#EA7063"/>
<path d="M149.461 201.87H144.949L145.993 207.229H150.553L149.461 201.87Z" fill="#EA7063"/>
<path d="M113.125 59.3518C113.125 59.3518 107.803 72.8999 112.861 98.146H136.987C137.149 94.4635 134.821 76.4928 138.397 59.1369C135.731 58.6228 133.033 58.2839 130.321 58.1223C126.906 57.9254 123.482 57.9254 120.067 58.1223C117.724 58.3499 115.403 58.761 113.125 59.3518Z" fill="#263238"/>
<path d="M145.171 212.529C144.872 212.602 144.556 212.57 144.277 212.439C144.186 212.384 144.11 212.307 144.057 212.216C144.003 212.124 143.974 212.02 143.971 211.914C143.961 211.854 143.968 211.791 143.992 211.735C144.015 211.678 144.053 211.628 144.103 211.592C144.553 211.264 146.131 211.914 146.311 211.992C146.331 211.999 146.347 212.012 146.359 212.029C146.371 212.046 146.377 212.067 146.377 212.087C146.376 212.109 146.37 212.129 146.358 212.147C146.346 212.165 146.33 212.179 146.311 212.189C145.945 212.344 145.563 212.458 145.171 212.529ZM144.361 211.717C144.314 211.724 144.269 211.74 144.229 211.765C144.209 211.78 144.194 211.8 144.185 211.823C144.176 211.847 144.175 211.872 144.181 211.896C144.183 211.968 144.203 212.038 144.239 212.1C144.274 212.163 144.324 212.216 144.385 212.254C144.919 212.403 145.49 212.344 145.981 212.087C145.47 211.861 144.92 211.735 144.361 211.717Z" fill="#E94057"/>
<path d="M146.287 212.195H146.233C145.735 212.016 144.685 211.186 144.703 210.679C144.703 210.583 144.745 210.422 144.997 210.35C145.075 210.327 145.158 210.321 145.238 210.332C145.319 210.343 145.397 210.372 145.465 210.416C146.065 210.756 146.359 212.016 146.371 212.069C146.377 212.087 146.377 212.107 146.372 212.125C146.366 212.143 146.356 212.159 146.341 212.171L146.287 212.195ZM145.087 210.535H145.045C144.907 210.577 144.907 210.637 144.907 210.667C144.907 210.965 145.579 211.61 146.107 211.86C145.995 211.36 145.733 210.904 145.357 210.553C145.274 210.524 145.183 210.524 145.099 210.553L145.087 210.535Z" fill="#E94057"/>
<path d="M93.2352 209.993C92.8545 209.925 92.509 209.729 92.2572 209.437C92.2034 209.356 92.1704 209.263 92.161 209.167C92.1516 209.07 92.1661 208.972 92.2032 208.882C92.2198 208.827 92.2516 208.777 92.295 208.738C92.3384 208.699 92.3917 208.672 92.4492 208.662C93.0492 208.506 94.5552 209.855 94.7292 210.028C94.7408 210.047 94.747 210.069 94.747 210.091C94.747 210.113 94.7408 210.135 94.7292 210.154C94.7202 210.174 94.7048 210.191 94.6853 210.202C94.6658 210.212 94.6432 210.217 94.6212 210.213C94.1534 210.182 93.6895 210.108 93.2352 209.993ZM92.7012 208.882C92.6344 208.864 92.564 208.864 92.4972 208.882C92.4747 208.888 92.454 208.899 92.4372 208.914C92.4203 208.93 92.4079 208.95 92.4012 208.972C92.3777 209.031 92.3682 209.094 92.3734 209.157C92.3786 209.221 92.3983 209.282 92.4312 209.336C92.6352 209.646 93.3372 209.885 94.3452 209.993C93.8642 209.533 93.3083 209.157 92.7012 208.882Z" fill="#E94057"/>
<path d="M94.6271 210.189H94.5851C94.1291 209.813 93.3491 208.59 93.5651 208.124C93.6131 208.011 93.7331 207.892 94.0271 207.945C94.1323 207.961 94.2331 207.998 94.323 208.055C94.4129 208.111 94.4899 208.186 94.5491 208.274C94.9751 208.87 94.7651 210.064 94.7591 210.13C94.7566 210.148 94.749 210.164 94.7373 210.178C94.7257 210.192 94.7103 210.202 94.6931 210.207C94.6815 210.211 94.6692 210.211 94.6576 210.208C94.646 210.204 94.6354 210.198 94.6271 210.189ZM94.0271 208.142H93.9671C93.7751 208.107 93.7451 208.178 93.7331 208.202C93.6011 208.483 94.1051 209.396 94.5491 209.879C94.6379 209.373 94.5688 208.853 94.3511 208.387C94.2772 208.284 94.1722 208.206 94.0511 208.166L94.0271 208.142Z" fill="#E94057"/>
<path d="M147.943 106.884L148.807 110.333L152.665 108.017C152.665 108.017 152.101 104.311 149.161 104.251L147.943 106.884Z" fill="#FF8B7B"/>
<path d="M112.861 98.134C112.861 98.134 103.855 133.795 102.013 147.391C100.099 161.5 95.5332 203.332 95.5332 203.332L102.613 205.582C102.613 205.582 112.687 164.49 115.393 150.775C118.345 135.818 128.707 98.134 128.707 98.134H112.861Z" fill="#E94057"/>
<path opacity="0.6" d="M112.861 98.134C112.861 98.134 103.855 133.795 102.013 147.391C100.099 161.5 95.5332 203.332 95.5332 203.332L102.613 205.582C102.613 205.582 112.687 164.49 115.393 150.775C118.345 135.818 128.707 98.134 128.707 98.134H112.861Z" fill="white"/>
<path d="M102.967 206.077L95.0591 203.606L95.1671 200.688L103.795 203.493L102.967 206.077Z" fill="#E94057"/>
<path d="M123.691 100.772L125.791 108.943C123.841 116.242 121.231 126.137 119.029 135.036C118.819 123.445 120.391 111.89 123.691 100.772Z" fill="#E94057"/>
<path opacity="0.4" d="M123.691 100.772L125.791 108.943C123.841 116.242 121.231 126.137 119.029 135.036C118.819 123.445 120.391 111.89 123.691 100.772Z" fill="white"/>
<path d="M121.417 98.134C121.417 98.134 123.463 134.809 126.277 147.671C129.349 161.721 144.013 206.191 144.013 206.191H152.275C152.275 206.191 141.559 162.855 139.813 148.93C137.905 133.813 136.993 98.134 136.993 98.134H121.417Z" fill="#E94057"/>
<path opacity="0.6" d="M121.417 98.134C121.417 98.134 123.463 134.809 126.277 147.671C129.349 161.721 144.013 206.191 144.013 206.191H152.275C152.275 206.191 141.559 162.855 139.813 148.93C137.905 133.813 136.993 98.134 136.993 98.134H121.417Z" fill="white"/>
<path d="M152.881 206.316H143.413L142.549 203.791H152.881V206.316Z" fill="#E94057"/>
<path d="M120.013 86.09C117.013 85.9408 113.923 85.714 111.055 85.2962C109.718 85.1281 108.403 84.82 107.131 84.3771L106.987 84.3233L107.491 83.3445C107.857 82.6462 108.199 81.942 108.541 81.2437C109.231 79.8352 109.903 78.4326 110.551 77.0181C111.865 74.1951 113.095 71.3542 114.259 68.4655L107.659 65.732C106.417 68.5371 105.217 71.384 104.059 74.2309L102.325 78.4983L101.467 80.623L101.035 81.6734L100.819 82.1986C100.668 82.5348 100.544 82.8819 100.447 83.2371C100.183 84.2057 100.206 85.2294 100.513 86.1855C100.828 87.0975 101.396 87.9023 102.151 88.5071C102.674 88.9242 103.254 89.2658 103.873 89.5218C104.364 89.7245 104.87 89.892 105.385 90.0231C106.278 90.2417 107.187 90.3894 108.103 90.4647C108.967 90.5423 109.813 90.5841 110.641 90.5841C113.886 90.566 117.121 90.2322 120.301 89.5874L120.013 86.09Z" fill="#FF8B7B"/>
<path d="M118.483 62.4255C120.001 66.4362 112.303 78.2595 112.303 78.2595L103.303 73.3893C104.658 69.7124 106.406 66.1909 108.517 62.8851C111.685 58.1522 116.815 57.997 118.483 62.4255Z" fill="#263238"/>
<path d="M142.687 64.031C144.019 67.433 145.255 70.8468 146.425 74.3025C147.025 76.0333 147.577 77.7701 148.117 79.5248C148.657 81.2795 149.191 83.0342 149.659 84.8963C150.108 86.7609 150.447 88.6502 150.673 90.5543C150.925 92.4045 151.075 94.2367 151.225 96.069C151.507 99.7336 151.633 103.374 151.609 107.051L148.093 107.397C147.325 103.87 146.605 100.318 145.879 96.815C145.525 95.0604 145.141 93.3116 144.757 91.5928C144.373 89.8739 143.941 88.2087 143.431 86.651C142.921 85.0932 142.267 83.3624 141.631 81.6913L139.735 76.6481C138.463 73.2879 137.203 69.8979 135.985 66.5019L142.687 64.031Z" fill="#FF8B7B"/>
<path d="M138.397 59.125C142.663 59.7218 147.553 74.4517 147.553 74.4517L138.613 79.483C138.613 79.483 134.665 72.4881 132.715 67.2957C130.651 61.8525 133.813 58.4625 138.397 59.125Z" fill="#263238"/>
<path d="M127.417 83.6071L127.837 88.334L123.553 88.8951L122.827 83.7145L127.417 83.6071Z" fill="#FF8B7B"/>
<path d="M119.413 86.3346L122.815 83.7145L123.541 88.8951C123.541 88.8951 120.487 91.0854 118.381 89.0443L119.413 86.3346Z" fill="#FF8B7B"/>
<path d="M129.301 46.6214C128.659 49.904 128.011 55.9201 130.321 58.1104C130.321 58.1104 128.995 61.4408 122.863 61.4408C117.259 61.4408 120.067 58.1104 120.067 58.1104C123.745 57.2331 123.469 52.6017 122.593 49.2057L129.301 46.6214Z" fill="#FF8B7B"/>
<path d="M128.731 51.1991L126.517 49.5995C126.397 49.9397 124.513 51.1991 124.795 51.8735C125.755 54.1355 127.543 54.9472 128.833 54.5413C128.694 53.4328 128.66 52.3139 128.731 51.1991Z" fill="#EA7063"/>
<path d="M133.399 37.9374C135.553 39.0117 136.345 45.2725 133.399 46.502C130.453 47.7315 129.325 35.9142 133.399 37.9374Z" fill="#263238"/>
<path d="M122.203 42.36C122.203 46.8124 121.939 49.4205 124.039 51.8437C127.195 55.4903 132.835 53.8252 134.191 49.4563C135.391 45.5352 135.247 38.9163 131.005 36.8572C130.07 36.4001 129.033 36.1884 127.992 36.2425C126.952 36.2965 125.943 36.6143 125.061 37.1658C124.178 37.7173 123.453 38.4841 122.953 39.3932C122.453 40.3024 122.194 41.3237 122.203 42.36Z" fill="#FF8B7B"/>
<path d="M119.083 36.6483C114.715 38.5164 120.823 45.8933 122.599 45.8395C126.475 45.7082 122.857 44.2758 124.663 41.2021C125.16 40.2909 125.342 39.2421 125.179 38.218C126.901 38.0031 131.737 38.3493 133.579 39.1431C136.039 40.1935 139.231 36.1589 135.931 32.3272C136.105 35.3114 133.867 32.5063 130.891 31.7901C127.999 31.1628 124.982 31.4508 122.263 32.6137C120.343 33.3538 118.621 34.9235 119.083 36.6483Z" fill="#263238"/>
<path d="M120.115 37.1079C119.611 36.6497 118.945 36.4093 118.264 36.4396C117.582 36.4698 116.94 36.7681 116.479 37.269L116.371 37.3944C117.343 36.9587 118.855 36.9885 120.115 37.1079Z" fill="#263238"/>
<path d="M120.313 38.021C120.284 37.6862 120.19 37.3603 120.034 37.0619C119.878 36.7636 119.665 36.4988 119.407 36.2825C119.148 36.0663 118.849 35.903 118.527 35.8019C118.205 35.7008 117.866 35.6639 117.529 35.6934H117.361C118.393 36.0336 119.485 37.0721 120.313 38.021Z" fill="#263238"/>
<path d="M119.863 47.1167C120.398 48.1024 121.304 48.8366 122.383 49.1579C123.811 49.5697 124.543 48.2984 124.183 46.9436C123.841 45.75 122.677 44.043 121.231 44.2221C120.982 44.2551 120.742 44.3368 120.524 44.4625C120.307 44.5882 120.116 44.7554 119.964 44.9546C119.812 45.1537 119.701 45.3808 119.637 45.6228C119.573 45.8648 119.558 46.1169 119.593 46.3647C119.628 46.6318 119.72 46.8883 119.863 47.1167Z" fill="#FF8B7B"/>
<path d="M128.881 44.049C128.881 44.4071 129.031 44.7175 129.265 44.7294C129.499 44.7414 129.715 44.4668 129.739 44.1027C129.763 43.7387 129.589 43.4403 129.355 43.4224C129.121 43.4044 128.905 43.673 128.881 44.049Z" fill="#263238"/>
<path d="M132.985 44.3176C132.985 44.6817 133.129 44.9861 133.369 45.004C133.609 45.0219 133.819 44.7414 133.843 44.4071C133.867 44.0729 133.693 43.7387 133.459 43.7267C133.225 43.7148 133.009 43.9595 132.985 44.3176Z" fill="#263238"/>
<path d="M131.665 44.4131C132.026 45.5457 132.541 46.624 133.195 47.6181C132.932 47.7883 132.633 47.8976 132.322 47.9379C132.01 47.9782 131.693 47.9484 131.395 47.8508L131.665 44.4131Z" fill="#FF5652"/>
<path d="M130.315 48.752C130.329 48.7528 130.343 48.7509 130.357 48.7462C130.37 48.7415 130.383 48.7343 130.393 48.7248C130.404 48.7154 130.412 48.704 130.419 48.6913C130.425 48.6785 130.428 48.6647 130.429 48.6506C130.429 48.6231 130.419 48.5966 130.4 48.5766C130.381 48.5567 130.355 48.5447 130.327 48.5432C129.875 48.5231 129.433 48.3969 129.039 48.175C128.645 47.953 128.309 47.6415 128.059 47.2659C128.047 47.2398 128.025 47.2195 127.998 47.2094C127.971 47.1993 127.941 47.2003 127.915 47.2122C127.889 47.2241 127.868 47.2458 127.858 47.2727C127.848 47.2996 127.849 47.3293 127.861 47.3555C128.128 47.7667 128.49 48.1082 128.917 48.3513C129.344 48.5943 129.823 48.7317 130.315 48.752Z" fill="#263238"/>
<path d="M127.735 42.6524C127.768 42.6523 127.8 42.6454 127.83 42.632C127.86 42.6187 127.887 42.5992 127.909 42.5748C128.08 42.372 128.297 42.2122 128.542 42.1085C128.787 42.0048 129.053 41.9601 129.319 41.978C129.373 41.9806 129.426 41.9631 129.467 41.9289C129.509 41.8948 129.536 41.8464 129.543 41.7933C129.551 41.7403 129.538 41.6863 129.508 41.6421C129.477 41.5978 129.432 41.5665 129.379 41.5542C129.039 41.5282 128.698 41.584 128.385 41.717C128.072 41.85 127.795 42.0562 127.579 42.3182C127.541 42.3572 127.519 42.4097 127.519 42.4644C127.519 42.5191 127.541 42.5716 127.579 42.6106C127.625 42.642 127.68 42.6568 127.735 42.6524Z" fill="#263238"/>
<path d="M134.923 42.9986H135.013C135.039 42.9865 135.062 42.9694 135.081 42.9483C135.099 42.9272 135.114 42.9025 135.123 42.8758C135.132 42.849 135.135 42.8207 135.133 42.7926C135.13 42.7644 135.122 42.7371 135.109 42.7121C134.968 42.4064 134.756 42.1385 134.49 41.9309C134.223 41.7233 133.911 41.5819 133.579 41.5185C133.55 41.5114 133.519 41.5106 133.489 41.5162C133.459 41.5217 133.431 41.5334 133.406 41.5506C133.381 41.5678 133.36 41.59 133.344 41.6158C133.328 41.6416 133.318 41.6704 133.314 41.7004C133.311 41.7303 133.313 41.7607 133.322 41.7896C133.331 41.8185 133.346 41.8453 133.366 41.8681C133.385 41.8909 133.41 41.9093 133.437 41.9221C133.465 41.9348 133.495 41.9417 133.525 41.9422C133.787 41.9965 134.033 42.1119 134.241 42.2789C134.45 42.446 134.616 42.6599 134.725 42.9031C134.746 42.9362 134.775 42.9628 134.81 42.9797C134.845 42.9966 134.884 43.0032 134.923 42.9986Z" fill="#263238"/>
<path d="M148.951 201.338C148.961 201.337 148.97 201.334 148.978 201.329C148.986 201.324 148.993 201.317 148.999 201.309C149.004 201.301 149.008 201.293 149.01 201.283C149.013 201.274 149.013 201.264 149.011 201.255C148.945 200.837 138.979 161.947 137.401 149.438C135.685 135.86 135.151 103.368 135.115 103.064C135.115 103.054 135.113 103.044 135.109 103.036C135.105 103.027 135.099 103.019 135.092 103.013C135.084 103.006 135.075 103.002 135.066 102.999C135.057 102.997 135.047 102.996 135.037 102.998C135.027 102.998 135.018 103 135.009 103.004C135 103.008 134.992 103.014 134.986 103.021C134.979 103.029 134.975 103.038 134.972 103.047C134.97 103.056 134.969 103.066 134.971 103.076C135.007 103.38 135.571 135.902 137.251 149.45C138.829 161.983 148.795 200.855 148.867 201.273C148.87 201.292 148.88 201.31 148.896 201.322C148.912 201.334 148.931 201.34 148.951 201.338Z" fill="#E94057"/>
<path opacity="0.5" d="M148.963 201.344C148.983 201.34 149 201.328 149.011 201.312C149.022 201.295 149.027 201.275 149.023 201.255C148.957 200.843 138.991 161.953 137.413 149.444C135.697 135.866 135.163 103.368 135.127 103.07C135.124 103.05 135.114 103.032 135.099 103.018C135.083 103.005 135.063 102.998 135.043 102.998C135.033 103 135.023 103.003 135.014 103.009C135.005 103.014 134.997 103.021 134.991 103.029C134.985 103.038 134.981 103.047 134.978 103.057C134.976 103.067 134.975 103.078 134.977 103.088C135.013 103.386 135.547 135.884 137.257 149.462C138.835 161.995 148.801 200.867 148.873 201.285C148.874 201.294 148.876 201.303 148.881 201.311C148.885 201.319 148.891 201.326 148.899 201.332C148.906 201.338 148.915 201.342 148.924 201.344C148.933 201.346 148.942 201.346 148.951 201.344H148.963Z" fill="white"/>
</svg>
