<svg width="15" height="20" viewBox="0 0 15 20" fill="none" xmlns="http://www.w3.org/2000/svg">
<path fill-rule="evenodd" clip-rule="evenodd" d="M9.27211 1.39648C9.11464 1.39648 8.96362 1.33393 8.85227 1.22258C8.74092 1.11123 8.67836 0.960207 8.67836 0.802734C8.67836 0.645262 8.74092 0.494239 8.85227 0.38289C8.96362 0.27154 9.11464 0.208984 9.27211 0.208984L14.0221 0.208984C14.1796 0.208984 14.3306 0.27154 14.442 0.38289C14.5533 0.494239 14.6159 0.645262 14.6159 0.802734V5.55273C14.6159 5.71021 14.5533 5.86123 14.442 5.97258C14.3306 6.08393 14.1796 6.14648 14.0221 6.14648C13.8646 6.14648 13.7136 6.08393 13.6023 5.97258C13.4909 5.86123 13.4284 5.71021 13.4284 5.55273V2.23605L9.33149 6.33292C9.68449 7.01229 9.86804 7.76691 9.86651 8.53252C9.86498 9.29812 9.67842 10.052 9.32271 10.73C8.967 11.4079 8.45268 11.9898 7.82358 12.4262C7.19447 12.8625 6.46922 13.1403 5.70961 13.2359V15.6465H7.49086C7.64833 15.6465 7.79936 15.709 7.91071 15.8204C8.02206 15.9317 8.08461 16.0828 8.08461 16.2402C8.08461 16.3977 8.02206 16.5487 7.91071 16.6601C7.79936 16.7714 7.64833 16.834 7.49086 16.834H5.70961V18.6152C5.70961 18.7727 5.64706 18.9237 5.53571 19.0351C5.42436 19.1464 5.27333 19.209 5.11586 19.209C4.95839 19.209 4.80737 19.1464 4.69602 19.0351C4.58467 18.9237 4.52211 18.7727 4.52211 18.6152V16.834H2.74086C2.58339 16.834 2.43237 16.7714 2.32102 16.6601C2.20967 16.5487 2.14711 16.3977 2.14711 16.2402C2.14711 16.0828 2.20967 15.9317 2.32102 15.8204C2.43237 15.709 2.58339 15.6465 2.74086 15.6465H4.52211V13.2359C3.76192 13.1399 3.03624 12.8614 2.40697 12.4242C1.77771 11.987 1.26355 11.4041 0.908364 10.7252C0.553176 10.0462 0.367503 9.29146 0.367188 8.52524C0.366873 7.75901 0.551924 7.00408 0.906554 6.32486C1.26118 5.64564 1.77486 5.06229 2.40376 4.62459C3.03267 4.18688 3.75812 3.90781 4.51823 3.8112C5.27834 3.71458 6.05055 3.80328 6.76895 4.06972C7.48736 4.33617 8.13064 4.77246 8.64392 5.34136L12.5888 1.39648H9.27211ZM8.08817 6.55736C7.5671 5.76905 6.75421 5.22003 5.82834 5.03107C4.90246 4.84211 3.93945 5.02869 3.15114 5.54977C2.36284 6.07084 1.81381 6.88373 1.62485 7.8096C1.43589 8.73547 1.62247 9.69849 2.14355 10.4868C2.66478 11.2751 3.47782 11.8241 4.4038 12.0129C5.32979 12.2018 6.29287 12.015 7.08117 11.4938C7.86948 10.9726 8.41844 10.1595 8.60729 9.23354C8.79614 8.30756 8.60941 7.34448 8.08817 6.55617V6.55736Z" fill="white"/>
</svg>
