<svg width="12" height="20" viewBox="0 0 12 20" fill="none" xmlns="http://www.w3.org/2000/svg">
<path fill-rule="evenodd" clip-rule="evenodd" d="M5.9563 1.90618C4.69652 1.90618 3.48834 2.40662 2.59754 3.29742C1.70674 4.18822 1.2063 5.3964 1.2063 6.65618C1.2063 7.91596 1.70674 9.12414 2.59754 10.0149C3.48834 10.9057 4.69652 11.4062 5.9563 11.4062C7.21608 11.4062 8.42426 10.9057 9.31506 10.0149C10.2059 9.12414 10.7063 7.91596 10.7063 6.65618C10.7063 5.3964 10.2059 4.18822 9.31506 3.29742C8.42426 2.40662 7.21608 1.90618 5.9563 1.90618ZM0.0187988 6.65618C0.0188133 5.50717 0.352215 4.38285 0.978569 3.41957C1.60492 2.45629 2.49732 1.69545 3.54753 1.22931C4.59773 0.76317 5.76063 0.611765 6.89518 0.793455C8.02974 0.975146 9.0872 1.48213 9.93932 2.25291C10.7914 3.02369 11.4016 4.02517 11.6958 5.13587C11.9901 6.24657 11.9557 7.41878 11.5969 8.51033C11.2381 9.60188 10.5703 10.5659 9.67447 11.2854C8.77865 12.0049 7.6933 12.4491 6.55005 12.564V14.9687H8.92505C9.08252 14.9687 9.23354 15.0312 9.34489 15.1426C9.45624 15.2539 9.5188 15.405 9.5188 15.5624C9.5188 15.7199 9.45624 15.8709 9.34489 15.9823C9.23354 16.0936 9.08252 16.1562 8.92505 16.1562H6.55005V19.1249C6.55005 19.2824 6.48749 19.4334 6.37614 19.5448C6.26479 19.6561 6.11377 19.7187 5.9563 19.7187C5.79883 19.7187 5.6478 19.6561 5.53645 19.5448C5.4251 19.4334 5.36255 19.2824 5.36255 19.1249V16.1562H2.98755C2.83008 16.1562 2.67905 16.0936 2.5677 15.9823C2.45635 15.8709 2.3938 15.7199 2.3938 15.5624C2.3938 15.405 2.45635 15.2539 2.5677 15.1426C2.67905 15.0312 2.83008 14.9687 2.98755 14.9687H5.36255V12.564C3.89799 12.4168 2.54031 11.7308 1.55291 10.6392C0.565505 9.54759 0.0187803 8.12812 0.0187988 6.65618Z" fill="#E94057"/>
</svg>
