<svg width="16" height="15" viewBox="0 0 16 15" fill="none" xmlns="http://www.w3.org/2000/svg">
<path d="M9.09274 0.302734V1.49023H13.0032L8.43843 6.05558C7.4808 5.31154 6.27558 4.96049 5.06819 5.07389C3.8608 5.1873 2.74203 5.75664 1.9397 6.66598C1.13736 7.57533 0.711788 8.75629 0.749639 9.96841C0.78749 11.1805 1.28592 12.3326 2.14343 13.1901C3.00094 14.0477 4.15305 14.5461 5.36516 14.5839C6.57728 14.6218 7.75824 14.1962 8.66759 13.3939C9.57693 12.5915 10.1463 11.4728 10.2597 10.2654C10.3731 9.05799 10.022 7.85277 9.27799 6.89514L13.8427 2.3298V6.24023H15.0302V0.302734H9.09274ZM5.53024 13.3652C4.82565 13.3652 4.13687 13.1563 3.55102 12.7648C2.96517 12.3734 2.50856 11.817 2.23892 11.166C1.96928 10.5151 1.89874 9.79878 2.0362 9.10773C2.17365 8.41667 2.51295 7.78189 3.01117 7.28367C3.5094 6.78544 4.14418 6.44615 4.83523 6.30869C5.52629 6.17123 6.24259 6.24178 6.89355 6.51141C7.54451 6.78105 8.1009 7.23767 8.49235 7.82352C8.88381 8.40937 9.09274 9.09814 9.09274 9.80273C9.09164 10.7472 8.71596 11.6527 8.0481 12.3206C7.38024 12.9884 6.47474 13.3641 5.53024 13.3652Z" fill="white"/>
</svg>
