<svg width="301" height="225" viewBox="0 0 301 225" fill="none" xmlns="http://www.w3.org/2000/svg">
<path d="M300.098 197.141H0.0979004V197.291H300.098V197.141Z" fill="#EBEBEB"/>
<path d="M270.038 206.795H250.166V206.945H270.038V206.795Z" fill="#EBEBEB"/>
<path d="M198.83 208.427H193.616V208.577H198.83V208.427Z" fill="#EBEBEB"/>
<path d="M249.566 201.227H238.052V201.377H249.566V201.227Z" fill="#EBEBEB"/>
<path d="M57.4879 202.235H31.5739V202.385H57.4879V202.235Z" fill="#EBEBEB"/>
<path d="M66.6319 202.235H62.8339V202.385H66.6319V202.235Z" fill="#EBEBEB"/>
<path d="M135.188 204.767H78.9799V204.917H135.188V204.767Z" fill="#EBEBEB"/>
<path d="M142.298 170.381H26.4439C25.5363 170.379 24.6665 170.018 24.0253 169.375C23.3841 168.733 23.0239 167.863 23.0239 166.955V4.09705C23.0318 3.19466 23.3954 2.33184 24.0358 1.69598C24.6761 1.06012 25.5415 0.702596 26.4439 0.70105H142.298C143.207 0.70105 144.078 1.062 144.72 1.7045C145.363 2.347 145.724 3.21842 145.724 4.12705V166.955C145.724 167.864 145.363 168.735 144.72 169.378C144.078 170.02 143.207 170.381 142.298 170.381ZM26.4439 0.82105C25.5761 0.82264 24.7444 1.16849 24.1313 1.78269C23.5183 2.39688 23.1739 3.22924 23.1739 4.09705V166.955C23.1739 167.823 23.5183 168.655 24.1313 169.269C24.7444 169.884 25.5761 170.229 26.4439 170.231H142.298C143.166 170.229 143.999 169.884 144.613 169.27C145.227 168.656 145.572 167.823 145.574 166.955V4.09705C145.572 3.22869 145.227 2.39635 144.613 1.78232C143.999 1.16829 143.166 0.822636 142.298 0.82105H26.4439Z" fill="#EBEBEB"/>
<path d="M272.084 170.381H156.224C155.316 170.379 154.445 170.018 153.803 169.376C153.161 168.734 152.799 167.863 152.798 166.955V4.09705C152.807 3.19412 153.172 2.3313 153.814 1.69561C154.455 1.05992 155.321 0.702579 156.224 0.70105H272.084C272.985 0.704173 273.849 1.0624 274.488 1.69809C275.127 2.33377 275.49 3.1957 275.498 4.09705V166.955C275.498 167.862 275.139 168.731 274.499 169.373C273.859 170.016 272.99 170.378 272.084 170.381ZM156.224 0.82105C155.355 0.822636 154.523 1.16829 153.909 1.78232C153.295 2.39635 152.949 3.22869 152.948 4.09705V166.955C152.949 167.823 153.295 168.656 153.909 169.27C154.523 169.884 155.355 170.229 156.224 170.231H272.084C272.952 170.229 273.785 169.884 274.399 169.27C275.013 168.656 275.358 167.823 275.36 166.955V4.09705C275.358 3.22869 275.013 2.39635 274.399 1.78232C273.785 1.16829 272.952 0.822636 272.084 0.82105H156.224Z" fill="#EBEBEB"/>
<path d="M150.596 195.851H238.478L238.478 67.0011H150.596V195.851Z" fill="#F0F0F0"/>
<path d="M153.698 94.859L235.37 94.859V71.063L153.698 71.063V94.859Z" fill="#E0E0E0"/>
<path d="M230.732 94.859H235.37V74.915H230.732V94.859Z" fill="#EBEBEB"/>
<path d="M208.304 94.859H212.942V74.915H208.304V94.859Z" fill="#EBEBEB"/>
<path d="M179.449 94.0686L184.02 94.8564L187.407 75.2023L182.837 74.4145L179.449 94.0686Z" fill="#EBEBEB"/>
<path d="M224.984 94.859H229.622V77.543H224.984V94.859Z" fill="#EBEBEB"/>
<path d="M214.322 94.859H218.96V77.543H214.322V94.859Z" fill="#EBEBEB"/>
<path d="M187.406 94.859H192.044V77.543H187.406V94.859Z" fill="#EBEBEB"/>
<path d="M198.457 93.8463L202.985 94.8525L206.741 77.949L202.214 76.9428L198.457 93.8463Z" fill="#EBEBEB"/>
<path d="M220.97 94.859H223.292V73.925H220.97V94.859Z" fill="#EBEBEB"/>
<path d="M193.376 94.859H195.698V73.925H193.376V94.859Z" fill="#EBEBEB"/>
<path d="M235.376 98.6271H153.704V122.423H235.376V98.6271Z" fill="#E0E0E0"/>
<path d="M158.342 102.479H153.704V122.423H158.342V102.479Z" fill="#EBEBEB"/>
<path d="M180.776 102.479H176.138V122.423H180.776V102.479Z" fill="#EBEBEB"/>
<path d="M206.24 101.97L201.67 102.758L205.057 122.412L209.628 121.624L206.24 101.97Z" fill="#EBEBEB"/>
<path d="M164.09 105.107H159.452V122.423H164.09V105.107Z" fill="#EBEBEB"/>
<path d="M174.752 105.107H170.114V122.423H174.752V105.107Z" fill="#EBEBEB"/>
<path d="M201.668 105.107H197.03V122.423H201.668V105.107Z" fill="#EBEBEB"/>
<path d="M186.87 104.505L182.343 105.511L186.099 122.415L190.627 121.408L186.87 104.505Z" fill="#EBEBEB"/>
<path d="M168.104 101.489H165.782V122.423H168.104V101.489Z" fill="#EBEBEB"/>
<path d="M195.698 101.489H193.376V122.423H195.698V101.489Z" fill="#EBEBEB"/>
<path d="M230.732 122.423H235.37V102.479H230.732V122.423Z" fill="#EBEBEB"/>
<path d="M224.984 122.423H229.622V105.107H224.984V122.423Z" fill="#EBEBEB"/>
<path d="M214.322 122.423H218.96V105.107H214.322V122.423Z" fill="#EBEBEB"/>
<path d="M220.97 122.423H223.292V101.489H220.97V122.423Z" fill="#EBEBEB"/>
<path d="M153.698 149.987H235.37V126.191L153.698 126.191V149.987Z" fill="#E0E0E0"/>
<path d="M183.86 149.987H188.498V130.043H183.86V149.987Z" fill="#EBEBEB"/>
<path d="M155.009 149.194L159.58 149.982L162.968 130.328L158.397 129.54L155.009 149.194Z" fill="#EBEBEB"/>
<path d="M200.546 149.987H205.184V132.671H200.546V149.987Z" fill="#EBEBEB"/>
<path d="M189.878 149.987H194.516V132.671H189.878V149.987Z" fill="#EBEBEB"/>
<path d="M162.962 149.987H167.6V132.671H162.962V149.987Z" fill="#EBEBEB"/>
<path d="M174.017 148.971L178.544 149.978L182.301 133.074L177.773 132.068L174.017 148.971Z" fill="#EBEBEB"/>
<path d="M196.526 149.987H198.848V129.053H196.526V149.987Z" fill="#EBEBEB"/>
<path d="M168.932 149.987H171.254V129.053H168.932V149.987Z" fill="#EBEBEB"/>
<path d="M208.387 149.193L212.957 149.981L216.345 130.327L211.775 129.539L208.387 149.193Z" fill="#EBEBEB"/>
<path d="M216.338 149.987H220.976V132.671H216.338V149.987Z" fill="#EBEBEB"/>
<path d="M227.398 148.973L231.925 149.979L235.682 133.075L231.154 132.069L227.398 148.973Z" fill="#EBEBEB"/>
<path d="M222.308 149.987H224.63V129.053H222.308V149.987Z" fill="#EBEBEB"/>
<path d="M253.64 67.007H238.478V196.193H253.64V67.007Z" fill="#E0E0E0"/>
<path d="M113.45 49.559L90.4519 36.179H72.7399L49.3639 48.923V135.623H113.45V49.559Z" fill="#E0E0E0"/>
<path d="M48.6979 49.559L49.3579 48.923C57.8809 40.7135 69.2642 36.143 81.0979 36.179C92.9232 36.1498 104.296 40.7198 112.814 48.923L113.474 49.559V135.623H48.6979V49.559ZM109.148 51.401C101.486 44.3736 91.4674 40.4749 81.0709 40.4749C70.6743 40.4749 60.6557 44.3736 52.9939 51.401V131.327H109.148V51.401Z" fill="#FAFAFA"/>
<path d="M82.6878 131.843H79.4658V103.073H52.1838V99.8511H79.4658V70.4211H52.1838V67.1991H79.4658V39.9171H82.6878V67.1991H109.97V70.4211H82.6878V99.8511H109.97V103.073H82.6878V131.843Z" fill="#F0F0F0"/>
<path d="M46.5559 48.701L47.1559 48.071C56.1543 39.0944 68.3457 34.0532 81.0559 34.0532C93.7662 34.0532 105.958 39.0944 114.956 48.071L115.598 48.701V137.771H46.5559V48.701ZM111.302 50.501C103.168 42.7093 92.3403 38.3596 81.0769 38.3596C69.8136 38.3596 58.9853 42.7093 50.8519 50.501V133.475H111.302V50.501Z" fill="#F0F0F0"/>
<path d="M200.834 50.9857C206.494 50.2887 210.517 45.1353 209.82 39.4751C209.123 33.815 203.97 29.7916 198.31 30.4885C192.649 31.1855 188.626 36.339 189.323 41.9991C190.02 47.6593 195.173 51.6827 200.834 50.9857Z" fill="#E0E0E0"/>
<path d="M200.426 49.4974C205.251 49.0201 208.775 44.7223 208.298 39.8979C207.82 35.0735 203.522 31.5494 198.698 32.0267C193.874 32.504 190.35 36.8019 190.827 41.6263C191.304 46.4507 195.602 49.9747 200.426 49.4974Z" fill="#F0F0F0"/>
<path d="M199.982 34.7211V40.8591L204.05 38.5611" fill="#F0F0F0"/>
<path d="M199.982 41.459C199.874 41.4609 199.768 41.4317 199.676 41.375C199.586 41.3219 199.512 41.2464 199.461 41.156C199.409 41.0655 199.382 40.9632 199.382 40.859V34.721C199.382 34.5619 199.445 34.4093 199.558 34.2968C199.67 34.1842 199.823 34.121 199.982 34.121C200.141 34.121 200.294 34.1842 200.406 34.2968C200.519 34.4093 200.582 34.5619 200.582 34.721V39.833L203.75 38.033C203.818 37.9934 203.894 37.9676 203.972 37.9573C204.051 37.947 204.131 37.9523 204.207 37.973C204.283 37.9936 204.355 38.0291 204.418 38.0776C204.48 38.126 204.533 38.1863 204.572 38.255C204.611 38.3239 204.637 38.3998 204.647 38.4786C204.656 38.5573 204.651 38.6372 204.629 38.7136C204.608 38.7901 204.572 38.8615 204.523 38.9239C204.474 38.9863 204.413 39.0383 204.344 39.077L200.276 41.375C200.187 41.428 200.085 41.4569 199.982 41.459Z" fill="#E0E0E0"/>
<path d="M150.098 224.237C214.347 224.237 266.432 221.196 266.432 217.445C266.432 213.694 214.347 210.653 150.098 210.653C85.8484 210.653 33.7639 213.694 33.7639 217.445C33.7639 221.196 85.8484 224.237 150.098 224.237Z" fill="#F5F5F5"/>
<path d="M47.2999 217.943H101.504V211.019H47.2999V217.943Z" fill="#263238"/>
<path opacity="0.2" d="M47.294 217.943H80.672V211.019H47.294V217.943Z" fill="white"/>
<path d="M102.71 163.889H46.418V215.003H102.71V163.889Z" fill="#E94057"/>
<path opacity="0.4" d="M102.71 163.889H46.418V215.003H102.71V163.889Z" fill="white"/>
<path opacity="0.2" d="M102.71 163.889H81.9978V215.003H102.71V163.889Z" fill="black"/>
<path d="M44.7499 163.901C44.7488 164.146 44.7965 164.389 44.8902 164.616C44.9839 164.842 45.1219 165.048 45.2959 165.221C45.4663 165.396 45.6707 165.535 45.8967 165.629C46.1226 165.723 46.3653 165.77 46.6099 165.767H102.512C102.765 165.781 103.019 165.744 103.258 165.657C103.496 165.569 103.715 165.435 103.899 165.26C104.084 165.086 104.231 164.876 104.331 164.642C104.432 164.409 104.484 164.158 104.484 163.904C104.484 163.65 104.432 163.399 104.331 163.165C104.231 162.932 104.084 162.722 103.899 162.548C103.715 162.373 103.496 162.238 103.258 162.151C103.019 162.064 102.765 162.026 102.512 162.041H46.6099C46.1166 162.041 45.6435 162.237 45.2947 162.586C44.9459 162.934 44.7499 163.408 44.7499 163.901Z" fill="#E94057"/>
<path opacity="0.2" d="M44.7499 163.901C44.7488 164.146 44.7965 164.389 44.8902 164.616C44.9839 164.842 45.1219 165.048 45.2959 165.221C45.4663 165.396 45.6707 165.535 45.8967 165.629C46.1226 165.723 46.3653 165.77 46.6099 165.767H81.9259C82.1795 165.781 82.4333 165.744 82.6718 165.657C82.9103 165.569 83.1286 165.435 83.3132 165.26C83.4978 165.086 83.6448 164.876 83.7453 164.642C83.8458 164.409 83.8977 164.158 83.8977 163.904C83.8977 163.65 83.8458 163.399 83.7453 163.165C83.6448 162.932 83.4978 162.722 83.3132 162.548C83.1286 162.373 82.9103 162.238 82.6718 162.151C82.4333 162.064 82.1795 162.026 81.9259 162.041H46.6099C46.1166 162.041 45.6435 162.237 45.2947 162.586C44.9459 162.934 44.7499 163.408 44.7499 163.901Z" fill="white"/>
<path opacity="0.3" d="M49.0039 178.649H79.0459V168.413H49.0039V178.649Z" fill="white"/>
<path opacity="0.3" d="M49.0039 211.835H79.0459V180.683H49.0039V211.835Z" fill="white"/>
<path opacity="0.2" d="M63.0559 170.699C63.0559 170.89 63.1126 171.077 63.2187 171.236C63.3249 171.394 63.4757 171.518 63.6522 171.591C63.8288 171.664 64.023 171.684 64.2104 171.646C64.3978 171.609 64.5699 171.517 64.705 171.382C64.8401 171.247 64.9321 171.075 64.9693 170.887C65.0066 170.7 64.9875 170.506 64.9144 170.329C64.8413 170.153 64.7174 170.002 64.5586 169.896C64.3997 169.79 64.213 169.733 64.0219 169.733C63.7657 169.733 63.52 169.835 63.3388 170.016C63.1577 170.197 63.0559 170.443 63.0559 170.699Z" fill="black"/>
<path opacity="0.2" d="M63.0559 183.923C63.0559 184.114 63.1126 184.301 63.2187 184.46C63.3249 184.618 63.4757 184.742 63.6522 184.815C63.8288 184.888 64.023 184.908 64.2104 184.87C64.3978 184.833 64.5699 184.741 64.705 184.606C64.8401 184.471 64.9321 184.299 64.9693 184.111C65.0066 183.924 64.9875 183.73 64.9144 183.553C64.8413 183.377 64.7174 183.226 64.5586 183.12C64.3997 183.014 64.213 182.957 64.0219 182.957C63.8951 182.957 63.7694 182.982 63.6522 183.03C63.535 183.079 63.4285 183.15 63.3388 183.24C63.2491 183.33 63.178 183.436 63.1294 183.553C63.0809 183.67 63.0559 183.796 63.0559 183.923Z" fill="black"/>
<path d="M53.5038 161.843H65.2518V159.071H53.5038V161.843Z" fill="#E94057"/>
<path opacity="0.7" d="M53.5038 161.843H65.2518V159.071H53.5038V161.843Z" fill="white"/>
<path d="M52.8979 162.101H62.1019C62.5364 162.101 62.953 161.928 63.2602 161.621C63.5674 161.314 63.7399 160.897 63.7399 160.463C63.7399 160.029 63.5674 159.612 63.2602 159.305C62.953 158.998 62.5364 158.825 62.1019 158.825H52.8979V159.425H62.1019C62.3772 159.425 62.6413 159.534 62.8359 159.729C63.0306 159.924 63.1399 160.188 63.1399 160.463C63.1399 160.738 63.0306 161.002 62.8359 161.197C62.6413 161.392 62.3772 161.501 62.1019 161.501H52.8979V162.101Z" fill="#263238"/>
<path d="M60.6979 162.101H69.8959C70.111 162.101 70.324 162.059 70.5227 161.976C70.7214 161.894 70.902 161.773 71.0541 161.621C71.2062 161.469 71.3269 161.289 71.4092 161.09C71.4915 160.891 71.5339 160.678 71.5339 160.463C71.5339 160.248 71.4915 160.035 71.4092 159.836C71.3269 159.637 71.2062 159.457 71.0541 159.305C70.902 159.153 70.7214 159.032 70.5227 158.95C70.324 158.867 70.111 158.825 69.8959 158.825H60.6979V159.425H62.0959C62.3712 159.425 62.6352 159.534 62.8299 159.729C63.0245 159.924 63.1339 160.188 63.1339 160.463C63.1339 160.738 63.0245 161.002 62.8299 161.197C62.6352 161.392 62.3712 161.501 62.0959 161.501H60.6979V162.101Z" fill="#263238"/>
<g opacity="0.4">
<path d="M52.8979 162.101H62.1019C62.5364 162.101 62.953 161.928 63.2602 161.621C63.5674 161.314 63.7399 160.897 63.7399 160.463C63.7399 160.029 63.5674 159.612 63.2602 159.305C62.953 158.998 62.5364 158.825 62.1019 158.825H52.8979V159.425H62.1019C62.3772 159.425 62.6413 159.534 62.8359 159.729C63.0306 159.924 63.1399 160.188 63.1399 160.463C63.1399 160.738 63.0306 161.002 62.8359 161.197C62.6413 161.392 62.3772 161.501 62.1019 161.501H52.8979V162.101Z" fill="white"/>
</g>
<path d="M55.0219 158.561H66.7699V155.789H55.0219V158.561Z" fill="#E94057"/>
<path opacity="0.7" d="M55.0219 158.561H66.7699V155.789H55.0219V158.561Z" fill="white"/>
<path d="M62.2279 158.819H71.4319C71.85 158.794 72.2426 158.61 72.5297 158.305C72.8168 158 72.9766 157.597 72.9766 157.178C72.9766 156.759 72.8168 156.356 72.5297 156.051C72.2426 155.746 71.85 155.562 71.4319 155.537H62.2279V156.137H63.6259C63.8883 156.157 64.1336 156.275 64.3125 156.468C64.4914 156.661 64.5908 156.915 64.5908 157.178C64.5908 157.441 64.4914 157.695 64.3125 157.888C64.1336 158.081 63.8883 158.199 63.6259 158.219H62.2279V158.819Z" fill="#E94057"/>
<g opacity="0.4">
<path d="M62.2279 158.819H71.4319C71.85 158.794 72.2426 158.61 72.5297 158.305C72.8168 158 72.9766 157.597 72.9766 157.178C72.9766 156.759 72.8168 156.356 72.5297 156.051C72.2426 155.746 71.85 155.562 71.4319 155.537H62.2279V156.137H63.6259C63.8883 156.157 64.1336 156.275 64.3125 156.468C64.4914 156.661 64.5908 156.915 64.5908 157.178C64.5908 157.441 64.4914 157.695 64.3125 157.888C64.1336 158.081 63.8883 158.199 63.6259 158.219H62.2279V158.819Z" fill="white"/>
</g>
<path d="M54.4219 158.819H63.6259C64.0439 158.794 64.4366 158.61 64.7237 158.305C65.0107 158 65.1706 157.597 65.1706 157.178C65.1706 156.759 65.0107 156.356 64.7237 156.051C64.4366 155.746 64.0439 155.562 63.6259 155.537H54.4219V156.137H63.6259C63.8883 156.157 64.1335 156.275 64.3125 156.468C64.4914 156.661 64.5908 156.915 64.5908 157.178C64.5908 157.441 64.4914 157.695 64.3125 157.888C64.1335 158.081 63.8883 158.199 63.6259 158.219H54.4219V158.819Z" fill="#E94057"/>
<g opacity="0.2">
<path d="M54.4219 158.819H63.6259C64.0439 158.794 64.4366 158.61 64.7237 158.305C65.0107 158 65.1706 157.597 65.1706 157.178C65.1706 156.759 65.0107 156.356 64.7237 156.051C64.4366 155.746 64.0439 155.562 63.6259 155.537H54.4219V156.137H63.6259C63.8883 156.157 64.1335 156.275 64.3125 156.468C64.4914 156.661 64.5908 156.915 64.5908 157.178C64.5908 157.441 64.4914 157.695 64.3125 157.888C64.1335 158.081 63.8883 158.199 63.6259 158.219H54.4219V158.819Z" fill="white"/>
</g>
<path d="M52.6099 155.285H64.3579V152.513H52.6099V155.285Z" fill="#E94057"/>
<path opacity="0.7" d="M52.6099 155.285H64.3579V152.513H52.6099V155.285Z" fill="white"/>
<path d="M59.8159 155.537H69.0139C69.4483 155.537 69.865 155.364 70.1722 155.057C70.4793 154.75 70.6519 154.333 70.6519 153.899C70.6519 153.464 70.4793 153.048 70.1722 152.741C69.865 152.433 69.4483 152.261 69.0139 152.261H59.8159V152.861H61.2139C61.4892 152.861 61.7532 152.97 61.9479 153.165C62.1426 153.36 62.2519 153.624 62.2519 153.899C62.2519 154.174 62.1426 154.438 61.9479 154.633C61.7532 154.827 61.4892 154.937 61.2139 154.937H59.8159V155.537Z" fill="#263238"/>
<g opacity="0.2">
<path d="M59.8159 155.537H69.0139C69.4483 155.537 69.865 155.364 70.1722 155.057C70.4793 154.75 70.6519 154.333 70.6519 153.899C70.6519 153.464 70.4793 153.048 70.1722 152.741C69.865 152.433 69.4483 152.261 69.0139 152.261H59.8159V152.861H61.2139C61.4892 152.861 61.7532 152.97 61.9479 153.165C62.1426 153.36 62.2519 153.624 62.2519 153.899C62.2519 154.174 62.1426 154.438 61.9479 154.633C61.7532 154.827 61.4892 154.937 61.2139 154.937H59.8159V155.537Z" fill="white"/>
</g>
<path d="M52.0099 155.537H61.2079C61.6423 155.537 62.0589 155.364 62.3661 155.057C62.6733 154.75 62.8459 154.333 62.8459 153.899C62.8459 153.464 62.6733 153.048 62.3661 152.741C62.0589 152.433 61.6423 152.261 61.2079 152.261H52.0099V152.861H61.2079C61.4832 152.861 61.7472 152.97 61.9419 153.165C62.1365 153.36 62.2459 153.624 62.2459 153.899C62.2459 154.174 62.1365 154.438 61.9419 154.633C61.7472 154.827 61.4832 154.937 61.2079 154.937H52.0099V155.537Z" fill="#263238"/>
<g opacity="0.4">
<path d="M52.0099 155.537H61.2079C61.6423 155.537 62.0589 155.364 62.3661 155.057C62.6733 154.75 62.8459 154.333 62.8459 153.899C62.8459 153.464 62.6733 153.048 62.3661 152.741C62.0589 152.433 61.6423 152.261 61.2079 152.261H52.0099V152.861H61.2079C61.4832 152.861 61.7472 152.97 61.9419 153.165C62.1365 153.36 62.2459 153.624 62.2459 153.899C62.2459 154.174 62.1365 154.438 61.9419 154.633C61.7472 154.827 61.4832 154.937 61.2079 154.937H52.0099V155.537Z" fill="white"/>
</g>
<path d="M71.5759 149.237H59.8279V152.009H71.5759V149.237Z" fill="#E94057"/>
<path opacity="0.7" d="M71.5759 149.237H59.8279V152.009H71.5759V149.237Z" fill="white"/>
<path d="M72.176 152.261H62.972C62.5539 152.236 62.1613 152.052 61.8742 151.747C61.5871 151.442 61.4272 151.039 61.4272 150.62C61.4272 150.201 61.5871 149.798 61.8742 149.493C62.1613 149.188 62.5539 149.004 62.972 148.979H72.176V149.579H62.972C62.7095 149.599 62.4643 149.717 62.2854 149.91C62.1065 150.103 62.0071 150.357 62.0071 150.62C62.0071 150.883 62.1065 151.137 62.2854 151.33C62.4643 151.523 62.7095 151.641 62.972 151.661H72.176V152.261Z" fill="#E94057"/>
<path d="M64.3699 152.261H55.1659C54.7479 152.236 54.3552 152.052 54.0681 151.747C53.7811 151.442 53.6212 151.039 53.6212 150.62C53.6212 150.201 53.7811 149.798 54.0681 149.493C54.3552 149.188 54.7479 149.004 55.1659 148.979H64.3699V149.579H62.9719C62.7095 149.599 62.4643 149.717 62.2854 149.91C62.1064 150.103 62.007 150.357 62.007 150.62C62.007 150.883 62.1064 151.137 62.2854 151.33C62.4643 151.523 62.7095 151.641 62.9719 151.661H64.3699V152.261Z" fill="#E94057"/>
<g opacity="0.4">
<path d="M72.176 152.261H62.972C62.5539 152.236 62.1613 152.052 61.8742 151.747C61.5871 151.442 61.4272 151.039 61.4272 150.62C61.4272 150.201 61.5871 149.798 61.8742 149.493C62.1613 149.188 62.5539 149.004 62.972 148.979H72.176V149.579H62.972C62.7095 149.599 62.4643 149.717 62.2854 149.91C62.1065 150.103 62.0071 150.357 62.0071 150.62C62.0071 150.883 62.1065 151.137 62.2854 151.33C62.4643 151.523 62.7095 151.641 62.972 151.661H72.176V152.261Z" fill="white"/>
</g>
<path d="M80.8038 159.101C81.7458 159.197 84.8058 159.023 85.6038 159.101C85.7958 159.101 85.9578 159.155 86.1318 159.185C86.409 159.134 86.69 159.106 86.9718 159.101C87.8058 159.101 90.7518 159.101 91.7718 159.101C93.9858 159.101 96.0438 161.027 99.5238 161.501L99.1278 162.053H73.0698V161.021C75.6198 161.555 78.6618 158.861 80.8038 159.101Z" fill="#E94057"/>
<path opacity="0.5" d="M80.8038 159.101C81.7458 159.197 84.8058 159.023 85.6038 159.101C85.7958 159.101 85.9578 159.155 86.1318 159.185C86.409 159.134 86.69 159.106 86.9718 159.101C87.8058 159.101 90.7518 159.101 91.7718 159.101C93.9858 159.101 96.0438 161.027 99.5238 161.501L99.1278 162.053H73.0698V161.021C75.6198 161.555 78.6618 158.861 80.8038 159.101Z" fill="white"/>
<path opacity="0.3" d="M99.5299 161.501C96.0499 161.021 93.9919 159.101 91.7779 159.101C91.1761 159.078 90.5769 159.191 90.0245 159.431C89.472 159.671 88.9804 160.032 88.5859 160.487C88.2056 160.065 87.7436 159.725 87.228 159.486C86.7123 159.248 86.1537 159.117 85.5859 159.101C83.4499 158.891 80.4079 161.585 77.8519 161.027V162.059H99.1159L99.5299 161.501Z" fill="white"/>
<path d="M88.5859 160.457C88.2379 160.457 88.1179 161.657 88.1179 161.657H89.0719C89.0719 161.657 88.9339 160.451 88.5859 160.457Z" fill="#E94057"/>
<path d="M72.8119 162.095H99.5299V161.633H72.8119V162.095Z" fill="#263238"/>
<path d="M117.956 216.257H120.806L120.806 103.661H117.956L117.956 216.257Z" fill="#263238"/>
<path opacity="0.2" d="M117.956 216.257H120.806L120.806 103.661H117.956L117.956 216.257Z" fill="white"/>
<path d="M123.416 217.007H115.346V211.811C115.346 211.049 115.649 210.318 116.188 209.779C116.727 209.24 117.458 208.937 118.22 208.937H120.548C121.31 208.937 122.041 209.24 122.58 209.779C123.119 210.318 123.422 211.049 123.422 211.811V217.007H123.416Z" fill="#263238"/>
<path d="M108.626 92.5433H130.142C130.616 110.687 137.342 120.347 137.342 120.347H101.42C101.42 120.347 108.152 110.687 108.626 92.5433Z" fill="#E94057"/>
<path opacity="0.3" d="M123.416 217.007H115.346V211.811C115.346 211.049 115.649 210.318 116.188 209.779C116.727 209.24 117.458 208.937 118.22 208.937H120.548C121.31 208.937 122.041 209.24 122.58 209.779C123.119 210.318 123.422 211.049 123.422 211.811V217.007H123.416Z" fill="white"/>
<path d="M131.09 217.943H107.69C107.69 217.047 108.046 216.188 108.679 215.555C109.313 214.921 110.172 214.565 111.068 214.565H127.712C128.608 214.565 129.467 214.921 130.1 215.555C130.734 216.188 131.09 217.047 131.09 217.943Z" fill="#263238"/>
<path opacity="0.4" d="M131.09 217.943H107.69C107.69 217.047 108.046 216.188 108.679 215.555C109.313 214.921 110.172 214.565 111.068 214.565H127.712C128.608 214.565 129.467 214.921 130.1 215.555C130.734 216.188 131.09 217.047 131.09 217.943Z" fill="white"/>
<path opacity="0.5" d="M101.42 120.347H137.342C137.342 120.347 135.164 117.221 133.196 111.179C131.284 105.147 130.253 98.8703 130.136 92.5433H108.62C108.501 98.8677 107.473 105.142 105.566 111.173C103.598 117.215 101.42 120.347 101.42 120.347Z" fill="white"/>
<path opacity="0.2" d="M105.566 111.173C107.158 113.342 109.238 115.106 111.638 116.321C114.038 117.537 116.691 118.171 119.381 118.171C122.071 118.171 124.724 117.537 127.124 116.321C129.524 115.106 131.604 113.342 133.196 111.173C131.284 105.141 130.253 98.864 130.136 92.5371H108.62C108.502 98.8635 107.473 105.14 105.566 111.173Z" fill="white"/>
<path d="M226.4 203.825C226.279 203.579 226.22 203.307 226.228 203.032C226.235 202.758 226.309 202.49 226.443 202.251C226.577 202.011 226.767 201.808 226.996 201.658C227.226 201.508 227.489 201.415 227.762 201.389C227.528 200.689 227.513 199.935 227.719 199.226C227.925 198.518 228.341 197.889 228.914 197.423C229.05 197.296 229.226 197.218 229.412 197.201C229.611 197.222 229.798 197.306 229.946 197.441C231.01 198.197 232.068 198.957 233.12 199.721C233.375 199.868 233.591 200.074 233.75 200.321C234.404 201.575 232.064 203.189 233.024 204.227C233.3 204.521 233.744 204.587 234.092 204.827C234.842 205.295 234.938 206.333 235.292 207.155C235.646 207.977 236.876 208.607 237.344 207.851C236.996 207.065 238.046 206.387 238.898 206.291C239.75 206.195 240.644 206.141 241.112 205.343C242.312 206.399 245.03 203.447 244.97 202.259C245.966 202.337 246.644 203.267 246.86 204.197C246.999 205.179 247.033 206.172 246.962 207.161C246.992 209.087 247.616 210.977 247.562 212.897C247.562 214.397 246.962 216.065 245.582 216.665C244.901 216.905 244.178 217.003 243.458 216.953L227.858 216.851C227.483 216.88 227.106 216.819 226.76 216.671C226.052 216.299 225.902 215.375 225.836 214.583C225.56 211.187 225.282 207.787 225.002 204.383L226.4 203.825Z" fill="#E94057"/>
<path opacity="0.3" d="M226.4 203.825C226.279 203.579 226.22 203.307 226.228 203.032C226.235 202.758 226.309 202.49 226.443 202.251C226.577 202.011 226.767 201.808 226.996 201.658C227.226 201.508 227.489 201.415 227.762 201.389C227.528 200.689 227.513 199.935 227.719 199.226C227.925 198.518 228.341 197.889 228.914 197.423C229.05 197.296 229.226 197.218 229.412 197.201C229.611 197.222 229.798 197.306 229.946 197.441C231.01 198.197 232.068 198.957 233.12 199.721C233.375 199.868 233.591 200.074 233.75 200.321C234.404 201.575 232.064 203.189 233.024 204.227C233.3 204.521 233.744 204.587 234.092 204.827C234.842 205.295 234.938 206.333 235.292 207.155C235.646 207.977 236.876 208.607 237.344 207.851C236.996 207.065 238.046 206.387 238.898 206.291C239.75 206.195 240.644 206.141 241.112 205.343C242.312 206.399 245.03 203.447 244.97 202.259C245.966 202.337 246.644 203.267 246.86 204.197C246.999 205.179 247.033 206.172 246.962 207.161C246.992 209.087 247.616 210.977 247.562 212.897C247.562 214.397 246.962 216.065 245.582 216.665C244.901 216.905 244.178 217.003 243.458 216.953L227.858 216.851C227.483 216.88 227.106 216.819 226.76 216.671C226.052 216.299 225.902 215.375 225.836 214.583C225.56 211.187 225.282 207.787 225.002 204.383L226.4 203.825Z" fill="white"/>
<path d="M222.764 187.301L222.962 189.755L223.106 191.501L223.466 196.061L223.676 198.665L223.964 202.145L224.084 203.639L224.12 204.083L224.258 205.835L224.456 208.235L224.57 209.729L224.696 211.235L224.84 212.993L224.948 214.331L225.068 215.819L225.122 216.467H247.37L247.418 215.819L247.538 214.325L247.646 212.999L247.79 211.241L247.916 209.729L248.036 208.235L248.228 205.835L248.372 204.083L248.408 203.639L248.528 202.145L248.81 198.665L249.02 196.055L249.392 191.501L249.53 189.755L249.734 187.301H222.764ZM223.994 188.441H224.498L224.03 188.909L223.994 188.441ZM226.106 188.441H226.628L228.854 190.667L226.37 193.157L224.198 190.991L224.15 190.391L226.106 188.441ZM224.648 196.493L226.37 194.771L228.854 197.255L226.37 199.745L224.78 198.155L224.648 196.493ZM247.712 198.155L246.128 199.745L243.638 197.255L246.128 194.771L247.844 196.493L247.712 198.155ZM229.658 191.501L232.148 193.991L229.658 196.481L227.168 193.991L229.658 191.501ZM229.658 189.899L228.236 188.471H231.098L229.658 189.899ZM232.952 194.801L235.442 197.285L232.952 199.775L230.498 197.261L232.952 194.801ZM236.246 203.063L233.762 200.579L236.246 198.095L238.73 200.579L236.246 203.063ZM239.534 201.383L242.024 203.873L239.54 206.357L237.05 203.867L239.534 201.383ZM235.442 203.867L232.952 206.357L230.498 203.849L232.982 201.359L235.442 203.867ZM233.762 193.991L236.246 191.501L238.73 193.991L236.246 196.481L233.762 193.991ZM239.534 194.801L242.024 197.285L239.534 199.775L237.05 197.285L239.534 194.801ZM240.344 193.991L242.834 191.501L245.318 193.991L242.834 196.481L240.344 193.991ZM245.318 200.591L242.834 203.075L240.344 200.591L242.834 198.107L245.318 200.591ZM242.834 204.689L245.318 207.179L242.834 209.663L240.344 207.179L242.834 204.689ZM242.024 210.473L239.534 212.957L237.05 210.473L239.54 207.983L242.024 210.473ZM236.246 209.663L233.762 207.179L236.246 204.689L238.73 207.179L236.246 209.663ZM235.442 210.473L232.952 212.957L230.498 210.437L232.982 207.947L235.442 210.473ZM232.148 213.701L230.534 215.315H228.782L227.168 213.701L229.658 211.211L232.148 213.701ZM229.658 209.603L227.168 207.119L229.658 204.629L232.148 207.119L229.658 209.603ZM229.658 203.003L227.168 200.519L229.658 198.101L232.148 200.585L229.658 203.003ZM232.658 188.411H233.186L235.412 190.637L232.922 193.127L230.498 190.673L232.658 188.411ZM234.794 188.411H237.698L236.276 189.839L234.794 188.411ZM239.246 188.411H239.768L241.994 190.637L239.504 193.127L237.02 190.637L239.246 188.411ZM244.22 188.411L242.804 189.839L241.382 188.411H244.22ZM246.356 188.411L248.306 190.367L248.258 190.967L246.098 193.133L243.608 190.643L245.834 188.417L246.356 188.411ZM248.468 188.411L248.426 188.873L247.964 188.411H248.468ZM247.934 194.969L246.902 193.931L248.102 192.731L247.934 194.969ZM247.472 201.101L246.932 200.561L247.568 199.919L247.472 201.119V201.101ZM247.13 205.337L246.128 206.339L243.638 203.855L246.128 201.365L247.328 202.595L247.13 205.337ZM246.98 207.197L246.932 207.149L246.986 207.089V207.197H246.98ZM246.548 212.501L246.128 212.927L243.638 210.443L246.128 207.953L246.86 208.685L246.548 212.501ZM245.318 215.345L246.128 214.535L246.368 214.775L246.32 215.375L245.318 215.345ZM243.71 215.345H241.958L240.344 213.701L242.834 211.211L245.318 213.701L243.71 215.345ZM238.73 215.345L239.534 214.535L240.344 215.345H238.73ZM235.364 215.345L233.762 213.701L236.246 211.211L238.73 213.701L237.098 215.339L235.364 215.345ZM232.142 215.345L232.952 214.535L233.762 215.345H232.142ZM226.142 214.745L226.382 214.505L227.186 215.315H226.184L226.142 214.745ZM225.644 208.655L226.382 207.923L228.866 210.413L226.382 212.897L225.95 212.471L225.644 208.655ZM225.512 207.053L225.578 207.119L225.524 207.167V207.053H225.512ZM225.146 202.565L226.382 201.335L228.866 203.825L226.382 206.309L225.368 205.307L225.146 202.565ZM224.918 199.901L225.566 200.543L225.02 201.089L224.918 199.901ZM224.318 192.731L225.518 193.931L224.498 195.011L224.318 192.743V192.731Z" fill="#E94057"/>
<g opacity="0.6">
<path d="M222.764 187.301L222.962 189.755L223.106 191.501L223.466 196.061L223.676 198.665L223.964 202.145L224.084 203.639L224.12 204.083L224.258 205.835L224.456 208.235L224.57 209.729L224.696 211.235L224.84 212.993L224.948 214.331L225.068 215.819L225.122 216.467H247.37L247.418 215.819L247.538 214.325L247.646 212.999L247.79 211.241L247.916 209.729L248.036 208.235L248.228 205.835L248.372 204.083L248.408 203.639L248.528 202.145L248.81 198.665L249.02 196.055L249.392 191.501L249.53 189.755L249.734 187.301H222.764ZM223.994 188.441H224.498L224.03 188.909L223.994 188.441ZM226.106 188.441H226.628L228.854 190.667L226.37 193.157L224.198 190.991L224.15 190.391L226.106 188.441ZM224.648 196.493L226.37 194.771L228.854 197.255L226.37 199.745L224.78 198.155L224.648 196.493ZM247.712 198.155L246.128 199.745L243.638 197.255L246.128 194.771L247.844 196.493L247.712 198.155ZM229.658 191.501L232.148 193.991L229.658 196.481L227.168 193.991L229.658 191.501ZM229.658 189.899L228.236 188.471H231.098L229.658 189.899ZM232.952 194.801L235.442 197.285L232.952 199.775L230.498 197.261L232.952 194.801ZM236.246 203.063L233.762 200.579L236.246 198.095L238.73 200.579L236.246 203.063ZM239.534 201.383L242.024 203.873L239.54 206.357L237.05 203.867L239.534 201.383ZM235.442 203.867L232.952 206.357L230.498 203.849L232.982 201.359L235.442 203.867ZM233.762 193.991L236.246 191.501L238.73 193.991L236.246 196.481L233.762 193.991ZM239.534 194.801L242.024 197.285L239.534 199.775L237.05 197.285L239.534 194.801ZM240.344 193.991L242.834 191.501L245.318 193.991L242.834 196.481L240.344 193.991ZM245.318 200.591L242.834 203.075L240.344 200.591L242.834 198.107L245.318 200.591ZM242.834 204.689L245.318 207.179L242.834 209.663L240.344 207.179L242.834 204.689ZM242.024 210.473L239.534 212.957L237.05 210.473L239.54 207.983L242.024 210.473ZM236.246 209.663L233.762 207.179L236.246 204.689L238.73 207.179L236.246 209.663ZM235.442 210.473L232.952 212.957L230.498 210.437L232.982 207.947L235.442 210.473ZM232.148 213.701L230.534 215.315H228.782L227.168 213.701L229.658 211.211L232.148 213.701ZM229.658 209.603L227.168 207.119L229.658 204.629L232.148 207.119L229.658 209.603ZM229.658 203.003L227.168 200.519L229.658 198.101L232.148 200.585L229.658 203.003ZM232.658 188.411H233.186L235.412 190.637L232.922 193.127L230.498 190.673L232.658 188.411ZM234.794 188.411H237.698L236.276 189.839L234.794 188.411ZM239.246 188.411H239.768L241.994 190.637L239.504 193.127L237.02 190.637L239.246 188.411ZM244.22 188.411L242.804 189.839L241.382 188.411H244.22ZM246.356 188.411L248.306 190.367L248.258 190.967L246.098 193.133L243.608 190.643L245.834 188.417L246.356 188.411ZM248.468 188.411L248.426 188.873L247.964 188.411H248.468ZM247.934 194.969L246.902 193.931L248.102 192.731L247.934 194.969ZM247.472 201.101L246.932 200.561L247.568 199.919L247.472 201.119V201.101ZM247.13 205.337L246.128 206.339L243.638 203.855L246.128 201.365L247.328 202.595L247.13 205.337ZM246.98 207.197L246.932 207.149L246.986 207.089V207.197H246.98ZM246.548 212.501L246.128 212.927L243.638 210.443L246.128 207.953L246.86 208.685L246.548 212.501ZM245.318 215.345L246.128 214.535L246.368 214.775L246.32 215.375L245.318 215.345ZM243.71 215.345H241.958L240.344 213.701L242.834 211.211L245.318 213.701L243.71 215.345ZM238.73 215.345L239.534 214.535L240.344 215.345H238.73ZM235.364 215.345L233.762 213.701L236.246 211.211L238.73 213.701L237.098 215.339L235.364 215.345ZM232.142 215.345L232.952 214.535L233.762 215.345H232.142ZM226.142 214.745L226.382 214.505L227.186 215.315H226.184L226.142 214.745ZM225.644 208.655L226.382 207.923L228.866 210.413L226.382 212.897L225.95 212.471L225.644 208.655ZM225.512 207.053L225.578 207.119L225.524 207.167V207.053H225.512ZM225.146 202.565L226.382 201.335L228.866 203.825L226.382 206.309L225.368 205.307L225.146 202.565ZM224.918 199.901L225.566 200.543L225.02 201.089L224.918 199.901ZM224.318 192.731L225.518 193.931L224.498 195.011L224.318 192.743V192.731Z" fill="white"/>
</g>
<path d="M250.304 186.293H222.194C221.65 186.293 221.21 186.734 221.21 187.277V188.477C221.21 189.021 221.65 189.461 222.194 189.461H250.304C250.847 189.461 251.288 189.021 251.288 188.477V187.277C251.288 186.734 250.847 186.293 250.304 186.293Z" fill="#E94057"/>
<path d="M224.36 217.943H248.132C248.675 217.943 249.116 217.502 249.116 216.959V215.759C249.116 215.216 248.675 214.775 248.132 214.775H224.36C223.816 214.775 223.376 215.216 223.376 215.759V216.959C223.376 217.502 223.816 217.943 224.36 217.943Z" fill="#E94057"/>
<path d="M226.694 115.949H162.248C160.959 115.98 159.723 116.468 158.759 117.325C157.796 118.182 157.167 119.352 156.986 120.629L149.498 181.745H223.298L230.804 120.629C230.896 120.042 230.857 119.442 230.691 118.871C230.525 118.301 230.236 117.774 229.844 117.327C229.452 116.881 228.967 116.526 228.422 116.288C227.878 116.05 227.288 115.934 226.694 115.949Z" fill="#263238"/>
<path opacity="0.6" d="M226.694 115.949H162.248C160.959 115.98 159.723 116.468 158.759 117.325C157.796 118.182 157.167 119.352 156.986 120.629L149.498 181.745H223.298L230.804 120.629C230.896 120.042 230.857 119.442 230.691 118.871C230.525 118.301 230.236 117.774 229.844 117.327C229.452 116.881 228.967 116.526 228.422 116.288C227.878 116.05 227.288 115.934 226.694 115.949Z" fill="white"/>
<path opacity="0.2" d="M209.024 181.745H223.298L230.804 120.629C230.895 120.042 230.857 119.442 230.691 118.871C230.525 118.301 230.236 117.774 229.844 117.327C229.452 116.881 228.966 116.526 228.422 116.288C227.878 116.05 227.288 115.934 226.694 115.949H221.792C220.503 115.98 219.267 116.468 218.303 117.325C217.34 118.182 216.711 119.352 216.53 120.629L209.024 181.745Z" fill="black"/>
<path d="M219.164 217.697H214.16L212.114 195.461H220.694L219.164 217.697Z" fill="#263238"/>
<path d="M197.204 217.697H192.2L190.16 195.461H198.734L197.204 217.697Z" fill="#263238"/>
<path d="M159.932 217.697H154.928L152.888 195.461H161.462L159.932 217.697Z" fill="#263238"/>
<path d="M137.972 217.697H132.974L130.928 195.461H139.502L137.972 217.697Z" fill="#263238"/>
<path opacity="0.2" d="M197.204 217.697H192.2L190.16 195.461H198.734L197.204 217.697Z" fill="white"/>
<path opacity="0.2" d="M137.972 217.697H132.974L130.928 195.461H139.502L137.972 217.697Z" fill="white"/>
<path d="M222.836 194.501L222.38 200.249C222.365 200.451 222.273 200.64 222.124 200.777C221.974 200.914 221.779 200.989 221.576 200.987H130.424C130.222 200.988 130.027 200.912 129.878 200.775C129.729 200.639 129.637 200.451 129.62 200.249L129.17 194.501H222.836Z" fill="#263238"/>
<path opacity="0.2" d="M201.128 194.501L200.672 200.249C200.657 200.451 200.565 200.64 200.416 200.777C200.266 200.914 200.071 200.989 199.868 200.987H130.424C130.222 200.988 130.027 200.912 129.878 200.775C129.729 200.639 129.637 200.451 129.62 200.249L129.17 194.501H201.128Z" fill="white"/>
<path d="M195.098 178.805H160.94L158.888 155.405C158.69 153.166 157.662 151.082 156.005 149.563C154.348 148.045 152.183 147.2 149.936 147.197H119.936C119.411 147.197 118.893 147.306 118.413 147.517C117.933 147.728 117.502 148.036 117.147 148.423C116.793 148.809 116.523 149.265 116.354 149.762C116.186 150.259 116.122 150.785 116.168 151.307L116.642 156.707C116.715 157.567 117.08 158.375 117.678 158.998C118.275 159.62 119.068 160.019 119.924 160.127L120.992 160.265C121.63 160.346 122.221 160.644 122.666 161.108C123.112 161.572 123.385 162.174 123.44 162.815L126.026 192.371C126.123 193.409 126.602 194.374 127.37 195.078C128.139 195.782 129.142 196.175 130.184 196.181H195.098V178.805Z" fill="#263238"/>
<path opacity="0.6" d="M195.098 178.805H160.94L158.888 155.405C158.69 153.166 157.662 151.082 156.005 149.563C154.348 148.045 152.183 147.2 149.936 147.197H119.936C119.411 147.197 118.893 147.306 118.413 147.517C117.933 147.728 117.502 148.036 117.147 148.423C116.793 148.809 116.523 149.265 116.354 149.762C116.186 150.259 116.122 150.785 116.168 151.307L116.642 156.707C116.715 157.567 117.08 158.375 117.678 158.998C118.275 159.62 119.068 160.019 119.924 160.127L120.992 160.265C121.63 160.346 122.221 160.644 122.666 161.108C123.112 161.572 123.385 162.174 123.44 162.815L126.026 192.371C126.123 193.409 126.602 194.374 127.37 195.078C128.139 195.782 129.142 196.175 130.184 196.181H195.098V178.805Z" fill="white"/>
<path opacity="0.2" d="M138.098 155.375C137.9 153.136 136.872 151.052 135.215 149.533C133.558 148.015 131.393 147.17 129.146 147.167H149.912C152.159 147.17 154.324 148.015 155.981 149.533C157.638 151.052 158.666 153.136 158.864 155.375L160.916 178.775H140.174L138.098 155.375Z" fill="black"/>
<path opacity="0.1" d="M195.098 178.805H140.174L138.122 155.405C137.924 153.166 136.896 151.082 135.239 149.563C133.582 148.045 131.417 147.2 129.17 147.197H119.948C119.423 147.197 118.905 147.306 118.425 147.517C117.944 147.728 117.514 148.036 117.159 148.423C116.805 148.809 116.535 149.265 116.366 149.762C116.197 150.259 116.134 150.785 116.18 151.307L116.654 156.707C116.727 157.567 117.092 158.375 117.69 158.998C118.287 159.62 119.08 160.019 119.936 160.127L121.004 160.265C121.642 160.346 122.233 160.644 122.678 161.108C123.124 161.572 123.397 162.174 123.452 162.815L126.038 192.371C126.135 193.409 126.614 194.374 127.382 195.078C128.151 195.782 129.154 196.175 130.196 196.181H195.098V178.805Z" fill="white"/>
<path d="M139.172 182.291H202.94C204.603 182.291 205.952 180.943 205.952 179.279V169.469C205.952 167.806 204.603 166.457 202.94 166.457H139.172C137.508 166.457 136.16 167.806 136.16 169.469V179.279C136.16 180.943 137.508 182.291 139.172 182.291Z" fill="#263238"/>
<path opacity="0.5" d="M136.16 169.469V179.285C136.16 180.081 136.476 180.844 137.039 181.406C137.601 181.969 138.364 182.285 139.16 182.285H202.94C203.736 182.285 204.499 181.969 205.061 181.406C205.624 180.844 205.94 180.081 205.94 179.285V169.469C205.94 168.673 205.624 167.91 205.061 167.348C204.499 166.785 203.736 166.469 202.94 166.469H139.172C138.777 166.468 138.386 166.544 138.02 166.694C137.655 166.844 137.323 167.065 137.043 167.344C136.763 167.622 136.541 167.954 136.389 168.318C136.238 168.683 136.16 169.074 136.16 169.469Z" fill="white"/>
<path opacity="0.1" d="M136.16 169.469V179.285C136.159 179.731 136.258 180.171 136.449 180.574C136.64 180.976 136.918 181.331 137.264 181.613H184.832C185.627 181.613 186.391 181.297 186.953 180.734C187.516 180.172 187.832 179.409 187.832 178.613V168.791C187.832 168.344 187.731 167.902 187.538 167.498C187.345 167.094 187.064 166.738 186.716 166.457H139.172C138.776 166.456 138.383 166.532 138.017 166.683C137.651 166.834 137.318 167.056 137.038 167.336C136.758 167.616 136.537 167.949 136.386 168.315C136.235 168.681 136.158 169.073 136.16 169.469Z" fill="white"/>
<path d="M178.358 127.187C176.264 129.711 174.041 132.124 171.698 134.417C169.034 136.949 166.622 139.301 163.19 141.125C162.216 141.629 161.088 141.744 160.032 141.446C158.977 141.149 158.075 140.461 157.508 139.523C155.972 136.895 156.056 133.793 156.008 131.027C156.067 127.739 156.388 124.46 156.968 121.223L160.346 121.439C160.55 124.553 160.784 127.727 161.162 130.745C161.324 132.468 161.689 134.166 162.248 135.803C162.344 136.025 162.458 136.193 162.476 136.175C162.355 136.012 162.202 135.874 162.027 135.771C161.852 135.668 161.657 135.601 161.456 135.575C161.093 135.496 160.715 135.527 160.37 135.665C160.955 135.276 161.514 134.849 162.044 134.387C166.028 130.895 169.574 126.749 173.12 122.807L178.34 127.211L178.358 127.187Z" fill="#EBC0BB"/>
<path d="M167.732 127.193L172.226 130.481L175.58 132.941L176.066 132.341L177.302 130.811L179.702 127.883L175.004 117.683C173.378 118.763 169.862 123.959 168.404 126.173C167.978 126.803 167.732 127.193 167.732 127.193Z" fill="#E94057"/>
<path opacity="0.3" d="M167.732 127.193L172.226 130.481L175.58 132.941L176.066 132.341L168.38 126.191C167.978 126.803 167.732 127.193 167.732 127.193Z" fill="white"/>
<path opacity="0.2" d="M172.226 130.481L175.58 132.941L177.302 130.811C176.9 127.415 176.48 123.947 176.48 123.947C174.631 125.812 173.183 128.036 172.226 130.481Z" fill="black"/>
<path d="M174.272 146.651L198.596 150.545C198.596 150.545 198.986 146.807 199.364 141.677C199.604 138.401 199.844 134.561 199.964 130.757C200.156 124.997 200.096 119.327 199.418 115.883C194.605 115.016 189.696 114.802 184.826 115.247C181.429 115.529 178.099 116.36 174.968 117.707C174.968 117.707 176.066 129.563 174.272 146.651Z" fill="#E94057"/>
<path d="M163.73 125.963H160.97C160.455 125.923 159.977 125.681 159.639 125.29C159.302 124.899 159.133 124.39 159.17 123.875V117.833C159.133 117.318 159.302 116.809 159.639 116.418C159.977 116.027 160.455 115.785 160.97 115.745H163.73V116.813H160.97C160.58 116.813 160.256 117.281 160.256 117.833V123.875C160.256 124.427 160.58 124.895 160.97 124.895H163.73V125.963Z" fill="#263238"/>
<path d="M161.15 117.293L159.578 117.245C159.288 117.237 159.002 117.318 158.758 117.476C158.515 117.635 158.326 117.864 158.216 118.133L156.98 120.833C156.737 121.433 156.618 122.077 156.631 122.724C156.643 123.372 156.786 124.01 157.052 124.601L157.388 125.399C160.028 125.693 162.692 123.671 162.692 123.671L163.52 123.209C164.258 122.801 164.474 121.745 164.012 120.809L162.944 118.607C162.79 118.247 162.543 117.935 162.227 117.704C161.912 117.473 161.539 117.331 161.15 117.293Z" fill="#EEC1BB"/>
<path d="M161.516 126.473H168.542C168.843 126.473 169.088 126.229 169.088 125.927V115.595C169.088 115.294 168.843 115.049 168.542 115.049H161.516C161.214 115.049 160.97 115.294 160.97 115.595V125.927C160.97 126.229 161.214 126.473 161.516 126.473Z" fill="#263238"/>
<path d="M165.356 109.673C166.076 110.039 165.956 111.083 165.776 111.713C165.596 112.343 165.236 112.859 165.356 113.567C164.156 112.559 165.74 110.903 165.356 109.673Z" fill="#263238"/>
<path d="M163.79 109.673C164.504 110.039 164.39 111.083 164.204 111.713C164.018 112.343 163.67 112.859 163.79 113.567C162.59 112.559 164.174 110.903 163.79 109.673Z" fill="#263238"/>
<path d="M166.928 109.673C167.642 110.039 167.528 111.083 167.342 111.713C167.156 112.343 166.808 112.859 166.928 113.567C165.728 112.559 167.306 110.903 166.928 109.673Z" fill="#263238"/>
<path opacity="0.7" d="M165.356 109.673C166.076 110.039 165.956 111.083 165.776 111.713C165.596 112.343 165.236 112.859 165.356 113.567C164.156 112.559 165.74 110.903 165.356 109.673Z" fill="white"/>
<path opacity="0.7" d="M163.79 109.673C164.504 110.039 164.39 111.083 164.204 111.713C164.018 112.343 163.67 112.859 163.79 113.567C162.59 112.559 164.174 110.903 163.79 109.673Z" fill="white"/>
<path opacity="0.7" d="M166.928 109.673C167.642 110.039 167.528 111.083 167.342 111.713C167.156 112.343 166.808 112.859 166.928 113.567C165.728 112.559 167.306 110.903 166.928 109.673Z" fill="white"/>
<path d="M157.676 130.469L159.392 129.611L165.392 131.633L173.792 129.959L175.298 136.331C175.298 136.331 175.298 143.327 174.896 143.381C174.494 143.435 165.434 143.381 165.434 143.381L161.006 140.189L157.676 130.469Z" fill="#E0E0E0"/>
<path d="M175.958 130.559L178.784 145.199L167.456 145.823L159.812 143.237L156.62 129.455L165.368 132.263L175.958 130.559Z" fill="#263238"/>
<path opacity="0.2" d="M165.368 132.263L167.456 145.823L178.784 145.205L175.958 130.559L165.368 132.263Z" fill="white"/>
<path opacity="0.1" d="M165.368 132.263L167.456 145.823L159.812 143.237L156.62 129.455L165.368 132.263Z" fill="white"/>
<path d="M172.976 140.501L168.386 138.977L169.094 145.061C169.094 145.061 173.294 145.487 173.744 143.261L172.976 140.501Z" fill="#EEC1BB"/>
<path d="M164.642 140.303L165.464 145.301L169.094 145.061L168.386 138.971L164.642 140.303Z" fill="#EEC1BB"/>
<path opacity="0.2" d="M199.364 141.701C199.604 138.425 199.844 134.585 199.964 130.781C197.798 126.785 195.716 123.425 195.716 123.425C195.716 123.425 185.57 131.699 199.364 141.701Z" fill="black"/>
<path d="M201.944 127.901C200.696 133.655 197.966 143.213 192.608 146.375C192.111 146.633 191.576 146.811 191.024 146.903C189.173 147.087 187.305 147.033 185.468 146.741C180.636 146.088 175.857 145.086 171.17 143.741L171.77 140.405L181.25 140.927C183.752 141.065 188.12 141.239 189.71 140.969L189.518 141.071C189.602 140.993 189.776 140.837 189.854 140.747C191.192 139.169 191.966 137.189 192.746 135.143C193.744 132.321 194.588 129.447 195.272 126.533L201.944 127.901Z" fill="#EBC0BB"/>
<path d="M192.596 131.207L202.328 133.487L202.598 132.323C204.296 124.523 203.636 116.723 199.424 115.877C199.424 115.877 196.484 117.353 195.17 119.921C194.144 121.901 193.16 127.595 192.77 130.049C192.662 130.763 192.596 131.207 192.596 131.207Z" fill="#E94057"/>
<path opacity="0.2" d="M183.08 136.763C185.588 136.763 187.622 134.203 187.622 131.045C187.622 127.887 185.588 125.327 183.08 125.327C180.571 125.327 178.538 127.887 178.538 131.045C178.538 134.203 180.571 136.763 183.08 136.763Z" fill="white"/>
<path d="M188.852 132.095L178.37 127.439L177.728 129.857L188.45 134.579L188.852 132.095Z" fill="#E94057"/>
<path opacity="0.3" d="M188.852 132.095L178.37 127.439L177.728 129.857L188.45 134.579L188.852 132.095Z" fill="white"/>
<path opacity="0.2" d="M183.29 133.607L181.22 132.611V133.439L183.08 134.249L183.29 133.607Z" fill="white"/>
<path opacity="0.3" d="M188.204 128.567C188.204 128.567 186.788 125.519 184.718 124.799C182.648 124.079 180.32 125.657 180.32 125.657L180.038 124.985C180.038 124.985 182.522 123.545 184.778 124.199C187.034 124.853 188.582 128.315 188.582 128.315L188.204 128.567Z" fill="white"/>
<path opacity="0.3" d="M181.418 136.901C180.008 136.391 178.826 134.237 178.826 134.237L178.34 134.555C178.946 135.824 179.96 136.853 181.22 137.477C183.302 138.479 185.72 136.877 185.72 136.877L185.396 136.457C184.811 136.83 184.148 137.063 183.458 137.14C182.769 137.217 182.071 137.135 181.418 136.901Z" fill="white"/>
<path opacity="0.3" d="M192.596 131.207L202.328 133.487L202.598 132.323L192.764 130.049C192.662 130.763 192.596 131.207 192.596 131.207Z" fill="white"/>
<path opacity="0.3" d="M183.926 121.049C188.864 121.433 193.826 115.841 193.826 115.841C193.6 115.574 193.346 115.33 193.07 115.115C190.325 114.933 187.57 114.975 184.832 115.241C183.72 115.715 182.65 116.283 181.634 116.939C181.634 116.939 180.014 120.755 183.926 121.049Z" fill="white"/>
<path d="M189.536 103.739C189.536 104.381 189.536 105.119 189.536 105.911C189.674 109.463 190.376 114.005 192.674 115.559C191.8 116.84 190.66 117.916 189.331 118.714C188.002 119.513 186.517 120.015 184.976 120.185C181.976 120.611 181.49 118.565 181.976 117.311C183.085 116.939 184.002 116.143 184.526 115.097C185.126 113.669 184.64 111.971 183.926 110.375L189.536 103.739Z" fill="#EEC1BB"/>
<path d="M180.404 98.7471C182.438 99.6111 182.03 101.837 178.604 105.875C176.528 104.075 175.436 99.9531 176.54 98.6751C177.644 97.3971 178.628 98.0031 180.404 98.7471Z" fill="#263238"/>
<path d="M188.786 100.571C189.284 103.829 189.746 106.073 189.272 108.113C189.093 108.88 188.785 109.61 188.36 110.273C185.762 114.365 179.96 113.519 177.95 109.385C177.89 109.253 177.83 109.115 177.776 108.977C176.12 105.197 175.508 98.945 179.276 96.377C180.134 95.7852 181.13 95.4232 182.168 95.3255C183.205 95.2277 184.251 95.3975 185.205 95.8187C186.158 96.2399 186.988 96.8984 187.615 97.7313C188.242 98.5643 188.645 99.544 188.786 100.577V100.571Z" fill="#EEC1BB"/>
<path d="M182.498 103.169C182.57 103.529 182.444 103.859 182.21 103.907C181.976 103.955 181.736 103.709 181.658 103.355C181.58 103.001 181.706 102.671 181.934 102.617C182.162 102.563 182.42 102.827 182.498 103.169Z" fill="#263238"/>
<path d="M178.478 104.045C178.556 104.405 178.424 104.735 178.196 104.783C177.968 104.831 177.71 104.585 177.632 104.225C177.554 103.865 177.68 103.541 177.914 103.493C178.148 103.445 178.4 103.691 178.478 104.045Z" fill="#263238"/>
<path d="M179.834 103.931C179.641 105.11 179.288 106.257 178.784 107.339C179.069 107.464 179.378 107.525 179.689 107.517C180 107.508 180.306 107.431 180.584 107.291L179.834 103.931Z" fill="#ED847E"/>
<path d="M183.35 101.657C183.397 101.656 183.442 101.636 183.476 101.603C183.496 101.583 183.512 101.559 183.523 101.533C183.534 101.507 183.539 101.478 183.539 101.45C183.539 101.422 183.534 101.393 183.523 101.367C183.512 101.341 183.496 101.317 183.476 101.297C183.225 101.069 182.922 100.905 182.594 100.818C182.267 100.732 181.923 100.725 181.592 100.799C181.565 100.805 181.54 100.817 181.518 100.833C181.496 100.849 181.477 100.87 181.463 100.893C181.449 100.917 181.44 100.943 181.437 100.97C181.433 100.997 181.435 101.025 181.442 101.051C181.457 101.106 181.494 101.152 181.543 101.18C181.592 101.208 181.651 101.216 181.706 101.201C181.968 101.146 182.24 101.154 182.499 101.225C182.758 101.296 182.996 101.428 183.194 101.609C183.238 101.644 183.294 101.661 183.35 101.657Z" fill="#263238"/>
<path d="M176.342 103.079C176.381 103.07 176.417 103.05 176.446 103.023C176.476 102.996 176.498 102.961 176.51 102.923C176.565 102.66 176.683 102.415 176.852 102.206C177.021 101.998 177.237 101.832 177.482 101.723C177.535 101.703 177.578 101.663 177.601 101.611C177.625 101.559 177.627 101.5 177.608 101.447C177.59 101.395 177.552 101.352 177.503 101.327C177.454 101.302 177.396 101.298 177.344 101.315C177.03 101.447 176.752 101.653 176.535 101.915C176.318 102.177 176.167 102.488 176.096 102.821C176.089 102.847 176.087 102.875 176.091 102.902C176.094 102.929 176.103 102.955 176.117 102.979C176.131 103.002 176.15 103.023 176.172 103.039C176.194 103.055 176.219 103.067 176.246 103.073H176.342V103.079Z" fill="#263238"/>
<path d="M186.218 97.0671C184.322 98.2071 185.048 100.361 189.008 103.865C190.808 101.771 191.306 97.5531 190.022 96.4251C188.738 95.2971 187.898 96.1011 186.218 97.0671Z" fill="#263238"/>
<path d="M181.376 109.469C181.339 109.468 181.303 109.455 181.274 109.431C181.246 109.407 181.227 109.374 181.22 109.337C181.214 109.295 181.225 109.253 181.249 109.218C181.274 109.184 181.31 109.16 181.352 109.151C181.894 109.101 182.412 108.904 182.851 108.581C183.289 108.259 183.632 107.823 183.842 107.321C183.847 107.301 183.857 107.282 183.87 107.265C183.883 107.249 183.899 107.236 183.918 107.226C183.937 107.216 183.957 107.211 183.978 107.21C183.999 107.208 184.02 107.212 184.04 107.219C184.08 107.23 184.113 107.257 184.133 107.293C184.154 107.329 184.159 107.371 184.148 107.411C183.925 107.974 183.55 108.464 183.064 108.826C182.579 109.188 182.003 109.409 181.4 109.463L181.376 109.469Z" fill="#263238"/>
<path d="M186.518 98.5491C186.518 98.5491 186.302 96.1131 183.176 96.2571C180.05 96.4011 179.012 99.8571 179.012 99.8571C178.831 99.5244 178.723 99.1571 178.695 98.7795C178.667 98.402 178.72 98.0228 178.85 97.6671C178.153 98.437 177.745 99.4256 177.698 100.463C177.698 100.463 177.098 99.9711 176.924 98.2731L176.24 100.301C176.24 100.301 174.644 97.6071 178.166 94.5231C181.688 91.4391 191.42 92.3691 189.458 96.7191L186.518 98.5491Z" fill="#263238"/>
<path d="M180.962 105.317C180.88 105.317 180.801 105.292 180.734 105.245C180.686 105.215 180.645 105.176 180.613 105.129C180.581 105.083 180.559 105.03 180.548 104.975L180.242 103.457C180.221 103.347 180.244 103.232 180.307 103.139C180.37 103.045 180.467 102.981 180.578 102.959L183.344 102.401C183.398 102.39 183.454 102.389 183.509 102.4C183.563 102.41 183.615 102.431 183.662 102.462C183.708 102.493 183.748 102.532 183.779 102.579C183.81 102.625 183.831 102.677 183.842 102.731L184.148 104.255C184.17 104.365 184.149 104.479 184.088 104.573C184.023 104.664 183.927 104.728 183.818 104.753L181.046 105.311H180.962V105.317ZM183.416 102.695L180.644 103.253C180.612 103.26 180.585 103.279 180.567 103.306C180.549 103.333 180.542 103.365 180.548 103.397L180.86 104.921C180.868 104.951 180.884 104.978 180.908 104.999C180.939 105.011 180.973 105.011 181.004 104.999L183.77 104.441C183.786 104.438 183.801 104.431 183.814 104.422C183.828 104.413 183.839 104.401 183.848 104.387C183.859 104.358 183.859 104.326 183.848 104.297L183.542 102.773C183.532 102.751 183.516 102.732 183.496 102.72C183.476 102.707 183.452 102.7 183.428 102.701L183.416 102.695Z" fill="#263238"/>
<path d="M176.438 106.229C176.34 106.229 176.245 106.195 176.169 106.133C176.093 106.07 176.042 105.983 176.024 105.887L175.718 104.369C175.706 104.315 175.706 104.259 175.717 104.204C175.727 104.149 175.748 104.097 175.779 104.051C175.81 104.005 175.849 103.965 175.895 103.934C175.941 103.903 175.993 103.882 176.048 103.871L178.814 103.313C178.868 103.302 178.924 103.301 178.979 103.312C179.033 103.322 179.085 103.343 179.132 103.374C179.178 103.405 179.218 103.444 179.249 103.491C179.28 103.537 179.301 103.589 179.312 103.643L179.618 105.167C179.629 105.221 179.63 105.278 179.619 105.332C179.609 105.387 179.588 105.439 179.557 105.485C179.526 105.531 179.487 105.571 179.44 105.602C179.394 105.633 179.342 105.654 179.288 105.665L176.522 106.217L176.438 106.229ZM178.892 103.601L176.126 104.159C176.094 104.166 176.067 104.185 176.049 104.212C176.031 104.239 176.024 104.271 176.03 104.303L176.336 105.821C176.339 105.837 176.345 105.852 176.354 105.866C176.362 105.879 176.374 105.891 176.387 105.9C176.401 105.909 176.416 105.915 176.432 105.918C176.448 105.921 176.464 105.921 176.48 105.917L179.246 105.365C179.277 105.358 179.305 105.339 179.322 105.312C179.34 105.285 179.347 105.253 179.342 105.221L179.036 103.697C179.03 103.666 179.012 103.639 178.986 103.621C178.961 103.603 178.929 103.596 178.898 103.601H178.892Z" fill="#263238"/>
<path d="M179.246 104.213C179.227 104.213 179.208 104.21 179.19 104.203C179.173 104.195 179.157 104.185 179.144 104.171C179.116 104.143 179.101 104.105 179.101 104.066C179.101 104.027 179.116 103.989 179.144 103.961C179.324 103.785 179.551 103.664 179.798 103.613C180.044 103.562 180.301 103.583 180.536 103.673C180.555 103.68 180.572 103.691 180.586 103.705C180.6 103.719 180.612 103.736 180.62 103.754C180.627 103.773 180.632 103.793 180.632 103.813C180.632 103.833 180.628 103.853 180.62 103.871C180.613 103.89 180.603 103.906 180.59 103.921C180.576 103.935 180.56 103.947 180.542 103.955C180.524 103.962 180.505 103.966 180.485 103.967C180.465 103.967 180.446 103.963 180.428 103.955C180.249 103.885 180.054 103.868 179.866 103.905C179.678 103.943 179.505 104.033 179.366 104.165C179.351 104.182 179.332 104.194 179.311 104.203C179.291 104.211 179.268 104.215 179.246 104.213Z" fill="#263238"/>
<path d="M183.758 103.235C183.724 103.234 183.691 103.222 183.665 103.2C183.639 103.179 183.621 103.148 183.614 103.115C183.609 103.096 183.609 103.076 183.612 103.056C183.615 103.037 183.623 103.018 183.633 103.001C183.644 102.985 183.658 102.97 183.674 102.959C183.69 102.947 183.708 102.939 183.728 102.935L188.96 101.735C188.979 101.731 188.999 101.73 189.019 101.733C189.038 101.737 189.057 101.744 189.074 101.755C189.09 101.765 189.105 101.779 189.116 101.795C189.127 101.811 189.136 101.83 189.14 101.849C189.144 101.868 189.145 101.888 189.141 101.908C189.138 101.927 189.131 101.946 189.12 101.963C189.11 101.98 189.096 101.994 189.08 102.005C189.063 102.017 189.045 102.025 189.026 102.029L183.794 103.229L183.758 103.235Z" fill="#263238"/>
<path d="M191.624 103.619C191.547 104.744 191.027 105.793 190.178 106.535C189.05 107.507 187.856 106.643 187.64 105.245C187.448 103.985 187.808 101.963 189.2 101.531C190.592 101.099 191.714 102.239 191.624 103.619Z" fill="#EEC1BB"/>
<path d="M127.406 203.465C127.406 203.465 137.372 167.369 139.022 165.293C141.698 161.903 167.498 158.321 167.498 158.321L174.248 146.651L198.62 150.065C198.62 150.065 196.82 167.207 193.82 171.623C190.82 176.039 151.55 175.301 148.94 176.159C146.33 177.017 136.454 205.193 136.454 205.193L127.406 203.465Z" fill="#263238"/>
<path opacity="0.2" d="M167.522 158.321L176.324 157.331L168.464 156.695L167.522 158.321Z" fill="black"/>
<path opacity="0.2" d="M127.406 203.459L136.496 205.187C136.496 205.187 146.366 177.017 148.982 176.159C151.598 175.301 190.88 176.039 193.862 171.623C196.844 167.207 198.662 150.065 198.662 150.065L174.29 146.651L172.298 150.101L171.182 152.027L167.498 158.321C167.498 158.321 141.698 161.921 138.998 165.293C137.372 167.363 127.406 203.459 127.406 203.459Z" fill="white"/>
<path d="M185.804 156.701C185.804 156.701 157.508 145.859 149.804 148.865C142.1 151.871 117.74 179.051 117.74 179.051L123.248 186.023C123.248 186.023 147.92 162.581 150.806 161.243C153.692 159.905 182.666 174.443 182.666 174.443L185.804 156.701Z" fill="#263238"/>
<path opacity="0.2" d="M185.804 156.701C185.804 156.701 157.508 145.859 149.804 148.865C142.1 151.871 117.74 179.051 117.74 179.051L123.248 186.023C123.248 186.023 147.92 162.581 150.806 161.243C153.692 159.905 182.666 174.443 182.666 174.443L185.804 156.701Z" fill="white"/>
<path d="M113.684 189.941L111.224 185.813L118.682 178.847L121.136 182.969L113.684 189.941Z" fill="#EEC1BB"/>
<path opacity="0.2" d="M121.136 182.969L118.676 178.847L114.416 182.831L117.032 186.815L121.136 182.969Z" fill="black"/>
<path d="M110.792 185.303C110.792 185.303 110.762 185.231 110.792 185.225L110.756 185.147L110.798 185.219C110.852 185.177 111.95 184.373 111.998 183.707C112 183.624 111.983 183.542 111.948 183.466C111.914 183.39 111.863 183.323 111.8 183.269C111.734 183.202 111.647 183.159 111.553 183.147C111.46 183.135 111.365 183.155 111.284 183.203C110.976 183.481 110.778 183.86 110.726 184.271C110.666 183.809 110.443 183.383 110.096 183.071C110.033 183.037 109.963 183.019 109.892 183.019C109.821 183.019 109.75 183.037 109.688 183.071C109.583 183.114 109.492 183.186 109.426 183.278C109.36 183.371 109.322 183.48 109.316 183.593C109.35 183.912 109.502 184.207 109.742 184.421C110.035 184.732 110.363 185.008 110.72 185.243C110.717 185.249 110.716 185.255 110.716 185.261C110.716 185.267 110.717 185.274 110.72 185.279C110.72 185.279 110.72 185.279 110.756 185.279C110.765 185.29 110.778 185.298 110.792 185.303ZM111.344 183.419C111.398 183.383 111.488 183.359 111.608 183.467L111.65 183.503C111.709 183.571 111.739 183.659 111.734 183.749C111.734 184.145 111.182 184.685 110.834 184.985V184.871C110.83 184.343 111.011 183.829 111.344 183.419ZM109.496 183.641C109.504 183.57 109.531 183.503 109.573 183.445C109.615 183.387 109.671 183.341 109.736 183.311C109.767 183.295 109.802 183.286 109.838 183.286C109.873 183.286 109.908 183.295 109.94 183.311C110.24 183.467 110.474 184.325 110.588 184.979C109.898 184.445 109.484 183.959 109.496 183.641Z" fill="#E94057"/>
<path d="M111.452 185.171L115.052 189.173C115.115 189.237 115.15 189.323 115.15 189.413C115.15 189.503 115.115 189.589 115.052 189.653L112.052 192.707C111.885 192.858 111.666 192.938 111.441 192.928C111.216 192.917 111.004 192.819 110.852 192.653C109.616 191.237 109.094 190.499 107.516 188.729C106.544 187.649 104.516 185.597 103.424 183.929C102.332 182.261 104.024 181.199 104.624 181.817C106.088 183.281 108.962 184.463 110.624 184.757C110.94 184.793 111.233 184.94 111.452 185.171Z" fill="#263238"/>
<path d="M122.36 188.231L115.25 180.419L118.22 176.903L125.852 185.621L122.36 188.231Z" fill="#E94057"/>
<path opacity="0.2" d="M122.36 188.231L115.25 180.419L118.22 176.903L125.852 185.621L122.36 188.231Z" fill="white"/>
<path d="M125.702 211.523C125.702 211.523 125.642 211.475 125.642 211.469L125.576 211.415L125.648 211.463C125.648 211.391 126.248 210.155 125.942 209.567C125.904 209.492 125.849 209.426 125.781 209.376C125.714 209.326 125.635 209.293 125.552 209.279C125.462 209.252 125.365 209.256 125.278 209.291C125.191 209.326 125.118 209.389 125.072 209.471C124.939 209.862 124.952 210.288 125.108 210.671C124.754 210.299 124.316 209.927 123.974 209.945C123.903 209.948 123.834 209.97 123.774 210.008C123.714 210.046 123.665 210.098 123.632 210.161C123.561 210.25 123.517 210.356 123.504 210.469C123.491 210.581 123.511 210.695 123.56 210.797C123.748 211.059 124.025 211.243 124.34 211.313C124.748 211.438 125.168 211.518 125.594 211.553C125.599 211.556 125.606 211.558 125.612 211.558C125.618 211.558 125.624 211.556 125.63 211.553C125.63 211.553 125.63 211.553 125.66 211.553C125.677 211.549 125.692 211.538 125.702 211.523ZM125.27 209.609C125.27 209.549 125.36 209.489 125.522 209.525H125.57C125.613 209.539 125.653 209.562 125.687 209.592C125.721 209.622 125.748 209.658 125.768 209.699C125.868 210.209 125.805 210.738 125.588 211.211L125.516 211.121C125.259 210.662 125.171 210.126 125.27 209.609ZM123.758 210.701C123.732 210.634 123.724 210.561 123.733 210.49C123.743 210.419 123.77 210.351 123.812 210.293C123.829 210.263 123.853 210.237 123.883 210.219C123.912 210.2 123.945 210.188 123.98 210.185C124.316 210.185 124.946 210.785 125.36 211.325C124.496 211.211 123.902 210.989 123.758 210.701Z" fill="#E94057"/>
<path d="M130.49 214.157L126.332 211.757L129.644 201.659L133.802 204.065L130.49 214.157Z" fill="#EEC1BB"/>
<path opacity="0.2" d="M133.802 204.065L129.644 201.665L127.748 207.437L131.984 209.627L133.802 204.065Z" fill="black"/>
<path d="M126.218 211.085L131.324 212.813C131.367 212.825 131.406 212.846 131.441 212.874C131.476 212.902 131.504 212.936 131.526 212.975C131.547 213.014 131.56 213.057 131.565 213.102C131.569 213.146 131.565 213.19 131.552 213.233L130.436 217.361C130.363 217.572 130.211 217.747 130.011 217.846C129.811 217.946 129.58 217.964 129.368 217.895C127.598 217.265 126.782 216.875 124.568 216.095C123.188 215.621 120.422 214.829 118.64 213.887C116.858 212.945 117.83 211.211 118.67 211.451C120.656 212.015 123.746 211.649 125.366 211.073C125.644 210.986 125.942 210.99 126.218 211.085Z" fill="#263238"/>
<path d="M136.106 208.427L126.092 205.085L126.962 200.567L137.882 204.449L136.106 208.427Z" fill="#E94057"/>
<path opacity="0.2" d="M136.106 208.427L126.092 205.085L126.962 200.567L137.882 204.449L136.106 208.427Z" fill="white"/>
<path opacity="0.2" d="M179.894 173.093C179.894 173.093 154.694 160.403 150.104 158.693C145.514 156.983 135.704 162.431 133.994 175.907L136.016 173.699C136.016 173.699 138.368 166.337 139.016 165.299C139.664 164.261 151.76 162.467 151.76 162.467C151.76 162.467 170.444 171.833 179.894 173.093Z" fill="black"/>
<path opacity="0.2" d="M171.164 152.021L182.654 155.537C182.654 155.537 175.952 151.769 172.298 150.101L171.164 152.021Z" fill="black"/>
<path opacity="0.4" d="M191.018 149.693L198.644 150.647L198.35 152.957L190.22 151.997L191.018 149.693Z" fill="black"/>
<path opacity="0.4" d="M189.854 149.483L189.05 151.811L173.348 149.321L174.326 147.227L189.854 149.483Z" fill="black"/>
<path d="M181.586 148.901L181.052 150.437C180.981 150.624 180.849 150.782 180.676 150.883C180.504 150.985 180.302 151.024 180.104 150.995L177.41 150.527C177.321 150.514 177.237 150.481 177.163 150.431C177.088 150.381 177.026 150.315 176.981 150.238C176.935 150.161 176.908 150.075 176.9 149.986C176.892 149.897 176.904 149.807 176.936 149.723L177.47 148.181C177.539 147.995 177.671 147.838 177.843 147.737C178.014 147.637 178.215 147.599 178.412 147.629L181.106 148.097C181.195 148.109 181.28 148.142 181.355 148.191C181.43 148.241 181.493 148.307 181.539 148.384C181.585 148.461 181.613 148.548 181.621 148.637C181.629 148.727 181.617 148.817 181.586 148.901Z" fill="white"/>
<path d="M189.752 177.479L191.684 155.375C191.882 153.136 192.91 151.052 194.567 149.533C196.223 148.015 198.388 147.17 200.636 147.167H233.714C234.238 147.167 234.757 147.276 235.237 147.487C235.717 147.698 236.148 148.006 236.503 148.393C236.857 148.779 237.127 149.235 237.296 149.732C237.464 150.228 237.528 150.755 237.482 151.277L237.008 156.677C236.934 157.537 236.567 158.346 235.968 158.968C235.37 159.591 234.576 159.989 233.72 160.097L232.658 160.235C232.02 160.316 231.429 160.614 230.983 161.078C230.538 161.542 230.265 162.144 230.21 162.785L227.624 192.341C227.527 193.379 227.048 194.344 226.279 195.048C225.511 195.752 224.508 196.145 223.466 196.151H189.752V177.479Z" fill="#263238"/>
<path opacity="0.6" d="M189.752 177.479L191.684 155.375C191.882 153.136 192.91 151.052 194.567 149.533C196.223 148.015 198.388 147.17 200.636 147.167H233.714C234.238 147.167 234.757 147.276 235.237 147.487C235.717 147.698 236.148 148.006 236.503 148.393C236.857 148.779 237.127 149.235 237.296 149.732C237.464 150.228 237.528 150.755 237.482 151.277L237.008 156.677C236.934 157.537 236.567 158.346 235.968 158.968C235.37 159.591 234.576 159.989 233.72 160.097L232.658 160.235C232.02 160.316 231.429 160.614 230.983 161.078C230.538 161.542 230.265 162.144 230.21 162.785L227.624 192.341C227.527 193.379 227.048 194.344 226.279 195.048C225.511 195.752 224.508 196.145 223.466 196.151H189.752V177.479Z" fill="white"/>
<g opacity="0.2">
<path d="M203.768 192.329L206.354 162.773C206.409 162.132 206.682 161.53 207.128 161.066C207.573 160.602 208.164 160.304 208.802 160.223L209.87 160.085C210.726 159.978 211.52 159.58 212.117 158.957C212.715 158.334 213.08 157.525 213.152 156.665L213.626 151.265C213.672 150.743 213.608 150.217 213.44 149.72C213.271 149.223 213.001 148.767 212.647 148.381C212.292 147.994 211.861 147.686 211.381 147.475C210.901 147.264 210.382 147.155 209.858 147.155H233.714C234.238 147.155 234.757 147.264 235.237 147.475C235.717 147.686 236.148 147.994 236.503 148.381C236.857 148.767 237.127 149.223 237.296 149.72C237.464 150.217 237.528 150.743 237.482 151.265L237.008 156.665C236.934 157.525 236.567 158.334 235.968 158.956C235.37 159.579 234.576 159.977 233.72 160.085L232.658 160.223C232.02 160.304 231.429 160.602 230.983 161.066C230.538 161.53 230.265 162.132 230.21 162.773L227.624 192.329C227.527 193.367 227.048 194.332 226.279 195.036C225.511 195.74 224.508 196.133 223.466 196.139H199.61C200.652 196.133 201.655 195.74 202.423 195.036C203.192 194.332 203.671 193.367 203.768 192.329Z" fill="black"/>
</g>
<path opacity="0.1" d="M189.752 177.479L191.684 155.375C191.882 153.136 192.91 151.052 194.567 149.533C196.223 148.015 198.388 147.17 200.636 147.167H209.858C210.382 147.167 210.901 147.276 211.381 147.487C211.861 147.698 212.292 148.006 212.647 148.393C213.001 148.779 213.271 149.235 213.44 149.732C213.608 150.228 213.672 150.755 213.626 151.277L213.152 156.677C213.08 157.537 212.715 158.346 212.117 158.969C211.52 159.592 210.726 159.99 209.87 160.097L208.802 160.235C208.164 160.316 207.573 160.614 207.127 161.078C206.682 161.542 206.409 162.144 206.354 162.785L203.768 192.341C203.671 193.379 203.192 194.344 202.423 195.048C201.655 195.752 200.652 196.145 199.61 196.151H189.752V177.479Z" fill="white"/>
</svg>
